<?xml version="1.0" standalone="no"?>
<!DOCTYPE svg PUBLIC "-//W3C//DTD SVG 20010904//EN"
 "http://www.w3.org/TR/2001/REC-SVG-20010904/DTD/svg10.dtd">
<svg version="1.0" xmlns="http://www.w3.org/2000/svg"
 width="338.000000pt" height="210.000000pt" viewBox="0 0 338.000000 210.000000"
 preserveAspectRatio="xMidYMid meet">

<g transform="translate(0.000000,210.000000) scale(0.100000,-0.100000)"
fill="#000000" stroke="none">
<path d="M0 1050 l0 -1050 1690 0 1690 0 0 1050 0 1050 -1690 0 -1690 0 0
-1050z m824 438 c8 -14 7 -21 -6 -34 -30 -30 -75 9 -48 42 16 18 39 15 54 -8z
m975 -2 c17 -20 2 -46 -25 -46 -29 0 -41 24 -24 45 16 19 34 19 49 1z m79 -19
c3 -23 0 -27 -23 -27 -30 0 -43 24 -25 46 19 22 45 13 48 -19z m712 -22 c20
-25 8 -50 -25 -50 -21 0 -31 5 -33 18 -4 21 14 47 33 47 7 0 18 -7 25 -15z
m418 6 c8 -4 12 -19 10 -32 -4 -29 -45 -34 -61 -7 -19 30 19 60 51 39z m-890
-144 l3 -129 -35 3 c-19 2 -38 0 -42 -4 -17 -17 -63 -6 -84 21 -18 22 -21 36
-18 81 6 64 34 95 80 89 27 -4 28 -3 28 34 0 38 1 39 33 36 l32 -3 3 -128z
m-227 84 c25 -26 29 -37 29 -86 0 -68 -19 -108 -60 -125 -38 -16 -98 -7 -123
18 -46 47 -41 162 10 201 40 33 107 29 144 -8z m394 -46 c20 -19 25 -34 25
-75 0 -41 -5 -56 -25 -75 -53 -54 -145 -16 -145 60 l0 35 56 0 c40 0 54 3 51
13 -2 6 -19 12 -38 12 -57 0 -80 27 -36 45 42 17 87 11 112 -15z m196 15 c16
-9 19 -22 19 -95 l0 -85 -30 0 -30 0 0 71 c0 62 -2 70 -17 67 -15 -3 -19 -16
-21 -71 -3 -67 -3 -67 -32 -67 l-30 0 0 89 0 90 43 4 c23 2 50 4 60 5 10 1 27
-3 38 -8z m263 -1 c20 -10 23 -15 16 -30 -8 -14 -18 -16 -45 -12 -48 8 -44 -2
10 -26 40 -18 45 -24 45 -52 0 -25 3 -29 13 -21 8 7 29 9 50 5 48 -7 49 11 2
27 -96 32 -51 135 49 116 41 -8 53 -21 36 -41 -7 -9 -23 -12 -46 -8 -46 8 -43
-2 10 -26 48 -21 63 -48 46 -80 -22 -42 -81 -53 -133 -26 -25 13 -31 13 -53
-2 -22 -14 -23 -18 -10 -25 19 -11 21 -39 4 -56 -12 -12 -70 -17 -81 -6 -11
12 5 34 27 35 16 1 17 2 4 6 -10 2 -18 10 -18 18 0 7 -13 18 -30 25 -51 21
-27 53 33 43 50 -8 47 8 -5 32 -36 17 -44 25 -46 52 -5 53 59 80 122 52z
m-144 -89 l0 -90 -35 0 -35 0 0 90 0 90 35 0 35 0 0 -90z m420 0 l0 -90 -30 0
-30 0 0 90 0 90 30 0 30 0 0 -90z m170 71 c0 -10 -16 -38 -35 -62 l-35 -44 33
-5 c24 -4 32 -10 32 -25 0 -18 -8 -20 -77 -23 -69 -3 -78 -1 -78 15 0 10 16
38 36 63 l36 45 -29 5 c-19 4 -29 12 -31 28 -3 21 0 22 72 22 67 0 76 -2 76
-19z m-1856 -65 c18 -8 46 -31 62 -52 28 -36 29 -43 32 -158 3 -112 2 -124
-20 -166 -43 -79 -62 -84 -303 -90 l-210 -5 0 -25 c0 -25 0 -25 108 -28 l107
-3 0 -67 c0 -79 -20 -126 -70 -160 -30 -20 -44 -22 -169 -22 -128 0 -139 1
-172 24 -62 43 -69 70 -69 281 l0 187 29 29 29 29 182 0 182 0 29 29 c28 28
29 33 29 120 l0 91 95 0 c59 0 108 -5 129 -14z m846 -368 c1 -68 2 -72 16 -53
8 11 19 26 23 33 5 8 21 12 40 10 l31 -3 -25 -38 -26 -38 30 -49 31 -50 -38 0
c-35 0 -40 4 -59 43 l-22 42 0 -42 c-1 -41 -2 -43 -31 -43 l-30 0 0 130 0 130
30 0 30 0 0 -72z m440 -28 c0 -23 -4 -30 -20 -30 -25 0 -40 -35 -40 -91 0 -37
-2 -39 -30 -39 l-30 0 0 91 0 91 34 -3 c19 -2 38 0 42 4 4 4 16 7 26 7 13 0
18 -8 18 -30z m134 17 c29 -21 11 -46 -30 -40 -44 7 -43 -2 3 -24 48 -23 60
-44 47 -80 -15 -43 -93 -56 -143 -24 -12 8 -12 12 -2 25 10 12 23 14 52 10 51
-9 50 7 -3 31 -36 17 -44 25 -46 52 -2 23 3 35 20 47 27 19 78 21 102 3z
m-384 -68 c0 -52 3 -70 13 -67 7 3 13 29 15 71 l3 67 34 0 35 0 0 -91 0 -91
-32 3 c-18 1 -41 -1 -50 -5 -29 -13 -62 -2 -75 24 -7 14 -13 55 -13 93 l0 67
35 0 35 0 0 -71z"/>
<path d="M2012 1308 c-26 -26 -8 -96 22 -85 11 5 16 19 16 52 0 46 -13 58 -38
33z"/>
<path d="M1780 1351 c-23 -45 -4 -131 29 -131 41 0 63 67 41 124 -12 32 -54
36 -70 7z"/>
<path d="M2203 1238 c2 -7 12 -13 22 -13 10 0 20 6 23 13 2 7 -6 12 -23 12
-17 0 -25 -5 -22 -12z"/>
</g>
</svg>
