<?xml version="1.0"?>
<svg xmlns="http://www.w3.org/2000/svg" xmlns:xlink="http://www.w3.org/1999/xlink" xmlns:svgjs="http://svgjs.com/svgjs" version="1.1" width="512" height="512" x="0" y="0" viewBox="0 0 512.001 512" style="enable-background:new 0 0 512 512" xml:space="preserve"><g><path xmlns="http://www.w3.org/2000/svg" d="m443.378906 182.136719h-153.9375c-4.144531 0-7.5 3.359375-7.5 7.5 0 4.144531 3.355469 7.5 7.5 7.5h153.9375c4.144532 0 7.5-3.355469 7.5-7.5 0-4.140625-3.359375-7.5-7.5-7.5zm0 0" fill="#ffae00" data-original="#000000" style=""/><path xmlns="http://www.w3.org/2000/svg" d="m443.378906 222.328125h-153.9375c-4.144531 0-7.5 3.355469-7.5 7.5 0 4.140625 3.355469 7.5 7.5 7.5h153.9375c4.144532 0 7.5-3.359375 7.5-7.5 0-4.144531-3.359375-7.5-7.5-7.5zm0 0" fill="#ffae00" data-original="#000000" style=""/><path xmlns="http://www.w3.org/2000/svg" d="m443.378906 262.515625h-153.9375c-4.144531 0-7.5 3.359375-7.5 7.5 0 4.144531 3.355469 7.5 7.5 7.5h153.9375c4.144532 0 7.5-3.355469 7.5-7.5 0-4.140625-3.359375-7.5-7.5-7.5zm0 0" fill="#ffae00" data-original="#000000" style=""/><path xmlns="http://www.w3.org/2000/svg" d="m443.378906 302.707031h-153.9375c-4.144531 0-7.5 3.359375-7.5 7.5s3.355469 7.5 7.5 7.5h153.9375c4.144532 0 7.5-3.359375 7.5-7.5s-3.359375-7.5-7.5-7.5zm0 0" fill="#ffae00" data-original="#000000" style=""/><path xmlns="http://www.w3.org/2000/svg" d="m95.046875 92.925781c9.652344-1.214843 19.253906-1.828125 28.542969-1.828125 51.359375 0 85.359375 17.898438 101.054687 28.5625 1.289063.878906 2.757813 1.300782 4.207031 1.300782 2.402344 0 4.761719-1.152344 6.210938-3.285157 2.328125-3.425781 1.4375-8.089843-1.988281-10.421875-17.117188-11.632812-54.109375-31.15625-109.484375-31.15625-9.910156 0-20.140625.65625-30.410156 1.945313-4.109376.515625-7.023438 4.265625-6.507813 8.375s4.253906 7.023437 8.375 6.507812zm0 0" fill="#ffae00" data-original="#000000" style=""/><path xmlns="http://www.w3.org/2000/svg" d="m95.046875 142.113281c9.652344-1.214843 19.253906-1.828125 28.542969-1.828125 51.359375 0 85.359375 17.894532 101.054687 28.5625 1.289063.878906 2.757813 1.296875 4.207031 1.296875 2.402344 0 4.761719-1.148437 6.210938-3.28125 2.328125-3.429687 1.4375-8.09375-1.988281-10.421875-17.117188-11.636718-54.109375-31.15625-109.484375-31.15625-9.910156 0-20.140625.652344-30.410156 1.941406-4.109376.519532-7.023438 4.269532-6.507813 8.378907s4.253906 7.023437 8.375 6.507812zm0 0" fill="#ffae00" data-original="#000000" style=""/><path xmlns="http://www.w3.org/2000/svg" d="m228.851562 219.332031c2.402344 0 4.757813-1.148437 6.210938-3.285156 2.328125-3.425781 1.4375-8.089844-1.988281-10.417969-17.121094-11.636718-54.109375-31.15625-109.484375-31.15625-9.910156 0-20.144532.652344-30.410156 1.941406-4.113282.515626-7.023438 4.265626-6.507813 8.378907.515625 4.109375 4.253906 7.019531 8.375 6.503906 9.652344-1.210937 19.253906-1.824219 28.542969-1.824219 51.359375 0 85.359375 17.894532 101.054687 28.5625 1.289063.878906 2.753907 1.296875 4.207031 1.296875zm0 0" fill="#ffae00" data-original="#000000" style=""/><path xmlns="http://www.w3.org/2000/svg" d="m233.074219 254.816406c-13.75-9.347656-43.339844-25.675781-87.015625-30.046875-4.128906-.417969-7.796875 2.59375-8.207032 6.714844-.414062 4.121094 2.59375 7.796875 6.714844 8.210937 40.375 4.039063 67.5 18.980469 80.078125 27.527344 1.289063.878906 2.753907 1.296875 4.207031 1.296875 2.402344 0 4.757813-1.148437 6.210938-3.285156 2.328125-3.425781 1.4375-8.089844-1.988281-10.417969zm0 0" fill="#ffae00" data-original="#000000" style=""/><path xmlns="http://www.w3.org/2000/svg" d="m109.96875 224.058594c-5.519531.316406-11.167969.835937-16.789062 1.542968-4.113282.515626-7.023438 4.265626-6.507813 8.375.476563 3.792969 3.707031 6.566407 7.429687 6.566407.3125 0 .628907-.019531.945313-.058594 5.289063-.664063 10.601563-1.152344 15.789063-1.453125 4.136718-.238281 7.292968-3.785156 7.054687-7.921875-.238281-4.132813-3.789063-7.304687-7.921875-7.050781zm0 0" fill="#ffae00" data-original="#000000" style=""/><path xmlns="http://www.w3.org/2000/svg" d="m440.105469 90.761719h-147.390625c-5.941406 0-10.773438 4.832031-10.773438 10.773437v39.828125c0 5.9375 4.832032 10.769531 10.773438 10.769531h20.328125c4.144531 0 7.5-3.359374 7.5-7.5 0-4.140624-3.355469-7.5-7.5-7.5h-16.101563v-31.371093h138.9375v31.371093h-87.9375c-4.144531 0-7.5 3.359376-7.5 7.5 0 4.140626 3.355469 7.5 7.5 7.5h92.164063c5.941406 0 10.773437-4.832031 10.773437-10.769531v-39.828125c0-5.941406-4.832031-10.773437-10.773437-10.773437zm0 0" fill="#ffae00" data-original="#000000" style=""/><path xmlns="http://www.w3.org/2000/svg" d="m499.835938 85.75h-15.515626v-27.367188c0-8.132812-6.617187-14.75-14.75-14.75h-210.78125c-5.714843-4.742187-21.839843-16.9375-47.640624-27.277343-29.382813-11.773438-77.558594-23.285157-140.1875-11.257813-6.65625 1.277344-11.488282 7.125-11.488282 13.902344v24.632812h-20c-6.503906 0-11.792968 5.292969-11.792968 11.792969v30.324219h-15.515626c-6.707031 0-12.164062 5.457031-12.164062 12.164062v291.164063c0 6.707031 5.457031 12.167969 12.164062 12.167969h199.511719c1.3125 0 2.5625.625 3.34375 1.679687 3.601563 4.835938 9.347657 7.726563 15.378907 7.726563h51.203124c6.027344 0 11.777344-2.890625 15.378907-7.726563.78125-1.050781 2.035156-1.679687 3.34375-1.679687h199.511719c6.707031 0 12.164062-5.460938 12.164062-12.167969v-291.164063c0-6.707031-5.457031-12.164062-12.164062-12.164062zm-236.335938-27.117188h205.820312v301.46875h-205.820312zm-189.027344-38.933593c58.367188-11.058594 103.113282-.515625 130.410156 10.304687 23.210938 9.203125 38.113282 20.160156 43.617188 24.601563v297.84375c-19.777344-13.429688-62.332031-36.03125-124.757812-36.03125-15.25 0-31.695313 1.351562-49.269532 4.511719zm-31.792968 38.933593h16.792968v263.324219c0 4.210938 1.855469 8.175781 5.09375 10.875 3.230469 2.6875 7.445313 3.796875 11.574219 3.039063 57.835937-10.609375 102.167969.007812 129.171875 10.785156 11.09375 4.429688 20.207031 9.191406 27.296875 13.441406h-189.929687zm454.320312 327.613282h-196.675781c-6.027344 0-11.777344 2.886718-15.378907 7.722656-.78125 1.054688-2.035156 1.683594-3.34375 1.683594h-51.203124c-1.3125 0-2.5625-.628906-3.34375-1.679688-3.601563-4.839844-9.351563-7.726562-15.378907-7.726562h-196.675781v-285.496094h12.679688v262.558594c0 6.5 5.292968 11.792968 11.792968 11.792968h430.097656c8.132813 0 14.75-6.617187 14.75-14.753906v-259.597656h12.679688zm0 0" fill="#ffae00" data-original="#000000" style=""/></g></svg>
