<?xml version="1.0"?>
<svg xmlns="http://www.w3.org/2000/svg" xmlns:xlink="http://www.w3.org/1999/xlink" xmlns:svgjs="http://svgjs.com/svgjs" version="1.1" width="512" height="512" x="0" y="0" viewBox="0 0 480 480" style="enable-background:new 0 0 512 512" xml:space="preserve" class=""><g>
<g xmlns="http://www.w3.org/2000/svg">
	<g>
		<path d="M472,4.465H8c-4.418,0-8,3.582-8,8v320c0,4.418,3.582,8,8,8h144.456c0.24,2.664,0.632,5.288,1.104,7.888l-43.88,52.296    c-2.842,3.383-2.403,8.429,0.98,11.271c0.953,0.801,2.081,1.368,3.292,1.657l48.304,11.536l19.752,45.6    c1.756,4.054,6.466,5.918,10.52,4.162c1.142-0.494,2.152-1.248,2.952-2.202l43.808-52.208c0.24,0,0.472,0,0.712,0s0.472,0,0.712,0    l43.808,52.208c2.838,3.386,7.884,3.83,11.27,0.992c0.953-0.799,1.707-1.81,2.202-2.952l19.752-45.6l48.304-11.536    c4.298-1.024,6.953-5.338,5.929-9.636c-0.289-1.211-0.856-2.339-1.657-3.292l-43.88-52.296c0.472-2.6,0.864-5.224,1.104-7.888H472    c4.418,0,8-3.582,8-8v-320C480,8.046,476.418,4.465,472,4.465z M191.544,452.465l-16.2-37.36c-1.001-2.31-3.031-4.014-5.48-4.6    l-39.6-9.464l28.72-34.232c0.152,0.352,0.352,0.672,0.504,1.024c1.04,2.4,2.168,4.68,3.416,6.944    c0.512,0.944,1.056,1.872,1.6,2.792c1.099,1.829,2.261,3.621,3.488,5.376c0.856,1.224,1.752,2.4,2.672,3.6    c1.072,1.36,2.176,2.688,3.336,4c1.16,1.312,2.512,2.76,3.848,4.088c0.984,0.984,2,1.936,3.04,2.872    c0.864,0.8,1.64,1.64,2.544,2.4c0.904,0.76,1.752,1.272,2.616,1.944c0.392,0.304,0.728,0.656,1.128,0.952    c0.72,0.544,1.48,1.016,2.216,1.536c1.152,0.8,2.288,1.664,3.48,2.4c2.272,1.456,4.616,2.784,6.992,4    c0.912,0.464,1.84,0.888,2.768,1.32c2.133,1.003,4.28,1.915,6.44,2.736c0.624,0.232,1.24,0.496,1.864,0.712    c3.03,1.065,6.118,1.96,9.248,2.68l0.088,0.024L191.544,452.465z M255.024,402.769c-3.669,0.775-7.392,1.265-11.136,1.464h-0.104    c-1.264,0.064-2.528,0.152-3.8,0.152c-1.272,0-2.536-0.088-3.8-0.152h-0.104c-3.736-0.2-7.451-0.687-11.112-1.456l-0.672-0.136    c-1.424-0.312-2.832-0.696-4.224-1.096c-0.584-0.168-1.176-0.32-1.752-0.504c-1-0.312-1.984-0.68-2.968-1.032    c-0.984-0.352-1.92-0.696-2.864-1.088c-0.584-0.248-1.16-0.512-1.736-0.8c-1.312-0.592-2.616-1.192-3.888-1.856l-0.64-0.352    c-3.298-1.764-6.454-3.781-9.44-6.032c-1.664-1.24-3.2-2.608-4.712-3.96c-1.788-1.595-3.495-3.28-5.112-5.048    c-0.64-0.688-1.328-1.344-1.936-2.056c-2.234-2.628-4.272-5.417-6.096-8.344c-0.272-0.432-0.504-0.888-0.8-1.336    c-1.701-2.842-3.198-5.802-4.48-8.856c-0.112-0.272-0.24-0.544-0.344-0.8c-1.417-3.5-2.557-7.105-3.408-10.784    c0-0.144-0.112-0.256-0.152-0.4c-1.162-5.197-1.747-10.507-1.744-15.832c-0.024-39.765,32.192-72.019,71.956-72.044    c39.765-0.024,72.019,32.192,72.044,71.956c0.003,5.386-0.598,10.755-1.792,16.007c-0.04,0.136-0.12,0.256-0.152,0.392    c-0.85,3.675-1.987,7.278-3.4,10.776c-0.112,0.28-0.24,0.56-0.36,0.8c-1.278,3.035-2.77,5.976-4.464,8.8    c-0.264,0.448-0.504,0.92-0.8,1.368c-1.824,2.923-3.859,5.709-6.088,8.336c-0.6,0.704-1.28,1.344-1.912,2.032    c-1.639,1.784-3.367,3.485-5.176,5.096c-1.52,1.352-3.032,2.72-4.688,3.952c-1.656,1.232-3.136,2.272-4.752,3.304l-0.096,0.056    c-1.448,0.92-2.928,1.768-4.432,2.568c-0.296,0.16-0.584,0.328-0.88,0.48c-1.208,0.632-2.4,1.2-3.672,1.752    c-0.64,0.288-1.272,0.584-1.92,0.848c-0.896,0.376-1.808,0.704-2.72,1.032s-2.04,0.752-3.08,1.072    c-0.552,0.176-1.112,0.328-1.672,0.488c-1.416,0.4-2.84,0.8-4.28,1.104L255.024,402.769z M349.736,401.017l-39.6,9.464    c-2.449,0.586-4.479,2.29-5.48,4.6l-16.2,37.384l-28.728-34.232h0.072c3.142-0.718,6.241-1.615,9.28-2.688    c0.6-0.208,1.176-0.456,1.776-0.672c2.232-0.848,4.432-1.776,6.592-2.808c0.88-0.408,1.76-0.8,2.624-1.248    c2.4-1.248,4.8-2.6,7.104-4.08c1.112-0.704,2.176-1.496,3.256-2.256c0.8-0.552,1.6-1.056,2.4-1.64    c0.424-0.32,0.8-0.696,1.216-1.024c0.8-0.656,1.728-1.208,2.544-1.896c0.816-0.688,1.648-1.6,2.496-2.352    c1.056-0.96,2.096-1.928,3.104-2.928c1.317-1.317,2.592-2.672,3.824-4.064c1.16-1.312,2.264-2.64,3.344-4    c0.92-1.176,1.816-2.4,2.672-3.6c1.232-1.744,2.4-3.536,3.48-5.36c0.56-0.928,1.104-1.864,1.6-2.816    c1.243-2.256,2.376-4.563,3.4-6.92c0.144-0.408,0.352-0.736,0.504-1.096L349.736,401.017z M464,324.465H327.592    c-4.341-48.38-47.081-84.081-95.461-79.739c-42.364,3.802-75.937,37.375-79.739,79.739H16v-304h448V324.465z" fill="#ffae00" data-original="#000000" style=""/>
	</g>
</g>
<g xmlns="http://www.w3.org/2000/svg">
	<g>
		<path d="M40,36.465c-4.418,0-8,3.582-8,8v32h16v-24h24v-16H40z" fill="#ffae00" data-original="#000000" style=""/>
	</g>
</g>
<g xmlns="http://www.w3.org/2000/svg">
	<g>
		<path d="M440,36.465h-32v16h24v24h16v-32C448,40.046,444.418,36.465,440,36.465z" fill="#ffae00" data-original="#000000" style=""/>
	</g>
</g>
<g xmlns="http://www.w3.org/2000/svg">
	<g>
		<path d="M432,268.465v24h-24v16h32c4.418,0,8-3.582,8-8v-32H432z" fill="#ffae00" data-original="#000000" style=""/>
	</g>
</g>
<g xmlns="http://www.w3.org/2000/svg">
	<g>
		<path d="M48,292.465v-24H32v32c0,4.418,3.582,8,8,8h32v-16H48z" fill="#ffae00" data-original="#000000" style=""/>
	</g>
</g>
<g xmlns="http://www.w3.org/2000/svg">
	<g>
		<rect x="144" y="92.465" width="192" height="16" fill="#ffae00" data-original="#000000" style=""/>
	</g>
</g>
<g xmlns="http://www.w3.org/2000/svg">
	<g>
		<rect x="96" y="140.465" width="288" height="16" fill="#ffae00" data-original="#000000" style=""/>
	</g>
</g>
<g xmlns="http://www.w3.org/2000/svg">
	<g>
		<path d="M240,276.465c-30.928,0-56,25.072-56,56c0.035,30.913,25.087,55.965,56,56c30.928,0,56-25.072,56-56    C296,301.537,270.928,276.465,240,276.465z M240,372.465c-22.091,0-40-17.909-40-40c0.026-22.08,17.92-39.974,40-40    c22.091,0,40,17.909,40,40C280,354.556,262.091,372.465,240,372.465z" fill="#ffae00" data-original="#000000" style=""/>
	</g>
</g>
<g xmlns="http://www.w3.org/2000/svg">
</g>
<g xmlns="http://www.w3.org/2000/svg">
</g>
<g xmlns="http://www.w3.org/2000/svg">
</g>
<g xmlns="http://www.w3.org/2000/svg">
</g>
<g xmlns="http://www.w3.org/2000/svg">
</g>
<g xmlns="http://www.w3.org/2000/svg">
</g>
<g xmlns="http://www.w3.org/2000/svg">
</g>
<g xmlns="http://www.w3.org/2000/svg">
</g>
<g xmlns="http://www.w3.org/2000/svg">
</g>
<g xmlns="http://www.w3.org/2000/svg">
</g>
<g xmlns="http://www.w3.org/2000/svg">
</g>
<g xmlns="http://www.w3.org/2000/svg">
</g>
<g xmlns="http://www.w3.org/2000/svg">
</g>
<g xmlns="http://www.w3.org/2000/svg">
</g>
<g xmlns="http://www.w3.org/2000/svg">
</g>
</g></svg>
