<svg id="Layer_1" data-name="Layer 1" xmlns="http://www.w3.org/2000/svg" xmlns:xlink="http://www.w3.org/1999/xlink" viewBox="0 0 48.25 17.93"><defs><style>.cls-1{fill:#cfc8d7;}.cls-2{fill:url(#linear-gradient);}.cls-3{fill:#28285b;}.cls-4{fill:url(#linear-gradient-2);}.cls-5{fill:none;stroke-width:0.03px;}.cls-10,.cls-11,.cls-12,.cls-13,.cls-14,.cls-15,.cls-16,.cls-17,.cls-18,.cls-19,.cls-5,.cls-9{stroke:#28285b;stroke-miterlimit:10;}.cls-20,.cls-6{fill:#1d1d1b;}.cls-6{opacity:0.09;}.cls-20,.cls-21,.cls-22,.cls-23,.cls-6,.cls-7{isolation:isolate;}.cls-21,.cls-22,.cls-23,.cls-7{fill:#fff;}.cls-7{opacity:0.39;}.cls-8{fill:url(#linear-gradient-3);}.cls-10,.cls-13,.cls-15,.cls-16,.cls-17,.cls-18,.cls-19,.cls-9{stroke-width:0.05px;}.cls-9{fill:url(#linear-gradient-4);}.cls-10{fill:url(#linear-gradient-5);}.cls-11,.cls-12,.cls-14{stroke-width:0.08px;}.cls-11{fill:url(#linear-gradient-6);}.cls-12{fill:url(#linear-gradient-7);}.cls-13{fill:url(#linear-gradient-8);}.cls-14{fill:url(#linear-gradient-9);}.cls-15{fill:url(#linear-gradient-10);}.cls-16{fill:url(#linear-gradient-11);}.cls-17{fill:url(#linear-gradient-12);}.cls-18{fill:url(#linear-gradient-13);}.cls-19{fill:url(#linear-gradient-14);}.cls-20{opacity:0.16;}.cls-21{opacity:0.36;}.cls-22{opacity:0.26;}.cls-23{opacity:0.55;}.cls-24{fill:#d0c9d8;}</style><linearGradient id="linear-gradient" x1="12.71" y1="37.29" x2="17.31" y2="46.95" gradientTransform="matrix(1, 0, 0, -1, 0, 54)" gradientUnits="userSpaceOnUse"><stop offset="0" stop-color="#d0c9d8"/><stop offset="0.87" stop-color="#d0c9d8"/><stop offset="0.99" stop-color="#d0c9d8"/></linearGradient><linearGradient id="linear-gradient-2" x1="12.76" y1="42.93" x2="19.87" y2="48.74" xlink:href="#linear-gradient"/><linearGradient id="linear-gradient-3" x1="17.77" y1="45.21" x2="13.61" y2="42.22" xlink:href="#linear-gradient"/><linearGradient id="linear-gradient-4" x1="5.55" y1="42.76" x2="12.68" y2="39.05" gradientTransform="matrix(1, 0, 0, -1, 0, 54)" gradientUnits="userSpaceOnUse"><stop offset="0" stop-color="#d0c9d8"/><stop offset="0.24" stop-color="#cdc6d7"/><stop offset="0.42" stop-color="#c5bdd2"/><stop offset="0.57" stop-color="#b7adca"/><stop offset="0.71" stop-color="#a397bf"/><stop offset="0.84" stop-color="#897bb1"/><stop offset="0.96" stop-color="#6a58a0"/><stop offset="0.99" stop-color="#63509c"/></linearGradient><linearGradient id="linear-gradient-5" x1="2.04" y1="41.41" x2="3.98" y2="40.4" xlink:href="#linear-gradient-4"/><linearGradient id="linear-gradient-6" x1="4.92" y1="51.26" x2="16.83" y2="51.26" gradientTransform="matrix(1, 0, 0, -1, 0, 54)" gradientUnits="userSpaceOnUse"><stop offset="0" stop-color="#d0c9d8"/><stop offset="0.22" stop-color="#cdc8d8"/><stop offset="0.37" stop-color="#c4c7d9"/><stop offset="0.51" stop-color="#b4c4da"/><stop offset="0.63" stop-color="#9ec0db"/><stop offset="0.75" stop-color="#82badd"/><stop offset="0.86" stop-color="#5fb4df"/><stop offset="0.96" stop-color="#36ace1"/><stop offset="0.99" stop-color="#2baae2"/></linearGradient><linearGradient id="linear-gradient-7" x1="6.97" y1="51.48" x2="7.82" y2="51.04" xlink:href="#linear-gradient-6"/><linearGradient id="linear-gradient-8" x1="6.03" y1="43.7" x2="10.77" y2="41.24" gradientTransform="matrix(1, 0, 0, -1, 0, 54)" gradientUnits="userSpaceOnUse"><stop offset="0" stop-color="#d0c9d8"/><stop offset="0.23" stop-color="#cfc9d5"/><stop offset="0.39" stop-color="#cac8cc"/><stop offset="0.53" stop-color="#c3c7bc"/><stop offset="0.66" stop-color="#b9c6a6"/><stop offset="0.78" stop-color="#acc48a"/><stop offset="0.89" stop-color="#9cc167"/><stop offset="0.99" stop-color="#8cbf44"/></linearGradient><linearGradient id="linear-gradient-9" x1="6.02" y1="46.1" x2="14.72" y2="46.01" xlink:href="#linear-gradient-6"/><linearGradient id="linear-gradient-10" x1="4.17" y1="47.54" x2="15.67" y2="47.54" xlink:href="#linear-gradient-4"/><linearGradient id="linear-gradient-11" x1="11.03" y1="49.41" x2="17.41" y2="49.41" xlink:href="#linear-gradient-8"/><linearGradient id="linear-gradient-12" x1="9.69" y1="49.41" x2="10.59" y2="49.41" xlink:href="#linear-gradient-8"/><linearGradient id="linear-gradient-13" x1="4.8" y1="44.27" x2="13.77" y2="44.27" gradientTransform="matrix(1, 0, 0, -1, 0, 54)" gradientUnits="userSpaceOnUse"><stop offset="0" stop-color="#d0c9d8"/><stop offset="0.22" stop-color="#d1cad5"/><stop offset="0.37" stop-color="#d3cbcc"/><stop offset="0.51" stop-color="#d7cebc"/><stop offset="0.63" stop-color="#dcd2a6"/><stop offset="0.74" stop-color="#e3d88a"/><stop offset="0.85" stop-color="#ebde67"/><stop offset="0.96" stop-color="#f5e63e"/><stop offset="0.99" stop-color="#f8e831"/></linearGradient><linearGradient id="linear-gradient-14" x1="2.98" y1="44.27" x2="4.49" y2="44.27" xlink:href="#linear-gradient-13"/></defs><path class="cls-1" d="M16.57,9.32a.67.67,0,0,1-.12.2.58.58,0,0,1-.36.17.52.52,0,0,1-.21,0,.69.69,0,0,1-.19-.1.91.91,0,0,1-.11-.16.52.52,0,0,1,0-.21A.59.59,0,0,1,15.59,9a.52.52,0,0,1,.11-.19.48.48,0,0,1,.16-.12.45.45,0,0,1,.19-.05.78.78,0,0,1,.22,0,.54.54,0,0,1,.18.11.42.42,0,0,1,.11.16.48.48,0,0,1,0,.2A.78.78,0,0,1,16.57,9.32Zm-.15,0a.57.57,0,0,0,0-.18.29.29,0,0,0,0-.16.35.35,0,0,0-.07-.12l-.12-.07a.26.26,0,0,0-.15,0l-.12,0a.41.41,0,0,0-.13.1.46.46,0,0,0-.09.15.58.58,0,0,0,0,.18.47.47,0,0,0,0,.17.36.36,0,0,0,.07.1.38.38,0,0,0,.25.09.28.28,0,0,0,.13,0,.31.31,0,0,0,.13-.1A.71.71,0,0,0,16.42,9.28Z"/><path class="cls-1" d="M15.16,10.47a.39.39,0,0,1-.12.19.37.37,0,0,1-.17.13.41.41,0,0,1-.19,0,.64.64,0,0,1-.2,0,.54.54,0,0,1-.18-.11.45.45,0,0,1-.15-.36.78.78,0,0,1,0-.22.62.62,0,0,1,.12-.19.48.48,0,0,1,.16-.12.42.42,0,0,1,.19-.06.54.54,0,0,1,.22,0,.42.42,0,0,1,.18.11.36.36,0,0,1,.11.16.45.45,0,0,1,0,.2A.59.59,0,0,1,15.16,10.47ZM15,10.42a.58.58,0,0,0,0-.18.45.45,0,0,0,0-.16A.26.26,0,0,0,15,10a.35.35,0,0,0-.12-.07.22.22,0,0,0-.14,0,.31.31,0,0,0-.13,0,.38.38,0,0,0-.12.1.78.78,0,0,0-.1.15.57.57,0,0,0,0,.18.34.34,0,0,0,0,.17.61.61,0,0,0,.07.1.41.41,0,0,0,.11.07l.14,0,.12,0a.45.45,0,0,0,.14-.1A.38.38,0,0,0,15,10.42Z"/><path class="cls-1" d="M16.32,10.9a.59.59,0,0,1-.12.2.52.52,0,0,1-.17.12.59.59,0,0,1-.19,0,.65.65,0,0,1-.2,0,.42.42,0,0,1-.18-.11.33.33,0,0,1-.11-.15.52.52,0,0,1,0-.21.64.64,0,0,1,.16-.41.48.48,0,0,1,.16-.12.45.45,0,0,1,.19-.05.53.53,0,0,1,.22,0,.78.78,0,0,1,.18.11.42.42,0,0,1,.11.16.51.51,0,0,1,0,.2A.54.54,0,0,1,16.32,10.9Zm-.15,0a.58.58,0,0,0,0-.19.45.45,0,0,0,0-.16.23.23,0,0,0-.07-.1.26.26,0,0,0-.25-.1l-.12,0-.13.1a.51.51,0,0,0-.09.16.47.47,0,0,0,0,.17.33.33,0,0,0,0,.17.21.21,0,0,0,.06.1l.12.07.13,0a.28.28,0,0,0,.13,0,.38.38,0,0,0,.13-.09.6.6,0,0,0,.09-.15Z"/><path class="cls-1" d="M14.82,11.83a.76.76,0,0,1-.12.19.66.66,0,0,1-.17.12.46.46,0,0,1-.2,0,.51.51,0,0,1-.2,0,.59.59,0,0,1-.17-.1.61.61,0,0,1-.12-.16.51.51,0,0,1,0-.21.57.57,0,0,1,0-.22.54.54,0,0,1,.11-.18.5.5,0,0,1,.36-.18.83.83,0,0,1,.22,0,.71.71,0,0,1,.18.12.46.46,0,0,1,.11.16.65.65,0,0,1,0,.2A.87.87,0,0,1,14.82,11.83Zm-.15-.05a1.16,1.16,0,0,0,0-.18.39.39,0,0,0-.1-.27.37.37,0,0,0-.12-.07l-.15,0-.12,0a.31.31,0,0,0-.13.1.38.38,0,0,0-.09.15.53.53,0,0,0,0,.18.45.45,0,0,0,0,.16.36.36,0,0,0,.07.1.37.37,0,0,0,.12.07.3.3,0,0,0,.26,0,.3.3,0,0,0,.13-.09A.86.86,0,0,0,14.67,11.78Z"/><path class="cls-1" d="M16.64,12.51a.76.76,0,0,1-.12.19.66.66,0,0,1-.17.12.45.45,0,0,1-.19,0,.52.52,0,0,1-.21,0,.59.59,0,0,1-.17-.1.42.42,0,0,1-.11-.16.39.39,0,0,1,0-.21.57.57,0,0,1,0-.22.78.78,0,0,1,.11-.18.48.48,0,0,1,.16-.13.46.46,0,0,1,.2-.05.83.83,0,0,1,.22,0,.71.71,0,0,1,.18.12.36.36,0,0,1,.11.16.45.45,0,0,1,0,.2A.59.59,0,0,1,16.64,12.51Zm-.15,0a1.16,1.16,0,0,0,0-.18.41.41,0,0,0,0-.16.29.29,0,0,0-.19-.18l-.15,0L16,12a.23.23,0,0,0-.12.1.31.31,0,0,0-.1.15,1.16,1.16,0,0,0,0,.18.32.32,0,0,0,0,.16.23.23,0,0,0,.07.1.26.26,0,0,0,.11.07.32.32,0,0,0,.14,0l.12,0a.3.3,0,0,0,.13-.09.72.72,0,0,0,.11-.15Z"/><path class="cls-1" d="M16.24,14a.59.59,0,0,1-.12.2.43.43,0,0,1-.17.12.44.44,0,0,1-.39,0,.52.52,0,0,1-.18-.1.57.57,0,0,1-.11-.16.45.45,0,0,1,0-.2.6.6,0,0,1,.16-.41.4.4,0,0,1,.16-.13.41.41,0,0,1,.19-.05.78.78,0,0,1,.22,0,.57.57,0,0,1,.18.12.36.36,0,0,1,.11.16.45.45,0,0,1,0,.2A.59.59,0,0,1,16.24,14Zm-.15,0a.48.48,0,0,0,0-.18.45.45,0,0,0,0-.16.23.23,0,0,0-.07-.1.25.25,0,0,0-.12-.08l-.14,0a.28.28,0,0,0-.13,0,.58.58,0,0,0-.12.1.86.86,0,0,0-.1.16.47.47,0,0,0,0,.17.25.25,0,0,0,0,.17.23.23,0,0,0,.07.1.41.41,0,0,0,.11.07l.14,0,.12,0a.33.33,0,0,0,.14-.1A.38.38,0,0,0,16.09,14Z"/><path class="cls-1" d="M14.08,13.23a.82.82,0,0,1-.12.2.57.57,0,0,1-.15.12.55.55,0,0,1-.4,0,.54.54,0,0,1-.18-.11.5.5,0,0,1-.15-.36.54.54,0,0,1,.05-.22.45.45,0,0,1,.11-.19l.16-.13a.67.67,0,0,1,.19,0,.54.54,0,0,1,.22,0,.49.49,0,0,1,.29.27.45.45,0,0,1,0,.2A.46.46,0,0,1,14.08,13.23Zm-.15-.05A.8.8,0,0,0,14,13a.45.45,0,0,0,0-.16.36.36,0,0,0-.07-.1.42.42,0,0,0-.12-.08.39.39,0,0,0-.15,0l-.12,0a.4.4,0,0,0-.12.1.55.55,0,0,0-.14.32.45.45,0,0,0,0,.16.35.35,0,0,0,.19.17.22.22,0,0,0,.14,0l.12,0a.45.45,0,0,0,.13-.1.4.4,0,0,0,.1-.15Z"/><path class="cls-1" d="M13.74,14.57a.67.67,0,0,1-.12.2.48.48,0,0,1-.17.12.46.46,0,0,1-.2,0,.45.45,0,0,1-.2,0,.5.5,0,0,1-.19-.1.42.42,0,0,1-.11-.15.52.52,0,0,1,0-.21.78.78,0,0,1,0-.22.76.76,0,0,1,.12-.19.48.48,0,0,1,.16-.12.45.45,0,0,1,.19-.05.41.41,0,0,1,.22,0,.49.49,0,0,1,.29.27.48.48,0,0,1,0,.2A.71.71,0,0,1,13.74,14.57Zm-.16,0a.39.39,0,0,0,0-.18.26.26,0,0,0,0-.17.23.23,0,0,0-.07-.1L13.41,14l-.15,0-.12,0-.13.1a.51.51,0,0,0-.09.16.34.34,0,0,0,0,.18.45.45,0,0,0,0,.16.36.36,0,0,0,.07.1.32.32,0,0,0,.25.09l.13,0,.13-.1A.6.6,0,0,0,13.58,14.53Z"/><path class="cls-1" d="M15.07,15.07a.62.62,0,0,1-.12.19.5.5,0,0,1-.37.17.64.64,0,0,1-.2,0,.54.54,0,0,1-.18-.11.64.64,0,0,1-.11-.16.45.45,0,0,1,0-.2.54.54,0,0,1,0-.22.52.52,0,0,1,.11-.19.61.61,0,0,1,.16-.12.7.7,0,0,1,.19-.06.54.54,0,0,1,.22,0,.42.42,0,0,1,.18.11.36.36,0,0,1,.11.16.45.45,0,0,1,0,.2A.57.57,0,0,1,15.07,15.07ZM14.91,15a.39.39,0,0,0,0-.18.34.34,0,0,0-.1-.27.27.27,0,0,0-.1-.08h-.16l-.12,0-.13.1a.61.61,0,0,0-.13.32.45.45,0,0,0,0,.16.39.39,0,0,0,.08.1.26.26,0,0,0,.11.07.31.31,0,0,0,.13,0,.28.28,0,0,0,.13,0,.45.45,0,0,0,.13-.1.38.38,0,0,0,.09-.15Z"/><path class="cls-1" d="M17,10.06,16.84,10a1,1,0,0,1,.07-.17c0-.09.09-.22.15-.39l.05-.13.06-.13h0l-.15,0-.21,0,0-.1.32-.09.18,0,.08.11-.12.28a.84.84,0,0,1-.07.17l-.1.28A.88.88,0,0,0,17,10.06Z"/><path class="cls-1" d="M16.74,11.63l-.14-.05a1,1,0,0,1,.07-.17l.16-.39a.36.36,0,0,1,.05-.13l.05-.13h0l-.15,0-.21.05,0-.11.32-.08L17,10.6l.08.12c0,.09-.07.18-.12.28l-.06.17c0,.07-.07.16-.11.27Z"/><path class="cls-1" d="M15.48,15.8l-.14-.05a1,1,0,0,1,.07-.17l.16-.39,0-.13.05-.13h0l-.15,0-.22,0v-.1l.31-.09.18,0,.08.11-.11.28a1.5,1.5,0,0,0-.07.17l-.11.27Z"/><path class="cls-1" d="M12.15,14.56,12,14.51a1,1,0,0,1,.07-.17l.16-.39a.79.79,0,0,1,0-.13l.05-.13h0l-.15,0-.21,0,0-.11.31-.08.19,0,.07.11-.11.28a1.5,1.5,0,0,0-.07.17l-.11.27Z"/><path class="cls-1" d="M14.66,14l-.14,0a1,1,0,0,1,.07-.17c0-.1.09-.23.15-.39a.79.79,0,0,1,0-.13l.05-.13h0l-.14,0-.21.05,0-.11.32-.08L15,13l.08.12-.12.28-.07.17c0,.07-.06.17-.1.28Z"/><path class="cls-1" d="M13.4,11.88l-.14-.06a1.5,1.5,0,0,1,.07-.17l.15-.39a.33.33,0,0,1,.06-.12l0-.13h0l-.15,0-.21,0,0-.1.32-.08.18-.05.07.11-.11.28a1.47,1.47,0,0,1-.07.17l-.1.28A1.2,1.2,0,0,0,13.4,11.88Z"/><path class="cls-1" d="M15.24,12.56l-.15-.06a1.5,1.5,0,0,1,.07-.17l.16-.39a.51.51,0,0,1,0-.12l.05-.13h0l-.15,0-.21,0,0-.1.32-.09.18,0,.08.11-.12.28-.06.17-.11.28C15.28,12.48,15.24,12.54,15.24,12.56Z"/><path class="cls-1" d="M17.65,2.53a.67.67,0,0,1-.14.19.36.36,0,0,1-.18.12.45.45,0,0,1-.2,0,.49.49,0,0,1-.21,0,.57.57,0,0,1-.18-.12.34.34,0,0,1-.1-.16.57.57,0,0,1,0-.22.58.58,0,0,1,.33-.54.54.54,0,0,1,.21-.05.46.46,0,0,1,.23.05.36.36,0,0,1,.18.12.39.39,0,0,1,.11.17.37.37,0,0,1,0,.21A.66.66,0,0,1,17.65,2.53Zm-.16-.06a1.05,1.05,0,0,0,.05-.19.55.55,0,0,0,0-.17A.26.26,0,0,0,17.44,2a.25.25,0,0,0-.12-.08.26.26,0,0,0-.15,0,.31.31,0,0,0-.13,0,.33.33,0,0,0-.14.1.78.78,0,0,0-.1.15.58.58,0,0,0,0,.19.32.32,0,0,0,0,.17.41.41,0,0,0,.07.11.37.37,0,0,0,.12.07.32.32,0,0,0,.14,0,.3.3,0,0,0,.13,0l.15-.1a.86.86,0,0,0,.1-.16Z"/><path class="cls-1" d="M16.9,3.79a.63.63,0,0,1-.13.2.57.57,0,0,1-.18.12.52.52,0,0,1-.21,0,.54.54,0,0,1-.21-.05A.58.58,0,0,1,16,4a.49.49,0,0,1-.14-.38.59.59,0,0,1,.05-.23.69.69,0,0,1,.13-.2.66.66,0,0,1,.17-.12A.46.46,0,0,1,16.41,3a.85.85,0,0,1,.22,0,.59.59,0,0,1,.19.13.62.62,0,0,1,.11.17.76.76,0,0,1,0,.21A1,1,0,0,1,16.9,3.79Zm-.16-.06a.41.41,0,0,0,.05-.18.32.32,0,0,0,0-.17.29.29,0,0,0-.19-.2.26.26,0,0,0-.15,0l-.13,0a.71.71,0,0,0-.14.1.54.54,0,0,0-.1.16.61.61,0,0,0,0,.18.57.57,0,0,0,0,.18.31.31,0,0,0,.19.18.32.32,0,0,0,.27,0,.42.42,0,0,0,.14-.09.49.49,0,0,0,.1-.15Z"/><path class="cls-1" d="M18.7,4.53a.9.9,0,0,1-.14.2.55.55,0,0,1-.38.16.54.54,0,0,1-.22,0,.51.51,0,0,1-.28-.28.57.57,0,0,1,0-.22.46.46,0,0,1,.06-.23.62.62,0,0,1,.12-.19A.52.52,0,0,1,18,3.8a.43.43,0,0,1,.22,0,.45.45,0,0,1,.23,0,.57.57,0,0,1,.18.12.45.45,0,0,1,.11.17.39.39,0,0,1,0,.21A.6.6,0,0,1,18.7,4.53Zm-.16-.06a1,1,0,0,0,.05-.18.47.47,0,0,0,0-.17A.26.26,0,0,0,18.49,4a.27.27,0,0,0-.12-.09.26.26,0,0,0-.15,0,.31.31,0,0,0-.13,0A.3.3,0,0,0,18,4a.57.57,0,0,0-.11.16,1.21,1.21,0,0,0-.05.18.57.57,0,0,0,0,.18.28.28,0,0,0,.08.11.26.26,0,0,0,.11.07.32.32,0,0,0,.14,0l.13,0a.71.71,0,0,0,.14-.1.44.44,0,0,0,.1-.16Z"/><path class="cls-1" d="M17.3,5.54a.86.86,0,0,1-.13.2.71.71,0,0,1-.18.12.52.52,0,0,1-.21,0,.78.78,0,0,1-.21,0,.57.57,0,0,1-.18-.12.45.45,0,0,1-.11-.17.52.52,0,0,1,0-.21.86.86,0,0,1,.06-.23.53.53,0,0,1,.13-.2.52.52,0,0,1,.17-.12.46.46,0,0,1,.2,0,.59.59,0,0,1,.23,0,.55.55,0,0,1,.19.12.59.59,0,0,1,.1.17.39.39,0,0,1,0,.21A.64.64,0,0,1,17.3,5.54Zm-.16-.06a.61.61,0,0,0,.05-.18.47.47,0,0,0,0-.17A.25.25,0,0,0,17.09,5,.36.36,0,0,0,17,4.93a.34.34,0,0,0-.41.1.57.57,0,0,0-.11.16.58.58,0,0,0,0,.18.37.37,0,0,0,0,.18.76.76,0,0,0,.08.11.41.41,0,0,0,.11.07.32.32,0,0,0,.27,0,.31.31,0,0,0,.15-.1A.4.4,0,0,0,17.14,5.48Z"/><path class="cls-1" d="M16.16,5.07a.66.66,0,0,1-.14.2.57.57,0,0,1-.18.12.45.45,0,0,1-.2,0,.49.49,0,0,1-.21,0,.57.57,0,0,1-.18-.12.39.39,0,0,1-.11-.17.49.49,0,0,1,0-.21.6.6,0,0,1,.06-.23.62.62,0,0,1,.12-.19.52.52,0,0,1,.17-.13.39.39,0,0,1,.21,0,.59.59,0,0,1,.41.16.45.45,0,0,1,.11.17.39.39,0,0,1,0,.21A.59.59,0,0,1,16.16,5.07ZM16,5a.61.61,0,0,0,0-.18.32.32,0,0,0,0-.17A.27.27,0,0,0,16,4.54a.57.57,0,0,0-.13-.08.32.32,0,0,0-.27,0,.5.5,0,0,0-.14.1.39.39,0,0,0-.1.16.37.37,0,0,0-.05.18.29.29,0,0,0,0,.18.23.23,0,0,0,.07.1.28.28,0,0,0,.11.08.35.35,0,0,0,.14,0,.28.28,0,0,0,.13,0,.38.38,0,0,0,.15-.09A.54.54,0,0,0,16,5Z"/><path class="cls-1" d="M19.26,6.34a.9.9,0,0,1-.14.2.44.44,0,0,1-.18.12.45.45,0,0,1-.2,0,.65.65,0,0,1-.21,0,.57.57,0,0,1-.18-.12.39.39,0,0,1-.11-.17.52.52,0,0,1,0-.21.75.75,0,0,1,.18-.43.66.66,0,0,1,.17-.12.8.8,0,0,1,.21-.05.54.54,0,0,1,.22.05.62.62,0,0,1,.19.12.45.45,0,0,1,.11.17.39.39,0,0,1,0,.21A.59.59,0,0,1,19.26,6.34Zm-.16-.06a1.21,1.21,0,0,0,0-.18.47.47,0,0,0,0-.17.37.37,0,0,0-.07-.12.36.36,0,0,0-.12-.08.26.26,0,0,0-.15,0l-.13,0a.45.45,0,0,0-.13.1.57.57,0,0,0-.11.16,1.21,1.21,0,0,0-.05.18.57.57,0,0,0,0,.18.25.25,0,0,0,.08.1.21.21,0,0,0,.11.08.32.32,0,0,0,.14,0l.13,0a.45.45,0,0,0,.14-.1A.57.57,0,0,0,19.1,6.28Z"/><path class="cls-1" d="M20.49,5.26a.74.74,0,0,1-.13.21.56.56,0,0,1-.6.11.42.42,0,0,1-.18-.11.45.45,0,0,1-.11-.17.41.41,0,0,1,0-.22.74.74,0,0,1,.17-.42.57.57,0,0,1,.18-.12.46.46,0,0,1,.2,0,.85.85,0,0,1,.23,0,.59.59,0,0,1,.18.13.52.52,0,0,1,.12.17.76.76,0,0,1,0,.21A.79.79,0,0,1,20.49,5.26Zm-.16,0A.59.59,0,0,0,20.38,5a.44.44,0,0,0,0-.16.35.35,0,0,0-.07-.12l-.12-.08a.41.41,0,0,0-.16,0,.27.27,0,0,0-.12,0,.36.36,0,0,0-.14.1.54.54,0,0,0-.1.16.37.37,0,0,0,0,.18.47.47,0,0,0,0,.17.26.26,0,0,0,.07.11l.11.08a.35.35,0,0,0,.14,0,.28.28,0,0,0,.13,0,.4.4,0,0,0,.15-.1A.56.56,0,0,0,20.33,5.21Z"/><path class="cls-1" d="M21.4,4.06a.86.86,0,0,1-.13.2.47.47,0,0,1-.19.12.49.49,0,0,1-.41,0,.42.42,0,0,1-.18-.11.45.45,0,0,1-.11-.17.41.41,0,0,1,0-.22.69.69,0,0,1,.17-.41.57.57,0,0,1,.18-.12.46.46,0,0,1,.2-.05.85.85,0,0,1,.23,0,.46.46,0,0,1,.18.13.45.45,0,0,1,.11.17.52.52,0,0,1,0,.21A.83.83,0,0,1,21.4,4.06Zm-.16,0a.67.67,0,0,0,.05-.19.47.47,0,0,0,0-.17.75.75,0,0,0-.07-.12.34.34,0,0,0-.12-.06.41.41,0,0,0-.16,0,.27.27,0,0,0-.12,0,.36.36,0,0,0-.14.1.39.39,0,0,0-.1.16.37.37,0,0,0,0,.18.47.47,0,0,0,0,.17.26.26,0,0,0,.07.11.28.28,0,0,0,.11.08.35.35,0,0,0,.14,0,.28.28,0,0,0,.13,0,.38.38,0,0,0,.15-.09A.59.59,0,0,0,21.24,4Z"/><path class="cls-1" d="M20.26,3.59a.9.9,0,0,1-.14.2.44.44,0,0,1-.18.12.46.46,0,0,1-.2,0,.72.72,0,0,1-.21,0,.57.57,0,0,1-.18-.12.45.45,0,0,1-.11-.17.57.57,0,0,1,0-.22.86.86,0,0,1,.06-.23A.62.62,0,0,1,19.38,3a.7.7,0,0,1,.17-.13.52.52,0,0,1,.21,0,.62.62,0,0,1,.23,0,.46.46,0,0,1,.18.13.34.34,0,0,1,.11.17.34.34,0,0,1,0,.2A.6.6,0,0,1,20.26,3.59Zm-.16,0a.67.67,0,0,0,0-.19.5.5,0,0,0,0-.17.75.75,0,0,0-.07-.12A.37.37,0,0,0,19.94,3a.27.27,0,0,0-.15,0,.28.28,0,0,0-.13,0,.33.33,0,0,0-.14.1.49.49,0,0,0-.1.15.59.59,0,0,0-.05.19.47.47,0,0,0,0,.17.41.41,0,0,0,.07.11.36.36,0,0,0,.12.08l.14,0,.12,0,.15-.1A.65.65,0,0,0,20.1,3.54Z"/><path class="cls-1" d="M18,3.28l-.15-.06s0-.08.08-.18a4.31,4.31,0,0,0,.18-.4l.06-.13a1,1,0,0,1,.06-.14h0l-.16,0-.22,0,0-.11.31-.07.2,0,.07.12-.13.29a1.32,1.32,0,0,0-.07.18l-.12.28Z"/><path class="cls-1" d="M17.25,4.55l-.15-.06.08-.18.18-.4.05-.13c0-.06,0-.1.06-.13h0l-.16,0-.22,0,0-.11.32-.07.19-.06.08.12-.13.3a1.65,1.65,0,0,0-.08.17l-.12.28A2,2,0,0,1,17.25,4.55Z"/><path class="cls-1" d="M17.64,6.3l-.15-.06.08-.17c.05-.1.11-.23.18-.4s0-.08.06-.13l.05-.14h0l-.15,0-.23,0V5.36l.32-.08.19,0,.08.12-.13.29-.08.18-.12.28C17.69,6.22,17.65,6.27,17.64,6.3Z"/><path class="cls-1" d="M16.41,7.36l-.15-.06.08-.17c0-.1.1-.23.18-.4l.06-.13a.84.84,0,0,1,.06-.14h0l-.16,0-.22,0,0-.11.32-.08.19,0,.07.12-.13.29a1.32,1.32,0,0,0-.07.18l-.13.28A1.72,1.72,0,0,1,16.41,7.36Z"/><path class="cls-1" d="M17.06,7.63l-.15-.06A1.65,1.65,0,0,1,17,7.4L17.17,7l.06-.13.05-.13h0l-.16,0-.22,0V6.68l.31-.07.19,0,.08.12L17.34,7c-.05.1-.07.16-.08.17l-.12.29Z"/><path class="cls-1" d="M19,5.28l-.15-.06L19,5.05c0-.1.1-.23.17-.41l.06-.12a.64.64,0,0,1,.06-.14h0l-.16,0-.22,0,0-.11.32-.08.19,0,.07.12c0,.09-.08.19-.13.29l-.07.18-.12.28Z"/><path class="cls-1" d="M18.81,3.61l-.15-.06.08-.17L18.92,3l0-.13L19,2.71h0l-.16,0-.22,0,0-.11L19,2.59l.21,0,.07.12L19.1,3,19,3.13a2.61,2.61,0,0,0-.12.28C18.86,3.52,18.81,3.59,18.81,3.61Z"/><path class="cls-2" d="M15.59,16.18a.25.25,0,0,1-.16-.06.23.23,0,0,1,0-.26,14.38,14.38,0,0,0,1.09-3,7.82,7.82,0,0,0,.29-3.71,14.6,14.6,0,0,0-1-2.24,4.66,4.66,0,0,1-.84-2.59,2.94,2.94,0,0,1,.66-1.52v0c1-1.26,1.35-1.49,1.44-1.53l.09,0a.23.23,0,0,1,.22.24.2.2,0,0,1,0,.13s-1.84,2.12-1.35,3.81c.08.22.44,1,.65,1.42l.53,1a9.92,9.92,0,0,1,1.14,3.39,6.77,6.77,0,0,1-1.12,4.2.14.14,0,0,1-.09.08l-1.34.67A.16.16,0,0,1,15.59,16.18Z"/><path class="cls-3" d="M15.59,16.21a.31.31,0,0,1-.18-.07.27.27,0,0,1,0-.3,14.8,14.8,0,0,0,1.09-3,7.68,7.68,0,0,0,.29-3.7,14.33,14.33,0,0,0-1-2.25,4.63,4.63,0,0,1-.84-2.61,3,3,0,0,1,.66-1.53v0c1-1.26,1.37-1.5,1.46-1.54a.26.26,0,0,1,.31.4S15.49,3.75,16,5.41c.08.23.43,1,.63,1.42l.52,1a9.94,9.94,0,0,1,1.16,3.4,6.85,6.85,0,0,1-1.12,4.23.32.32,0,0,1-.1.1l-1.37.65A.17.17,0,0,1,15.59,16.21ZM17.11,1.27a.11.11,0,0,0-.08,0c-.09,0-.45.25-1.44,1.52h0A3,3,0,0,0,15,4.33,3.06,3.06,0,0,0,15.26,6a7.85,7.85,0,0,0,.51,1,14.39,14.39,0,0,1,1,2.26,8,8,0,0,1-.29,3.73,14.3,14.3,0,0,1-1.09,3,.2.2,0,0,0,0,.23.2.2,0,0,0,.23,0L17,15.48a.3.3,0,0,0,.08-.08,6.77,6.77,0,0,0,1.12-4.18,10.11,10.11,0,0,0-1.15-3.38l-.52-1c-.22-.41-.56-1.19-.66-1.43-.49-1.7,1.33-3.81,1.36-3.83a.21.21,0,0,0,0-.29A.17.17,0,0,0,17.11,1.27Z"/><path class="cls-4" d="M17.55,7.82a.11.11,0,0,1-.11-.11.09.09,0,0,1,0-.1,11.67,11.67,0,0,0,3.87-4.38.11.11,0,0,1,.12-.07h0a.11.11,0,0,1,.09.11v.34a0,0,0,0,1,0,.05c-1,2.4-3.95,4.12-4,4.14Z"/><path class="cls-5" d="M17.55,7.82a.11.11,0,0,1-.11-.11.09.09,0,0,1,0-.1,11.67,11.67,0,0,0,3.87-4.38.11.11,0,0,1,.12-.07h0a.11.11,0,0,1,.09.11v.34a0,0,0,0,1,0,.05c-1,2.4-3.95,4.12-4,4.14Z"/><path class="cls-6" d="M17.08,1.25c-.08,0,.36,0-.5.75s-2,3.22-.59,4.89a4.65,4.65,0,0,1,.9,3.75s.34-1.41-1.29-3.93a3.14,3.14,0,0,1,.18-4.16A4.83,4.83,0,0,1,17.08,1.25Z"/><path class="cls-7" d="M17.08,1.29s.43,0-.41.76-1.92,3.2-.58,4.86a4.5,4.5,0,0,1,.74,3.78s.53-1.15-1.19-4,.14-4.18.14-4.18A4.38,4.38,0,0,1,17.08,1.29Z"/><path class="cls-8" d="M11.87,14.65a.11.11,0,0,1-.12-.11c-.08-4,4.26-6,4.3-6h.05a.11.11,0,0,1,.1.06.11.11,0,0,1,0,.15C12.06,11.21,12,14.51,12,14.54a.11.11,0,0,1-.11.12h0Z"/><path class="cls-5" d="M11.87,14.65a.11.11,0,0,1-.12-.11c-.08-4,4.26-6,4.3-6h.05a.11.11,0,0,1,.1.06.11.11,0,0,1,0,.15C12.06,11.21,12,14.51,12,14.54a.11.11,0,0,1-.11.12h0Z"/><rect class="cls-9" x="4.62" y="12.82" width="8.99" height="0.56" rx="0.28"/><rect class="cls-10" x="1.81" y="12.81" width="2.41" height="0.56" rx="0.28"/><path class="cls-11" d="M8.29,2.74h0a.28.28,0,0,1,.28-.28h9.68a.28.28,0,0,1,.28.28h0a.28.28,0,0,1-.28.27H8.57A.28.28,0,0,1,8.29,2.74Z"/><rect class="cls-12" x="6.9" y="2.46" width="1.01" height="0.55" rx="0.28"/><path class="cls-13" d="M5.43,11.53h0a.37.37,0,0,1,.37-.37H11a.37.37,0,0,1,.37.37h0a.37.37,0,0,1-.37.37H5.8A.37.37,0,0,1,5.43,11.53Z"/><rect class="cls-14" x="6.41" y="7.71" width="9.76" height="0.48" rx="0.21"/><path class="cls-15" d="M4.17,6.46h0a.26.26,0,0,1,.26-.26h11a.26.26,0,0,1,.26.26h0a.26.26,0,0,1-.26.26h-11A.26.26,0,0,1,4.17,6.46Z"/><rect class="cls-16" x="11.03" y="4.31" width="6.38" height="0.55" rx="0.27"/><rect class="cls-17" x="9.69" y="4.31" width="0.89" height="0.55" rx="0.27"/><path class="cls-18" d="M4.8,9.73h0a.32.32,0,0,1,.32-.31h8.34a.31.31,0,0,1,.31.31h0a.31.31,0,0,1-.31.32H5.12A.32.32,0,0,1,4.8,9.73Z"/><path class="cls-19" d="M3,9.73H3a.32.32,0,0,1,.32-.32h.88a.32.32,0,0,1,.31.32h0a.31.31,0,0,1-.31.31H3.3A.31.31,0,0,1,3,9.73Z"/><path class="cls-20" d="M15.54,16.1s3.42-2,1.87-7.68a7,7,0,0,1-.23,7A4.07,4.07,0,0,1,15.54,16.1Z"/><path class="cls-21" d="M15.91,15.29c1.29-1.66,2.58-3.8.8-8.08,0,0,2.81,4.28.17,8.16C16.88,15.37,14.61,17,15.91,15.29Z"/><rect class="cls-22" x="7.06" y="2.72" width="0.72" height="0.23" rx="0.11"/><path class="cls-23" d="M7.09,2.89h0a.06.06,0,0,1,.06-.05h.34a.06.06,0,0,1,.06.05h0A.06.06,0,0,1,7.49,3H7.15A.06.06,0,0,1,7.09,2.89Z"/><rect class="cls-22" x="3.19" y="9.76" width="0.72" height="0.23" rx="0.11"/><path class="cls-23" d="M3.22,9.93h0a.06.06,0,0,1,.06-.06h.34a.06.06,0,0,1,.06.06h0a.06.06,0,0,1-.06.06H3.28A.06.06,0,0,1,3.22,9.93Z"/><path class="cls-22" d="M2,13.17H2a.11.11,0,0,1,.11-.12h1a.12.12,0,0,1,.12.12h0a.12.12,0,0,1-.12.11h-1A.11.11,0,0,1,2,13.17Z"/><rect class="cls-23" x="2.01" y="13.17" width="0.46" height="0.11" rx="0.06"/><rect class="cls-22" x="9.82" y="4.56" width="0.65" height="0.23" rx="0.1"/><rect class="cls-23" x="9.85" y="4.67" width="0.41" height="0.11" rx="0.05"/><path class="cls-22" d="M11.19,4.65h0a.12.12,0,0,1,.11-.12H16a.12.12,0,0,1,.11.12h0a.11.11,0,0,1-.11.11H11.3A.11.11,0,0,1,11.19,4.65Z"/><path class="cls-23" d="M11.27,4.7h0a0,0,0,0,1,.05,0h.94a.06.06,0,0,1,.06,0h0a.06.06,0,0,1-.06.06h-.94S11.27,4.74,11.27,4.7Z"/><path class="cls-22" d="M4.35,6.52h0a.13.13,0,0,1,.12-.12H9.19a.12.12,0,0,1,.11.12h0a.11.11,0,0,1-.11.11H4.47A.12.12,0,0,1,4.35,6.52Z"/><path class="cls-23" d="M4.44,6.56h0A.06.06,0,0,1,4.5,6.5h.93a.06.06,0,0,1,.06.06h0a.06.06,0,0,1-.06.06H4.5A.06.06,0,0,1,4.44,6.56Z"/><path class="cls-22" d="M8.46,2.83h0a.11.11,0,0,1,.11-.11h4.72a.11.11,0,0,1,.11.11h0a.11.11,0,0,1-.11.12H8.57A.11.11,0,0,1,8.46,2.83Z"/><path class="cls-23" d="M8.54,2.88h0a.06.06,0,0,1,.06-.06h.94s.05,0,.05.06h0a0,0,0,0,1-.05.05H8.6A.06.06,0,0,1,8.54,2.88Z"/><path class="cls-22" d="M6.51,8h0a.11.11,0,0,1,.11-.11h4.72a.11.11,0,0,1,.11.11h0a.11.11,0,0,1-.11.12H6.62A.11.11,0,0,1,6.51,8Z"/><path class="cls-23" d="M6.6,8.07h0A.06.06,0,0,1,6.66,8h.93a.06.06,0,0,1,.06.06h0a.06.06,0,0,1-.06.06H6.66A.06.06,0,0,1,6.6,8.07Z"/><path class="cls-22" d="M5,9.87H5a.11.11,0,0,1,.12-.11h6.23a.11.11,0,0,1,.11.11h0a.11.11,0,0,1-.11.12H5.11A.12.12,0,0,1,5,9.87Z"/><path class="cls-23" d="M5.08,9.91h0a0,0,0,0,1,0-.05h.94a.06.06,0,0,1,.06.05h0a.06.06,0,0,1-.06.06H5.13A.06.06,0,0,1,5.08,9.91Z"/><path class="cls-22" d="M5.72,11.73h0a.11.11,0,0,1,.11-.12H8.24a.12.12,0,0,1,.12.12h0a.11.11,0,0,1-.12.11H5.83A.11.11,0,0,1,5.72,11.73Z"/><path class="cls-23" d="M5.79,11.78h0a.06.06,0,0,1,.06,0h.94a0,0,0,0,1,0,0h0a.06.06,0,0,1,0,.06H5.85A.06.06,0,0,1,5.79,11.78Z"/><path class="cls-22" d="M4.81,13.18h0a.11.11,0,0,1,.11-.11H9.64a.11.11,0,0,1,.11.11h0a.11.11,0,0,1-.11.11H4.92A.11.11,0,0,1,4.81,13.18Z"/><path class="cls-23" d="M4.91,13.22h0a0,0,0,0,1,0-.05H5.9a.06.06,0,0,1,.06.05H6a.06.06,0,0,1-.06.06H5S4.91,13.26,4.91,13.22Z"/><path class="cls-24" d="M24.88,5.93l-.47.45a1.65,1.65,0,0,0-.32-.18.88.88,0,0,0-.33-.06.74.74,0,0,0-.6.27,1.66,1.66,0,0,0-.34.66,3.23,3.23,0,0,0-.1.76,1,1,0,0,0,.18.63.6.6,0,0,0,.49.21.91.91,0,0,0,.37-.08,2.5,2.5,0,0,0,.39-.23l.36.52a1.92,1.92,0,0,1-.55.33,1.8,1.8,0,0,1-.69.13A1.41,1.41,0,0,1,22.22,9a1.59,1.59,0,0,1-.39-1.12A3.14,3.14,0,0,1,22,6.74a2.23,2.23,0,0,1,.63-.89,1.68,1.68,0,0,1,1.1-.35A1.45,1.45,0,0,1,24.88,5.93Z"/><path class="cls-24" d="M27.83,5.89A1.56,1.56,0,0,1,28.2,7,3.13,3.13,0,0,1,28,8.09a1.94,1.94,0,0,1-.63.89,1.74,1.74,0,0,1-1.14.36A1.4,1.4,0,0,1,25.17,9a1.57,1.57,0,0,1-.38-1.11A3,3,0,0,1,25,6.76a2,2,0,0,1,.63-.9,1.73,1.73,0,0,1,1.14-.36A1.45,1.45,0,0,1,27.83,5.89Zm-1.75.54a1.84,1.84,0,0,0-.31.7,3.31,3.31,0,0,0-.09.77,1,1,0,0,0,.15.63.55.55,0,0,0,.45.19.7.7,0,0,0,.6-.29,1.71,1.71,0,0,0,.32-.7,4.27,4.27,0,0,0,.1-.8,1.05,1.05,0,0,0-.15-.6.55.55,0,0,0-.45-.19A.75.75,0,0,0,26.08,6.43Z"/><path class="cls-24" d="M31.23,5.89A1.21,1.21,0,0,1,31.69,7a2.51,2.51,0,0,1-.5,1.63,1.94,1.94,0,0,1-1.63.63H28.43L29,5.58h1A2.27,2.27,0,0,1,31.23,5.89Zm-1.48.32L29.4,8.62h.29a.87.87,0,0,0,.85-.5A2.41,2.41,0,0,0,30.79,7a.73.73,0,0,0-.19-.6A.86.86,0,0,0,30,6.21Z"/><path class="cls-24" d="M34.73,5.59l-.18.63H33.24l-.13.87h1.16l-.08.61H33.05l-.14,1h1.4l-.09.63h-2.3l.53-3.67Z"/><path class="cls-24" d="M25.17,10.58l-1.53,2.29-.19,1.37h-.89l.21-1.37-.86-2.29h.94l.46,1.61.92-1.61Z"/><path class="cls-24" d="M27.84,10.88A1.53,1.53,0,0,1,28.21,12,3.13,3.13,0,0,1,28,13.08a1.94,1.94,0,0,1-.63.89,1.78,1.78,0,0,1-1.14.36,1.44,1.44,0,0,1-1.07-.4,1.52,1.52,0,0,1-.37-1.1A3.13,3.13,0,0,1,25,11.74a2,2,0,0,1,.63-.89,1.74,1.74,0,0,1,1.14-.36A1.38,1.38,0,0,1,27.84,10.88Zm-1.73.54a1.9,1.9,0,0,0-.32.69,4.13,4.13,0,0,0-.08.78.93.93,0,0,0,.15.61.5.5,0,0,0,.45.19.7.7,0,0,0,.6-.29,1.84,1.84,0,0,0,.31-.7,3.48,3.48,0,0,0,.09-.79.92.92,0,0,0-.15-.6.55.55,0,0,0-.45-.19A.7.7,0,0,0,26.11,11.42Z"/><path class="cls-24" d="M31.47,13a1.64,1.64,0,0,1-.27.67,1.25,1.25,0,0,1-.55.47,1.74,1.74,0,0,1-.81.17,1.47,1.47,0,0,1-1-.29,1,1,0,0,1-.31-.79,1.64,1.64,0,0,1,0-.23l.34-2.45h.87L29.44,13v.21a.42.42,0,0,0,.35.47h.13a.64.64,0,0,0,.47-.17A1,1,0,0,0,30.6,13l.36-2.4h.87Z"/><path class="cls-24" d="M34.87,12.21a1.44,1.44,0,0,1-.68.49l.71,1.54H34l-.58-1.4H33l-.2,1.4h-.89l.53-3.66h1.21a1.78,1.78,0,0,1,1,.26.79.79,0,0,1,.35.72A1.14,1.14,0,0,1,34.87,12.21Zm-1.77,0h.38a.64.64,0,0,0,.51-.19.69.69,0,0,0,.15-.46.33.33,0,0,0-.13-.31.72.72,0,0,0-.43-.1h-.33Z"/><path class="cls-24" d="M38.13,11l-.47.45a1.07,1.07,0,0,0-.76-.31.67.67,0,0,0-.41.11.32.32,0,0,0-.16.31.33.33,0,0,0,.13.26A2.28,2.28,0,0,0,37,12a1.77,1.77,0,0,1,.72.4.86.86,0,0,1,.24.63,1.22,1.22,0,0,1-.69,1.1,2.37,2.37,0,0,1-1.71,0,1.59,1.59,0,0,1-.57-.38l.5-.49a1.21,1.21,0,0,0,.89.36.86.86,0,0,0,.49-.13.44.44,0,0,0,.17-.37.36.36,0,0,0-.12-.29,1.35,1.35,0,0,0-.47-.22,1.94,1.94,0,0,1-.77-.42.84.84,0,0,1-.23-.61,1.07,1.07,0,0,1,.16-.55,1.11,1.11,0,0,1,.49-.42,1.76,1.76,0,0,1,.81-.17A1.7,1.7,0,0,1,38.13,11Z"/><path class="cls-24" d="M41.05,10.58l-.19.63h-1.3l-.13.87h1.14l-.08.61H39.34l-.13.94H40.6l-.08.63H38.24l.53-3.66Z"/><path class="cls-24" d="M42.46,10.58l-.43,3h1.45l-.19.68H41.06l.52-3.66Z"/><path class="cls-24" d="M46.55,10.58l-.18.63H45.11l-.14,1h1.09L46,12.8H44.89l-.21,1.45H43.8l.55-3.67Z"/></svg>