<?xml version="1.0" encoding="utf-8"?>
<!-- Generator: Adobe Illustrator 23.0.3, SVG Export Plug-In . SVG Version: 6.00 Build 0)  -->
<svg version="1.1" id="Layer_1" xmlns="http://www.w3.org/2000/svg" xmlns:xlink="http://www.w3.org/1999/xlink" x="0px" y="0px"
	 viewBox="0 0 800 220" style="enable-background:new 0 0 800 220;" xml:space="preserve">
<style type="text/css">
	.st0{clip-path:url(#SVGID_2_);}
	.st1{clip-path:url(#SVGID_4_);fill:#FFFFFF;}
	.st2{clip-path:url(#SVGID_4_);}
	.st3{opacity:0.97;clip-path:url(#SVGID_6_);}
	.st4{clip-path:url(#SVGID_8_);fill:#25677D;}
	.st5{clip-path:url(#SVGID_10_);fill:#25677D;}
	.st6{clip-path:url(#SVGID_12_);fill:#25677D;}
	.st7{clip-path:url(#SVGID_14_);fill:#25677D;}
	.st8{clip-path:url(#SVGID_16_);fill:#25677D;}
	.st9{clip-path:url(#SVGID_18_);fill:#25677D;}
	.st10{clip-path:url(#SVGID_20_);fill:#25677D;}
	.st11{clip-path:url(#SVGID_22_);fill:#FFAE00;}
	.st12{clip-path:url(#SVGID_24_);fill:#FFAE00;}
	.st13{clip-path:url(#SVGID_26_);fill:#FFAE00;}
	.st14{clip-path:url(#SVGID_28_);fill:#FFAE00;}
</style>
<g>
	<g>
		<defs>
			<rect id="SVGID_1_" x="-203" y="-201" width="1164" height="662"/>
		</defs>
		<clipPath id="SVGID_2_">
			<use xlink:href="#SVGID_1_"  style="overflow:visible;"/>
		</clipPath>
		<g class="st0">
			<defs>
				<rect id="SVGID_3_" x="-203" y="-201" width="1164" height="662"/>
			</defs>
			<clipPath id="SVGID_4_">
				<use xlink:href="#SVGID_3_"  style="overflow:visible;"/>
			</clipPath>
			<rect x="-102.2" y="-68.4" class="st1" width="969.3" height="387.7"/>
			<g class="st2">
				<defs>
					<rect id="SVGID_5_" x="-203" y="-201" width="1164" height="662"/>
				</defs>
				<clipPath id="SVGID_6_">
					<use xlink:href="#SVGID_5_"  style="overflow:visible;"/>
				</clipPath>
				<g class="st3">
					<g>
						<defs>
							<rect id="SVGID_7_" x="41.8" y="79.9" width="332.6" height="57.7"/>
						</defs>
						<clipPath id="SVGID_8_">
							<use xlink:href="#SVGID_7_"  style="overflow:visible;"/>
						</clipPath>
						<path class="st4" d="M328.6,103.4L328.6,103.4C328.6,103.4,328.6,103.4,328.6,103.4C328.6,103.4,328.6,103.4,328.6,103.4"/>
						<path class="st4" d="M372.1,118.5c-1.8-1.9-3.5-3.8-4.8-6c0,0-0.1-0.1-0.1-0.1c-0.1-0.3-0.2-0.6-0.3-0.9c-0.6-1.1-1.8-2-3-2.7
							c-2.6-1.5-5.8-2.3-8.3-4c-0.3-0.2-0.6-0.2-0.8,0c-0.1-0.1-0.2-0.3-0.4-0.4c-1-0.9-2.5-1.5-3.8-2c-1.5-0.6-3.1-1.2-4.8-1.6
							c-0.6-0.2-1.3-0.3-1.9-0.5c1.3-0.8,0.5-2.7-0.4-3.7c-1.1-1.2-2.6-2-4.4-2.1c-0.2,0-0.5,0.1-0.6,0.3c-0.2,0.3-0.2,0.5,0,0.8
							c0,0,0,0.1,0.1,0.1c-0.2,0-0.4,0.1-0.4,0.1c-0.3,0-0.6,0-0.9,0c-0.2,0-0.4,0-0.5,0.1c-0.9-1.2-3-1.7-4.7-1.7
							c0-0.6-0.3-1.1-0.9-1.5c-0.8-0.6-2-0.7-3-0.8c-1.3-0.2-2.6-0.4-4-0.6c-3.1-0.5-6.2-1-9.4-1.5c-0.3,0-0.5,0-0.6,0.2
							c-1.5-0.6-3.3-0.9-4.9-1.1c-0.3,0-0.5,0-0.7,0.2c-1.6-1.1-3.3-2-5.4-2.2c-2.6-0.3-5.6-0.4-7.4,1.4c-0.1-0.1-0.2-0.2-0.3-0.3
							c-0.9-0.7-2.1-1.3-3.3-1.7c-2.4-0.9-5.1-1.3-7.7-0.7c0,0,0,0,0,0c-1.3-0.4-2.9-0.4-4.2,0.2c0,0,0,0,0,0
							c-2.3-0.1-4.6,0.8-6,2.3c-0.4-0.8-1.2-1.4-2-2c-0.2-0.1-0.4-0.2-0.6-0.1c-0.7-0.6-2.1-0.6-3.1-0.7c-1.4-0.1-2.8-0.2-4.2-0.2
							c-2.9-0.1-5.8-0.2-8.8-0.3c-3.2-0.1-6.4-0.2-9.6-0.3c-0.1-0.1-0.2-0.1-0.4-0.1c-13.1,1-26.3-0.8-39.4-1.6
							c-13.1-0.8-26.2-1.1-39.4-1.3c-26.4-0.4-52.8-0.6-79.2-0.8l-44.9-0.5c-0.9,0-0.9,1.1,0,1.1c26.6,0.3,53.2,0.6,79.7,0.8
							c26.3,0.3,52.7,0.2,79,1.5c7.3,0.4,14.6,1,22,1.5c7.3,0.5,14.7,0.9,22,0.4c0.1,0,0.2,0.1,0.3,0.1c6,0.2,12,0.4,18,0.6
							c1,0,2.1,0.1,3.1,0.1c-1.4,1.3-2.6,2.7-3.5,4.3c-0.2,0.3-0.1,0.6,0.2,0.7c-0.4,1-0.4,2-0.3,3c0.1,1.5,0.3,3,0.6,4.5
							c0.2,1.4,0.5,2.8,0.8,4.2c0.3,1.4,0.6,2.8,1.2,4.1c0.5,1.1,1.2,2.1,2.4,2.7c1.3,0.7,3.1,1,4.6,1.1c1.4,0.1,2.9-0.3,3.7-1.3
							c0.4-0.5,0.5-1,0.3-1.5c0.3,0,0.6,0,0.9,0c0.2-0.1,0.4-0.2,0.6-0.3c1.1,0.9,2.8,1.1,4.2,0.7c0.4-0.1,0.9-0.4,1.2-0.7
							c0,0.1,0.1,0.3,0.3,0.3c1.2,0.5,2.7,0.5,4,0.2c0.6-0.2,1.2-0.5,1.7-0.8c0.3-0.2,0.8-0.8,1.2-0.7c0.1,0,0.2,0,0.3,0
							c4.6,3.6,10,6.4,16,8.2c0.1,0,0.3,0,0.4,0c0.4,0.1,0.9,0.1,1.3,0c4.1,2.8,8.5,5.4,13.2,7.7c0,0,0,0,0,0
							c0.1,0.1,0.1,0.1,0.2,0.2c-0.2,0.1-0.3,0.2-0.3,0.5c0,0.6,0.3,1,0.7,1.4c-0.3-0.1-0.7,0-0.8,0.4c-0.7,1.7-1.2,3.4-1.3,5.2
							c-0.1,1.4,0.4,3.3,2.5,3.4c0.9,0.1,1.7-0.4,2.4-0.8c0.8-0.4,1.5-0.9,2.1-1.5c0.6-0.7,0.9-1.5,1.1-2.3c0.1-0.4,0.2-0.9,0.2-1.3
							c0,0,0.1,0.1,0.1,0.1c1.1,0.8,2.3,1.6,3.4,2.3c1,0.6,2.2,1.2,3.5,1.2c2.7,0,3.5-2.3,3.7-4.1c0.2-2.4-1.9-4.3-3.5-6.1
							c-1.1-1.2-2.3-2.4-3.5-3.5c0.1-0.1,0.2-0.2,0.2-0.3c0.2-0.7,0.4-1.4,0.5-2.1c0-0.2,0-0.3-0.1-0.4c-0.1-0.1-0.2-0.2-0.4-0.3
							c0.4-1.3,0.7-2.6,0.8-3.9c0-0.1,0-0.2,0-0.3c0.2,0.2,0.5,0.3,0.8,0.5c0.9,0.4,1.7,0.9,2.5,1.4c0.7,0.5,1.4,1.2,2.3,1.5
							c-0.1,0.1-0.1,0.2-0.1,0.2c-0.1,0.8,0.6,1.7,1.4,2.2c0.1,0.1,0.2,0.1,0.3,0.1c-0.3,0.1-0.5,0.3-0.5,0.5c-0.2,1-0.3,2,0.2,3
							c0.4,0.9,1.4,1.6,2.2,2.3c0.4,0.3,0.7,0.6,1.2,0.8c0,0.9,0.1,2,0.8,2.7c-0.1,0.1-0.2,0.2-0.2,0.4c-0.1,1.5-0.1,3,0.2,4.5
							c0.2,1.3,0.7,2.8,1.9,3.7c1,0.8,2.8,1.1,4,0.3c1.3-0.9,0.9-2.7,0.9-3.9c0-1.8,0-3.6,0-5.4c0.4,1.9,0.8,3.8,1.3,5.6
							c0.5,1.8,1.3,3.6,2.8,5.1c0.9,0.9,3.3,2.8,4.6,1.4c0.6-0.7,0.7-1.7,0.8-2.5c0.1-0.9,0.1-1.9-0.1-2.8c-0.3-2.3-1.1-4.5-1.2-6.8
							c0-0.2-0.1-0.3-0.3-0.4c-0.2-1,0-2-0.5-3c-0.5-0.9-1.5-1.5-2.3-2.2c-0.9-0.8-1.6-1.6-2.2-2.6c-0.5-0.8-1.1-1.5-1.8-2.2
							c0.1-0.2,0.1-0.4-0.1-0.5c0-0.1,0-0.2,0-0.2c-1.1-2.1-2.6-3.9-4.4-5.6c0.9,0,1.7,0,2.6,0c0.3,0.6,0.7,1.2,1.5,1.6
							c0.5,0.2,1,0.3,1.6,0.3c0,0.4,0.1,0.8,0.3,1.2c0.6,1.3,2.3,1.8,3.7,2.4c0.8,0.3,1.5,0.6,2.3,0.8c0,0.1,0,0.1,0.1,0.2
							c0.8,1.4,2.3,2.6,4,3.2c0,0,0.1,0,0.1,0c-0.1,0.5,0,1,0.3,1.5c0.9,1.7,2.9,2.7,4.8,3.7c0.5,0.3,1.1,0.5,1.6,0.8
							c0.6,0.3,1.1,0.6,1.7,0.8c1,0.3,1.8-0.1,2.2-0.9C375.1,121.9,373.5,119.9,372.1,118.5 M339.5,96.6c0.4-0.2,0.6-0.5,0.6-0.8
							c0.8,0.3,1.6,0.7,2.2,1.3c0.4,0.4,0.7,0.8,0.8,1.3c0.1,0.3,0.3,1.1-0.2,1.2c-0.3,0.1-0.4,0.2-0.5,0.4
							c-0.7-0.1-1.5-0.3-2.2-0.4c-0.7-0.1-1.5-0.3-2.1,0.2c-0.1,0-0.1,0.1-0.1,0.1c-0.4-1-0.5-2-0.8-3
							C338,96.9,338.8,96.9,339.5,96.6 M331.5,96.1c0.1,0.1,0.3,0.2,0.5,0.2c1.3-0.1,1.8,2.8,0.6,3.1c-0.7,0.2-1.9-0.2-2.7-0.4
							l-2.9-0.6c-3.6-0.7-7.2-1.4-10.8-1.6c-0.1-0.1-0.1-0.2-0.2-0.3c0.2,0,0.4-0.1,0.5-0.4c0.2-0.6,0.3-1.1,0.4-1.7
							c2.5,0.6,4.9,1.3,7.4,1.9c1.3,0.3,2.6,0.6,3.9,0.9c1,0.2,2,0.2,2.7-0.4C331.2,96.7,331.3,96.4,331.5,96.1 M330.1,103
							c0,0-0.1,0-0.1,0.1c-0.1,0.1-0.2,0.1-0.3,0.1c0,0,0,0,0,0c-0.1,0-0.1,0-0.2,0c-0.1,0-0.2,0-0.3,0.1c0,0,0,0,0,0
							c-0.1,0-0.1,0-0.2,0c-0.1,0-0.2,0-0.3,0c0,0,0,0,0,0c0,0,0,0,0,0c0,0,0,0,0,0c-0.1,0-0.1,0,0,0c0,0,0,0,0,0
							c-0.1,0-0.1,0-0.2,0c-0.1,0-0.1,0-0.2,0c0.1-0.4,0.2-0.9,0.2-1.3c0.1-0.4,0.1-0.9-0.2-1.3c-0.3-0.4-0.9-0.5-1.5-0.6
							c-0.6-0.1-1.2-0.1-1.8-0.2c-1.4-0.2-2.7-0.4-4.1-0.7c-0.3-0.1-0.6,0-0.8,0.3c-0.3,0.5-0.5,1-0.4,1.5c0,0-0.1,0-0.1,0
							c-1.1-0.4-2.1-0.8-3.1-1.3c-0.2-0.1-0.4-0.2-0.7-0.3c0.1,0,0.1,0,0.2-0.1c0.5-0.3,0.6-0.8,0.6-1.2c4.6,0.2,9,1.3,13.4,2.2
							c-0.3,0.9,0,1.7,0.6,2.4c-0.1,0-0.2,0.1-0.2,0.1C330.4,102.9,330.3,102.9,330.1,103C330.2,103,330.2,103,330.1,103
							 M327.1,101.5c0,0.2,0,0.3-0.1,0.5c0,0.4-0.1,0.7-0.2,1.1c0,0.2-0.1,0.4-0.1,0.5c0,0,0,0.1,0,0.2c-0.2,0-0.3-0.1-0.5-0.1
							c-0.3-0.1-0.6-0.2-0.8-0.3c-0.6-0.2-1.2-0.4-1.8-0.4c0-0.4-0.2-0.8-0.9-1.1c-0.5-0.2-1-0.4-1.6-0.5c0.1-0.1,0.1-0.2,0.1-0.3
							c0-0.2,0-0.5,0.1-0.7c1.6,0.3,3.3,0.6,4.9,0.8c0.2,0,0.5,0,0.7,0.1c0.1,0,0.3,0.1,0.2,0C327.2,101.3,327.1,101.5,327.1,101.5
							 M331.6,101.8C331.6,101.7,331.6,101.7,331.6,101.8c0-0.1-0.1-0.1-0.1-0.1c-0.1-0.1-0.1-0.3-0.1-0.4c0,0,0-0.2,0-0.1
							c0-0.1,0-0.1,0-0.2c0-0.1,0-0.1,0-0.2c0,0,0-0.1,0-0.1c0-0.1,0-0.1,0.1-0.2c0.5,0.1,1.1,0.1,1.6,0c0,0,0,0,0,0
							c0.1,0.2,0.2,0.5,0.3,0.8c0.1,0.3,0.1,0.5,0.1,0.7c0,0.2,0.1,0.5,0,0.7c0,0,0,0,0,0c0,0,0,0,0,0l0,0.1h0c0,0-0.1,0-0.1,0
							c-0.1,0-0.3,0-0.4-0.1c0,0-0.1,0-0.1,0c0,0-0.1,0-0.1-0.1c-0.1-0.1-0.2-0.1-0.4-0.2l-0.1,0c0,0,0,0,0,0
							c-0.1,0-0.1-0.1-0.2-0.1c-0.1-0.1-0.2-0.2-0.3-0.2c0,0,0,0-0.1-0.1c0,0-0.1-0.1-0.1-0.1C331.6,101.8,331.6,101.8,331.6,101.8
							 M323,92.1c1.4,0.2,2.9,0.5,4.3,0.7c1,0.2,3,0.2,3.3,1.2c0.2,0.7-0.3,2.4-1.3,2.4c-0.7,0-1.4-0.3-2-0.4
							c-0.7-0.2-1.4-0.3-2.1-0.5c-2.7-0.7-5.4-1.3-8.1-2.1c0,0,0,0,0,0c0-0.9-0.3-1.7-1.1-2.4L323,92.1z M314.5,91.3
							c1.6,1.2,1.2,2.9,0.8,4.4c-0.4-0.4-0.7-0.7-1.1-1c-0.4-0.3-0.9-0.6-1.1-1c-0.1-0.2-0.3-0.3-0.5-0.4c0,0,0-0.1,0-0.1
							c0-0.5-0.4-1-0.8-1.4c-0.1-0.1-0.2-0.1-0.3-0.1c0-0.1,0-0.2,0-0.2c-0.1-0.4-0.5-0.7-0.8-1c-0.2-0.2-0.5-0.4-0.7-0.6
							C311.5,90.1,313.3,90.4,314.5,91.3 M306.6,91.6c0.1,0,0.2,0,0.3,0.1c1,0.3,2,1,3.1,1c0.3,0,0.5,0,0.7-0.1c0,0,0,0.1,0.1,0.1
							c0.1,0.1,0.3,0.3,0.4,0.4c0,0,0,0.1,0,0.1c0,0,0,0,0,0.1c0,0,0,0,0,0c0,0,0,0.1-0.1,0.1c-0.1,0-0.2,0.1-0.3,0.1
							c-0.3,0.1-0.5,0.2-0.7,0.4c-0.8,0.6-0.9,1.4-0.9,2.2c-1.2-0.5-2.4-0.9-3.7-1.2c0.3-0.7,0.5-1.4,0.8-2c0.1-0.3,0.3-0.7,0.3-1.1
							C306.6,91.6,306.6,91.6,306.6,91.6 M310.7,95C310.7,95,310.8,95,310.7,95c0.1-0.1,0.1-0.1,0.1-0.2c0.1-0.1,0.1-0.1,0.2-0.2
							c0,0,0.1-0.1,0.1,0c0,0,0.1-0.1,0.2-0.1c0.1,0,0.2-0.1,0.3-0.1c0.1,0,0.1-0.1,0.2-0.1c0.2,0.4,0.5,0.7,0.9,0.9
							c0.5,0.3,0.9,0.7,1.3,1c0.4,0.4,0.7,0.8,1,1.2c0.2,0.3,0.5,0.7,0.1,1c-0.1,0.1-0.2,0.2-0.2,0.3c-1.5-0.8-2.9-1.5-4.4-2.2
							c0-0.1,0.1-0.1,0.1-0.2C310.6,95.9,310.5,95.4,310.7,95 M300,87.6c1.4-0.1,3,0,4.3,0.4c1.2,0.3,2.3,1,3.3,1.7
							c0.5,0.3,0.9,0.7,1.3,1c0.2,0.2,0.5,0.4,0.7,0.6c0.1,0.1,0.2,0.2,0.3,0.3c-0.5,0-1.1-0.4-1.5-0.5c-0.5-0.2-1-0.4-1.6-0.6
							c-1.2-0.4-2.6-0.4-3.9-0.7c-2-0.4-3.8-1.2-5.8-1.3C297.9,87.9,298.9,87.6,300,87.6 M305.1,92c0,0.1-0.1,0.2-0.1,0.3
							c-0.3,0.7-0.6,1.5-0.8,2.2c-1-0.2-2.1-0.2-3.1-0.3c0.2-0.6,0.3-1.3,0.8-1.8c0.2-0.2,0.5-0.4,0.8-0.5c0.4-0.1,0.8-0.1,1.2-0.1
							C304.3,91.9,304.7,91.9,305.1,92 M296.3,94.2c0.6-1.1,0.4-2.4,0.3-3.6c0-0.4-0.1-0.7-0.1-1.1c2.1-0.1,4.1,0.8,6.1,1.2
							c-0.8,0.1-1.4,0.4-1.9,1c-0.6,0.6-0.8,1.4-1,2.2c0,0.1,0,0.2,0,0.3C298.6,94.2,297.4,94.3,296.3,94.2
							C296.3,94.3,296.3,94.3,296.3,94.2 M292.3,87.3c1.1,0.5,2.6,1.1,2.9,2.1c0.3,1.1,0.2,2.3,0.2,3.4c-0.1,1.2-0.9,1.7-2.1,2.3
							c-1.1,0.5-2.2,0.9-3.2,1.6c-0.7,0.4-1.2,0.9-1.7,1.5c-0.3-1.2-0.5-2.3-0.7-3.5c-0.1-1.3-0.2-2.7-0.1-4
							c0.1-1.2,0.2-2.4-0.5-3.5c-0.3-0.4-0.6-0.8-1-1.1C288.2,86,290.4,86.5,292.3,87.3 M281.6,99c1,1.8,2,3.7,3.5,5.3
							c-0.4-0.4-0.8-0.7-1.3-1c-0.3-0.2-0.7-0.4-1-0.5c0-0.1,0-0.2-0.1-0.2c-0.9-1.1-2.4-1.7-4-1.9c-0.1,0-0.3,0-0.4,0
							c0-0.4-0.1-0.8-0.2-1.2c-0.2-0.7-0.5-1.4-0.7-2c-0.4-1.3-0.6-2.8-0.4-4.2c0.1-0.7,0.5-0.8,1.3-0.7c0.4,0,0.9,0,1.3,0
							c0,0.2,0,0.4,0,0.5C279.7,95.1,280.5,97.1,281.6,99 M278.5,102.4C278.5,102.4,278.5,102.4,278.5,102.4
							c-0.1-0.1-0.1-0.1-0.1-0.1c0,0,0,0,0-0.1c0,0,0,0,0,0c0-0.1-0.1-0.2-0.1-0.3c0,0,0,0,0,0c0,0,0,0,0,0c0,0,0-0.1,0-0.1
							c0.1,0,0.3,0,0.4,0c0,0,0,0,0,0c0,0,0,0,0,0c0.1,0,0.1,0,0.2,0c0.3,0,0.5,0.1,0.8,0.2c0,0,0.1,0,0.1,0c0.1,0,0.1,0,0.2,0.1
							c0.1,0.1,0.2,0.1,0.4,0.2c0.1,0.1,0.2,0.1,0.3,0.2c0,0,0.1,0.1,0.1,0.1c0,0,0.1,0,0.1,0.1c-0.6,0-1.1,0-1.7,0
							c-0.1,0-0.2,0-0.3,0C278.8,102.6,278.7,102.5,278.5,102.4C278.5,102.4,278.4,102.4,278.5,102.4 M274.5,89.1
							c0.1,0,0.3-0.1,0.4-0.2c1-1.4,2.8-2.2,4.7-2.3c0,0,0,0,0.1,0.1c-0.1,1.1-0.1,2.2-0.2,3.3c-0.4-0.1-0.8-0.2-1.3-0.2
							c-1.2,0-2.4,0-3.6,0C274.5,89.5,274.5,89.3,274.5,89.1 M274,90.8c1.1,0,2.2,0,3.4,0c0.5,0,1,0,1.4,0.1c0.1,0,0.2,0.1,0.3,0.2
							c0.1,0.1,0.1,0.2,0.1,0.3c0,0,0,0,0,0c-1,0.1-2.1-0.2-3,0.4c-0.5,0.4-0.7,0.9-0.7,1.4c-0.1,0.7-0.1,1.4,0,2.1
							c0.1,1.3,0.6,2.6,1,3.9c0.2,0.5,0.6,1.4,0.3,1.9c-0.2,0.4-1.1,0.3-1.5,0.3c-0.1-0.3-0.2-0.7-0.3-0.9c-0.3-0.9-0.7-1.9-1.1-2.8
							c-0.8-1.9-1.6-4-0.9-6.1C273.4,91.4,273.8,91.1,274,90.8 M270.5,100.9c0.6,0.6,1.2,1.2,2.1,1.6c0.3,0.1,0.6,0.3,1,0.4
							c-0.4,1-0.4,2.1,0.1,3.1c-0.5,0-1,0-1.5,0.1c-0.1,0-0.1,0-0.2,0.1c-2.9-1.3-4.3-4-4.6-6.6c-0.3-2.5-0.5-5.9,2.4-7.5
							c0.1-0.1,0.2-0.1,0.2-0.2c0,0,0,0,0,0c0.5,0.1,0.9,0.1,1.4,0.1c-0.1,0.3-0.1,0.6-0.1,0.9c-0.7,0.2-1.4,0.5-1.8,1
							c-0.6,0.6-0.7,1.5-0.7,2.3C268.7,97.9,269.3,99.5,270.5,100.9 M273.1,101.5c-0.4-0.2-0.8-0.6-1.2-0.9
							c-0.7-0.7-1.2-1.5-1.5-2.3c-0.3-0.8-0.4-1.7-0.3-2.5c0.1-0.4,0.2-0.9,0.5-1.2c0.2-0.2,0.4-0.3,0.7-0.4
							c0.1,0.8,0.3,1.7,0.6,2.5c0.3,0.9,0.7,1.8,1.1,2.8c0.2,0.5,0.4,0.9,0.5,1.4c0.1,0.2,0.3,0.7,0.3,1c-0.1,0-0.1,0-0.2,0
							C273.5,101.7,273.3,101.6,273.1,101.5 M271.9,87.2c1,0.8,1.8,2,0.9,3c-0.5,0.6-1.4,0.7-2.2,0.6c-0.8-0.1-1.6-0.2-2.4-0.4
							c0.5-0.3,1.1-0.5,1.5-0.8C270.6,89.1,271.7,88.2,271.9,87.2 M267.9,86.4c0.1-0.1,0.2-0.2,0.2-0.3c0.6,0,1.3,0.1,1.9,0.2
							c0.8,0.2,0.6,0.7,0.3,1.2c-0.5,0.8-1.6,1.4-2.5,1.8c-0.9,0.4-2,0.9-3.1,0.8C265.6,88.8,266.6,87.5,267.9,86.4 M268.9,108.7
							c-0.9-0.4-1.5-1-1.9-1.9c-0.5-1.2-0.8-2.5-1.1-3.7c-0.3-1.4-0.6-2.7-0.9-4.1c-0.2-1.4-0.4-2.8-0.6-4.2
							c-0.1-1.2-0.3-2.4,0.2-3.5c0.7,0,1.3,0,2-0.2c0.1,0.1,0.2,0.2,0.4,0.2c0.5,0.1,0.9,0.3,1.4,0.4c-2.6,1.9-2.7,5.3-2.4,8
							c0.3,2.8,1.7,5.6,4.7,7.2c-0.7,0.5-1.3,1.1-1.7,1.8C269,108.6,269,108.7,268.9,108.7 M275,108.9c-1,1.2-3.4,0.7-4.7,0.3
							c0,0-0.1,0-0.1,0c0,0,0,0,0,0c0.6-0.9,1.5-2,3-2.1C274.3,107,275.8,107.9,275,108.9 M277,106.8C277,106.8,277,106.9,277,106.8
							c0,0-0.2,0-0.3,0c-0.1,0-0.3-0.1-0.4-0.1c-1.1-0.4-1.6-1.3-1.7-2.3c0.7,0.5,1.3,1,1.9,1.6c0.2,0.2,0.3,0.3,0.4,0.5
							C277,106.7,277.1,106.8,277,106.8C277.1,106.8,277.1,106.8,277,106.8 M278.2,106c-0.1-0.1-0.2-0.3-0.3-0.4
							c-0.8-0.8-1.7-1.6-2.7-2.3c-0.1-0.1-0.2-0.1-0.3-0.1c0.1-0.2,0.1-0.3,0.2-0.5c0.1-0.1,0.1-0.2,0.2-0.3c0.6,0,1.2,0,1.7-0.2
							c0.1,0.4,0.4,0.8,0.9,1.1c0,0.1,0,0.3,0.1,0.4c0.3,0.5,0.9,0.8,1.5,1c0.3,0.1,0.5,0.1,0.7,0.3c0.1,0.1,0.1,0.2,0,0.3
							c-0.2,0.2-0.5,0.2-0.8,0.3C278.9,105.7,278.5,105.8,278.2,106C278.2,106,278.2,106,278.2,106 M281.5,107.3
							c-0.8,0.2-1.7,0-2.4-0.4c0.4-0.2,0.9-0.3,1.4-0.4c0,0,0.1,0.1,0.1,0.1c0.3,0.2,0.6,0.3,0.9,0.5c0.1,0,0.3,0.1,0.5,0.1
							C281.8,107.2,281.7,107.3,281.5,107.3 M281.5,105.6c0.1-0.2,0.2-0.4,0.1-0.7c-0.1-0.5-0.7-0.9-1.3-1.1c-0.1,0-0.3-0.1-0.4-0.1
							h0.1c0.5,0,1,0,1.5,0c0.4,0,0.8,0.1,1.1,0.3c0.3,0.2,0.6,0.4,0.9,0.7c0.3,0.3,0.7,0.5,0.9,0.8c0,0,0,0,0.1,0.1c0,0,0,0,0,0
							c-0.1,0-0.3,0.1-0.4,0.1C283.3,105.6,282.4,105.6,281.5,105.6 M287.7,106.9c-1,0.4-2.3,0.5-3.3,0.1c-0.2-0.1-0.5-0.1-0.7,0
							c0-0.1,0-0.2,0-0.2c0.7,0,1.5,0,2-0.6c0.2-0.2,0.3-0.6,0.2-0.9c-0.1-0.2-0.2-0.3-0.3-0.4c0.9,0.7,2,1.2,3.2,1.3
							C288.5,106.4,288.1,106.7,287.7,106.9 M285.3,102.6c-1.1-1.6-2.1-3.2-2.9-4.9c-0.8-1.7-1.4-3.5-1.5-5.4
							c-0.1-1.9,0.1-3.9,0.2-5.8c2.4-0.9,5.1,0.4,5.2,2.7c0.1,1.2-0.1,2.4-0.1,3.6c0,1.2,0.1,2.4,0.4,3.6c0.4,2.4,1.2,4.7,2.3,7
							c0.3,0.7,0.7,1.3,1.3,1.8C287.9,105.5,286.2,103.9,285.3,102.6 M292.1,105.9c0.7,0.1,1.4,0.2,2,0.3c1.5,0.2,2.8,0.7,3.7,1.7
							c0.7,0.8,1.1,1.6,1.4,2.5C296.7,109.1,294.3,107.6,292.1,105.9 M306.2,112.7c0,0.2,0,0.4,0,0.6c-1.8-0.6-3.6-1.3-5.3-2
							c-0.7-2.1-1.7-4.5-4.3-5.6c-1.2-0.5-2.5-0.5-3.8-0.8c-0.6-0.1-1.1-0.2-1.6-0.5c-0.7-0.4-1.1-1.2-1.4-1.8
							c-0.3-0.5-0.5-1.1-0.7-1.6c0,0,0-0.1,0-0.1c-1.1-2.4,2.7-3.8,4.7-4.7c0.4-0.2,0.8-0.4,1.1-0.6c0.1,0,0.1,0,0.2,0
							c3-0.2,6.1-0.4,9.1,0.2c2.5,0.4,4.8,1.4,6.9,2.5c2.1,1.1,4.1,2.2,6.3,3.2c1.1,0.5,2.2,0.9,3.4,1.2c0.5,0.1,1.4,0.2,1.1,0.8
							c-0.2,0.3-0.5,0.5-0.9,0.7c-2.2-2.5-7.4-0.7-9.8,0.8C308.3,106.7,306.3,109.6,306.2,112.7 M307.8,113.7
							c-0.5-0.4-0.2-1.7-0.1-2.1c0.3-1.4,1-2.7,2-3.9c1.1-1.3,2.7-2.4,4.4-3.1c1.8-0.7,4.8-1.4,6,0.3c-0.2-0.1-0.4-0.2-0.7-0.2
							c-1.6-0.3-3.5,0.3-5,0.8c-1.5,0.5-3.1,1.1-4.2,2.1c-1.2,1.1-1.8,2.5-1.8,4C308.5,111.9,308.7,114.3,307.8,113.7 M321.7,121.1
							c-4.2-2.1-8.3-4.5-12.1-7.1c0.2-0.3,0.3-0.7,0.3-1c0-1-0.1-2,0.2-3c0.6-1.6,2.3-2.6,4.2-3.3c0.9-0.3,1.8-0.5,2.7-0.7
							c0.9-0.2,2.4-0.5,2.9,0.3c0.3,0.4,0.4,1.1,0.5,1.5c0.1,0.5,0.3,0.9,0.5,1.3c0.4,0.9,0.8,1.7,1.5,2.5c1.2,1.3,2.9,2.2,4.1,3.4
							c-1.3,0.2-2.6,0.6-3.3,1.7c-0.4,0.7-0.6,1.4-0.8,2.1C322.2,119.7,322,120.4,321.7,121.1 M331.7,108.3c0,0,0,0.1,0,0.1
							c0,0.1,0,0.2,0,0.3c0,0.6,0,1.2-0.1,1.8c-0.1,1-0.3,2.1-0.6,3.1c-1.2-0.1-2.4-0.2-3.6-0.4c-0.4-0.1-0.7,0.1-0.8,0.4
							c-0.6-0.5-1.3-1-1.9-1.5c-1.5-1.2-2.3-2.4-2.8-4c2.9,0.3,5.8,0.4,8.8,0.3C330.9,108.4,331.5,108.3,331.7,108.3
							C331.7,108.3,331.7,108.3,331.7,108.3 M331.5,114.8c-0.1,0.6-0.2,1.1-0.4,1.7c-0.7-0.6-1.4-1.3-2.2-1.9c0,0-0.1,0-0.1,0
							C329.7,114.7,330.6,114.8,331.5,114.8 M326.9,128.7c-0.2,0.9-0.5,1.7-1.3,2.3c-0.4,0.3-0.8,0.5-1.2,0.8
							c-0.4,0.2-0.8,0.5-1.3,0.6c-1.1,0.2-1.5-1-1.5-1.7c0-1.9,0.6-3.8,1.3-5.5c0-0.1,0-0.2,0-0.2c0.9,0.6,2.1,1,2.9,1.5
							c0.4,0.2,1,0.5,1.2,0.9C327.2,127.7,327,128.3,326.9,128.7 M335.1,128.2c-0.3,0.4-0.7,0.6-0.9,1c-0.1,0.1-0.1,0.3-0.1,0.4
							c-1.5-0.6-3.2-1.8-4.1-2.4c-0.5-0.3-0.9-0.7-1.4-1c0.2-0.1,0.4-0.3,0.4-0.5c-0.1-0.4,0.2-0.7,0.6-1c0.2-0.1,0.4-0.2,0.6-0.3
							c0.2-0.1,0.5-0.3,0.7-0.3c0.3,0,0.7,0.4,0.9,0.5c0.4,0.3,0.9,0.6,1.3,0.9c0.8,0.5,1.7,1,2,1.8
							C335.4,127.6,335.4,127.9,335.1,128.2 M334.5,121.6c1,1,2,2.1,2.7,3.2c0.8,1.1,0.6,2.5,0.2,3.7c-0.4,1.2-1.2,1.5-2.1,1.4
							c0,0,0.1-0.1,0.1-0.1c0.2-0.4,0.6-0.6,0.8-0.9c0.3-0.4,0.5-0.8,0.4-1.2c0-0.9-0.6-1.7-1.4-2.2c-0.8-0.6-1.8-1.1-2.6-1.7
							c-0.4-0.3-0.8-0.6-1.3-0.7c-0.6-0.1-1.1,0.1-1.6,0.3c-1,0.5-2,1.2-2.1,2.2c-1.6-1.2-3.3-2.4-4.8-3.7c0.4-1.3,0.7-2.5,1.2-3.7
							c0.2-0.6,0.6-1.2,1.3-1.5c0.7-0.3,1.5-0.4,2.2-0.4c0.3,0,0.5-0.2,0.6-0.3C330.5,117.6,332.6,119.5,334.5,121.6 M332,107.3
							c-0.3,0-0.6,0-0.9,0c-0.4,0-0.8,0-1.2,0.1c-0.9,0-1.8,0-2.7,0c-1.7,0-3.4-0.1-5.1-0.3c-0.2,0-0.3,0-0.4,0
							c-0.2-0.7-0.4-1.3-1-1.8c0.2,0,0.4,0,0.5-0.1c0.7-0.2,1.4-0.7,1.9-1.2c0.1,0.1,0.2,0.1,0.4,0.1c1,0,1.8,0.5,2.7,0.8
							c0.5,0.1,1.2,0.2,1.6-0.1c0.1-0.1,0.2-0.2,0.3-0.4c0,0,0,0,0.1,0c1.2,0.3,2.6-0.1,3.4-0.8c0.1-0.1,0.1-0.1,0.1-0.2
							c0.5,0.3,1.3,0.6,2,0.5c0.5,0,0.9-0.2,1.1-0.6c0.2-0.3,0.2-0.6,0.2-0.9c0-0.8-0.2-1.5-0.5-2.2c0-0.1-0.2-0.2-0.3-0.3
							c0.4-0.4,0.5-0.9,0.6-1.4c0.1-1.1-0.3-2.8-1.6-3.2c0.5,0.1,0.9,0.2,1.3,0.3c0.3,0.1,0.8,0.3,1,0.5c0.2,0.2,0.4,0.6,0.4,0.8
							c0.5,1.4,0.5,2.8,1.3,4c0.1,0.1,0.2,0.2,0.4,0.3c-0.1,1.1-0.1,2.3,0.2,3.4c-0.1,0-0.2,0-0.3,0c-0.9,0.3-1.6,0.7-2.3,1.2
							c-0.7,0.5-1.5,1-2.4,0.9C332.4,106.8,332.1,107,332,107.3 M339,112.4c-0.7-0.3-1.3-0.9-1.9-1.4c-0.7-0.4-1.4-0.8-2.1-1.2
							c-0.6-0.3-1.2-0.6-1.5-1.1c-0.1-0.2-0.2-0.3-0.4-0.3c0-0.2-0.1-0.3-0.1-0.5c0.9,0,1.8-0.4,2.5-0.8c0.4-0.3,0.8-0.6,1.3-0.9
							c-0.1,0.6-0.3,1.2-0.3,1.7c0,0.8,0.3,1.6,0.9,2.3c0.9,0.9,2.2,1.4,3.1,2.2C340,112.6,339.5,112.6,339,112.4 M339.9,113.7
							C339.9,113.7,339.9,113.7,339.9,113.7c0.5-0.1,1-0.2,1.4-0.3c0,0.2,0.1,0.4,0.3,0.5c0.1,0,0.1,0,0.2,0.1
							c0.3,0.1,0.5,0.2,0.8,0.3c0.1,0.1,0.2,0.1,0.4,0.2c0,0,0.1,0,0.1,0.1c-0.3,0.3-0.7,0.6-1.2,0.8
							C341,115.6,339.8,114.5,339.9,113.7 M343,121c-0.7-0.6-1.5-1.2-1.8-1.9c-0.3-0.8-0.1-1.7,0-2.5c0-0.1,0-0.2-0.1-0.2
							c0.6,0.1,1.2,0.1,1.7-0.2c0.4-0.2,0.9-0.5,1.3-0.8c0,0.2-0.1,0.5-0.1,0.7c0,0.4,0.1,0.7,0.4,1c0.6,0.5,1.5,0.6,2.3,0.4
							c-0.4,1.7,0,3.5,1.1,5c-0.9,0.1-1.8,0.2-2.6-0.1C344.3,122.1,343.6,121.6,343,121 M345.5,114.7c1.5,0.1,3,0,4.5,0.1
							c-0.8,0.6-1.9,0.9-2.8,1.3c-0.3,0.1-1.4,0.7-1.8,0.2c-0.1-0.2,0-0.6,0.1-0.8C345.5,115.3,345.5,115,345.5,114.7 M349.4,132.4
							c0,0.6-0.3,1.3-1.2,1.3c-1.8,0-2.4-1.9-2.7-3c-0.4-1.5-0.4-3-0.3-4.5c0,0,0,0,0.1,0c0.9,0.3,1.8,0.1,2.7-0.3
							c0.5-0.2,1-0.4,1.5-0.6l0,4.7C349.4,130.8,349.4,131.6,349.4,132.4 M347.6,124.8c-0.5,0.2-1.2,0.6-1.8,0.4
							c-0.9-0.2-1.1-1.1-1.2-1.9c0.1,0,0.1,0.1,0.2,0.1c1.3,0.4,2.6,0.2,3.9,0c0,0,0.1,0.1,0.1,0.1c0.2,0.2,0.4,0.3,0.6,0.4
							C348.8,124.3,348.2,124.6,347.6,124.8 M357.6,125.1c0.2,2.1,0.8,4.1,1.1,6.2c0.2,1,0.3,2,0.1,3.1c-0.1,0.5-0.2,1.1-0.4,1.6
							c-0.1,0.3-0.1,0.5-0.6,0.4c-0.3,0-0.5-0.2-0.7-0.3c-2-1.3-3.1-3.3-3.7-5.2c-0.6-1.9-1-3.8-1.4-5.7c1.6,0.3,3.3,0.2,4.9,0.1
							C357.3,125.2,357.4,125.2,357.6,125.1C357.6,125.1,357.6,125.1,357.6,125.1 M352.6,117.3c0.6,0.9,1.3,1.7,2.1,2.5
							c0.7,0.7,1.7,1.3,2.2,2.1c0.4,0.7,0.3,1.5,0.4,2.3c-0.1,0-0.1,0-0.2,0c-1.8,0.1-3.7,0.3-5.4-0.2c-0.1-0.1-0.2-0.1-0.4-0.1
							c-0.5-0.2-1.1-0.5-1.5-0.9c-1.7-1.5-2.4-3.7-1.8-5.7c0-0.1,0-0.2,0-0.3c0.6-0.2,1.2-0.5,1.8-0.8c0.4-0.2,0.8-0.5,1.2-0.7
							C351.7,116,352.2,116.7,352.6,117.3 M350.3,113.7c-2.3,0-4.7,0.2-6.8-0.4c-0.4-0.2-0.8-0.3-1.2-0.4c0-0.1,0-0.3-0.1-0.4
							c-0.9-1.2-2.4-1.8-3.6-2.8c-0.6-0.5-0.9-1.1-0.8-1.8c0-0.7,0.3-1.4,0.4-2.1c0.5,0.8,1.2,1.4,2.3,1.7c1.5,0.4,3.2,0.4,4.8,0.5
							c0.1,0,0.2,0,0.2,0c0,0.1,0.1,0.1,0.2,0.2C347.6,109.9,349.2,111.7,350.3,113.7 M353.1,108.9
							C353.1,108.9,353.1,108.9,353.1,108.9C353.1,108.9,353.1,108.9,353.1,108.9c-0.1,0-0.1,0-0.2,0c0,0-0.1,0,0,0c0.1,0,0,0,0,0
							c0,0-0.1,0-0.1,0c0,0-0.1,0,0,0c0.1,0,0,0,0,0c-0.1,0-0.2,0-0.2-0.1c-0.1,0,0,0,0,0c0,0-0.1,0-0.1,0c-0.1,0-0.1-0.1-0.2-0.1
							c0,0-0.1-0.1-0.1-0.1c-0.1,0-0.1-0.1-0.2-0.1c0,0,0,0,0,0c0,0,0,0,0,0c0,0-0.1-0.1-0.1-0.1c-0.1-0.1-0.1-0.1-0.2-0.2
							c0,0-0.1-0.1-0.1-0.1c0.6,0,1.2,0,1.8-0.1C353.2,108.3,353.2,108.6,353.1,108.9 M353.8,106.8c-0.5,0.2-1.5,0.2-2.1,0.2
							c-0.7,0-1.4,0.1-2.1,0.1c-1.4,0-2.8,0-4.2,0c-1.3,0-2.6,0-3.8-0.3c-1.5-0.3-2.2-0.9-2.5-2.1c-0.3-1.2-0.3-2.4-0.2-3.5
							c0.2-0.1,0.3-0.4,0.2-0.6c0,0,0,0,0.1,0c0.1,0,0.3,0,0.4,0.1c0.3,0,0.6,0.1,0.9,0.1c0.7,0.1,1.3,0.2,2,0.4
							c1.2,0.3,2.5,0.6,3.7,0.9c1.2,0.4,2.4,0.8,3.6,1.3c1,0.4,2.1,0.8,3.1,1.4C353.4,105.1,354.7,106.3,353.8,106.8 M357.6,112.6
							c-1.1-0.4-2.5-0.8-3-1.8c-0.4-0.9-0.1-2,0.2-2.9c0-0.1,0-0.2,0-0.3c0.2-0.1,0.3-0.2,0.4-0.4c0.2-0.3,0.3-0.7,0.2-1
							c2,1.2,4.4,2,6.6,3c1.1,0.5,2.2,1.2,3,2c0.7,0.7,1.4,1.8,0.5,2.6c-0.2,0.1-0.6,0.1-0.8,0.1c-0.4,0-0.7,0.1-1.1,0.1
							c-0.7,0-1.4-0.1-2-0.2C360.2,113.5,358.9,113.1,357.6,112.6 M364,116.7C363.9,116.7,363.9,116.7,364,116.7
							c-0.3-0.1-0.6-0.2-0.9-0.4c0,0-0.1,0-0.1-0.1c0,0-0.1-0.1,0,0c-0.1-0.1-0.2-0.1-0.3-0.2c-0.2-0.1-0.3-0.2-0.5-0.4
							c-0.2-0.1-0.3-0.3-0.4-0.4c-0.1-0.1-0.1-0.1-0.2-0.2c0,0,0,0,0,0c0,0-0.1-0.1-0.1-0.1c0,0-0.1-0.1-0.1-0.2
							c0.3,0.1,0.6,0.1,1,0.2c0.8,0.1,1.7,0.1,2.5,0c0.1,0,0.1,0,0.2,0C364.7,115.6,364.3,116.1,364,116.7 M372.9,123.5
							c-0.2,0.2-0.4,0.1-0.7,0c-1.2-0.5-2.4-1.1-3.6-1.7c-1-0.5-1.9-1-2.7-1.7c-0.9-0.8-1.3-1.8-0.8-2.9c0.4-0.8,1.1-1.6,1.3-2.5
							c0,0,0,0,0,0c0.1-0.1,0.2-0.2,0.3-0.2c0,0,0.1-0.1,0.1-0.1c1,1.5,2.2,3,3.5,4.3c0.8,0.8,1.6,1.6,2.2,2.5
							c0.3,0.5,0.5,1.1,0.5,1.7C373.1,123,373.1,123.3,372.9,123.5"/>
					</g>
				</g>
				<g class="st3">
					<g>
						<defs>
							<rect id="SVGID_9_" x="331.6" y="100.7" width="1.3" height="1.1"/>
						</defs>
						<clipPath id="SVGID_10_">
							<use xlink:href="#SVGID_9_"  style="overflow:visible;"/>
						</clipPath>
						<path class="st5" d="M332.2,100.7c-0.9,0-0.9,1.1,0,1.1C333.1,101.8,333.1,100.7,332.2,100.7"/>
					</g>
				</g>
				<g class="st3">
					<g>
						<defs>
							<rect id="SVGID_11_" x="323.3" y="104.8" width="7.7" height="2"/>
						</defs>
						<clipPath id="SVGID_12_">
							<use xlink:href="#SVGID_11_"  style="overflow:visible;"/>
						</clipPath>
						<path class="st6" d="M330.9,105.1c-0.2-0.3-0.6-0.4-0.9-0.2c-1.7,0.9-3.9,1.1-5.8,0.5c-0.3-0.1-0.8,0.1-0.9,0.4
							c-0.1,0.3,0.1,0.6,0.5,0.7c2.2,0.7,4.9,0.5,6.9-0.6C330.9,105.7,331.1,105.4,330.9,105.1"/>
					</g>
				</g>
				<g class="st3">
					<g>
						<defs>
							<rect id="SVGID_13_" x="40.4" y="113.8" width="155.6" height="3"/>
						</defs>
						<clipPath id="SVGID_14_">
							<use xlink:href="#SVGID_13_"  style="overflow:visible;"/>
						</clipPath>
						<path class="st7" d="M195.3,113.8c-20.1,0.5-40.3,0.9-60.4,1.2c-20,0.3-40,0.5-60.1,0.6c-11.3,0.1-22.6,0.1-33.8,0.1
							c-0.9,0-0.9,1.1,0,1.1c20.1,0,40.3-0.1,60.4-0.3c20-0.2,40-0.5,60.1-0.8c11.3-0.2,22.5-0.4,33.8-0.7
							C196.2,114.9,196.2,113.8,195.3,113.8"/>
					</g>
				</g>
				<g class="st3">
					<g>
						<defs>
							<rect id="SVGID_15_" x="193.1" y="87.7" width="77.3" height="33.6"/>
						</defs>
						<clipPath id="SVGID_16_">
							<use xlink:href="#SVGID_15_"  style="overflow:visible;"/>
						</clipPath>
						<path class="st8" d="M197.4,114.1C197.4,114.1,197.4,114,197.4,114.1C197.4,114,197.4,114,197.4,114.1
							C197.4,114.1,197.4,114.1,197.4,114.1"/>
						<path class="st8" d="M269.7,109.7c-12.7,0.2-25.3,0.9-38,1.9c0.1-0.9-0.3-1.8-0.5-2.6c-0.4-1.4-0.7-2.7-1.1-4.1
							c0-0.1,0.1-0.1,0.1-0.2c0-2.9,0.1-5.9,0.1-8.8c0-1.4,0.2-2.8,0-4.1c-0.1-1.1-0.7-1.9-1.9-2.4c-1.4-0.5-3-0.5-4.5-0.7
							c-1.8-0.2-3.6-0.3-5.4-0.5c-3.6-0.3-7.2-0.4-10.8-0.4c-4.1,0-8.1,0.1-12.2,0.3c0,0,0,0,0,0c-0.4-0.1-1,0-1,0.5
							c-0.4,2.9-0.8,5.8-1.2,8.8c-0.3,2.9-0.5,5.8,0,8.7c0,0.3,0.3,0.4,0.5,0.5c0.7,2,1.5,3.9,2.3,5.8c-0.4,0.2-0.6,0.6-0.2,0.9
							c0.1,0.1,0.2,0.1,0.2,0.1c-0.3,0.7-0.1,1.5,0.5,2.1c0.3,0.3,0.7,0.5,1.2,0.6c0.6,0.1,1.1,0,1.7,0c0,0,0.1,0,0.1,0
							c0,0,0.1,0,0.1,0c0,0,0,0,0,0l0.1,0c0,0,0.1,0.1,0,0c0,0,0,0,0,0c0,0,0,0,0,0c-0.1,0.1-0.1,0.3-0.1,0.4
							c-0.3,0.1-0.6,0.2-0.7,0.4c-0.2,0.3-0.2,0.7-0.2,1c0.1,0.3,0.3,0.7,0.4,1c0,0.3,0.4,0.5,0.7,0.5c0,0.1-0.1,0.3-0.1,0.4
							c0,0.2,0,0.5,0.1,0.7c0.3,0.5,0.9,0.6,1.5,0.6c1.4,0.1,2.9,0,4.3,0c0.7,0,1.4,0.1,2.1,0c0.7-0.1,0.9-0.6,0.9-1.1
							c0.1,0.4,0.3,0.7,0.8,0.8c0.4,0.1,0.8,0,1.2,0c0.5,0,0.9,0,1.4,0l4.9-0.1c0.4,0,0.8,0,1.2-0.1c0.4-0.1,0.5-0.4,0.6-0.7
							c0.3-1.2,0.3-2.5-1-3.3c-0.1-0.1-0.3-0.1-0.4-0.1c-0.1,0-0.1-0.1-0.2-0.1c0,0,0,0,0,0c0.1-0.8,0.1-1.6,0.2-2.5
							c0,0,0-0.1,0-0.1l1.7-0.1c-0.1,0.1-0.2,0.2-0.2,0.4c0,0.5,0,1,0,1.5c0,0.4-0.1,1,0.4,1.3c0.5,0.2,1.2,0.2,1.7,0.2
							c0.6,0,1.2,0,1.8,0c0.6,0,1.2,0,1.8-0.1c0.6,0,1.3,0,1.7-0.4c0.3-0.4,0.3-0.9,0.3-1.3c0-0.5,0-1-0.1-1.5c0-0.1,0-0.2-0.1-0.2
							c0.7,0,1.4,0,2.1-0.1c0.9-0.1,1.9-0.2,2.5-0.8c12.8-1.1,25.7-1.7,38.6-1.9C270.6,110.8,270.6,109.7,269.7,109.7 M195.1,95
							c0.1,0.1,0.2,0.1,0.4,0.1c2.3-0.1,4.7-0.1,7-0.2c0,0.3,0,0.6,0,1v0.4c-0.2-0.1-0.3-0.1-0.5-0.1c-2.3,0.4-4.6,0.5-6.9,0.5
							c-0.1,0-0.1,0-0.2,0C194.9,96.2,195,95.6,195.1,95 M194.7,97.8c0.1,0,0.2,0.1,0.3,0.1c2.5,0,4.9-0.1,7.3-0.5
							c0.1,0,0.1,0,0.1-0.1c0,0.4,0,0.8,0,1.3c0,0.7-0.1,1.5,0.8,1.8c0.3,0.2,0.8,0.2,1.2,0.2c0.5,0,1,0,1.5,0
							c1.2-0.1,1.1-0.9,1.1-1.6c0.1-1.8,0-3.5-0.1-5.3c0-0.5-0.1-1-0.1-1.4c0-0.4,0-0.9-0.3-1.3c-0.3-0.3-0.8-0.4-1.2-0.4
							c-0.6-0.1-1.2-0.1-1.7-0.1c-0.4,0-0.6,0.2-0.6,0.4c-0.1,0.1-0.2,0.1-0.2,0.2c-0.4,0.7-0.3,1.5-0.3,2.3c0,0.2,0,0.3,0,0.5
							c-2.3,0.1-4.7,0.1-7,0.2c-0.1,0-0.2,0-0.3,0.1c0.2-1.6,0.4-3.3,0.7-4.9c6.6-0.4,13.1-0.4,19.7,0c3.4,0.2,6.8,0.5,10.2,0.9
							c1.4,0.2,2.9,0.3,3.1,1.6c0.2,1.2,0,2.6,0,3.9c0,2.9-0.1,5.9-0.1,8.8c-10.8,3.7-23,4.1-34.1,1.3
							C194.4,103,194.5,100.4,194.7,97.8 M205.5,92.4c0.1,0.8,0.1,1.7,0.2,2.5c0,0.9,0.1,1.8,0,2.7c0,0.4,0,0.8,0,1.3
							c0,0.2,0,0.4,0,0.5c0,0,0,0.1,0,0.1c-0.4-0.1-1,0-1.4,0c-0.2,0-0.3,0-0.4-0.1c0-0.1,0-0.3,0-0.4c0-0.9,0-1.8,0-2.7
							c0-0.8,0-1.7,0-2.5c0-0.7-0.1-1.5,0.2-2.2c0.4,0,0.8,0,1.2,0.1c0.1,0,0.1,0,0.2,0c0.2,0,0.2,0-0.1,0
							C205.4,91.9,205.5,92.2,205.5,92.4 M199.3,114.9c-0.3,0-0.6,0.1-0.9,0.1c0,0,0,0-0.1,0c0,0-0.1,0-0.1,0c0,0-0.1,0-0.1,0
							c0,0,0,0,0,0c0,0-0.1,0-0.1-0.1c0,0-0.1-0.1-0.1,0c0.1,0.1,0,0-0.1,0c0,0-0.1-0.1-0.1-0.1c0,0-0.1-0.1,0,0c0,0.1,0,0,0-0.1
							c0,0,0-0.1-0.1-0.1c0,0,0,0,0,0c0,0-0.1-0.1,0,0c0,0.1,0,0,0,0c0,0,0,0,0-0.1c0,0,0-0.1,0-0.1c0,0,0,0,0-0.1c0,0,0,0,0,0
							c0,0,0,0,0,0c0,0,0,0,0,0c0,0,0,0,0,0c0,0,0,0,0,0c0,0,0-0.1,0-0.1c0,0,0,0,0,0c1.8,0.6,3.8,0.6,5.7,0.6
							c1.1,0,2.2-0.1,3.2-0.1c-0.1,0.1-0.1,0.2-0.1,0.3v1.9c-1.7,0-3.3-0.1-5-0.1c0.1-0.4,0-0.7-0.3-1.1
							C200.6,115,200,114.9,199.3,114.9 M200.6,118.4c0-0.1-0.1-0.3-0.2-0.4c0-0.1,0-0.2-0.1-0.3c0.3,0.1,0.5,0,0.7-0.1
							c2,0.1,4,0.1,6,0.2c0,0.1,0,0.2-0.1,0.3c0,0.1-0.1,0.2-0.1,0.2c-2-0.1-3.9,0-5.9,0C200.8,118.2,200.7,118.3,200.6,118.4
							 M207.7,119.3c0,0.2,0,0.4-0.1,0.5c0,0.1,0,0.2,0,0.3c-0.1,0-0.2,0-0.3,0c-0.2,0-0.5,0-0.7,0c-0.5,0-1,0-1.5,0c-1,0-2,0-3,0
							c-0.2,0-0.4,0-0.6,0c0,0-0.2,0-0.2,0c0,0,0,0,0,0c0-0.1,0.1-0.4,0.1-0.5c0-0.1,0-0.2,0-0.2c1.8-0.1,3.7-0.1,5.5,0
							c0.2,0,0.4-0.1,0.5-0.2c0,0,0,0,0.1,0c0,0,0.1,0,0.1,0C207.7,119.2,207.7,119.3,207.7,119.3 M209.3,116.6c-0.6,0-1.1,0-1.7,0
							v-1.9c0-0.1-0.1-0.2-0.2-0.3c0.6,0,1.2,0,1.8-0.1V116.6z M217.8,119.3c0,0.1,0,0.3-0.1,0.4c-0.3,0-0.7,0-1,0
							c-0.5,0-0.9,0-1.4,0l-2.9,0.1c-0.5,0-0.9,0-1.4,0c-0.2,0-0.5,0-0.7,0c0,0,0,0-0.1,0c0,0,0,0,0,0c0-0.2,0-0.3,0-0.5
							C212.8,119.3,215.3,119.2,217.8,119.3C217.8,119.3,217.8,119.3,217.8,119.3 M217.7,118.2c-2.5,0-5,0-7.4,0c0-0.2,0-0.3,0-0.5
							c2.3,0,4.6,0,6.9-0.1c0,0,0,0,0.1,0c0,0,0,0,0.1,0.1C217.5,117.8,217.6,118,217.7,118.2 M210.7,116.6v-2.4l2.7-0.1l2.9-0.1
							c0,0,0,0,0,0l-0.2,2.5C214.3,116.6,212.5,116.6,210.7,116.6 M220.3,113.9l3.4-0.1c0.5,0,1.1,0,1.6,0c0,0.1,0,0.1,0,0.2
							c0,0.1,0,0.2,0,0.3c-0.1,0-0.2,0-0.3,0h-4.6C220.4,114.1,220.4,113.9,220.3,113.9 M225.3,116c-0.2,0-0.3,0-0.5,0
							c-0.2,0-0.4,0-0.6,0c-0.7,0-1.4,0-2.2,0c-0.4,0-0.7,0-1.1,0c-0.2,0-0.4,0-0.6,0c0,0,0,0,0,0c0,0,0-0.1,0-0.1l0-0.5v-0.1h4.5
							c0.1,0,0.2,0,0.3-0.1c0,0.2,0,0.3,0,0.5C225.4,115.8,225.3,115.9,225.3,116 M227.4,112.5l-4.4,0.1c-6,0.2-11.9,0.4-17.9,0.6
							c-2.2,0.1-5.1,0.4-7.2-0.4c0-0.1,0-0.1,0-0.2c-0.8-1.9-1.6-3.8-2.3-5.7c11,2.6,22.8,2,33.4-1.4l0.7,2.8c0.3,1,0.8,2.1,0.7,3.1
							C230.3,112.7,228.6,112.5,227.4,112.5"/>
					</g>
				</g>
				<g class="st3">
					<g>
						<defs>
							<rect id="SVGID_17_" x="208.9" y="90" width="20.3" height="9.8"/>
						</defs>
						<clipPath id="SVGID_18_">
							<use xlink:href="#SVGID_17_"  style="overflow:visible;"/>
						</clipPath>
						<path class="st9" d="M228.5,94.7c-4.9,0.3-9.7,0.7-14.6,1.1c0-0.2,0-0.4,0-0.6c0-0.5,0.1-1.1,0.2-1.6c0.1,0.2,0.3,0.3,0.6,0.2
							l13.7-0.9c0.9-0.1,0.9-1.2,0-1.1l-13.7,0.9c-0.2,0-0.4,0.1-0.5,0.2c0,0,0,0,0-0.1c0.1-0.8,0.3-1.6,0.2-2.4
							c0-0.2-0.3-0.4-0.5-0.4c-1.5-0.2-3-0.2-4.5,0c-0.7,0.1-0.6,0.8,0,1c0,0,0,0.1,0,0.1c-0.1,1.4-0.1,2.9-0.2,4.3
							c0,0.7-0.1,1.4-0.1,2.1c0,0.6,0.1,1.1,0.7,1.5c0.5,0.4,1.4,0.5,2.1,0.5c0.7,0,1.7,0,2.1-0.5c0.2-0.2,0.2-0.5,0.2-0.8
							c0-0.4,0-0.8-0.1-1.1c0-0.1,0-0.3,0-0.4c4.9-0.4,9.7-0.8,14.6-1.1C229.4,95.7,229.4,94.6,228.5,94.7 M212.8,93
							c-0.1,0.7-0.2,1.4-0.2,2.1c0,0.7-0.1,1.5,0,2.2c0,0.4,0,0.7,0.1,1.1c0,0.1,0,0.1,0,0.2c0,0,0,0,0,0c-0.1,0-0.5,0.1-0.6,0.1
							c-0.7,0-1.5,0-1.5-0.7c-0.1-0.7,0-1.5,0.1-2.2c0.1-1.5,0.2-3,0.2-4.5c0-0.1,0-0.2,0-0.2c0.8-0.1,1.6-0.1,2.4,0
							C213.1,91.8,212.9,92.4,212.8,93"/>
					</g>
				</g>
				<g class="st3">
					<g>
						<defs>
							<rect id="SVGID_19_" x="256.5" y="87.7" width="4.3" height="3"/>
						</defs>
						<clipPath id="SVGID_20_">
							<use xlink:href="#SVGID_19_"  style="overflow:visible;"/>
						</clipPath>
						<path class="st10" d="M260.5,88.8c0-0.3-0.2-0.5-0.4-0.7c-0.3-0.3-0.8-0.4-1.3-0.4c-0.8,0-1.7,0.4-2.1,1
							c-0.2,0.2-0.2,0.5-0.2,0.8c0,0.1,0,0.1,0,0.2c0,0,0,0.1,0,0.1c0,0,0,0.1,0,0.1c0,0,0,0,0,0c0.2,0.3,0.5,0.6,0.9,0.7
							c0,0,0.1,0,0.1,0c0.3,0.1,0.6,0.1,0.9,0.1c0.5,0,1.1-0.1,1.5-0.3c0.4-0.2,0.8-0.6,0.7-1.1C260.8,89.2,260.6,89,260.5,88.8"/>
					</g>
				</g>
				<g class="st3">
					<g>
						<defs>
							<rect id="SVGID_21_" x="418.6" y="84.4" width="333.1" height="53.8"/>
						</defs>
						<clipPath id="SVGID_22_">
							<use xlink:href="#SVGID_21_"  style="overflow:visible;"/>
						</clipPath>
						<path class="st11" d="M460.1,115.5C460.1,115.5,460.1,115.6,460.1,115.5C460,115.5,460,115.5,460.1,115.5"/>
						<path class="st11" d="M751,84.5c-7.4,0.1-14.8,0.3-22.1,0.6c-0.1,0-0.2,0-0.3,0c-17.1,0.6-34.2,1.2-51.3,1.6
							c-17.1,0.4-34.2,0.8-51.4,1c-9.7,0.1-26.9-0.1-28,0.1c-1.1,0.2-1,0-1.7,0.2C585.4,87.4,574.8,88,564,89
							c-5.4,0.5-10.7,1.1-16.1,1.8c-2.7,0.3-5.3,0.6-7.9,1.3c-2.5,0.6-4.9,1.3-7.5,1.7c-3,0.4-6.1,0.4-9.1,0.5l-9.6,0.3
							c-0.1,0-0.1,0-0.2,0c-11.1,0.7-22.1-1.4-33.2-1.4c-2.6,0-5.3,0.1-7.9,0.7c-2.4,0.5-4.6,1.4-7,2.1c-2.6,0.8-5.2,0.9-8,0.9
							c-2.6,0-5.1,0.2-7.6,0.7c-5,1-9.6,2.9-14,4.8c-2.3,1-4.6,2-6.9,3c-2.1,1-4.3,1.9-6.3,3.2c-1.6,1-3.1,2.2-3.8,3.8
							c-0.6,1.3-0.8,3.2,0.8,4.1c0.9,0.5,2,0.5,3,0.5c1.5,0,2.9,0,4.4,0c1.1,0,2.2-0.1,3.2-0.4c1.1-0.4,1.9-1,2.8-1.6
							c2-1.4,4.5-2.2,7-2.9c1.2-0.3,2.4-0.7,3.5-1.1c1.3-0.5,2.4-1,3.6-1.6c1.2-0.5,2.5-0.8,3.8-1c0,0.3,0.1,0.5,0.1,0.8
							c0,2.3-2.2,4.3-3.7,6.2c-3.1,4-5.9,8.2-7.9,12.7c-0.5,1.1-1,2.3-1.3,3.4c-0.4,1.2-0.8,2.4-0.7,3.7c0.2,1.9,2,3.6,4.5,3.1
							c2.6-0.6,4.2-2.8,5.4-4.6c1.6-2.3,3.2-4.6,4.8-6.9c1.7-2.5,3.7-5,5-7.6c0.2-0.3,0.3-0.6,0.4-1c0.4,0.1,0.9,0.1,1-0.3
							c0.1-0.2,0.3-0.3,0.5-0.4c-0.2,2.3-0.5,4.6-0.9,6.9c-0.1,0.3,0.1,0.6,0.5,0.7c0.3,0.1,0.8-0.1,0.9-0.4c0.4-2.5,0.7-4.9,1-7.4
							c0,0,0,0,0,0c0.4-0.1,0.8-0.2,1.2-0.4c1-0.4,2-1,3-1.5c1.5-0.7,3-1.4,4.6-2c0,0,0.1,0,0.1,0c0.2,0,0.4-0.1,0.6-0.3
							c0.5-0.2,1.1-0.4,1.6-0.6c0.8-0.3,0.5-1.3-0.4-1.1c-0.4,0.1-0.8,0.3-1.1,0.4v-1.4c0-0.3-0.3-0.6-0.7-0.6
							c-0.4,0-0.7,0.2-0.7,0.6v1.9c-1.8,0.7-3.5,1.4-5.1,2.2c-0.9,0.4-1.8,1-2.8,1.4c-0.3-0.1-0.5-0.1-0.8-0.2c0,0-0.1,0-0.1,0
							c0,0,0,0,0,0c-0.1,0-0.1-0.1-0.2-0.1c-0.1,0-0.3-0.1-0.4-0.2c-0.2-0.1-0.5-0.2-0.7-0.4c0,0-0.1,0-0.1-0.1
							c-0.1,0-0.1-0.1-0.2-0.1c-0.1-0.1-0.2-0.2-0.3-0.2c-0.1-0.1-0.1-0.1-0.2-0.1c-0.2-0.7-0.6-1.5-1.2-2.1c-0.5-0.6-1.5,0.2-1,0.8
							c1.7,1.8,0.9,4.2-0.2,6.1c-1.3,2.1-2.7,4.1-4.2,6.2c-0.3-0.5-0.8-0.8-1.4-1.1c-0.5-0.2-1-0.3-1.4-0.4l-1.7-0.5
							c-0.3-0.1-0.8,0.1-0.9,0.4c-0.1,0.3,0.1,0.6,0.5,0.7c0.5,0.1,1,0.3,1.5,0.4c0.3,0.1,0.5,0.1,0.8,0.2c0.1,0,0.2,0,0.2,0.1
							c0,0,0.1,0,0.1,0c0,0,0.1,0,0.1,0c0,0,0,0,0,0c0,0,0.1,0,0.1,0.1c0.1,0,0.2,0.1,0.2,0.1c0.1,0,0.2,0.1,0.2,0.1
							c0,0,0.1,0,0.1,0c0,0,0,0,0.1,0c0.1,0,0.1,0.1,0.2,0.1c0,0,0,0,0,0c0,0,0,0,0,0c0,0,0,0,0.1,0.1c0,0,0,0,0,0c0,0,0,0.1,0,0.1
							c0,0,0,0.1,0,0.1c0-0.1,0,0,0,0c0,0.2,0.1,0.4,0.3,0.5c-1.3,1.8-2.5,3.7-3.8,5.5c-0.7,1-1.3,1.9-2.1,2.8
							c-0.8,0.9-1.8,1.9-3.1,2.2c-1.3,0.3-2.4-0.6-2.7-1.6c-0.3-1.2,0.1-2.4,0.5-3.6c0.7-2.2,1.7-4.3,2.8-6.4c2.2-4.1,5-8,8-11.7
							c1.4-1.8,2.6-3.6,2.2-5.7c1.2-0.1,2.5-0.3,3.7-0.4c3.2-0.3,6.4-0.7,9.5-1c0.9-0.1,0.5-1.2-0.4-1.1l-8.2,0.9
							c-1.7,0.2-3.4,0.3-5.1,0.5c-0.7-1.5-2-2.8-3.8-3.6c-0.8-0.3-1.5,0.6-0.7,1c1.4,0.6,2.5,1.6,3.1,2.8c-0.4,0.1-0.9,0.1-1.3,0.2
							c-2.3,0.5-4.1,1.6-6.2,2.4c-1.8,0.7-3.8,1.1-5.7,1.7c-0.2-1.5-1.1-2.9-2.5-3.8c-0.3-0.2-0.7-0.2-1,0c-0.2,0.2-0.3,0.6,0,0.8
							c0.7,0.5,1.2,1,1.6,1.7c0.3,0.6,0.5,1.2,0.5,1.8c-1.6,0.6-3.1,1.4-4.4,2.3c-0.9,0.6-1.7,1.1-2.9,1.3c-1.4,0.2-2.9,0.1-4.3,0.1
							c-1.1,0-2.5,0.2-3.5-0.1c-1.1-0.3-1.2-1.4-1-2.1c0.4-1.7,1.9-3,3.5-4c1.8-1.1,3.8-2,5.8-2.9c2.3-1,4.6-2,6.9-3
							c4.3-1.8,8.6-3.7,13.4-4.7c2.3-0.5,4.7-0.8,7.1-0.8c2.6,0,5.1,0.1,7.6-0.5c2.3-0.5,4.5-1.4,6.8-2.1c2.4-0.7,5-1,7.5-1.1
							c5.9-0.2,11.8,0.5,17.7,0.9c5.9,0.5,11.9,0.8,17.8,0.5c0,0,0.1,0,0.1,0c2.8-0.1,5.5-0.2,8.3-0.3c2.7-0.1,5.4-0.1,8-0.3
							c2.6-0.2,5-0.7,7.5-1.4c2.5-0.7,5.1-1.2,7.7-1.5c10.8-1.4,21.7-2.6,32.6-3.2c6.2-0.3,18.5-0.1,18.7-0.1c0.2,0,0.8-0.2,1.2-0.3
							c0.3,0,33.2,0,50.1-0.3c17.1-0.3,34.2-0.7,51.4-1.3c9.4-0.3,18.8-0.6,28.3-1c0.1,0,0.2,0,0.3,0c7.6-0.3,15.2-0.5,22.8-0.6
							C751.8,85.6,751.8,84.4,751,84.5"/>
					</g>
				</g>
				<g class="st3">
					<g>
						<defs>
							<rect id="SVGID_23_" x="452.5" y="103" width="299.2" height="33.6"/>
						</defs>
						<clipPath id="SVGID_24_">
							<use xlink:href="#SVGID_23_"  style="overflow:visible;"/>
						</clipPath>
						<path class="st12" d="M751.1,112.4c-5.6,0.1-11.2,0.3-16.8,0.7c-0.1,0-0.1,0-0.2,0.1c-18.9,1.1-37.9,0.3-56.8,0.2
							c-5.4,0-10.7,0-16.1,0.2c-0.1,0-0.2,0-0.3,0.1c-17-0.4-34.1-0.2-51.1,0.6c-4.9,0.2-9.8,0.5-14.7,0.9c-0.1,0-0.2,0-0.3,0.1
							c-10.4-0.6-20.7-0.9-31.1-1c-2.8,0-5.5,0-8.3,0c-2.5,0-5.1-0.1-7.6,0.1c-2.1,0.2-3.9,1.1-5.6,2.1c-1.8,1.1-3.5,2.1-5.6,2.7
							c-4.2,1.3-8.8,1.4-13.3,1.3c5.2-2.4,10-5.6,16-6.3c0.9-0.1,0.9-1.2,0-1.1c-9.4,1-15.8,7.9-25.1,9.1c-0.3,0-0.4,0.2-0.5,0.3
							c-7.8,1.6-16,0.1-23.9,0.9c-3.6,0.4-7.2,1.2-10.2,2.9c-1.6,0.9-3,2.1-4.5,3c-1.5,0.9-3.1,1.7-4.8,2.3c0,0-0.1,0-0.1,0
							c-0.3,0-0.4,0.1-0.6,0.3c-2.1,0.8-4.2,1.3-6.4,1.8c0.3-2.1-0.5-4.4-2.6-5.7c-1.1-0.7-2.5-0.8-3.7-0.2
							c-0.9,0.5-1.8,1.1-2.6,1.8c0-0.1,0-0.2,0.1-0.3c1.2-3,4.6-4.7,7.9-6.3c3.6-1.7,7.3-3.4,11.1-4.7c1.4-0.5,2.9-0.8,4.3-1.2
							c0.1,0,0.2,0,0.3-0.1c0,0,0,0,0,0c0.6-0.2,1.2-0.3,1.8-0.5c1.7-0.6,3.3-1.5,3.9-3c0.2,0,0.4-0.1,0.5-0.4
							c1.1-3.1,4.4-5.4,5.7-8.5c0.3-0.7-1-1-1.3-0.3c-1.1,2.5-3.5,4.5-5,6.9c-0.3-0.9-0.9-1.8-1.4-2.6c-1.2-1.8-2.3-3.7-3.5-5.5
							c-0.4-0.6-1.6-0.1-1.2,0.6c1.1,1.7,2.1,3.3,3.2,5c0.9,1.5,2.5,3.3,1.4,4.9c-0.9,1.2-2.5,1.8-4.1,2.2c-0.5-0.7-1.2-1.2-2-1.6
							c-0.3-0.1-0.8-0.1-0.9,0.2c-0.2,0.3-0.1,0.6,0.2,0.8c0.1,0.1,0.2,0.1,0.3,0.2c0,0,0.1,0,0.1,0.1c0,0,0,0,0.1,0
							c0.2,0.1,0.4,0.3,0.6,0.4c0,0,0.1,0.1,0.1,0.1c0,0,0,0,0.1,0.1c0,0,0,0,0,0c0,0,0.1,0.1,0.1,0.1l0,0c-1.8,0.5-3.5,1-5.2,1.6
							c-0.9,0.3-1.9,0.7-2.8,1.1c-0.6-0.7-1.1-1.4-1.6-2.1c-0.2-0.3-0.7-0.4-0.9-0.2c-0.3,0.2-0.4,0.5-0.2,0.8
							c0.4,0.7,0.9,1.4,1.5,2.1c-2.4,1-4.7,2.1-7,3.2c-3.2,1.6-6.2,3.5-7.4,6.5c-0.5,1.4-0.6,2.9-0.3,4.3c0.3,1.3,0.9,2.7,2.7,2.8
							c0.9,0.1,1.8-0.2,2.6-0.3c0.9-0.2,1.9-0.4,2.8-0.6c0.9-0.2,1.9-0.4,2.8-0.6c0.6,1.3,2.5,2.1,4.1,1.7c1-0.2,1.7-0.9,2.2-1.6
							c0.4-0.7,0.6-1.5,0.7-2.2c1.1-0.4,2.2-0.9,3.2-1.4c0.1,1.2,1.5,2.1,2.6,2.8c1.4,0.8,3.1,1.4,4.8,1.8c1.4,0.3,3.9,0.8,4.3-0.8
							c0.2-0.6,0-1.4-0.2-2c-0.2-0.7-0.5-1.4-0.9-2c-0.1-0.1-0.2-0.3-0.3-0.4c0-1.2,0.9-2.2,1.7-3.1c1-1,2-2,3.3-2.9
							c0.1-0.1,0.1-0.1,0.2-0.2c8.4-1,17.1,0.7,25.5-1.2c0.2,0,0.3-0.1,0.4-0.3c2-0.3,3.9-1,5.7-1.7c0.1,0,0.2,0.1,0.3,0.1
							c4.5,0.1,9,0.2,13.4-0.7c2.1-0.4,4.1-1.1,5.8-2.1c1.8-0.9,3.3-2.2,5.3-2.9c2.3-0.8,5.3-0.5,7.8-0.5c2.6,0,5.3,0,7.9,0
							c5.3,0,10.6,0.1,15.8,0.3c6.1,0.2,12.2,0.4,18.2,0.8c0.3,0,0.4-0.1,0.5-0.2c16.8-1.1,33.7-1.7,50.5-1.6
							c4.9,0,9.8,0.1,14.7,0.2c0.2,0,0.3,0,0.4-0.1c18.9-0.5,37.7,0.4,56.6,0.1c5.4-0.1,10.7-0.2,16.1-0.5c0.1,0,0.2,0,0.2-0.1
							c5.5-0.4,11-0.6,16.5-0.7C751.9,113.5,752,112.4,751.1,112.4 M461.8,134c-0.9,0.2-1.9,0.4-2.8,0.6c-0.9,0.2-1.9,0.4-2.8,0.5
							c-0.4,0.1-0.9,0.1-1.3-0.1c-0.5-0.2-0.7-0.8-0.8-1.3c-0.3-0.9-0.3-1.8-0.2-2.7c0.2,0.1,0.5,0,0.7-0.1c0.8-0.7,1.6-1.4,2.6-1.9
							c0.4-0.2,0.8-0.5,1.4-0.5c0.5,0,0.9,0.2,1.3,0.4c1.6,1.1,2.3,3.1,2,4.7C461.8,133.8,461.8,133.9,461.8,134 M468.8,134.3
							c-0.2,0.3-0.3,0.5-0.6,0.7c-0.1,0.1-0.2,0.2-0.3,0.2c-0.1,0.1-0.2,0.1-0.3,0.1c-0.1,0,0,0-0.1,0c-1,0.2-2.2-0.2-2.5-0.9
							c0.5-0.1,1.1-0.3,1.6-0.4c0.9-0.2,1.8-0.5,2.6-0.8C469.2,133.6,469,134,468.8,134.3 M484.6,127.1c-0.7,0.7-1.3,1.5-1.6,2.4
							c-0.8-0.6-1.7-1.1-2.8-1.4c-0.9-0.2-1.2,0.9-0.4,1.1c1.6,0.4,2.9,1.4,3.6,2.7c0.4,0.7,0.6,1.4,0.8,2.1c0.1,0.3,0.2,0.7,0,0.9
							c-0.1,0.3-0.5,0.3-0.8,0.2c-1.7-0.1-3.5-0.7-5-1.4c-0.7-0.3-1.5-0.7-2.1-1.2c-0.6-0.4-1.2-1-1.1-1.7c0-0.1,0-0.2-0.1-0.3
							c0.5-0.3,1-0.6,1.5-0.9c1.6-1.1,3-2.2,4.8-3.1c1.6-0.8,3.4-1.3,5.3-1.7c0,0,0.1,0,0.1,0C486,125.6,485.3,126.3,484.6,127.1"/>
					</g>
				</g>
				<g class="st3">
					<g>
						<defs>
							<rect id="SVGID_25_" x="595.9" y="87.7" width="4.7" height="1.2"/>
						</defs>
						<clipPath id="SVGID_26_">
							<use xlink:href="#SVGID_25_"  style="overflow:visible;"/>
						</clipPath>
						<path class="st13" d="M599.9,87.7c-1.1,0.1-2.2,0.1-3.3,0.1c-0.4,0-0.7,0.3-0.7,0.6c0,0.3,0.3,0.6,0.7,0.6
							c1.1,0,2.2,0,3.3-0.1c0.4,0,0.7-0.2,0.7-0.6C600.6,88,600.3,87.7,599.9,87.7"/>
					</g>
				</g>
				<g class="st3">
					<g>
						<defs>
							<rect id="SVGID_27_" x="594.3" y="114.7" width="7.1" height="1.6"/>
						</defs>
						<clipPath id="SVGID_28_">
							<use xlink:href="#SVGID_27_"  style="overflow:visible;"/>
						</clipPath>
						<path class="st14" d="M600.7,114.7c-1,0.1-2,0.1-2.9,0.3c-0.9,0.1-1.7,0.3-2.6,0.2c-0.4-0.1-0.7,0.1-0.9,0.4
							c-0.1,0.3,0.1,0.6,0.5,0.7c1,0.2,2,0,3-0.1c1-0.1,1.9-0.2,2.9-0.3c0.4,0,0.7-0.2,0.7-0.6C601.4,115,601.1,114.7,600.7,114.7"
							/>
					</g>
				</g>
			</g>
		</g>
	</g>
</g>
</svg>
