<svg id="Layer_1" data-name="Layer 1" xmlns="http://www.w3.org/2000/svg" xmlns:xlink="http://www.w3.org/1999/xlink" viewBox="0 0 148 52"><defs><style>.cls-1{fill:#cfc8d7;}.cls-2{fill:url(#linear-gradient);}.cls-3{fill:#28285b;}.cls-4{fill:url(#linear-gradient-2);}.cls-5{fill:none;stroke-width:0.1px;}.cls-10,.cls-11,.cls-12,.cls-13,.cls-14,.cls-15,.cls-16,.cls-17,.cls-18,.cls-19,.cls-5,.cls-9{stroke:#28285b;stroke-miterlimit:10;}.cls-20,.cls-6{fill:#1d1d1b;}.cls-6{opacity:0.09;}.cls-21,.cls-22,.cls-23,.cls-7{fill:#fff;}.cls-7{opacity:0.39;}.cls-8{fill:url(#linear-gradient-3);}.cls-10,.cls-13,.cls-15,.cls-16,.cls-17,.cls-18,.cls-19,.cls-9{stroke-width:0.16px;}.cls-9{fill:url(#linear-gradient-4);}.cls-10{fill:url(#linear-gradient-5);}.cls-11,.cls-12,.cls-14{stroke-width:0.24px;}.cls-11{fill:url(#linear-gradient-6);}.cls-12{fill:url(#linear-gradient-7);}.cls-13{fill:url(#linear-gradient-8);}.cls-14{fill:url(#linear-gradient-9);}.cls-15{fill:url(#linear-gradient-10);}.cls-16{fill:url(#linear-gradient-11);}.cls-17{fill:url(#linear-gradient-12);}.cls-18{fill:url(#linear-gradient-13);}.cls-19{fill:url(#linear-gradient-14);}.cls-20{opacity:0.16;}.cls-21{opacity:0.36;}.cls-22{opacity:0.26;}.cls-23{opacity:0.55;}.cls-24{fill:#d0c9d8;}</style><linearGradient id="linear-gradient" x1="37.54" y1="51.06" x2="52.12" y2="20.36" gradientUnits="userSpaceOnUse"><stop offset="0" stop-color="#d0c9d8"/><stop offset="0.87" stop-color="#d0c9d8"/><stop offset="0.99" stop-color="#d0c9d8"/></linearGradient><linearGradient id="linear-gradient-2" x1="37.7" y1="33.15" x2="60.29" y2="14.71" xlink:href="#linear-gradient"/><linearGradient id="linear-gradient-3" x1="53.58" y1="25.88" x2="40.37" y2="35.39" xlink:href="#linear-gradient"/><linearGradient id="linear-gradient-4" x1="14.76" y1="33.68" x2="37.41" y2="45.47" gradientTransform="translate(65.66 13.49) rotate(90)" gradientUnits="userSpaceOnUse"><stop offset="0" stop-color="#d0c9d8"/><stop offset="0.24" stop-color="#cdc6d7"/><stop offset="0.42" stop-color="#c5bdd2"/><stop offset="0.57" stop-color="#b7adca"/><stop offset="0.71" stop-color="#a397bf"/><stop offset="0.84" stop-color="#897bb1"/><stop offset="0.96" stop-color="#6a58a0"/><stop offset="0.99" stop-color="#63509c"/></linearGradient><linearGradient id="linear-gradient-5" x1="3.62" y1="37.96" x2="9.8" y2="41.18" gradientTransform="translate(46.28 32.86) rotate(90)" xlink:href="#linear-gradient-4"/><linearGradient id="linear-gradient-6" x1="12.77" y1="6.67" x2="50.59" y2="6.67" gradientTransform="translate(46.41 -33.07) rotate(90)" gradientUnits="userSpaceOnUse"><stop offset="0" stop-color="#d0c9d8"/><stop offset="0.22" stop-color="#cdc8d8"/><stop offset="0.37" stop-color="#c4c7d9"/><stop offset="0.51" stop-color="#b4c4da"/><stop offset="0.63" stop-color="#9ec0db"/><stop offset="0.75" stop-color="#82badd"/><stop offset="0.86" stop-color="#5fb4df"/><stop offset="0.96" stop-color="#36ace1"/><stop offset="0.99" stop-color="#2baae2"/></linearGradient><linearGradient id="linear-gradient-7" x1="19.3" y1="5.97" x2="22" y2="7.37" gradientTransform="translate(27.32 -13.98) rotate(90)" xlink:href="#linear-gradient-6"/><linearGradient id="linear-gradient-8" x1="16.29" y1="30.68" x2="31.37" y2="38.52" gradientTransform="translate(58.43 10.77) rotate(90)" gradientUnits="userSpaceOnUse"><stop offset="0" stop-color="#d0c9d8"/><stop offset="0.23" stop-color="#cfc9d5"/><stop offset="0.39" stop-color="#cac8cc"/><stop offset="0.53" stop-color="#c3c7bc"/><stop offset="0.66" stop-color="#b9c6a6"/><stop offset="0.78" stop-color="#acc48a"/><stop offset="0.89" stop-color="#9cc167"/><stop offset="0.99" stop-color="#8cbf44"/></linearGradient><linearGradient id="linear-gradient-9" x1="16.27" y1="23.07" x2="43.9" y2="23.35" gradientTransform="translate(56.27 -9.78) rotate(90)" xlink:href="#linear-gradient-6"/><linearGradient id="linear-gradient-10" x1="10.4" y1="18.49" x2="46.91" y2="18.49" gradientTransform="translate(47.14 -10.17) rotate(90)" xlink:href="#linear-gradient-4"/><linearGradient id="linear-gradient-11" x1="32.19" y1="12.56" x2="52.44" y2="12.56" gradientTransform="translate(54.87 -29.76) rotate(90)" xlink:href="#linear-gradient-8"/><linearGradient id="linear-gradient-12" x1="27.93" y1="12.56" x2="30.77" y2="12.56" gradientTransform="translate(41.91 -16.8) rotate(90)" xlink:href="#linear-gradient-8"/><linearGradient id="linear-gradient-13" x1="12.41" y1="28.88" x2="40.9" y2="28.88" gradientTransform="translate(55.54 2.23) rotate(90)" gradientUnits="userSpaceOnUse"><stop offset="0" stop-color="#d0c9d8"/><stop offset="0.22" stop-color="#d1cad5"/><stop offset="0.37" stop-color="#d3cbcc"/><stop offset="0.51" stop-color="#d7cebc"/><stop offset="0.63" stop-color="#dcd2a6"/><stop offset="0.74" stop-color="#e3d88a"/><stop offset="0.85" stop-color="#ebde67"/><stop offset="0.96" stop-color="#f5e63e"/><stop offset="0.99" stop-color="#f8e831"/></linearGradient><linearGradient id="linear-gradient-14" x1="6.62" y1="28.88" x2="11.42" y2="28.88" gradientTransform="translate(37.9 19.87) rotate(90)" xlink:href="#linear-gradient-13"/></defs><path class="cls-1" d="M49.77,27.59a1.85,1.85,0,0,1-.38.62,1.63,1.63,0,0,1-1.15.53,1.65,1.65,0,0,1-.65-.11A1.68,1.68,0,0,1,47,28.3a1.45,1.45,0,0,1-.36-.5,1.65,1.65,0,0,1-.13-.66,1.84,1.84,0,0,1,.15-.7,2.2,2.2,0,0,1,.35-.6,1.92,1.92,0,0,1,.51-.39,1.42,1.42,0,0,1,.62-.16,1.67,1.67,0,0,1,.69.11,1.61,1.61,0,0,1,.58.35,1.41,1.41,0,0,1,.35.51,1.68,1.68,0,0,1,.12.63A1.84,1.84,0,0,1,49.77,27.59Zm-.48-.15a1.94,1.94,0,0,0,.12-.57,1.19,1.19,0,0,0-.08-.51A1,1,0,0,0,49.1,26a1.28,1.28,0,0,0-.38-.23,1.1,1.1,0,0,0-.46-.07,1.41,1.41,0,0,0-.38.1,1.35,1.35,0,0,0-.41.32,1.61,1.61,0,0,0-.3.48,2.08,2.08,0,0,0-.12.57,1.22,1.22,0,0,0,.1.53,1.18,1.18,0,0,0,.23.32,1.11,1.11,0,0,0,.79.29.86.86,0,0,0,.39-.09,1.18,1.18,0,0,0,.43-.31A1.63,1.63,0,0,0,49.29,27.44Z"/><path class="cls-1" d="M45.31,31.23a1.85,1.85,0,0,1-.38.62,1.43,1.43,0,0,1-.54.39,1.48,1.48,0,0,1-.62.14,1.6,1.6,0,0,1-.64-.11,1.73,1.73,0,0,1-.56-.33,1.56,1.56,0,0,1-.35-.5,1.65,1.65,0,0,1-.13-.66,2,2,0,0,1,.14-.7,1.88,1.88,0,0,1,.36-.6,1.92,1.92,0,0,1,.51-.39,1.39,1.39,0,0,1,.62-.16,1.67,1.67,0,0,1,.69.11,1.61,1.61,0,0,1,.58.35,1.33,1.33,0,0,1,.35.51,1.68,1.68,0,0,1,.12.63A1.88,1.88,0,0,1,45.31,31.23Zm-.49-.15a1.79,1.79,0,0,0,.13-.57,1.06,1.06,0,0,0-.09-.51.91.91,0,0,0-.22-.35,1.43,1.43,0,0,0-.38-.23,1.12,1.12,0,0,0-.46-.07,1.24,1.24,0,0,0-.39.1,1.18,1.18,0,0,0-.4.32,1.61,1.61,0,0,0-.3.48,1.5,1.5,0,0,0-.12.57,1.22,1.22,0,0,0,.1.53,1.12,1.12,0,0,0,.23.32,1.16,1.16,0,0,0,.36.22,1.29,1.29,0,0,0,.43.07,1,1,0,0,0,.39-.09,1.27,1.27,0,0,0,.43-.31A1.66,1.66,0,0,0,44.82,31.08Z"/><path class="cls-1" d="M49,32.6a2.23,2.23,0,0,1-.39.63,1.77,1.77,0,0,1-.53.39,1.69,1.69,0,0,1-.62.14,1.85,1.85,0,0,1-.65-.11,1.55,1.55,0,0,1-.55-.34,1.36,1.36,0,0,1-.36-.5,1.57,1.57,0,0,1-.13-.65,2.1,2.1,0,0,1,.51-1.3,1.61,1.61,0,0,1,.5-.4,1.83,1.83,0,0,1,.63-.16,1.77,1.77,0,0,1,.68.11,1.83,1.83,0,0,1,.59.36,1.6,1.6,0,0,1,.35.51,1.5,1.5,0,0,1,.11.63A2,2,0,0,1,49,32.6Zm-.49-.14a1.77,1.77,0,0,0,.12-.58,1.19,1.19,0,0,0-.08-.51,1,1,0,0,0-.23-.34A1,1,0,0,0,48,30.8a1,1,0,0,0-.47-.07,1,1,0,0,0-.38.1,1.1,1.1,0,0,0-.41.32,1.47,1.47,0,0,0-.29.48,1.68,1.68,0,0,0-.13.56,1.2,1.2,0,0,0,.11.53.87.87,0,0,0,.22.32,1.09,1.09,0,0,0,.36.22,1.11,1.11,0,0,0,.43.07.93.93,0,0,0,.4-.09,1.25,1.25,0,0,0,.42-.3A1.69,1.69,0,0,0,48.53,32.46Z"/><path class="cls-1" d="M44.22,35.54a2.15,2.15,0,0,1-.38.62,1.69,1.69,0,0,1-.54.39,1.65,1.65,0,0,1-.62.14,1.8,1.8,0,0,1-.64-.11,1.59,1.59,0,0,1-.56-.34,1.49,1.49,0,0,1-.36-.5,1.57,1.57,0,0,1-.12-.65,2.08,2.08,0,0,1,.14-.71,1.83,1.83,0,0,1,.36-.59,1.61,1.61,0,0,1,1.13-.55,1.66,1.66,0,0,1,.69.1,1.89,1.89,0,0,1,.58.36,1.46,1.46,0,0,1,.35.51,1.68,1.68,0,0,1,.12.63A2.38,2.38,0,0,1,44.22,35.54Zm-.49-.15a1.79,1.79,0,0,0,.13-.58,1.22,1.22,0,0,0-.09-.51,1,1,0,0,0-.23-.34,1.06,1.06,0,0,0-.37-.23,1,1,0,0,0-.46-.07,1.24,1.24,0,0,0-.39.1,1.31,1.31,0,0,0-.41.32,1.66,1.66,0,0,0-.29.48,1.46,1.46,0,0,0-.12.57,1.05,1.05,0,0,0,.1.52,1,1,0,0,0,.22.32,1,1,0,0,0,.36.22,1,1,0,0,0,.83,0,1.39,1.39,0,0,0,.43-.3A1.66,1.66,0,0,0,43.73,35.39Z"/><path class="cls-1" d="M50,37.7a2,2,0,0,1-.38.62,1.69,1.69,0,0,1-.54.39,1.6,1.6,0,0,1-.61.14,1.85,1.85,0,0,1-.65-.11,1.55,1.55,0,0,1-.55-.34,1.36,1.36,0,0,1-.36-.5,1.57,1.57,0,0,1-.13-.65,1.89,1.89,0,0,1,.15-.71,2,2,0,0,1,.35-.59,1.58,1.58,0,0,1,.51-.39,1.63,1.63,0,0,1,.62-.17,1.82,1.82,0,0,1,.69.11,1.68,1.68,0,0,1,.58.36,1.49,1.49,0,0,1,.36.51,1.67,1.67,0,0,1,.11.63A1.88,1.88,0,0,1,50,37.7Zm-.48-.16a1.94,1.94,0,0,0,.12-.57,1.19,1.19,0,0,0-.08-.51,1,1,0,0,0-.61-.57,1,1,0,0,0-.46-.07.93.93,0,0,0-.38.1,1.1,1.1,0,0,0-.41.32,1.5,1.5,0,0,0-.3.48,1.94,1.94,0,0,0-.12.57,1.06,1.06,0,0,0,.11.52.87.87,0,0,0,.22.32,1,1,0,0,0,.36.22,1.12,1.12,0,0,0,.43.08,1,1,0,0,0,.39-.1,1.28,1.28,0,0,0,.43-.3A1.84,1.84,0,0,0,49.55,37.54Z"/><path class="cls-1" d="M48.74,42.51a2,2,0,0,1-.38.63,1.69,1.69,0,0,1-.54.39,1.59,1.59,0,0,1-1.26,0,1.57,1.57,0,0,1-.56-.33,1.46,1.46,0,0,1-.35-.5,1.57,1.57,0,0,1-.13-.65,2,2,0,0,1,.5-1.3,1.77,1.77,0,0,1,.51-.4,1.53,1.53,0,0,1,.62-.16,1.85,1.85,0,0,1,.69.11,1.78,1.78,0,0,1,.58.36,1.33,1.33,0,0,1,.35.51,1.68,1.68,0,0,1,.12.63A1.79,1.79,0,0,1,48.74,42.51Zm-.49-.15a1.68,1.68,0,0,0,.13-.57,1.19,1.19,0,0,0-.08-.51,1.13,1.13,0,0,0-.23-.34,1,1,0,0,0-.38-.23,1,1,0,0,0-.46-.07,1,1,0,0,0-.39.1,1.14,1.14,0,0,0-.4.31,1.66,1.66,0,0,0-.3.49,1.45,1.45,0,0,0-.12.56,1.19,1.19,0,0,0,.1.53.9.9,0,0,0,.23.32,1.09,1.09,0,0,0,.36.22,1.05,1.05,0,0,0,.43.07.86.86,0,0,0,.39-.09,1.27,1.27,0,0,0,.43-.31A1.43,1.43,0,0,0,48.25,42.36Z"/><path class="cls-1" d="M41.87,40a1.85,1.85,0,0,1-.38.62A1.58,1.58,0,0,1,41,41a1.59,1.59,0,0,1-1.26,0,1.73,1.73,0,0,1-.56-.33,1.46,1.46,0,0,1-.35-.5,1.61,1.61,0,0,1-.13-.65,2,2,0,0,1,.14-.71,2.23,2.23,0,0,1,.36-.6,1.92,1.92,0,0,1,.51-.39,1.53,1.53,0,0,1,.62-.16,1.85,1.85,0,0,1,.69.11,1.78,1.78,0,0,1,.58.36,1.38,1.38,0,0,1,.35.5,1.77,1.77,0,0,1,.12.64A1.79,1.79,0,0,1,41.87,40Zm-.49-.15a1.68,1.68,0,0,0,.13-.57,1.19,1.19,0,0,0-.08-.51,1,1,0,0,0-.23-.34,1,1,0,0,0-.38-.23,1,1,0,0,0-.46-.08,1.25,1.25,0,0,0-.39.11,1.14,1.14,0,0,0-.4.31,1.7,1.7,0,0,0-.42,1,1.19,1.19,0,0,0,.1.53,1,1,0,0,0,.59.54,1.08,1.08,0,0,0,.43.07.86.86,0,0,0,.39-.09,1.27,1.27,0,0,0,.43-.31A1.43,1.43,0,0,0,41.38,39.81Z"/><path class="cls-1" d="M40.78,44.27a2,2,0,0,1-.38.62,1.43,1.43,0,0,1-.54.39,1.48,1.48,0,0,1-.62.14,1.6,1.6,0,0,1-.64-.11A1.73,1.73,0,0,1,38,45a1.42,1.42,0,0,1-.35-.5,1.5,1.5,0,0,1-.13-.66,2,2,0,0,1,.14-.7,1.88,1.88,0,0,1,.36-.6,1.65,1.65,0,0,1,.51-.39,1.39,1.39,0,0,1,.62-.16,1.67,1.67,0,0,1,.69.11,1.61,1.61,0,0,1,.58.35,1.46,1.46,0,0,1,.35.51,1.68,1.68,0,0,1,.12.63A2.1,2.1,0,0,1,40.78,44.27Zm-.49-.15a1.79,1.79,0,0,0,.13-.57,1.27,1.27,0,0,0-.09-.52,1,1,0,0,0-.23-.34,1.23,1.23,0,0,0-.37-.23,1.12,1.12,0,0,0-.46-.07,1.24,1.24,0,0,0-.39.1,1.31,1.31,0,0,0-.41.32,1.81,1.81,0,0,0-.29.48,1.54,1.54,0,0,0-.12.57,1.09,1.09,0,0,0,.1.53,1.12,1.12,0,0,0,.23.32,1.1,1.1,0,0,0,.35.22,1.33,1.33,0,0,0,.43.07,1.11,1.11,0,0,0,.4-.09A1.27,1.27,0,0,0,40,44.6,1.66,1.66,0,0,0,40.29,44.12Z"/><path class="cls-1" d="M45,45.84a1.85,1.85,0,0,1-.38.62,1.53,1.53,0,0,1-1.15.53,1.65,1.65,0,0,1-.65-.11,1.84,1.84,0,0,1-.56-.33,1.56,1.56,0,0,1-.35-.5,1.64,1.64,0,0,1-.13-.65,2,2,0,0,1,.14-.71,2.51,2.51,0,0,1,.36-.6,1.92,1.92,0,0,1,.51-.39,1.58,1.58,0,0,1,.62-.16,1.67,1.67,0,0,1,.69.11,1.61,1.61,0,0,1,.58.35,1.5,1.5,0,0,1,.35.51,1.68,1.68,0,0,1,.12.63A1.84,1.84,0,0,1,45,45.84Zm-.49-.15a1.68,1.68,0,0,0,.13-.57,1.11,1.11,0,0,0-.31-.86A1.09,1.09,0,0,0,44,44,1,1,0,0,0,43.5,44a1.59,1.59,0,0,0-.39.1,1.31,1.31,0,0,0-.4.32,1.7,1.7,0,0,0-.42,1,1.19,1.19,0,0,0,.1.53,1.18,1.18,0,0,0,.23.32,1.28,1.28,0,0,0,.36.22,1.08,1.08,0,0,0,.43.07.86.86,0,0,0,.39-.09,1.27,1.27,0,0,0,.43-.31A1.43,1.43,0,0,0,44.52,45.69Z"/><path class="cls-1" d="M51.09,29.92l-.46-.17c0-.07.1-.25.22-.54s.29-.71.5-1.24l.16-.41.16-.41h0l-.47.1-.67.14-.07-.33,1-.26.58-.15.24.36-.36.9c-.12.31-.19.48-.22.54l-.33.87C51.19,29.65,51.11,29.85,51.09,29.92Z"/><path class="cls-1" d="M50.33,34.93l-.46-.17c0-.06.1-.24.22-.54s.29-.71.5-1.24c0-.09.09-.23.16-.4l.16-.42h0l-.47.09-.67.15-.07-.33,1-.26.58-.16.25.37c-.12.29-.24.59-.37.89l-.21.54c-.1.24-.21.53-.34.87Z"/><path class="cls-1" d="M46.33,48.16,45.88,48c0-.06.1-.24.22-.54l.5-1.24.16-.4c.06-.18.12-.31.15-.41h0l-.48.1-.67.14-.06-.33,1-.26.58-.15.24.36-.36.9c-.12.3-.2.48-.22.54l-.33.86C46.44,47.9,46.36,48.1,46.33,48.16Z"/><path class="cls-1" d="M35.75,44.23l-.46-.17c0-.06.1-.24.23-.54l.5-1.24c0-.09.09-.22.15-.4l.16-.41h0l-.47.1-.67.14-.06-.33,1-.26.58-.15.24.36-.36.89c-.13.31-.2.49-.22.55-.09.23-.21.52-.34.86Z"/><path class="cls-1" d="M43.72,42.48l-.46-.17c0-.06.1-.24.22-.54s.29-.71.5-1.24c0-.09.09-.22.16-.4l.16-.41h0l-.47.1-.67.14-.07-.33,1-.26.57-.15.25.36-.37.9-.21.54c-.1.23-.21.52-.34.87Z"/><path class="cls-1" d="M39.71,35.7l-.45-.17c0-.06.1-.24.22-.54l.5-1.24c0-.09.09-.23.16-.4s.12-.32.15-.41h0l-.48.09-.67.15-.06-.33,1-.26.58-.16.24.37-.36.89c-.12.31-.2.49-.22.54l-.33.87C39.82,35.43,39.74,35.64,39.71,35.7Z"/><path class="cls-1" d="M45.54,37.87l-.46-.18c0-.06.1-.24.22-.54s.29-.71.5-1.24c0-.09.09-.22.16-.4l.16-.41h0l-.47.1-.67.14L44.9,35l1-.26.58-.15.25.36c-.12.29-.25.59-.37.9l-.21.54c-.1.24-.21.52-.34.87S45.56,37.8,45.54,37.87Z"/><path class="cls-1" d="M53.2,6a2.17,2.17,0,0,1-.42.63A1.65,1.65,0,0,1,52.2,7a1.61,1.61,0,0,1-.65.13A1.79,1.79,0,0,1,50.88,7a1.7,1.7,0,0,1-.57-.37A1.53,1.53,0,0,1,50,6.1a1.79,1.79,0,0,1-.11-.69A2,2,0,0,1,50,4.68a1.93,1.93,0,0,1,.93-1,1.59,1.59,0,0,1,.66-.14,1.68,1.68,0,0,1,.72.14,1.74,1.74,0,0,1,.59.39,1.44,1.44,0,0,1,.35.54,1.86,1.86,0,0,1,.1.66A2.11,2.11,0,0,1,53.2,6Zm-.51-.18a1.86,1.86,0,0,0,.16-.59,1.34,1.34,0,0,0-.07-.54,1,1,0,0,0-.23-.36,1.16,1.16,0,0,0-.38-.26A1.12,1.12,0,0,0,51.69,4a1.08,1.08,0,0,0-.41.1,1.37,1.37,0,0,0-.44.31,1.86,1.86,0,0,0-.32.5,1.61,1.61,0,0,0-.15.58,1.32,1.32,0,0,0,.09.56,1,1,0,0,0,.22.34,1.08,1.08,0,0,0,.37.24,1.19,1.19,0,0,0,.44.09,1,1,0,0,0,.42-.08,1.52,1.52,0,0,0,.46-.3A1.71,1.71,0,0,0,52.69,5.81Z"/><path class="cls-1" d="M50.84,10a2.06,2.06,0,0,1-.43.64,1.53,1.53,0,0,1-.57.39,1.63,1.63,0,0,1-.65.12,1.58,1.58,0,0,1-.67-.14,1.85,1.85,0,0,1-.57-.36,1.62,1.62,0,0,1-.46-1.22,1.94,1.94,0,0,1,.17-.73,2.14,2.14,0,0,1,.4-.62,2.07,2.07,0,0,1,.54-.39,1.59,1.59,0,0,1,.66-.14,1.75,1.75,0,0,1,.71.13,1.83,1.83,0,0,1,.6.39,1.53,1.53,0,0,1,.34.55,1.48,1.48,0,0,1,.1.66A2.21,2.21,0,0,1,50.84,10Zm-.51-.17a1.66,1.66,0,0,0,.15-.59,1.19,1.19,0,0,0-.06-.54,1,1,0,0,0-.62-.62A1.07,1.07,0,0,0,49.32,8a1.3,1.3,0,0,0-.4.09,1.41,1.41,0,0,0-.44.32,1.73,1.73,0,0,0-.32.49,1.66,1.66,0,0,0-.15.59,1,1,0,0,0,.09.55,1,1,0,0,0,.59.59,1.13,1.13,0,0,0,.86,0,1.25,1.25,0,0,0,.45-.31A1.51,1.51,0,0,0,50.33,9.86Z"/><path class="cls-1" d="M56.53,12.37a2.17,2.17,0,0,1-.42.63,1.74,1.74,0,0,1-1.23.52,1.83,1.83,0,0,1-.67-.14,1.69,1.69,0,0,1-.92-.9,1.79,1.79,0,0,1-.11-.69,2,2,0,0,1,.18-.73,1.88,1.88,0,0,1,.39-.61,1.94,1.94,0,0,1,.55-.4A1.56,1.56,0,0,1,55,9.91a1.64,1.64,0,0,1,.71.14,1.52,1.52,0,0,1,.59.39,1.44,1.44,0,0,1,.35.54,1.66,1.66,0,0,1,.1.66A2.11,2.11,0,0,1,56.53,12.37Zm-.5-.18a2.13,2.13,0,0,0,.15-.59,1.34,1.34,0,0,0-.07-.54.86.86,0,0,0-.23-.36,1.16,1.16,0,0,0-.38-.26,1.07,1.07,0,0,0-.48-.09,1.12,1.12,0,0,0-.41.1,1.24,1.24,0,0,0-.43.31,1.67,1.67,0,0,0-.33.5,1.84,1.84,0,0,0-.15.58,1.32,1.32,0,0,0,.09.56,1.08,1.08,0,0,0,.23.34,1,1,0,0,0,.36.24,1.2,1.2,0,0,0,.45.09,1,1,0,0,0,.41-.08,1.41,1.41,0,0,0,.46-.3A1.74,1.74,0,0,0,56,12.19Z"/><path class="cls-1" d="M52.09,15.56a1.87,1.87,0,0,1-.42.64,1.53,1.53,0,0,1-.57.39,1.63,1.63,0,0,1-.65.12,1.74,1.74,0,0,1-.67-.13,2.08,2.08,0,0,1-.57-.37,1.44,1.44,0,0,1-.35-.54,1.55,1.55,0,0,1-.12-.68,2,2,0,0,1,.18-.73,2.14,2.14,0,0,1,.4-.62,2.07,2.07,0,0,1,.54-.39,1.59,1.59,0,0,1,.66-.14,1.75,1.75,0,0,1,.71.13,1.83,1.83,0,0,1,.6.39,1.53,1.53,0,0,1,.34.55,1.63,1.63,0,0,1,.1.66A2,2,0,0,1,52.09,15.56Zm-.5-.17a1.66,1.66,0,0,0,.15-.59,1.18,1.18,0,0,0-.07-.54,1,1,0,0,0-.23-.37,1.14,1.14,0,0,0-.38-.25,1.07,1.07,0,0,0-.48-.09,1.18,1.18,0,0,0-.84.41,1.76,1.76,0,0,0-.33.49,2.23,2.23,0,0,0-.15.59,1.28,1.28,0,0,0,.09.55,1.12,1.12,0,0,0,.23.35,1.13,1.13,0,0,0,.36.24,1.16,1.16,0,0,0,.87,0,1.25,1.25,0,0,0,.45-.31A1.41,1.41,0,0,0,51.59,15.39Z"/><path class="cls-1" d="M48.47,14.08a2,2,0,0,1-.43.63,1.53,1.53,0,0,1-.57.39,1.64,1.64,0,0,1-.65.13,1.75,1.75,0,0,1-.67-.14,1.7,1.7,0,0,1-.57-.37,1.4,1.4,0,0,1-.35-.53,1.79,1.79,0,0,1-.12-.69,2.23,2.23,0,0,1,.18-.73,2.08,2.08,0,0,1,.4-.61,1.69,1.69,0,0,1,.54-.39,1.45,1.45,0,0,1,.66-.15,1.76,1.76,0,0,1,.71.14,1.56,1.56,0,0,1,.6.39,1.41,1.41,0,0,1,.34.54,1.5,1.5,0,0,1,.1.66A2.33,2.33,0,0,1,48.47,14.08ZM48,13.9a1.61,1.61,0,0,0,.15-.59,1.06,1.06,0,0,0-.07-.54.84.84,0,0,0-.22-.36,1.11,1.11,0,0,0-.39-.26,1.05,1.05,0,0,0-.88,0,1.37,1.37,0,0,0-.44.31,1.64,1.64,0,0,0-.32.5,1.61,1.61,0,0,0-.15.58,1.07,1.07,0,0,0,.09.56,1,1,0,0,0,.22.34,1.08,1.08,0,0,0,.37.24,1.15,1.15,0,0,0,.44.09,1,1,0,0,0,.42-.08,1.37,1.37,0,0,0,.45-.3A1.56,1.56,0,0,0,48,13.9Z"/><path class="cls-1" d="M58.31,18.11a2.22,2.22,0,0,1-.42.64,1.57,1.57,0,0,1-.58.39,1.75,1.75,0,0,1-.65.12,1.83,1.83,0,0,1-.67-.14,1.57,1.57,0,0,1-.56-.37,1.47,1.47,0,0,1-.36-.53,1.79,1.79,0,0,1-.11-.69,2.27,2.27,0,0,1,.57-1.34,1.9,1.9,0,0,1,.55-.39,1.73,1.73,0,0,1,.66-.15,2,2,0,0,1,.71.14,1.79,1.79,0,0,1,.59.39,1.56,1.56,0,0,1,.35.55,1.63,1.63,0,0,1,.1.66A2,2,0,0,1,58.31,18.11Zm-.5-.17a2.2,2.2,0,0,0,.15-.6,1.31,1.31,0,0,0-.07-.53,1,1,0,0,0-.23-.37,1.14,1.14,0,0,0-.38-.25,1.07,1.07,0,0,0-.48-.09,1.36,1.36,0,0,0-.41.09,1.15,1.15,0,0,0-.43.32,1.63,1.63,0,0,0-.33.49,1.9,1.9,0,0,0-.15.59,1.3,1.3,0,0,0,.09.55,1,1,0,0,0,.23.34,1.05,1.05,0,0,0,.36.25,1.2,1.2,0,0,0,.45.09,1.15,1.15,0,0,0,.41-.08,1.29,1.29,0,0,0,.46-.31A1.91,1.91,0,0,0,57.81,17.94Z"/><path class="cls-1" d="M62.23,14.7a2.22,2.22,0,0,1-.42.64,1.72,1.72,0,0,1-1.9.37,1.7,1.7,0,0,1-.57-.37,1.44,1.44,0,0,1-.35-.53,1.79,1.79,0,0,1-.11-.69,2.27,2.27,0,0,1,.57-1.34,1.78,1.78,0,0,1,.55-.39,1.68,1.68,0,0,1,.65-.15,2,2,0,0,1,.72.14,1.9,1.9,0,0,1,.59.39,1.61,1.61,0,0,1,.35.54,1.91,1.91,0,0,1,.1.67A2,2,0,0,1,62.23,14.7Zm-.51-.17a1.91,1.91,0,0,0,.16-.6,1.31,1.31,0,0,0-.07-.53,1.1,1.1,0,0,0-.23-.37,1.14,1.14,0,0,0-.38-.25,1.12,1.12,0,0,0-.48-.09,1.36,1.36,0,0,0-.41.09,1.26,1.26,0,0,0-.44.32,1.8,1.8,0,0,0-.32.49,1.66,1.66,0,0,0-.15.59,1.3,1.3,0,0,0,.09.55,1,1,0,0,0,.22.34,1.27,1.27,0,0,0,.37.25,1.19,1.19,0,0,0,.44.09,1.16,1.16,0,0,0,.42-.08A1.38,1.38,0,0,0,61.4,15,1.66,1.66,0,0,0,61.72,14.53Z"/><path class="cls-1" d="M65.12,10.87a2.22,2.22,0,0,1-.42.64,1.65,1.65,0,0,1-.58.39,1.74,1.74,0,0,1-1.32,0,1.7,1.7,0,0,1-.57-.37,1.58,1.58,0,0,1-.35-.53,1.79,1.79,0,0,1-.11-.69A2.27,2.27,0,0,1,62.34,9a1.78,1.78,0,0,1,.55-.39,1.68,1.68,0,0,1,.65-.15,2,2,0,0,1,.72.14,1.9,1.9,0,0,1,.59.39,1.56,1.56,0,0,1,.35.55,1.82,1.82,0,0,1,.1.66A2,2,0,0,1,65.12,10.87Zm-.51-.17a1.91,1.91,0,0,0,.16-.6,1.31,1.31,0,0,0-.07-.53,1.1,1.1,0,0,0-.23-.37A1.14,1.14,0,0,0,64.09,9a1.1,1.1,0,0,0-.48-.09A1.36,1.36,0,0,0,63.2,9a1.26,1.26,0,0,0-.44.32,1.8,1.8,0,0,0-.32.49,1.66,1.66,0,0,0-.15.59,1.28,1.28,0,0,0,.09.55,1,1,0,0,0,.22.34,1,1,0,0,0,.37.25,1.19,1.19,0,0,0,.44.09,1.16,1.16,0,0,0,.42-.08,1.38,1.38,0,0,0,.46-.31A1.66,1.66,0,0,0,64.61,10.7Z"/><path class="cls-1" d="M61.49,9.38a2.22,2.22,0,0,1-.42.64,1.65,1.65,0,0,1-.58.39,1.61,1.61,0,0,1-.65.13,2.06,2.06,0,0,1-.67-.14A1.87,1.87,0,0,1,58.6,10a1.73,1.73,0,0,1-.35-.54,1.71,1.71,0,0,1-.11-.68,2,2,0,0,1,.18-.73,1.88,1.88,0,0,1,.39-.61,1.81,1.81,0,0,1,.55-.4,1.51,1.51,0,0,1,.65-.14,1.83,1.83,0,0,1,.72.13,1.76,1.76,0,0,1,.59.4,1.44,1.44,0,0,1,.35.54,1.63,1.63,0,0,1,.1.66A2,2,0,0,1,61.49,9.38ZM61,9.21a2.23,2.23,0,0,0,.15-.59,1.34,1.34,0,0,0-.07-.54,1.1,1.1,0,0,0-.23-.37,1.14,1.14,0,0,0-.38-.25A1.07,1.07,0,0,0,60,7.37a1.36,1.36,0,0,0-.41.09,1.27,1.27,0,0,0-.43.32,1.67,1.67,0,0,0-.33.5,1.56,1.56,0,0,0-.15.58,1.35,1.35,0,0,0,.09.56,1.24,1.24,0,0,0,.22.34,1.08,1.08,0,0,0,.37.24,1.2,1.2,0,0,0,.45.09A1.15,1.15,0,0,0,60.2,10a1.38,1.38,0,0,0,.46-.31A1.75,1.75,0,0,0,61,9.21Z"/><path class="cls-1" d="M54.3,8.39l-.48-.2c0-.06.12-.25.26-.55s.33-.73.57-1.28l.18-.42q.11-.27.18-.42h0l-.5.08-.7.13-.06-.35,1-.23L55.37,5l.23.38-.41.93c-.14.31-.22.5-.24.55l-.39.9C54.41,8.11,54.33,8.32,54.3,8.39Z"/><path class="cls-1" d="M51.93,12.43l-.47-.2.25-.55.57-1.28.18-.42c.08-.18.13-.32.18-.42h0l-.5.08-.7.13-.06-.35,1-.23L53,9l.24.39-.42.93c-.14.31-.22.5-.24.55l-.39.9C52.05,12.15,52,12.36,51.93,12.43Z"/><path class="cls-1" d="M53.19,18l-.48-.19.26-.56c.14-.3.33-.73.56-1.27q.07-.15.18-.42c.08-.18.14-.32.18-.43h0l-.5.08-.71.13,0-.35,1-.24.61-.14.24.39-.41.92-.25.56c-.1.25-.23.54-.38.9S53.21,17.9,53.19,18Z"/><path class="cls-1" d="M49.27,21.37l-.47-.2.25-.55c.14-.31.33-.73.57-1.28l.18-.41A4.35,4.35,0,0,1,50,18.5h0l-.5.09-.7.12-.06-.34,1-.24.61-.14.23.39-.41.92c-.14.31-.22.5-.24.55l-.39.9C49.39,21.09,49.3,21.3,49.27,21.37Z"/><path class="cls-1" d="M51.34,22.22l-.48-.2c0-.06.12-.25.26-.55l.57-1.28.18-.42.17-.42h0l-.5.08-.7.13-.06-.35,1-.23.61-.14.24.38-.41.93c-.14.31-.22.5-.24.55l-.39.9C51.45,21.94,51.36,22.15,51.34,22.22Z"/><path class="cls-1" d="M57.63,14.76l-.47-.19.26-.56c.14-.3.32-.73.56-1.28l.18-.41c.08-.18.14-.32.18-.43h0l-.49.08-.71.13-.05-.35,1-.24.61-.14.24.39c-.14.3-.27.61-.41.92l-.25.56-.38.89Z"/><path class="cls-1" d="M56.89,9.45l-.48-.2.26-.55c.14-.31.33-.73.57-1.28L57.41,7l.18-.42h0l-.5.08-.71.13-.05-.35,1-.23L58,6.06l.24.38-.41.93c-.14.31-.22.5-.25.55-.1.25-.23.55-.38.9S56.91,9.38,56.89,9.45Z"/><path class="cls-2" d="M46.68,49.38a.71.71,0,0,1-.51-.21.72.72,0,0,1-.14-.83,46,46,0,0,0,3.46-9.44c.95-3.87,1.84-7.53.93-11.79A46.77,46.77,0,0,0,47.15,20c-.24-.36-3.2-4.94-2.67-8.25a9.53,9.53,0,0,1,2.09-4.82l0-.06c3.14-4,4.3-4.74,4.58-4.86a.75.75,0,0,1,.29-.06A.73.73,0,0,1,52,3.11c-.06.06-5.83,6.74-4.27,12.1.25.71,1.37,3.23,2.06,4.52l1.66,3.08a32,32,0,0,1,3.64,10.77c.56,5.4-1.62,10.23-3.55,13.34a.69.69,0,0,1-.29.27L47,49.31A.72.72,0,0,1,46.68,49.38Z"/><path class="cls-3" d="M46.68,49.47a.84.84,0,0,1-.57-.24A.82.82,0,0,1,46,48.3a45.81,45.81,0,0,0,3.45-9.42c1-3.86,1.84-7.51.93-11.75A46.79,46.79,0,0,0,47.08,20c-.33-.5-3.21-5-2.68-8.3a9.48,9.48,0,0,1,2.11-4.86l0-.06c3.16-4,4.34-4.76,4.62-4.88a.82.82,0,0,1,1,.26.8.8,0,0,1,0,1c-.06.07-5.79,6.72-4.25,12,.26.72,1.37,3.22,2,4.5l1.66,3.08a32.34,32.34,0,0,1,3.66,10.8C55.77,39,53.58,43.85,51.65,47a.8.8,0,0,1-.33.3L47,49.38A.74.74,0,0,1,46.68,49.47ZM51.49,2a.54.54,0,0,0-.25.06c-.28.11-1.43.81-4.56,4.83l0,.06a9.35,9.35,0,0,0-2.06,4.78,9.63,9.63,0,0,0,1,5.19,22.28,22.28,0,0,0,1.62,3,48.58,48.58,0,0,1,3.28,7.19c.92,4.28,0,8-.93,11.83a46.09,46.09,0,0,1-3.46,9.45.62.62,0,0,0,.12.74.66.66,0,0,0,.74.13l4.28-2.12a.67.67,0,0,0,.26-.24c1.92-3.1,4.09-7.92,3.54-13.29a31.81,31.81,0,0,0-3.63-10.74l-1.66-3.09C49.07,18.48,48,16,47.69,15.24,46.12,9.84,51.92,3.12,52,3.05A.65.65,0,0,0,51.49,2Z"/><path class="cls-4" d="M52.9,22.8a.36.36,0,0,1-.21-.66A37.16,37.16,0,0,0,65,8.25.36.36,0,0,1,65.36,8h.07a.38.38,0,0,1,.3.35v1.1a.32.32,0,0,1,0,.14C62.5,17.24,53.17,22.7,53.08,22.75A.31.31,0,0,1,52.9,22.8Z"/><path class="cls-5" d="M52.9,22.8a.36.36,0,0,1-.21-.66A37.16,37.16,0,0,0,65,8.25.36.36,0,0,1,65.36,8h.07a.38.38,0,0,1,.3.35v1.1a.32.32,0,0,1,0,.14C62.5,17.24,53.17,22.7,53.08,22.75A.31.31,0,0,1,52.9,22.8Z"/><path class="cls-6" d="M51.41,1.94c-.25-.05,1.13,0-1.59,2.38s-6.3,10.24-1.89,15.54,2.88,11.9,2.88,11.9,1.08-4.46-4.1-12.48.56-13.2.56-13.2S49.46,2.89,51.41,1.94Z"/><path class="cls-7" d="M51.41,2.06s1.37.07-1.31,2.42S44,14.66,48.27,19.93s2.32,12,2.32,12,1.71-3.65-3.75-12.6c-5.28-8.65.43-13.28.43-13.28S49.6,2.78,51.41,2.06Z"/><path class="cls-8" d="M34.84,44.52a.37.37,0,0,1-.37-.35C34.22,31.59,48,25.09,48.13,25a.4.4,0,0,1,.15,0,.35.35,0,0,1,.32.19.36.36,0,0,1-.13.48c-13,7.92-13.27,18.4-13.27,18.5a.36.36,0,0,1-.36.36Z"/><path class="cls-5" d="M34.84,44.52a.37.37,0,0,1-.37-.35C34.22,31.59,48,25.09,48.13,25a.4.4,0,0,1,.15,0,.35.35,0,0,1,.32.19.36.36,0,0,1-.13.48c-13,7.92-13.27,18.4-13.27,18.5a.36.36,0,0,1-.36.36Z"/><rect class="cls-9" x="25.19" y="25.3" width="1.78" height="28.56" rx="0.89" transform="translate(-13.49 65.66) rotate(-90)"/><rect class="cls-10" x="5.82" y="35.76" width="1.78" height="7.64" rx="0.89" transform="translate(-32.86 46.28) rotate(-90)"/><rect class="cls-11" x="38.86" y="-9.58" width="1.76" height="32.5" rx="0.88" transform="translate(33.07 46.41) rotate(-90)"/><rect class="cls-12" x="19.77" y="5.07" width="1.76" height="3.2" rx="0.88" transform="translate(13.98 27.32) rotate(-90)"/><rect class="cls-13" x="22.67" y="25.17" width="2.32" height="18.86" rx="1.16" transform="translate(-10.77 58.43) rotate(-90)"/><rect class="cls-14" x="32.26" y="7.74" width="1.53" height="31.01" rx="0.68" transform="translate(9.78 56.27) rotate(-90)"/><rect class="cls-15" x="27.83" y="0.23" width="1.64" height="36.52" rx="0.82" transform="translate(10.17 47.14) rotate(-90)"/><rect class="cls-16" x="41.44" y="2.43" width="1.75" height="20.25" rx="0.87" transform="translate(29.76 54.87) rotate(-90)"/><rect class="cls-17" x="28.48" y="11.13" width="1.75" height="2.84" rx="0.87" transform="translate(16.8 41.91) rotate(-90)"/><rect class="cls-18" x="25.65" y="14.64" width="2" height="28.48" rx="1" transform="translate(-2.23 55.54) rotate(-90)"/><rect class="cls-19" x="8.02" y="26.49" width="2" height="4.8" rx="1" transform="translate(-19.87 37.9) rotate(-90)"/><path class="cls-20" d="M46.51,49.1s10.85-6.26,5.93-24.39c0,0,6.43,11-.71,22.08C51.73,46.79,48.48,49.12,46.51,49.1Z"/><path class="cls-21" d="M47.67,46.55c4.12-5.29,8.22-12.07,2.54-25.68,0,0,8.93,13.61.54,25.92C50.75,46.79,43.54,51.83,47.67,46.55Z"/><rect class="cls-22" x="20.35" y="5.84" width="0.72" height="2.3" rx="0.35" transform="translate(13.73 27.7) rotate(-90)"/><rect class="cls-23" x="20.22" y="6.45" width="0.36" height="1.45" rx="0.18" transform="translate(13.23 27.57) rotate(-90)"/><rect class="cls-22" x="8.07" y="28.18" width="0.72" height="2.3" rx="0.35" transform="translate(-20.9 37.77) rotate(-90)"/><rect class="cls-23" x="7.94" y="28.79" width="0.36" height="1.45" rx="0.18" transform="translate(-21.4 37.64) rotate(-90)"/><rect class="cls-22" x="5.01" y="37.84" width="0.72" height="3.92" rx="0.36" transform="translate(-34.43 45.17) rotate(-90)"/><rect class="cls-23" x="4.07" y="39.26" width="0.36" height="1.45" rx="0.18" transform="translate(-35.73 44.23) rotate(-90)"/><rect class="cls-22" x="29" y="11.78" width="0.72" height="2.06" rx="0.33" transform="translate(16.55 42.18) rotate(-90)"/><rect class="cls-23" x="28.91" y="12.35" width="0.36" height="1.29" rx="0.17" transform="translate(16.09 42.08) rotate(-90)"/><rect class="cls-22" x="40.17" y="4.88" width="0.72" height="15.71" rx="0.36" transform="translate(27.8 53.27) rotate(-90)"/><rect class="cls-23" x="34.42" y="11.25" width="0.36" height="3.34" rx="0.18" transform="translate(21.68 47.52) rotate(-90)"/><rect class="cls-22" x="18.47" y="10.83" width="0.72" height="15.71" rx="0.36" transform="translate(0.15 37.51) rotate(-90)"/><rect class="cls-23" x="12.73" y="17.14" width="0.36" height="3.34" rx="0.18" transform="translate(-5.89 31.72) rotate(-90)"/><rect class="cls-22" x="31.51" y="-0.87" width="0.72" height="15.71" rx="0.36" transform="translate(24.88 38.85) rotate(-90)"/><rect class="cls-23" x="25.77" y="5.44" width="0.36" height="3.34" rx="0.18" transform="translate(18.84 33.06) rotate(-90)"/><rect class="cls-22" x="25.31" y="15.58" width="0.72" height="15.71" rx="0.36" transform="translate(2.24 49.1) rotate(-90)"/><rect class="cls-23" x="19.6" y="21.94" width="0.36" height="3.34" rx="0.18" transform="translate(-3.83 43.39) rotate(-90)"/><rect class="cls-22" x="22.9" y="19.08" width="0.72" height="20.52" rx="0.36" transform="translate(-6.07 52.6) rotate(-90)"/><rect class="cls-23" x="14.76" y="27.79" width="0.36" height="3.34" rx="0.18" transform="translate(-14.52 44.4) rotate(-90)"/><rect class="cls-22" x="19.14" y="31.04" width="0.72" height="8.38" rx="0.36" transform="translate(-15.73 54.72) rotate(-90)"/><rect class="cls-23" x="17.04" y="33.73" width="0.36" height="3.34" rx="0.18" transform="translate(-18.19 52.62) rotate(-90)"/><rect class="cls-22" x="19.9" y="31.99" width="0.72" height="15.71" rx="0.36" transform="translate(-19.57 60.1) rotate(-90)"/><rect class="cls-23" x="14.22" y="38.31" width="0.36" height="3.34" rx="0.18" transform="translate(-25.58 54.38) rotate(-90)"/><path class="cls-24" d="M76.18,16.82l-1.5,1.43a4.11,4.11,0,0,0-1-.58,2.78,2.78,0,0,0-1.06-.19,2.44,2.44,0,0,0-1.92.86,5.21,5.21,0,0,0-1.06,2.1,9.68,9.68,0,0,0-.32,2.41,3.13,3.13,0,0,0,.55,2,1.92,1.92,0,0,0,1.56.65,2.87,2.87,0,0,0,1.2-.25,7.13,7.13,0,0,0,1.22-.72L75,26.17a6.21,6.21,0,0,1-1.76,1.06,5.54,5.54,0,0,1-2.18.42,4.47,4.47,0,0,1-3.33-1.25,4.86,4.86,0,0,1-1.23-3.55,9.83,9.83,0,0,1,.63-3.45,6.5,6.5,0,0,1,2-2.83,5.33,5.33,0,0,1,3.49-1.12A4.61,4.61,0,0,1,76.18,16.82Z"/><path class="cls-24" d="M85.53,16.69a4.9,4.9,0,0,1,1.19,3.52,10.05,10.05,0,0,1-.61,3.46,6.31,6.31,0,0,1-2,2.83,5.5,5.5,0,0,1-3.63,1.15,4.49,4.49,0,0,1-3.39-1.25,4.93,4.93,0,0,1-1.19-3.52,10,10,0,0,1,.62-3.44,6.36,6.36,0,0,1,2-2.84,5.5,5.5,0,0,1,3.63-1.15A4.45,4.45,0,0,1,85.53,16.69ZM80,18.4a5.48,5.48,0,0,0-1,2.22,11.25,11.25,0,0,0-.28,2.46,3.14,3.14,0,0,0,.48,2,1.69,1.69,0,0,0,1.42.6,2.27,2.27,0,0,0,1.91-.94,5.36,5.36,0,0,0,1-2.22A11.52,11.52,0,0,0,83.85,20a3.11,3.11,0,0,0-.47-1.92,1.73,1.73,0,0,0-1.43-.6A2.27,2.27,0,0,0,80,18.4Z"/><path class="cls-24" d="M96.33,16.7a3.79,3.79,0,0,1,1.48,3.45,8.1,8.1,0,0,1-1.6,5.19c-1.06,1.35-2.79,2-5.17,2H87.46l1.68-11.63h3.25A7.05,7.05,0,0,1,96.33,16.7Zm-4.69,1-1.1,7.65h.91a2.8,2.8,0,0,0,2.71-1.57,8,8,0,0,0,.8-3.66,2.4,2.4,0,0,0-.62-1.91,2.75,2.75,0,0,0-1.78-.51Z"/><path class="cls-24" d="M107.47,15.73l-.59,2h-4.14l-.42,2.78H106l-.26,1.93h-3.63l-.43,3h4.44l-.28,2H98.55l1.68-11.63Z"/><path class="cls-24" d="M77.08,31.57l-4.84,7.27-.62,4.36h-2.8l.64-4.35-2.73-7.28h3l1.45,5.12,2.92-5.12Z"/><path class="cls-24" d="M85.56,32.53a4.86,4.86,0,0,1,1.19,3.52,10.28,10.28,0,0,1-.6,3.46,6.26,6.26,0,0,1-2,2.83,5.54,5.54,0,0,1-3.62,1.14,4.42,4.42,0,0,1-3.39-1.25,4.85,4.85,0,0,1-1.19-3.51,10,10,0,0,1,.61-3.44,6.44,6.44,0,0,1,2-2.84,5.54,5.54,0,0,1,3.63-1.15A4.44,4.44,0,0,1,85.56,32.53Zm-5.48,1.71a5.59,5.59,0,0,0-1,2.21,12,12,0,0,0-.27,2.47,3.16,3.16,0,0,0,.47,1.95,1.71,1.71,0,0,0,1.43.6,2.28,2.28,0,0,0,1.91-.94,5.76,5.76,0,0,0,1-2.22,12.15,12.15,0,0,0,.27-2.49,3,3,0,0,0-.47-1.92A1.71,1.71,0,0,0,82,33.3,2.25,2.25,0,0,0,80.08,34.24Z"/><path class="cls-24" d="M97.09,39.36a5,5,0,0,1-.83,2.14A4.42,4.42,0,0,1,94.51,43a6,6,0,0,1-2.59.52,4.44,4.44,0,0,1-3.06-.92,3.19,3.19,0,0,1-1-2.52,4.49,4.49,0,0,1,.06-.73L89,31.57h2.78l-1.11,7.69a5.58,5.58,0,0,0,0,.67,1.32,1.32,0,0,0,1.51,1.51,2,2,0,0,0,1.49-.56,3,3,0,0,0,.68-1.67l1.13-7.64h2.78Z"/><path class="cls-24" d="M107.89,36.77a4.54,4.54,0,0,1-2.13,1.55L108,43.2h-3l-1.82-4.43-1.16,0-.64,4.45H98.57l1.68-11.63h3.85a5.56,5.56,0,0,1,3.27.81,2.62,2.62,0,0,1,1.12,2.28A3.78,3.78,0,0,1,107.89,36.77Zm-5.62.09h1.23a2,2,0,0,0,1.6-.62,2.17,2.17,0,0,0,.5-1.45,1.11,1.11,0,0,0-.44-1,2.32,2.32,0,0,0-1.35-.31h-1.06Z"/><path class="cls-24" d="M118.27,32.81l-1.49,1.45a3.43,3.43,0,0,0-2.42-1,2.27,2.27,0,0,0-1.32.34,1.1,1.1,0,0,0-.49,1,1,1,0,0,0,.42.81,6,6,0,0,0,1.59.68,5.71,5.71,0,0,1,2.3,1.26,2.8,2.8,0,0,1,.77,2,3.85,3.85,0,0,1-2.2,3.5,6.28,6.28,0,0,1-2.91.59A6.4,6.4,0,0,1,110,43a5.47,5.47,0,0,1-1.82-1.23l1.61-1.54a3.83,3.83,0,0,0,2.82,1.14,2.51,2.51,0,0,0,1.54-.42,1.36,1.36,0,0,0,.56-1.16,1.15,1.15,0,0,0-.4-.92,4.58,4.58,0,0,0-1.48-.72,6,6,0,0,1-2.44-1.33,2.69,2.69,0,0,1-.74-1.93,3.22,3.22,0,0,1,.52-1.75,3.66,3.66,0,0,1,1.56-1.35,5.69,5.69,0,0,1,2.57-.52A5.46,5.46,0,0,1,118.27,32.81Z"/><path class="cls-24" d="M127.53,31.57l-.59,2H122.8l-.42,2.78H126l-.26,1.93h-3.63l-.43,3h4.44l-.27,2h-7.24l1.67-11.63Z"/><path class="cls-24" d="M132,31.57,130.66,41h4.58l-.59,2.18h-7.1l1.67-11.63Z"/><path class="cls-24" d="M145,31.57l-.57,2h-4L140,36.62h3.46l-.28,2h-3.45l-.68,4.62h-2.78L138,31.57Z"/></svg>