<svg id="Layer_1" data-name="Layer 1" xmlns="http://www.w3.org/2000/svg" xmlns:xlink="http://www.w3.org/1999/xlink" viewBox="0 0 79.93 32.88"><defs><style>.cls-1{fill:#cfc8d7;}.cls-2{fill:url(#linear-gradient);}.cls-3{fill:#28285b;}.cls-4{fill:url(#linear-gradient-2);}.cls-5{fill:none;stroke-width:0.05px;}.cls-10,.cls-11,.cls-12,.cls-13,.cls-14,.cls-15,.cls-16,.cls-17,.cls-18,.cls-19,.cls-5,.cls-9{stroke:#28285b;stroke-miterlimit:10;}.cls-20,.cls-6{fill:#1d1d1b;}.cls-6{opacity:0.09;}.cls-20,.cls-21,.cls-22,.cls-23,.cls-6,.cls-7{isolation:isolate;}.cls-21,.cls-22,.cls-23,.cls-7{fill:#fff;}.cls-7{opacity:0.39;}.cls-8{fill:url(#linear-gradient-3);}.cls-10,.cls-13,.cls-15,.cls-16,.cls-17,.cls-18,.cls-19,.cls-9{stroke-width:0.08px;}.cls-9{fill:url(#linear-gradient-4);}.cls-10{fill:url(#linear-gradient-5);}.cls-11,.cls-12,.cls-14{stroke-width:0.13px;}.cls-11{fill:url(#linear-gradient-6);}.cls-12{fill:url(#linear-gradient-7);}.cls-13{fill:url(#linear-gradient-8);}.cls-14{fill:url(#linear-gradient-9);}.cls-15{fill:url(#linear-gradient-10);}.cls-16{fill:url(#linear-gradient-11);}.cls-17{fill:url(#linear-gradient-12);}.cls-18{fill:url(#linear-gradient-13);}.cls-19{fill:url(#linear-gradient-14);}.cls-20{opacity:0.16;}.cls-21{opacity:0.36;}.cls-22{opacity:0.26;}.cls-23{opacity:0.55;}.cls-24{fill:#d0c9d8;}</style><linearGradient id="linear-gradient" x1="20.2" y1="22.88" x2="27.85" y2="38.99" gradientTransform="matrix(1, 0, 0, -1, 0, 54)" gradientUnits="userSpaceOnUse"><stop offset="0" stop-color="#d0c9d8"/><stop offset="0.87" stop-color="#d0c9d8"/><stop offset="0.99" stop-color="#d0c9d8"/></linearGradient><linearGradient id="linear-gradient-2" x1="20.28" y1="32.28" x2="32.13" y2="41.96" xlink:href="#linear-gradient"/><linearGradient id="linear-gradient-3" x1="28.62" y1="36.08" x2="21.69" y2="31.09" xlink:href="#linear-gradient"/><linearGradient id="linear-gradient-4" x1="8.25" y1="31.99" x2="20.14" y2="25.81" gradientTransform="matrix(1, 0, 0, -1, 0, 54)" gradientUnits="userSpaceOnUse"><stop offset="0" stop-color="#d0c9d8"/><stop offset="0.24" stop-color="#cdc6d7"/><stop offset="0.42" stop-color="#c5bdd2"/><stop offset="0.57" stop-color="#b7adca"/><stop offset="0.71" stop-color="#a397bf"/><stop offset="0.84" stop-color="#897bb1"/><stop offset="0.96" stop-color="#6a58a0"/><stop offset="0.99" stop-color="#63509c"/></linearGradient><linearGradient id="linear-gradient-5" x1="2.41" y1="29.75" x2="5.65" y2="28.06" xlink:href="#linear-gradient-4"/><linearGradient id="linear-gradient-6" x1="7.2" y1="46.17" x2="27.05" y2="46.17" gradientTransform="matrix(1, 0, 0, -1, 0, 54)" gradientUnits="userSpaceOnUse"><stop offset="0" stop-color="#d0c9d8"/><stop offset="0.22" stop-color="#cdc8d8"/><stop offset="0.37" stop-color="#c4c7d9"/><stop offset="0.51" stop-color="#b4c4da"/><stop offset="0.63" stop-color="#9ec0db"/><stop offset="0.75" stop-color="#82badd"/><stop offset="0.86" stop-color="#5fb4df"/><stop offset="0.96" stop-color="#36ace1"/><stop offset="0.99" stop-color="#2baae2"/></linearGradient><linearGradient id="linear-gradient-7" x1="10.63" y1="46.53" x2="12.05" y2="45.8" xlink:href="#linear-gradient-6"/><linearGradient id="linear-gradient-8" x1="9.05" y1="33.57" x2="16.96" y2="29.45" gradientTransform="matrix(1, 0, 0, -1, 0, 54)" gradientUnits="userSpaceOnUse"><stop offset="0" stop-color="#d0c9d8"/><stop offset="0.23" stop-color="#cfc9d5"/><stop offset="0.39" stop-color="#cac8cc"/><stop offset="0.53" stop-color="#c3c7bc"/><stop offset="0.66" stop-color="#b9c6a6"/><stop offset="0.78" stop-color="#acc48a"/><stop offset="0.89" stop-color="#9cc167"/><stop offset="0.99" stop-color="#8cbf44"/></linearGradient><linearGradient id="linear-gradient-9" x1="9.04" y1="37.56" x2="23.54" y2="37.41" xlink:href="#linear-gradient-6"/><linearGradient id="linear-gradient-10" x1="5.96" y1="39.96" x2="25.12" y2="39.96" xlink:href="#linear-gradient-4"/><linearGradient id="linear-gradient-11" x1="17.4" y1="43.08" x2="28.02" y2="43.08" xlink:href="#linear-gradient-8"/><linearGradient id="linear-gradient-12" x1="15.16" y1="43.08" x2="16.65" y2="43.08" xlink:href="#linear-gradient-8"/><linearGradient id="linear-gradient-13" x1="7.02" y1="34.51" x2="21.96" y2="34.51" gradientTransform="matrix(1, 0, 0, -1, 0, 54)" gradientUnits="userSpaceOnUse"><stop offset="0" stop-color="#d0c9d8"/><stop offset="0.22" stop-color="#d1cad5"/><stop offset="0.37" stop-color="#d3cbcc"/><stop offset="0.51" stop-color="#d7cebc"/><stop offset="0.63" stop-color="#dcd2a6"/><stop offset="0.74" stop-color="#e3d88a"/><stop offset="0.85" stop-color="#ebde67"/><stop offset="0.96" stop-color="#f5e63e"/><stop offset="0.99" stop-color="#f8e831"/></linearGradient><linearGradient id="linear-gradient-14" x1="3.98" y1="34.51" x2="6.5" y2="34.51" xlink:href="#linear-gradient-13"/></defs><path class="cls-1" d="M26.62,18.81a.94.94,0,0,1-.2.33.8.8,0,0,1-.6.27.76.76,0,0,1-.34-.05.87.87,0,0,1-.31-.18.7.7,0,0,1-.19-.26.84.84,0,0,1-.07-.35.9.9,0,0,1,.08-.36,1,1,0,0,1,.18-.32,1.05,1.05,0,0,1,.27-.2.73.73,0,0,1,.32-.09,1.15,1.15,0,0,1,.37.06.92.92,0,0,1,.3.18.8.8,0,0,1,.18.27.78.78,0,0,1,.07.33A1.15,1.15,0,0,1,26.62,18.81Zm-.25-.08a1,1,0,0,0,.06-.3.63.63,0,0,0,0-.27.57.57,0,0,0-.12-.18.47.47,0,0,0-.2-.12.51.51,0,0,0-.24,0,.65.65,0,0,0-.2.05.72.72,0,0,0-.22.17.79.79,0,0,0-.15.25,1.09,1.09,0,0,0-.07.3.67.67,0,0,0,.06.28.66.66,0,0,0,.12.17.61.61,0,0,0,.41.15.46.46,0,0,0,.2-.05.63.63,0,0,0,.23-.16A.82.82,0,0,0,26.37,18.73Z"/><path class="cls-1" d="M24.28,20.72a.94.94,0,0,1-.2.33.69.69,0,0,1-.28.2.75.75,0,0,1-.33.07.74.74,0,0,1-.33-.05.92.92,0,0,1-.3-.18.68.68,0,0,1-.18-.26.84.84,0,0,1-.07-.35,1.1,1.1,0,0,1,.07-.36,1.13,1.13,0,0,1,.19-.32,1.05,1.05,0,0,1,.27-.2.74.74,0,0,1,.33-.09,1.13,1.13,0,0,1,.36.06.92.92,0,0,1,.3.18.83.83,0,0,1,.19.27,1,1,0,0,1,.06.33A1,1,0,0,1,24.28,20.72ZM24,20.64a.94.94,0,0,0,.07-.3.52.52,0,0,0-.05-.27.49.49,0,0,0-.11-.18.82.82,0,0,0-.2-.12.67.67,0,0,0-.24,0,.83.83,0,0,0-.21.06.65.65,0,0,0-.21.16.84.84,0,0,0-.15.26.6.6,0,0,0-.07.3.81.81,0,0,0,0,.27A.55.55,0,0,0,23,21a.57.57,0,0,0,.18.12.91.91,0,0,0,.23,0,.45.45,0,0,0,.2,0,.66.66,0,0,0,.23-.17A.79.79,0,0,0,24,20.64Z"/><path class="cls-1" d="M26.22,21.44a1.15,1.15,0,0,1-.21.33,1,1,0,0,1-.28.2.89.89,0,0,1-.32.08,1,1,0,0,1-.34-.06.79.79,0,0,1-.29-.18.7.7,0,0,1-.19-.26.8.8,0,0,1-.07-.34,1.08,1.08,0,0,1,.27-.68.75.75,0,0,1,.26-.21,1,1,0,0,1,.33-.09,1.13,1.13,0,0,1,.36.06,1,1,0,0,1,.31.19.8.8,0,0,1,.18.27.88.88,0,0,1,.06.33A1.15,1.15,0,0,1,26.22,21.44ZM26,21.37a.81.81,0,0,0,.06-.31.63.63,0,0,0,0-.27.66.66,0,0,0-.12-.17.52.52,0,0,0-.17-.13.52.52,0,0,0-.25,0,.45.45,0,0,0-.19.05.62.62,0,0,0-.22.17.64.64,0,0,0-.15.25,1,1,0,0,0-.07.29.67.67,0,0,0,.06.28.39.39,0,0,0,.11.17.76.76,0,0,0,.19.12.85.85,0,0,0,.23,0,.41.41,0,0,0,.21-.05.66.66,0,0,0,.22-.15.89.89,0,0,0,.14-.25Z"/><path class="cls-1" d="M23.71,23a1.38,1.38,0,0,1-.2.33,1,1,0,0,1-.29.2.89.89,0,0,1-.32.08,1,1,0,0,1-.34-.06.79.79,0,0,1-.29-.18.7.7,0,0,1-.19-.26.82.82,0,0,1-.06-.34,1.22,1.22,0,0,1,.07-.38,1,1,0,0,1,.19-.31.88.88,0,0,1,.59-.29.93.93,0,0,1,.37.06,1,1,0,0,1,.3.19.68.68,0,0,1,.18.26.78.78,0,0,1,.07.33A1.53,1.53,0,0,1,23.71,23Zm-.26-.08a1,1,0,0,0,.07-.3.65.65,0,0,0-.05-.27.57.57,0,0,0-.12-.18.62.62,0,0,0-.19-.12.64.64,0,0,0-.45,0,.68.68,0,0,0-.21.17.82.82,0,0,0-.16.25.73.73,0,0,0-.06.3.52.52,0,0,0,0,.27.66.66,0,0,0,.12.17.45.45,0,0,0,.19.11.47.47,0,0,0,.43,0,.7.7,0,0,0,.23-.15A.89.89,0,0,0,23.45,22.9Z"/><path class="cls-1" d="M26.74,24.12a1.07,1.07,0,0,1-.2.32.94.94,0,0,1-.28.21.88.88,0,0,1-.32.07,1,1,0,0,1-.34-.06.79.79,0,0,1-.29-.18.7.7,0,0,1-.19-.26.8.8,0,0,1-.07-.34.91.91,0,0,1,.08-.37.87.87,0,0,1,.18-.31.87.87,0,0,1,.6-.3,1.13,1.13,0,0,1,.36.06.85.85,0,0,1,.3.19.74.74,0,0,1,.19.27.88.88,0,0,1,.06.33A1,1,0,0,1,26.74,24.12ZM26.49,24a1,1,0,0,0,.06-.3.63.63,0,0,0,0-.27.51.51,0,0,0-.32-.29.41.41,0,0,0-.24,0,.46.46,0,0,0-.2.05.62.62,0,0,0-.22.17.79.79,0,0,0-.15.25,1.09,1.09,0,0,0-.07.3.63.63,0,0,0,.06.27.52.52,0,0,0,.12.17.52.52,0,0,0,.19.12.78.78,0,0,0,.22,0,.8.8,0,0,0,.21-.05.69.69,0,0,0,.22-.16A.9.9,0,0,0,26.5,24Z"/><path class="cls-1" d="M26.08,26.64a1.12,1.12,0,0,1-.2.33.83.83,0,0,1-.94.2.75.75,0,0,1-.3-.17.68.68,0,0,1-.18-.26.83.83,0,0,1-.07-.34,1,1,0,0,1,.26-.68.87.87,0,0,1,.6-.3,1.13,1.13,0,0,1,.36.06,1,1,0,0,1,.3.19.66.66,0,0,1,.19.27.88.88,0,0,1,.06.33A1,1,0,0,1,26.08,26.64Zm-.26-.08a.78.78,0,0,0,.07-.3.63.63,0,0,0,0-.27.66.66,0,0,0-.12-.17.63.63,0,0,0-.2-.13.5.5,0,0,0-.24,0,.54.54,0,0,0-.21.05.65.65,0,0,0-.21.16,1,1,0,0,0-.15.26.59.59,0,0,0-.07.29.87.87,0,0,0,.05.28.43.43,0,0,0,.13.17A.57.57,0,0,0,25,27a.61.61,0,0,0,.23,0,.35.35,0,0,0,.2-.05.53.53,0,0,0,.23-.16A.64.64,0,0,0,25.82,26.56Z"/><path class="cls-1" d="M22.47,25.32a1.09,1.09,0,0,1-.19.33,1,1,0,0,1-.26.2.84.84,0,0,1-.66,0,.92.92,0,0,1-.3-.18.68.68,0,0,1-.18-.26.8.8,0,0,1-.07-.34,1.16,1.16,0,0,1,.07-.37,1.29,1.29,0,0,1,.19-.32,1.05,1.05,0,0,1,.27-.2.9.9,0,0,1,.33-.09,1.13,1.13,0,0,1,.36.06,1,1,0,0,1,.3.19.7.7,0,0,1,.19.26,1,1,0,0,1,.06.34A.87.87,0,0,1,22.47,25.32Zm-.25-.08a.94.94,0,0,0,.07-.3.58.58,0,0,0-.05-.26.36.36,0,0,0-.12-.18.37.37,0,0,0-.2-.12.4.4,0,0,0-.24,0,.46.46,0,0,0-.2.05.58.58,0,0,0-.21.17.84.84,0,0,0-.22.52.54.54,0,0,0,.36.56.57.57,0,0,0,.22,0,.46.46,0,0,0,.21-.05.73.73,0,0,0,.23-.16,1,1,0,0,0,.15-.25Z"/><path class="cls-1" d="M21.9,27.56a.94.94,0,0,1-.2.33.63.63,0,0,1-.28.2.73.73,0,0,1-.33.08,1.23,1.23,0,0,1-.65-.22.88.88,0,0,1-.25-.61,1,1,0,0,1,.08-.37,1,1,0,0,1,.18-.32,1.05,1.05,0,0,1,.27-.2.73.73,0,0,1,.33-.08.9.9,0,0,1,.36.05.85.85,0,0,1,.3.19.66.66,0,0,1,.19.27.88.88,0,0,1,.06.33A1,1,0,0,1,21.9,27.56Zm-.25-.08a.94.94,0,0,0,.06-.3.63.63,0,0,0,0-.27.57.57,0,0,0-.12-.18.82.82,0,0,0-.2-.12.5.5,0,0,0-.24,0,.46.46,0,0,0-.2.05.62.62,0,0,0-.22.17,1,1,0,0,0-.15.25.73.73,0,0,0-.06.3.56.56,0,0,0,.05.28.48.48,0,0,0,.12.16.57.57,0,0,0,.18.12.85.85,0,0,0,.23,0,.8.8,0,0,0,.21-.05.69.69,0,0,0,.22-.16A.87.87,0,0,0,21.65,27.48Z"/><path class="cls-1" d="M24.12,28.39a1.16,1.16,0,0,1-.2.32.78.78,0,0,1-.61.28,1,1,0,0,1-.34-.06,1.22,1.22,0,0,1-.29-.17.76.76,0,0,1-.18-.26.83.83,0,0,1-.07-.34,1,1,0,0,1,.07-.38,1.23,1.23,0,0,1,.19-.31,1.39,1.39,0,0,1,.27-.21.89.89,0,0,1,.32-.08.72.72,0,0,1,.36.06.87.87,0,0,1,.31.18.8.8,0,0,1,.18.27.93.93,0,0,1,.07.33A1.17,1.17,0,0,1,24.12,28.39Zm-.26-.08a1.09,1.09,0,0,0,.07-.3.61.61,0,0,0-.16-.45.49.49,0,0,0-.18-.14.57.57,0,0,0-.26,0l-.2,0a.6.6,0,0,0-.21.17.94.94,0,0,0-.23.53.63.63,0,0,0,.06.27.52.52,0,0,0,.12.17.62.62,0,0,0,.19.12.56.56,0,0,0,.22,0,.52.52,0,0,0,.21,0,.72.72,0,0,0,.22-.17.78.78,0,0,0,.16-.24Z"/><path class="cls-1" d="M27.31,20l-.24-.09a1.61,1.61,0,0,1,.12-.28l.26-.65.08-.22.09-.21h0l-.25.05-.35.08,0-.18.53-.13.3-.08.13.19-.19.47a1.91,1.91,0,0,1-.12.28l-.17.46A1.72,1.72,0,0,0,27.31,20Z"/><path class="cls-1" d="M26.91,22.66l-.24-.09a2.05,2.05,0,0,1,.12-.28l.26-.65a1.19,1.19,0,0,1,.08-.21l.09-.22h0l-.25.05-.35.07,0-.17.53-.14.3-.08.13.19c-.06.16-.12.31-.19.47l-.11.29-.18.45Z"/><path class="cls-1" d="M24.81,29.6l-.23-.08a2.24,2.24,0,0,1,.11-.28l.27-.65.08-.21a2.32,2.32,0,0,1,.08-.22h0l-.25.05-.35.08,0-.18L25,28l.3-.08.13.19-.19.47a1.91,1.91,0,0,1-.12.28l-.17.45C24.87,29.47,24.83,29.57,24.81,29.6Z"/><path class="cls-1" d="M19.26,27.54,19,27.45a2.05,2.05,0,0,1,.12-.28l.26-.65a1.19,1.19,0,0,1,.08-.21l.09-.22h0l-.25.06-.35.07,0-.17.52-.14.31-.08.12.19-.19.47c-.06.16-.1.25-.11.29l-.18.45Z"/><path class="cls-1" d="M23.45,26.62l-.25-.09s.06-.12.12-.28.15-.37.26-.65a.81.81,0,0,1,.09-.21l.08-.21h0l-.25.05-.35.07,0-.17.53-.14.3-.08.13.19-.19.47-.11.29c-.06.12-.11.27-.18.45Z"/><path class="cls-1" d="M21.34,23.07,21.1,23s.06-.13.12-.29l.26-.65a1,1,0,0,1,.09-.21,1.94,1.94,0,0,1,.08-.21h0l-.26,0-.35.08,0-.17.53-.14.3-.08.13.19-.19.47-.12.28-.17.46C21.4,22.92,21.36,23,21.34,23.07Z"/><path class="cls-1" d="M24.4,24.2l-.24-.09a2.24,2.24,0,0,1,.11-.28l.27-.65a.71.71,0,0,1,.08-.21l.08-.22h0l-.24.05-.35.08-.05-.18.53-.14.3-.08.13.19c-.06.15-.13.31-.19.47l-.11.29-.18.45C24.47,24.07,24.41,24.17,24.4,24.2Z"/><path class="cls-1" d="M28.42,7.48a1.06,1.06,0,0,1-.22.33.92.92,0,0,1-.31.2.76.76,0,0,1-.34.06A1,1,0,0,1,27.2,8a1,1,0,0,1-.3-.2.85.85,0,0,1-.16-.28,1,1,0,0,1-.06-.36,1.21,1.21,0,0,1,.06-.38,1,1,0,0,1,.49-.53.83.83,0,0,1,.34-.07,1,1,0,0,1,.38.07,1,1,0,0,1,.31.21.77.77,0,0,1,.19.28,1.34,1.34,0,0,1,.05.35A1,1,0,0,1,28.42,7.48Zm-.27-.09a.91.91,0,0,0,.09-.31.92.92,0,0,0,0-.29.57.57,0,0,0-.12-.18.66.66,0,0,0-.2-.14.73.73,0,0,0-.25,0,.79.79,0,0,0-.22.05.91.91,0,0,0-.23.17.78.78,0,0,0-.17.26,1,1,0,0,0-.08.3,1,1,0,0,0,.05.3.94.94,0,0,0,.12.18.62.62,0,0,0,.19.12.59.59,0,0,0,.23.05.54.54,0,0,0,.22,0A.78.78,0,0,0,28,7.66a.81.81,0,0,0,.17-.28Z"/><path class="cls-1" d="M27.18,9.58a1.11,1.11,0,0,1-.22.34.83.83,0,0,1-.3.2.82.82,0,0,1-.34.06.73.73,0,0,1-.36-.07,1,1,0,0,1-.3-.19.88.88,0,0,1-.24-.64,1.24,1.24,0,0,1,.09-.38.93.93,0,0,1,.5-.53.77.77,0,0,1,.34-.08.9.9,0,0,1,.37.07,1,1,0,0,1,.32.21.84.84,0,0,1,.23.63A1.24,1.24,0,0,1,27.18,9.58Zm-.27-.09A.68.68,0,0,0,27,9.18a.67.67,0,0,0,0-.28.55.55,0,0,0-.32-.33.75.75,0,0,0-.26,0,.8.8,0,0,0-.21.05.91.91,0,0,0-.23.17.82.82,0,0,0-.16.25.71.71,0,0,0-.08.31.48.48,0,0,0,0,.29.56.56,0,0,0,.31.31.58.58,0,0,0,.45,0,.78.78,0,0,0,.24-.16.81.81,0,0,0,.17-.24Z"/><path class="cls-1" d="M30.17,10.82a1.12,1.12,0,0,1-.22.33.9.9,0,0,1-.65.28.85.85,0,0,1-.35-.08.82.82,0,0,1-.48-.47.74.74,0,0,1-.06-.36,1.24,1.24,0,0,1,.09-.38,1,1,0,0,1,.21-.32A.86.86,0,0,1,29,9.61a.76.76,0,0,1,.36-.08.84.84,0,0,1,.38.08.87.87,0,0,1,.31.2.84.84,0,0,1,.18.28.85.85,0,0,1,.05.35A1,1,0,0,1,30.17,10.82Zm-.27-.09a.84.84,0,0,0,.08-.31.65.65,0,0,0,0-.28.52.52,0,0,0-.12-.19.66.66,0,0,0-.2-.14.75.75,0,0,0-.26-.05.83.83,0,0,0-.21.06.6.6,0,0,0-.23.16.9.9,0,0,0-.17.26,1.09,1.09,0,0,0-.08.31.71.71,0,0,0,.05.29.57.57,0,0,0,.12.18.47.47,0,0,0,.19.12.6.6,0,0,0,.24,0,.52.52,0,0,0,.21,0,.78.78,0,0,0,.24-.16.87.87,0,0,0,.16-.26Z"/><path class="cls-1" d="M27.84,12.5a1.06,1.06,0,0,1-.22.33.82.82,0,0,1-.64.27.84.84,0,0,1-.35-.07.85.85,0,0,1-.3-.19.73.73,0,0,1-.19-.28.76.76,0,0,1-.06-.36,1.24,1.24,0,0,1,.09-.38,1.42,1.42,0,0,1,.21-.33,1.15,1.15,0,0,1,.29-.2.81.81,0,0,1,.34-.08,1,1,0,0,1,.38.07,1.27,1.27,0,0,1,.31.2,1,1,0,0,1,.18.29.83.83,0,0,1,.05.35A1.24,1.24,0,0,1,27.84,12.5Zm-.27-.09a.68.68,0,0,0,.08-.31.65.65,0,0,0,0-.28.67.67,0,0,0-.12-.2.63.63,0,0,0-.2-.13.75.75,0,0,0-.26-.05.65.65,0,0,0-.44.22.78.78,0,0,0-.17.26,1,1,0,0,0-.08.3.71.71,0,0,0,0,.29.76.76,0,0,0,.12.19.62.62,0,0,0,.65.12.53.53,0,0,0,.23-.16A.59.59,0,0,0,27.57,12.41Z"/><path class="cls-1" d="M25.94,11.72a1.09,1.09,0,0,1-.23.33.81.81,0,0,1-.3.21.76.76,0,0,1-.34.06.84.84,0,0,1-.35-.07,1,1,0,0,1-.3-.19.84.84,0,0,1-.18-.28.92.92,0,0,1-.07-.36,1.32,1.32,0,0,1,.1-.39,1.26,1.26,0,0,1,.21-.32,1.1,1.1,0,0,1,.28-.2.85.85,0,0,1,.35-.08.94.94,0,0,1,.37.07,1,1,0,0,1,.32.21A.62.62,0,0,1,26,11a.7.7,0,0,1,.06.35A1.24,1.24,0,0,1,25.94,11.72Zm-.25-.09a.89.89,0,0,0,.08-.31.57.57,0,0,0,0-.29.52.52,0,0,0-.11-.19.74.74,0,0,0-.21-.13.53.53,0,0,0-.46,0,.73.73,0,0,0-.23.16,1.06,1.06,0,0,0-.17.26,1.09,1.09,0,0,0-.08.31.58.58,0,0,0,.05.29.57.57,0,0,0,.12.18.64.64,0,0,0,.19.13.59.59,0,0,0,.23,0,.41.41,0,0,0,.22,0,.78.78,0,0,0,.24-.16A.85.85,0,0,0,25.69,11.63Z"/><path class="cls-1" d="M31.1,13.84a1.19,1.19,0,0,1-.22.33.9.9,0,0,1-.3.21,1,1,0,0,1-.34.06,1.1,1.1,0,0,1-.36-.07.84.84,0,0,1-.29-.2.77.77,0,0,1-.19-.28,1.09,1.09,0,0,1-.06-.36,1.2,1.2,0,0,1,.3-.7,1,1,0,0,1,.29-.21,1.05,1.05,0,0,1,.35-.08,1.23,1.23,0,0,1,.37.08.92.92,0,0,1,.31.2.88.88,0,0,1,.18.29.88.88,0,0,1,0,.73Zm-.26-.09a1.16,1.16,0,0,0,.08-.32.9.9,0,0,0,0-.28.47.47,0,0,0-.12-.19.66.66,0,0,0-.45-.18.79.79,0,0,0-.22.05.6.6,0,0,0-.22.17,1.14,1.14,0,0,0-.18.25,1.16,1.16,0,0,0-.07.31.7.7,0,0,0,0,.29.57.57,0,0,0,.12.18.59.59,0,0,0,.19.13.69.69,0,0,0,.24.05.71.71,0,0,0,.21,0,.74.74,0,0,0,.25-.17A1.1,1.1,0,0,0,30.84,13.75Z"/><path class="cls-1" d="M33.16,12.05a1.46,1.46,0,0,1-.22.33.91.91,0,0,1-1,.2,1,1,0,0,1-.3-.2.75.75,0,0,1-.18-.28,1,1,0,0,1-.06-.36,1.2,1.2,0,0,1,.3-.7.86.86,0,0,1,.29-.21,1,1,0,0,1,.72,0A1.27,1.27,0,0,1,33,11a.79.79,0,0,1,.18.29.83.83,0,0,1,0,.35A1.24,1.24,0,0,1,33.16,12.05ZM32.89,12a.89.89,0,0,0,.08-.32.67.67,0,0,0,0-.28.76.76,0,0,0-.12-.19.63.63,0,0,0-.2-.13.56.56,0,0,0-.25,0,.79.79,0,0,0-.22,0,.55.55,0,0,0-.23.17.85.85,0,0,0-.17.25,1.18,1.18,0,0,0-.08.31.71.71,0,0,0,0,.29.57.57,0,0,0,.12.18.5.5,0,0,0,.19.13.59.59,0,0,0,.23.05.78.78,0,0,0,.22,0,.69.69,0,0,0,.24-.18A.81.81,0,0,0,32.89,12Z"/><path class="cls-1" d="M34.67,10a1,1,0,0,1-.22.33.9.9,0,0,1-.3.21.92.92,0,0,1-.69,0,.88.88,0,0,1-.3-.2A.92.92,0,0,1,33,10.1a.85.85,0,0,1,0-.36,1.11,1.11,0,0,1,.3-.68.94.94,0,0,1,.28-.21,1.05,1.05,0,0,1,.35-.08,1,1,0,0,1,.37.08.79.79,0,0,1,.31.2.81.81,0,0,1,.19.29,1,1,0,0,1,.05.35A.88.88,0,0,1,34.67,10ZM34.41,10a1.16,1.16,0,0,0,.08-.32.55.55,0,0,0,0-.28.44.44,0,0,0-.12-.19.47.47,0,0,0-.2-.1A.43.43,0,0,0,33.88,9a.67.67,0,0,0-.44.21,1.06,1.06,0,0,0-.17.26.84.84,0,0,0-.08.31.58.58,0,0,0,.05.29.42.42,0,0,0,.11.18.69.69,0,0,0,.2.13.86.86,0,0,0,.23,0,.59.59,0,0,0,.22,0,.63.63,0,0,0,.24-.16A1,1,0,0,0,34.41,10Z"/><path class="cls-1" d="M32.77,9.25a1.11,1.11,0,0,1-.22.34,1,1,0,0,1-.31.21.93.93,0,0,1-.34.06,1,1,0,0,1-.35-.07,1,1,0,0,1-.3-.21.84.84,0,0,1-.18-.28A1.13,1.13,0,0,1,31,8.94a1,1,0,0,1,.1-.38.83.83,0,0,1,.2-.32A.86.86,0,0,1,31.6,8,.81.81,0,0,1,31.94,8a1,1,0,0,1,.38.07,1.06,1.06,0,0,1,.31.21.84.84,0,0,1,.23.63A.86.86,0,0,1,32.77,9.25Zm-.26-.08a1.18,1.18,0,0,0,.08-.31.57.57,0,0,0,0-.29.39.39,0,0,0-.12-.19.46.46,0,0,0-.2-.13A.49.49,0,0,0,32,8.2a.54.54,0,0,0-.22.05.6.6,0,0,0-.22.17.81.81,0,0,0-.18.26.85.85,0,0,0,0,.6.66.66,0,0,0,.12.17.5.5,0,0,0,.19.13.69.69,0,0,0,.24.05.65.65,0,0,0,.2-.05.67.67,0,0,0,.24-.16A.83.83,0,0,0,32.51,9.17Z"/><path class="cls-1" d="M29,8.74l-.25-.11a2.77,2.77,0,0,1,.13-.29l.3-.67.1-.22a1.23,1.23,0,0,1,.09-.22h0l-.26,0-.37.07,0-.18L29.23,7,29.56,7l.12.2-.22.48-.12.29-.21.47A3.31,3.31,0,0,0,29,8.74Z"/><path class="cls-1" d="M27.75,10.86l-.24-.11.13-.29.3-.67L28,9.57c0-.09.07-.17.1-.22h0l-.27,0-.36.07,0-.18L28,9.16l.32-.1.13.2-.22.49-.13.29-.2.47A1.36,1.36,0,0,1,27.75,10.86Z"/><path class="cls-1" d="M28.41,13.78l-.25-.1.14-.3.29-.66c0-.05.06-.13.1-.22l.09-.23h0l-.26,0-.37.07V12.2l.52-.13L29,12l.13.2-.22.49-.13.29c-.05.13-.12.28-.2.47S28.42,13.73,28.41,13.78Z"/><path class="cls-1" d="M26.36,15.55l-.25-.11.13-.29c.08-.16.18-.38.3-.67l.1-.21a1.6,1.6,0,0,1,.1-.23h0l-.26.05-.37.06,0-.18.52-.12.32-.08L27,14l-.21.48-.13.29-.2.47C26.42,15.4,26.37,15.51,26.36,15.55Z"/><path class="cls-1" d="M27.44,16l-.25-.1a2,2,0,0,1,.14-.29l.3-.67.09-.22.09-.22h0l-.26,0-.37.07,0-.19.52-.12.32-.07.13.2-.21.49c-.08.16-.12.26-.13.28l-.21.48Z"/><path class="cls-1" d="M30.74,12.08,30.5,12l.13-.3c.08-.15.17-.38.3-.67L31,10.8c0-.1.08-.17.1-.23h0l-.26,0-.37.07,0-.18.53-.13.32-.07.12.2-.21.49-.13.29-.2.47Z"/><path class="cls-1" d="M30.36,9.29l-.26-.1.14-.29.3-.67L30.63,8l.09-.22h0l-.26,0-.37.07,0-.19.53-.12.35-.08.12.2-.21.49-.13.29c0,.13-.12.29-.2.47S30.37,9.25,30.36,9.29Z"/><path class="cls-2" d="M25,30.24a.35.35,0,0,1-.27-.11.38.38,0,0,1-.07-.43,24.14,24.14,0,0,0,1.81-5A13.09,13.09,0,0,0,27,18.56a25.16,25.16,0,0,0-1.71-3.73c-.13-.19-1.68-2.59-1.41-4.33A5.11,5.11,0,0,1,24.94,8v0c1.65-2.1,2.26-2.49,2.4-2.55a.41.41,0,0,1,.16,0,.37.37,0,0,1,.36.39.38.38,0,0,1-.07.21s-3.06,3.54-2.24,6.35c.13.38.72,1.7,1.08,2.38l.87,1.61A16.73,16.73,0,0,1,29.41,22a11.31,11.31,0,0,1-1.86,7,.4.4,0,0,1-.15.14l-2.23,1.12A.51.51,0,0,1,25,30.24Z"/><path class="cls-3" d="M25,30.29a.47.47,0,0,1-.3-.12.44.44,0,0,1-.06-.49,24.26,24.26,0,0,0,1.81-4.95,12.64,12.64,0,0,0,.49-6.16,24.38,24.38,0,0,0-1.73-3.74c-.17-.26-1.69-2.63-1.41-4.36a5,5,0,0,1,1.11-2.55v0c1.66-2.1,2.28-2.5,2.42-2.56a.43.43,0,0,1,.53.14.42.42,0,0,1,0,.52s-3,3.53-2.23,6.3c.13.38.72,1.69,1.05,2.36l.87,1.62a16.94,16.94,0,0,1,1.92,5.66A11.53,11.53,0,0,1,27.61,29a.52.52,0,0,1-.18.15l-2.26,1.09A.37.37,0,0,1,25,30.29ZM27.52,5.38a.31.31,0,0,0-.13,0c-.15.06-.75.43-2.39,2.54V8a4.88,4.88,0,0,0-1.08,2.51,5.11,5.11,0,0,0,.52,2.72,12,12,0,0,0,.85,1.58A24.66,24.66,0,0,1,27,18.56a13.31,13.31,0,0,1-.48,6.21,24.9,24.9,0,0,1-1.82,4.95.33.33,0,0,0,.06.39.36.36,0,0,0,.39.07l2.25-1.11a.33.33,0,0,0,.13-.13,11.3,11.3,0,0,0,1.86-7,16.8,16.8,0,0,0-1.9-5.64l-.87-1.62c-.38-.68-.94-2-1.1-2.38C24.7,9.5,27.75,6,27.79,5.93a.34.34,0,0,0-.06-.48A.38.38,0,0,0,27.52,5.38Z"/><path class="cls-4" d="M28.26,16.3a.19.19,0,0,1-.19-.19.21.21,0,0,1,.08-.16,19.39,19.39,0,0,0,6.46-7.29.2.2,0,0,1,.19-.13h0a.19.19,0,0,1,.15.18v.58a.11.11,0,0,1,0,.08c-1.69,4-6.59,6.87-6.63,6.9A.17.17,0,0,1,28.26,16.3Z"/><path class="cls-5" d="M28.26,16.3a.19.19,0,0,1-.19-.19.21.21,0,0,1,.08-.16,19.39,19.39,0,0,0,6.46-7.29.2.2,0,0,1,.19-.13h0a.19.19,0,0,1,.15.18v.58a.11.11,0,0,1,0,.08c-1.69,4-6.59,6.87-6.63,6.9A.17.17,0,0,1,28.26,16.3Z"/><path class="cls-6" d="M27.48,5.35c-.13,0,.59,0-.83,1.25s-3.31,5.37-1,8.15A7.79,7.79,0,0,1,27.17,21s.56-2.34-2.16-6.55.3-6.93.3-6.93A8,8,0,0,1,27.48,5.35Z"/><path class="cls-7" d="M27.48,5.41s.72,0-.69,1.27-3.2,5.35-1,8.11a7.5,7.5,0,0,1,1.22,6.3s.9-1.92-2-6.61c-2.77-4.54.23-7,.23-7A7.49,7.49,0,0,1,27.48,5.41Z"/><path class="cls-8" d="M18.79,27.69a.2.2,0,0,1-.2-.18c-.13-6.6,7.1-10,7.17-10.06h.08a.21.21,0,0,1,.17.1.2.2,0,0,1-.07.25c-6.82,4.16-7,9.66-7,9.71a.19.19,0,0,1-.18.19h0Z"/><path class="cls-5" d="M18.79,27.69a.2.2,0,0,1-.2-.18c-.13-6.6,7.1-10,7.17-10.06h.08a.21.21,0,0,1,.17.1.2.2,0,0,1-.07.25c-6.82,4.16-7,9.66-7,9.71a.19.19,0,0,1-.18.19h0Z"/><rect class="cls-9" x="6.7" y="24.63" width="14.99" height="0.93" rx="0.47"/><rect class="cls-10" x="2.03" y="24.63" width="4.01" height="0.93" rx="0.47"/><path class="cls-11" d="M12.83,7.83h0a.47.47,0,0,1,.46-.46H29.42a.46.46,0,0,1,.46.46h0a.45.45,0,0,1-.46.46H13.29A.46.46,0,0,1,12.83,7.83Z"/><rect class="cls-12" x="10.5" y="7.37" width="1.68" height="0.92" rx="0.46"/><path class="cls-13" d="M8.06,22.49h0a.61.61,0,0,1,.61-.61h8.68a.61.61,0,0,1,.61.61h0a.62.62,0,0,1-.61.61H8.67A.61.61,0,0,1,8.06,22.49Z"/><rect class="cls-14" x="9.7" y="16.13" width="16.27" height="0.8" rx="0.36"/><path class="cls-15" d="M6,14H6a.44.44,0,0,1,.43-.44h18.3a.44.44,0,0,1,.43.44h0a.43.43,0,0,1-.43.43H6.39A.43.43,0,0,1,6,14Z"/><rect class="cls-16" x="17.4" y="10.46" width="10.63" height="0.92" rx="0.46"/><rect class="cls-17" x="15.16" y="10.46" width="1.49" height="0.92" rx="0.46"/><path class="cls-18" d="M7,19.49H7A.52.52,0,0,1,7.54,19h13.9a.52.52,0,0,1,.52.52h0a.52.52,0,0,1-.52.53H7.54A.52.52,0,0,1,7,19.49Z"/><path class="cls-19" d="M4,19.49H4A.52.52,0,0,1,4.5,19H6a.53.53,0,0,1,.53.53h0A.52.52,0,0,1,6,20H4.5A.52.52,0,0,1,4,19.49Z"/><path class="cls-20" d="M24.91,30.1S30.6,26.81,28,17.3a11.62,11.62,0,0,1-.37,11.58A6.71,6.71,0,0,1,24.91,30.1Z"/><path class="cls-21" d="M25.52,28.76c2.16-2.78,4.31-6.33,1.33-13.48,0,0,4.69,7.15.28,13.6C27.13,28.88,23.35,31.53,25.52,28.76Z"/><rect class="cls-22" x="10.77" y="7.81" width="1.21" height="0.38" rx="0.18"/><path class="cls-23" d="M10.83,8.1h0a.09.09,0,0,1,.1-.1h.57a.09.09,0,0,1,.09.1h0a.09.09,0,0,1-.09.09h-.57A.09.09,0,0,1,10.83,8.1Z"/><rect class="cls-22" x="4.32" y="19.54" width="1.21" height="0.38" rx="0.18"/><path class="cls-23" d="M4.38,19.82h0a.09.09,0,0,1,.1-.09h.57a.09.09,0,0,1,.09.09h0a.09.09,0,0,1-.09.1H4.48A.09.09,0,0,1,4.38,19.82Z"/><path class="cls-22" d="M2.29,25.22h0A.19.19,0,0,1,2.48,25H4.16a.18.18,0,0,1,.19.19h0a.19.19,0,0,1-.19.19H2.48A.2.2,0,0,1,2.29,25.22Z"/><rect class="cls-23" x="2.36" y="25.22" width="0.76" height="0.19" rx="0.09"/><rect class="cls-22" x="15.37" y="10.87" width="1.08" height="0.38" rx="0.17"/><rect class="cls-23" x="15.43" y="11.05" width="0.68" height="0.19" rx="0.09"/><path class="cls-22" d="M17.65,11h0a.19.19,0,0,1,.19-.19h7.87a.19.19,0,0,1,.19.19h0a.2.2,0,0,1-.19.19H17.84A.2.2,0,0,1,17.65,11Z"/><path class="cls-23" d="M17.78,11.11h0a.1.1,0,0,1,.1-.09h1.56a.1.1,0,0,1,.1.09h0a.11.11,0,0,1-.1.1H17.88A.11.11,0,0,1,17.78,11.11Z"/><path class="cls-22" d="M6.27,14.13h0A.18.18,0,0,1,6.45,14h7.87a.19.19,0,0,1,.19.18h0a.19.19,0,0,1-.19.19H6.45A.18.18,0,0,1,6.27,14.13Z"/><path class="cls-23" d="M6.41,14.2h0a.09.09,0,0,1,.09-.09H8.07a.09.09,0,0,1,.09.09h0a.09.09,0,0,1-.09.1H6.5A.09.09,0,0,1,6.41,14.2Z"/><path class="cls-22" d="M13.1,8h0a.19.19,0,0,1,.19-.19h7.87a.19.19,0,0,1,.19.19h0a.19.19,0,0,1-.19.18H13.29A.19.19,0,0,1,13.1,8Z"/><path class="cls-23" d="M13.24,8.06h0a.1.1,0,0,1,.1-.09H14.9a.1.1,0,0,1,.1.09h0a.1.1,0,0,1-.1.1H13.34A.1.1,0,0,1,13.24,8.06Z"/><path class="cls-22" d="M9.85,16.63h0a.19.19,0,0,1,.19-.19h7.87a.19.19,0,0,1,.19.19h0a.2.2,0,0,1-.19.19H10A.2.2,0,0,1,9.85,16.63Z"/><path class="cls-23" d="M10,16.72h0a.09.09,0,0,1,.09-.09h1.57a.09.09,0,0,1,.09.09h0a.1.1,0,0,1-.09.1H10.1A.1.1,0,0,1,10,16.72Z"/><path class="cls-22" d="M7.33,19.73h0a.19.19,0,0,1,.19-.19H17.91a.19.19,0,0,1,.19.19h0a.2.2,0,0,1-.19.19H7.52A.2.2,0,0,1,7.33,19.73Z"/><path class="cls-23" d="M7.47,19.79h0a.09.09,0,0,1,.09-.09H9.13a.09.09,0,0,1,.09.09h0a.1.1,0,0,1-.09.1H7.56A.1.1,0,0,1,7.47,19.79Z"/><path class="cls-22" d="M8.54,22.81h0a.19.19,0,0,1,.19-.19h4a.19.19,0,0,1,.18.19h0a.18.18,0,0,1-.18.19h-4A.18.18,0,0,1,8.54,22.81Z"/><path class="cls-23" d="M8.66,22.91h0a.1.1,0,0,1,.09-.1h1.57a.1.1,0,0,1,.09.1h0a.09.09,0,0,1-.09.09H8.75A.09.09,0,0,1,8.66,22.91Z"/><path class="cls-22" d="M7,25.24H7a.19.19,0,0,1,.19-.19h7.87a.18.18,0,0,1,.18.19h0a.19.19,0,0,1-.18.19H7.21A.2.2,0,0,1,7,25.24Z"/><path class="cls-23" d="M7.18,25.31h0a.1.1,0,0,1,.1-.09H8.84a.1.1,0,0,1,.1.09h0a.11.11,0,0,1-.1.1H7.28A.11.11,0,0,1,7.18,25.31Z"/><path class="cls-24" d="M40.48,13.16l-.79.75a2.31,2.31,0,0,0-.52-.31,1.53,1.53,0,0,0-.56-.09,1.26,1.26,0,0,0-1,.45,2.78,2.78,0,0,0-.55,1.1,4.9,4.9,0,0,0-.17,1.26,1.56,1.56,0,0,0,.29,1.05,1,1,0,0,0,.82.34,1.4,1.4,0,0,0,.63-.13,3.48,3.48,0,0,0,.64-.38l.6.87a3.46,3.46,0,0,1-.92.55,2.87,2.87,0,0,1-1.15.22A2.36,2.36,0,0,1,36,18.19a2.59,2.59,0,0,1-.64-1.87,5.09,5.09,0,0,1,.33-1.81A3.39,3.39,0,0,1,36.78,13a2.76,2.76,0,0,1,1.83-.59A2.42,2.42,0,0,1,40.48,13.16Z"/><path class="cls-24" d="M45.38,13.09A2.55,2.55,0,0,1,46,14.94a5.31,5.31,0,0,1-.32,1.81,3.36,3.36,0,0,1-1,1.49,2.91,2.91,0,0,1-1.91.6A2.37,2.37,0,0,1,41,18.19a2.57,2.57,0,0,1-.63-1.85,5.09,5.09,0,0,1,.33-1.81A3.26,3.26,0,0,1,41.71,13a2.88,2.88,0,0,1,1.9-.6A2.32,2.32,0,0,1,45.38,13.09Zm-2.9.9A2.77,2.77,0,0,0,42,15.15a5.68,5.68,0,0,0-.15,1.29,1.62,1.62,0,0,0,.25,1,.9.9,0,0,0,.75.32,1.18,1.18,0,0,0,1-.5,2.77,2.77,0,0,0,.52-1.16,5.37,5.37,0,0,0,.17-1.32,1.62,1.62,0,0,0-.24-1,.9.9,0,0,0-.75-.31A1.17,1.17,0,0,0,42.48,14Z"/><path class="cls-24" d="M51.05,13.1a2,2,0,0,1,.78,1.81A4.29,4.29,0,0,1,51,17.63a3.25,3.25,0,0,1-2.71,1.05H46.4l.88-6.1H49A3.58,3.58,0,0,1,51.05,13.1Zm-2.46.52-.58,4h.48a1.44,1.44,0,0,0,1.42-.82,4.14,4.14,0,0,0,.42-1.92,1.22,1.22,0,0,0-.32-1,1.42,1.42,0,0,0-.94-.27Z"/><path class="cls-24" d="M56.9,12.59l-.31,1.05H54.41l-.22,1.46h1.94l-.14,1H54.08l-.22,1.57h2.33L56,18.73H52.22l.88-6.1Z"/><path class="cls-24" d="M41,20.9l-2.54,3.81L38.09,27H36.62L37,24.72,35.52,20.9h1.57l.76,2.69,1.54-2.69Z"/><path class="cls-24" d="M45.4,21.4A2.56,2.56,0,0,1,46,23.25a5.3,5.3,0,0,1-.31,1.81,3.28,3.28,0,0,1-1.05,1.49,2.9,2.9,0,0,1-1.9.6A2.35,2.35,0,0,1,41,26.49a2.52,2.52,0,0,1-.62-1.84,5.21,5.21,0,0,1,.32-1.8,3.28,3.28,0,0,1,1-1.49,2.91,2.91,0,0,1,1.9-.61A2.35,2.35,0,0,1,45.4,21.4Zm-2.88.9A3,3,0,0,0,42,23.46a6.31,6.31,0,0,0-.14,1.3,1.68,1.68,0,0,0,.24,1,.9.9,0,0,0,.75.31,1.2,1.2,0,0,0,1-.49,3.12,3.12,0,0,0,.52-1.16,6.41,6.41,0,0,0,.14-1.31,1.56,1.56,0,0,0-.24-1,.89.89,0,0,0-.75-.31A1.19,1.19,0,0,0,42.52,22.3Z"/><path class="cls-24" d="M51.45,25A2.71,2.71,0,0,1,51,26.11a2.32,2.32,0,0,1-.91.79,3.21,3.21,0,0,1-1.36.27,2.38,2.38,0,0,1-1.61-.48,1.69,1.69,0,0,1-.52-1.33,2.53,2.53,0,0,1,0-.38l.56-4.08h1.46l-.58,4a2.16,2.16,0,0,0,0,.36.7.7,0,0,0,.58.79.74.74,0,0,0,.21,0,1.06,1.06,0,0,0,.79-.3,1.53,1.53,0,0,0,.35-.87l.6-4h1.45Z"/><path class="cls-24" d="M57.12,23.63a2.44,2.44,0,0,1-1.12.81L57.17,27H55.6l-1-2.32H54L53.7,27H52.23l.88-6.1h2a2.93,2.93,0,0,1,1.71.42,1.37,1.37,0,0,1,.59,1.2A2,2,0,0,1,57.12,23.63Zm-2.95,0h.64a1,1,0,0,0,.84-.32,1.16,1.16,0,0,0,.27-.76.59.59,0,0,0-.24-.53,1.23,1.23,0,0,0-.7-.16h-.56Z"/><path class="cls-24" d="M62.56,21.55l-.78.76a1.78,1.78,0,0,0-1.27-.52,1.13,1.13,0,0,0-.69.17.59.59,0,0,0-.26.53.52.52,0,0,0,.22.42,3.13,3.13,0,0,0,.84.36,2.89,2.89,0,0,1,1.2.66A1.46,1.46,0,0,1,62.23,25a2,2,0,0,1-1.16,1.84,3.32,3.32,0,0,1-1.52.31,3.52,3.52,0,0,1-1.33-.23,2.93,2.93,0,0,1-.95-.65l.84-.81a2,2,0,0,0,1.48.6,1.29,1.29,0,0,0,.81-.22.71.71,0,0,0,.3-.61.63.63,0,0,0-.21-.48,2.57,2.57,0,0,0-.78-.38,3.15,3.15,0,0,1-1.28-.7,1.4,1.4,0,0,1-.39-1,1.76,1.76,0,0,1,.27-.92,2,2,0,0,1,.82-.71,3.14,3.14,0,0,1,1.35-.27A2.86,2.86,0,0,1,62.56,21.55Z"/><path class="cls-24" d="M67.42,20.9,67.11,22H64.94l-.22,1.46h1.9l-.14,1h-1.9L64.35,26h2.33L66.54,27h-3.8l.88-6.1Z"/><path class="cls-24" d="M69.77,20.9l-.7,5h2.4L71.16,27H67.43l.88-6.1Z"/><path class="cls-24" d="M76.59,20.9,76.29,22h-2.1L74,23.55h1.81l-.15,1.05H73.82L73.47,27H72l.91-6.12Z"/></svg>