<?xml version="1.0" encoding="utf-8"?>
<!-- Generator: Adobe Illustrator 23.0.3, SVG Export Plug-In . SVG Version: 6.00 Build 0)  -->
<svg version="1.1" id="Layer_1" xmlns="http://www.w3.org/2000/svg" xmlns:xlink="http://www.w3.org/1999/xlink" x="0px" y="0px"
	 viewBox="0 0 800 220" style="enable-background:new 0 0 800 220;" xml:space="preserve">
<style type="text/css">
	.st0{clip-path:url(#SVGID_2_);}
	.st1{clip-path:url(#SVGID_4_);}
	.st2{opacity:0.97;clip-path:url(#SVGID_6_);}
	.st3{clip-path:url(#SVGID_8_);}
	.st4{clip-path:url(#SVGID_10_);fill:#25677D;}
	.st5{clip-path:url(#SVGID_12_);}
	.st6{clip-path:url(#SVGID_14_);fill:#25677D;}
	.st7{clip-path:url(#SVGID_16_);}
	.st8{clip-path:url(#SVGID_18_);fill:#25677D;}
	.st9{clip-path:url(#SVGID_20_);}
	.st10{clip-path:url(#SVGID_22_);fill:#25677D;}
	.st11{clip-path:url(#SVGID_24_);}
	.st12{clip-path:url(#SVGID_26_);fill:#25677D;}
	.st13{clip-path:url(#SVGID_28_);}
	.st14{clip-path:url(#SVGID_30_);fill:#25677D;}
	.st15{clip-path:url(#SVGID_32_);}
	.st16{clip-path:url(#SVGID_34_);fill:#25677D;}
	.st17{clip-path:url(#SVGID_36_);}
	.st18{clip-path:url(#SVGID_38_);fill:#FFAE00;}
	.st19{clip-path:url(#SVGID_40_);}
	.st20{clip-path:url(#SVGID_42_);fill:#FFAE00;}
	.st21{clip-path:url(#SVGID_44_);}
	.st22{clip-path:url(#SVGID_46_);fill:#FFAE00;}
	.st23{clip-path:url(#SVGID_48_);}
	.st24{clip-path:url(#SVGID_50_);fill:#FFAE00;}
</style>
<g>
	<g>
		<defs>
			<rect id="SVGID_1_" x="-48" y="-167" width="841.9" height="595.3"/>
		</defs>
		<clipPath id="SVGID_2_">
			<use xlink:href="#SVGID_1_"  style="overflow:visible;"/>
		</clipPath>
		<g class="st0">
			<defs>
				<rect id="SVGID_3_" x="-48" y="-167" width="841.9" height="595.3"/>
			</defs>
			<clipPath id="SVGID_4_">
				<use xlink:href="#SVGID_3_"  style="overflow:visible;"/>
			</clipPath>
			<g class="st1">
				<defs>
					<rect id="SVGID_5_" x="-48" y="-167" width="841.9" height="595.3"/>
				</defs>
				<clipPath id="SVGID_6_">
					<use xlink:href="#SVGID_5_"  style="overflow:visible;"/>
				</clipPath>
				<g class="st2">
					<g>
						<defs>
							<rect id="SVGID_7_" x="129.1" y="85.6" width="240.6" height="51.8"/>
						</defs>
						<clipPath id="SVGID_8_">
							<use xlink:href="#SVGID_7_"  style="overflow:visible;"/>
						</clipPath>
						<g class="st3">
							<defs>
								<rect id="SVGID_9_" x="129.1" y="85.6" width="240.6" height="51.9"/>
							</defs>
							<clipPath id="SVGID_10_">
								<use xlink:href="#SVGID_9_"  style="overflow:visible;"/>
							</clipPath>
							<path class="st4" d="M336.5,106.7L336.5,106.7C336.5,106.7,336.5,106.7,336.5,106.7C336.5,106.7,336.5,106.7,336.5,106.7"/>
							<path class="st4" d="M368,120.3c-1.3-1.7-2.5-3.4-3.5-5.4c0,0,0,0-0.1-0.1c0-0.3-0.1-0.6-0.3-0.8c-0.5-1-1.3-1.8-2.1-2.4
								c-1.9-1.4-4.2-2.1-6-3.6c-0.2-0.2-0.4-0.1-0.6,0c-0.1-0.1-0.2-0.2-0.3-0.4c-0.7-0.8-1.8-1.3-2.7-1.8
								c-1.1-0.6-2.3-1.1-3.5-1.5c-0.5-0.2-0.9-0.3-1.4-0.4c0.9-0.7,0.4-2.4-0.3-3.3c-0.8-1.1-1.9-1.8-3.2-1.9
								c-0.2,0-0.4,0.1-0.4,0.2c-0.1,0.2-0.1,0.5,0,0.7c0,0,0,0.1,0.1,0.1c-0.1,0-0.3,0.1-0.3,0.1c-0.2,0-0.4,0-0.7,0
								c-0.1,0-0.3,0-0.4,0c-0.7-1.1-2.2-1.5-3.4-1.6c0-0.5-0.2-1-0.6-1.4c-0.6-0.5-1.4-0.6-2.2-0.7c-1-0.2-1.9-0.4-2.9-0.6
								c-2.3-0.4-4.5-0.9-6.8-1.3c-0.2,0-0.3,0-0.5,0.1c-1.1-0.6-2.4-0.8-3.5-1c-0.2,0-0.4,0-0.5,0.2c-1.1-1-2.4-1.8-3.9-2
								c-1.8-0.3-4.1-0.3-5.4,1.2c-0.1-0.1-0.1-0.2-0.2-0.2c-0.7-0.6-1.5-1.1-2.4-1.5c-1.7-0.8-3.7-1.2-5.6-0.7c0,0,0,0,0,0
								c-1-0.4-2.1-0.3-3.1,0.2c0,0,0,0,0,0c-1.7-0.1-3.4,0.7-4.4,2.1c-0.3-0.7-0.9-1.3-1.5-1.8c-0.1-0.1-0.3-0.2-0.5-0.1
								c-0.5-0.5-1.5-0.5-2.2-0.6c-1-0.1-2-0.2-3.1-0.2c-2.1-0.1-4.2-0.2-6.3-0.2c-2.3-0.1-4.6-0.2-7-0.3c-0.1-0.1-0.2-0.1-0.3-0.1
								c-9.5,0.9-19-0.8-28.5-1.4c-9.5-0.7-19-1-28.5-1.1c-19.1-0.3-38.2-0.5-57.3-0.8l-32.5-0.4c-0.6,0-0.6,1,0,1
								c19.2,0.3,38.4,0.5,57.7,0.7c19,0.2,38.1,0.1,57.1,1.3c5.3,0.3,10.6,0.9,15.9,1.4c5.3,0.5,10.6,0.8,15.9,0.3
								c0.1,0,0.1,0,0.2,0.1c4.3,0.2,8.7,0.3,13,0.5c0.7,0,1.5,0.1,2.2,0.1c-1,1.2-1.9,2.5-2.5,3.8c-0.1,0.3,0,0.5,0.2,0.7
								c-0.3,0.9-0.3,1.8-0.2,2.7c0.1,1.4,0.2,2.7,0.4,4.1c0.2,1.3,0.4,2.6,0.6,3.8c0.2,1.2,0.5,2.5,0.9,3.7c0.3,1,0.8,1.8,1.7,2.4
								c0.9,0.6,2.2,0.9,3.3,1c1,0.1,2.1-0.3,2.7-1.2c0.3-0.4,0.3-0.9,0.2-1.3c0.2,0,0.4,0,0.6,0c0.2-0.1,0.3-0.1,0.4-0.3
								c0.8,0.8,2,1,3,0.6c0.3-0.1,0.7-0.3,0.9-0.6c0,0.1,0.1,0.2,0.2,0.3c0.9,0.4,1.9,0.5,2.9,0.1c0.5-0.2,0.9-0.4,1.2-0.7
								c0.2-0.2,0.6-0.7,0.9-0.6c0.1,0,0.2,0,0.2,0c3.3,3.3,7.3,5.8,11.6,7.4c0.1,0,0.2,0,0.3,0c0.3,0.1,0.6,0.1,0.9,0
								c3,2.5,6.2,4.9,9.5,6.9c0,0,0,0,0,0c0,0,0.1,0.1,0.1,0.1c-0.1,0.1-0.2,0.2-0.2,0.4c0,0.5,0.2,0.9,0.5,1.3
								c-0.2,0-0.5,0-0.6,0.3c-0.5,1.5-0.8,3.1-1,4.6c-0.1,1.3,0.3,3,1.8,3.1c0.7,0.1,1.2-0.4,1.8-0.7c0.6-0.4,1.1-0.8,1.5-1.4
								c0.4-0.6,0.6-1.4,0.8-2.1c0.1-0.4,0.1-0.8,0.1-1.2c0,0,0,0,0.1,0.1c0.8,0.7,1.6,1.4,2.5,2.1c0.7,0.6,1.6,1.1,2.5,1.1
								c2,0,2.5-2.1,2.7-3.7c0.2-2.1-1.4-3.9-2.6-5.5c-0.8-1.1-1.7-2.1-2.6-3.2c0.1-0.1,0.1-0.1,0.2-0.2c0.1-0.6,0.3-1.3,0.4-1.9
								c0-0.1,0-0.3-0.1-0.4c-0.1-0.1-0.2-0.2-0.3-0.2c0.3-1.2,0.5-2.3,0.6-3.5c0-0.1,0-0.2,0-0.3c0.2,0.2,0.3,0.3,0.5,0.4
								c0.6,0.4,1.2,0.8,1.8,1.3c0.5,0.5,1,1.1,1.7,1.3c0,0.1-0.1,0.1-0.1,0.2c-0.1,0.8,0.5,1.5,1,2c0.1,0.1,0.1,0.1,0.2,0.1
								c-0.2,0.1-0.3,0.3-0.4,0.5c-0.1,0.9-0.2,1.8,0.1,2.7c0.3,0.8,1,1.5,1.6,2.1c0.3,0.3,0.5,0.5,0.8,0.7c0,0.8,0.1,1.8,0.6,2.4
								c-0.1,0.1-0.2,0.2-0.2,0.4c0,1.4,0,2.7,0.2,4c0.2,1.2,0.5,2.5,1.4,3.3c0.7,0.7,2,1,2.9,0.2c0.9-0.8,0.6-2.5,0.6-3.5
								c0-1.6,0-3.2,0-4.9c0.3,1.7,0.6,3.4,1,5.1c0.4,1.6,1,3.2,2,4.6c0.6,0.8,2.4,2.6,3.4,1.2c0.4-0.6,0.5-1.6,0.6-2.3
								c0.1-0.9,0-1.7-0.1-2.6c-0.2-2-0.8-4.1-0.9-6.1c0-0.2-0.1-0.3-0.2-0.4c-0.2-0.9,0-1.8-0.3-2.7c-0.4-0.8-1.1-1.4-1.6-2
								c-0.6-0.7-1.1-1.5-1.6-2.3c-0.4-0.7-0.8-1.4-1.3-2c0.1-0.2,0-0.4-0.1-0.5c0-0.1,0-0.1,0-0.2c-0.8-1.8-1.9-3.5-3.2-5
								c0.6,0,1.3,0,1.9,0c0.2,0.6,0.5,1.1,1.1,1.5c0.3,0.2,0.7,0.3,1.1,0.3c0,0.4,0.1,0.7,0.2,1.1c0.5,1.2,1.6,1.7,2.7,2.1
								c0.5,0.3,1.1,0.5,1.7,0.7c0,0.1,0,0.1,0.1,0.2c0.6,1.3,1.7,2.3,2.9,2.9c0,0,0,0,0.1,0c0,0.5,0,0.9,0.2,1.4
								c0.6,1.6,2.1,2.5,3.5,3.3c0.4,0.2,0.8,0.5,1.2,0.7c0.4,0.2,0.8,0.5,1.2,0.7c0.7,0.3,1.3-0.1,1.6-0.8
								C370.1,123.4,369,121.6,368,120.3 M344.3,100.6c0.3-0.1,0.5-0.4,0.5-0.7c0.6,0.2,1.1,0.6,1.6,1.1c0.3,0.3,0.5,0.7,0.6,1.1
								c0.1,0.3,0.3,1-0.2,1.1c-0.2,0.1-0.3,0.2-0.3,0.4c-0.5-0.1-1.1-0.3-1.6-0.4c-0.5-0.1-1.1-0.2-1.5,0.1c0,0,0,0.1-0.1,0.1
								c-0.3-0.9-0.4-1.8-0.6-2.7C343.3,100.9,343.9,100.9,344.3,100.6 M338.6,100.1c0.1,0.1,0.2,0.2,0.4,0.2c1-0.1,1.3,2.5,0.4,2.8
								c-0.5,0.2-1.4-0.2-1.9-0.3l-2.1-0.5c-2.6-0.6-5.2-1.3-7.8-1.4c-0.1-0.1-0.1-0.2-0.2-0.3c0.2,0,0.3-0.1,0.4-0.3
								c0.1-0.5,0.2-1,0.3-1.5c1.8,0.6,3.6,1.1,5.4,1.7c0.9,0.3,1.9,0.6,2.8,0.8c0.7,0.2,1.4,0.2,2-0.4
								C338.3,100.7,338.5,100.4,338.6,100.1 M337.6,106.4C337.6,106.4,337.5,106.4,337.6,106.4c-0.2,0.1-0.2,0.1-0.3,0.2
								c0,0,0,0,0,0c0,0-0.1,0-0.1,0c-0.1,0-0.2,0-0.2,0.1c0,0,0,0,0,0c0,0-0.1,0-0.1,0c-0.1,0-0.2,0-0.2,0c0,0,0,0,0,0c0,0,0,0,0,0
								h0c-0.1,0,0,0,0,0c0,0,0,0,0,0c0,0-0.1,0-0.1,0c0,0-0.1,0-0.1,0c0.1-0.4,0.1-0.8,0.2-1.2c0-0.4,0.1-0.8-0.1-1.2
								c-0.2-0.4-0.7-0.5-1.1-0.5c-0.4-0.1-0.9-0.1-1.3-0.2c-1-0.2-2-0.4-2.9-0.6c-0.2-0.1-0.5,0-0.6,0.2c-0.2,0.4-0.3,0.9-0.3,1.4
								c0,0,0,0-0.1,0c-0.8-0.3-1.5-0.7-2.2-1.2c-0.2-0.1-0.3-0.2-0.5-0.3c0,0,0.1,0,0.1-0.1c0.3-0.3,0.4-0.7,0.4-1.1
								c3.3,0.2,6.5,1.2,9.7,1.9c-0.2,0.8,0,1.6,0.4,2.2c-0.1,0-0.1,0.1-0.2,0.1C337.8,106.2,337.7,106.3,337.6,106.4
								C337.6,106.4,337.6,106.4,337.6,106.4 M335.4,105.1c0,0.1,0,0.3,0,0.4c0,0.3-0.1,0.6-0.1,1c0,0.2-0.1,0.3-0.1,0.5
								c0,0,0,0.1,0,0.2c-0.1,0-0.2-0.1-0.3-0.1c-0.2-0.1-0.4-0.2-0.6-0.3c-0.4-0.2-0.9-0.4-1.3-0.4c0-0.4-0.2-0.7-0.6-1
								c-0.3-0.2-0.7-0.4-1.1-0.5c0-0.1,0.1-0.1,0.1-0.2c0-0.2,0-0.4,0.1-0.6c1.2,0.3,2.4,0.5,3.5,0.7c0.2,0,0.4,0,0.5,0.1
								c0.1,0,0.2,0.1,0.2,0C335.4,104.8,335.4,105,335.4,105.1 M338.7,105.2C338.6,105.2,338.6,105.2,338.7,105.2
								C338.6,105.2,338.6,105.2,338.7,105.2c-0.1-0.2-0.1-0.3-0.1-0.4c0,0,0-0.2,0-0.1c0-0.1,0-0.1,0-0.2c0-0.1,0-0.1,0-0.2
								c0,0,0-0.1,0-0.1c0-0.1,0-0.1,0-0.2c0.4,0.1,0.8,0.1,1.1,0c0,0,0,0,0,0c0.1,0.2,0.1,0.4,0.2,0.7c0.1,0.3,0.1,0.4,0.1,0.6
								c0,0.2,0,0.4,0,0.6c0,0,0,0,0,0c0,0,0,0,0,0l0,0.1h0c0,0,0,0-0.1,0c-0.1,0-0.2,0-0.3-0.1c0,0-0.1,0-0.1,0c0,0-0.1,0-0.1-0.1
								c-0.1,0-0.2-0.1-0.3-0.2l0,0l0,0c0,0-0.1-0.1-0.1-0.1c-0.1-0.1-0.1-0.1-0.2-0.2c0,0,0,0,0-0.1c0,0,0-0.1-0.1-0.1
								C338.7,105.3,338.7,105.3,338.7,105.2 M332.4,96.5c1,0.2,2.1,0.4,3.1,0.6c0.7,0.1,2.2,0.2,2.4,1c0.1,0.6-0.2,2.2-0.9,2.2
								c-0.5,0-1-0.3-1.5-0.4c-0.5-0.2-1-0.3-1.5-0.5c-2-0.6-3.9-1.2-5.9-1.8h0c0-0.8-0.2-1.5-0.8-2.2L332.4,96.5z M326.3,95.8
								c1.2,1,0.9,2.6,0.6,4c-0.3-0.3-0.5-0.6-0.8-0.9c-0.3-0.3-0.7-0.5-0.8-0.9c-0.1-0.2-0.2-0.3-0.4-0.3c0,0,0-0.1,0-0.1
								c0-0.5-0.3-0.9-0.6-1.2c-0.1-0.1-0.1-0.1-0.2-0.1c0-0.1,0-0.1,0-0.2c-0.1-0.4-0.4-0.7-0.6-0.9c-0.2-0.2-0.3-0.3-0.5-0.5
								C324.1,94.8,325.4,95.1,326.3,95.8 M320.6,96.1c0.1,0,0.1,0,0.2,0.1c0.7,0.3,1.5,0.9,2.2,0.9c0.2,0,0.4,0,0.5-0.1
								c0,0,0,0.1,0,0.1c0.1,0.1,0.2,0.3,0.3,0.4c0,0,0,0.1,0,0.1c0,0,0,0,0,0v0c0,0,0,0,0,0.1c-0.1,0-0.1,0.1-0.2,0.1
								c-0.2,0.1-0.3,0.2-0.5,0.3c-0.6,0.5-0.7,1.2-0.7,2c-0.9-0.4-1.7-0.8-2.7-1.1c0.2-0.6,0.4-1.2,0.6-1.8
								c0.1-0.3,0.2-0.6,0.2-0.9C320.6,96.1,320.6,96.1,320.6,96.1 M323.6,99.2C323.6,99.2,323.6,99.1,323.6,99.2
								c0-0.1,0.1-0.1,0.1-0.2c0-0.1,0-0.1,0.1-0.2c0,0,0.1-0.1,0,0c0,0,0.1,0,0.1-0.1c0.1,0,0.2-0.1,0.3-0.1c0.1,0,0.1-0.1,0.1-0.1
								c0.1,0.3,0.4,0.6,0.6,0.8c0.3,0.3,0.7,0.6,1,0.9c0.3,0.3,0.5,0.7,0.7,1.1c0.2,0.3,0.3,0.7,0.1,0.9c-0.1,0.1-0.1,0.2-0.1,0.3
								c-1.1-0.7-2.1-1.4-3.2-2c0-0.1,0.1-0.1,0-0.2C323.4,100,323.4,99.5,323.6,99.2 M315.8,92.5c1-0.1,2.1,0,3.1,0.3
								c0.9,0.3,1.7,0.9,2.4,1.5c0.3,0.3,0.7,0.6,1,0.9c0.2,0.2,0.4,0.4,0.5,0.6c0.1,0.1,0.2,0.2,0.2,0.3c-0.4,0-0.8-0.3-1.1-0.5
								c-0.4-0.2-0.8-0.4-1.1-0.5c-0.9-0.3-1.9-0.3-2.8-0.6c-1.4-0.4-2.7-1.1-4.2-1.1C314.3,92.8,315,92.5,315.8,92.5 M319.5,96.4
								c0,0.1-0.1,0.2-0.1,0.3c-0.2,0.7-0.4,1.3-0.6,2c-0.7-0.1-1.5-0.2-2.3-0.2c0.1-0.6,0.2-1.2,0.6-1.7c0.2-0.2,0.3-0.3,0.6-0.4
								c0.3-0.1,0.6-0.1,0.9-0.1C318.9,96.4,319.2,96.4,319.5,96.4 M313.2,98.5c0.4-1,0.3-2.2,0.2-3.2c0-0.3,0-0.7-0.1-1
								c1.5-0.1,2.9,0.7,4.4,1.1c-0.6,0.1-1,0.4-1.4,0.9c-0.4,0.6-0.6,1.3-0.7,2c0,0.1,0,0.2,0,0.2
								C314.8,98.5,313.9,98.5,313.2,98.5C313.1,98.5,313.1,98.5,313.2,98.5 M310.2,92.2c0.8,0.4,1.9,1,2.1,1.9
								c0.2,1,0.2,2.1,0.1,3.1c-0.1,1.1-0.7,1.5-1.5,2.1c-0.8,0.5-1.6,0.8-2.3,1.4c-0.5,0.4-0.9,0.8-1.2,1.4c-0.2-1-0.4-2.1-0.5-3.2
								c-0.1-1.2-0.1-2.4-0.1-3.6c0.1-1.1,0.2-2.1-0.3-3.1c-0.2-0.4-0.4-0.7-0.7-1C307.3,91,308.8,91.5,310.2,92.2 M302.5,102.8
								c0.7,1.6,1.4,3.4,2.5,4.8c-0.3-0.3-0.6-0.7-0.9-0.9c-0.2-0.2-0.5-0.3-0.7-0.4c0-0.1,0-0.1-0.1-0.2c-0.7-1-1.7-1.6-2.9-1.7
								c-0.1,0-0.2,0-0.3,0c0-0.4-0.1-0.8-0.2-1.1c-0.1-0.6-0.3-1.2-0.5-1.8c-0.3-1.2-0.5-2.5-0.3-3.8c0.1-0.6,0.4-0.7,1-0.7
								c0.3,0,0.6,0,0.9,0c0,0.2,0,0.3,0,0.5C301.2,99.3,301.7,101.1,302.5,102.8 M300.3,105.8C300.2,105.8,300.2,105.8,300.3,105.8
								c-0.1-0.1-0.1-0.1-0.1-0.1c0,0,0,0,0,0c0,0,0,0,0,0c0-0.1,0-0.2-0.1-0.2v0c0,0,0,0,0,0c0,0,0-0.1,0-0.1c0.1,0,0.2,0,0.3,0
								c0,0,0,0,0,0c0,0,0,0,0,0c0,0,0.1,0,0.1,0c0.2,0,0.4,0.1,0.6,0.2c0,0,0.1,0,0.1,0c0,0,0.1,0,0.1,0.1c0.1,0,0.2,0.1,0.3,0.1
								c0.1,0.1,0.2,0.1,0.2,0.2c0,0,0.1,0,0.1,0.1c0,0,0,0,0.1,0.1c-0.4,0-0.8,0-1.2,0c-0.1,0-0.2,0-0.2,0
								C300.4,106,300.4,105.9,300.3,105.8C300.3,105.8,300.2,105.8,300.3,105.8 M297.4,93.9c0.1,0,0.2-0.1,0.3-0.2
								c0.7-1.2,2-2,3.4-2.1c0,0,0,0,0,0.1c0,1-0.1,2-0.1,2.9c-0.3-0.1-0.6-0.2-0.9-0.2c-0.9,0-1.8,0-2.6,0
								C297.4,94.2,297.4,94.1,297.4,93.9 M297,95.4c0.8,0,1.6,0,2.4,0c0.3,0,0.7,0,1,0.1c0.1,0,0.2,0.1,0.2,0.2
								c0.1,0.1,0.1,0.2,0.1,0.3c0,0,0,0,0,0c-0.7,0.1-1.6-0.2-2.2,0.3c-0.4,0.3-0.5,0.8-0.5,1.3c-0.1,0.6-0.1,1.3,0,1.9
								c0.1,1.2,0.4,2.3,0.7,3.5c0.1,0.4,0.4,1.2,0.2,1.7c-0.2,0.3-0.8,0.3-1.1,0.3c-0.1-0.3-0.2-0.6-0.2-0.8
								c-0.2-0.8-0.5-1.7-0.8-2.5c-0.6-1.8-1.1-3.6-0.6-5.5C296.6,96,296.8,95.7,297,95.4 M294.5,104.5c0.4,0.6,0.9,1.1,1.5,1.5
								c0.2,0.1,0.5,0.2,0.7,0.3c-0.3,0.9-0.3,1.9,0.1,2.8c-0.4,0-0.7,0-1.1,0.1c0,0-0.1,0-0.1,0.1c-2.1-1.2-3.1-3.6-3.3-5.9
								c-0.2-2.2-0.3-5.3,1.8-6.7c0.1,0,0.1-0.1,0.2-0.2c0,0,0,0,0,0c0.3,0,0.7,0.1,1,0c0,0.3-0.1,0.6-0.1,0.8
								c-0.5,0.2-1,0.5-1.3,0.9c-0.4,0.6-0.5,1.4-0.5,2.1C293.2,101.8,293.6,103.3,294.5,104.5 M296.3,105c-0.3-0.2-0.6-0.5-0.8-0.8
								c-0.5-0.6-0.8-1.3-1.1-2.1c-0.2-0.7-0.3-1.5-0.2-2.3c0-0.4,0.1-0.8,0.4-1.1c0.1-0.1,0.3-0.3,0.5-0.3c0.1,0.8,0.2,1.5,0.4,2.3
								c0.2,0.8,0.5,1.7,0.8,2.5c0.1,0.4,0.3,0.8,0.4,1.3c0.1,0.2,0.2,0.6,0.2,0.9c-0.1,0-0.1,0-0.2,0
								C296.6,105.2,296.5,105.1,296.3,105 M295.5,92.1c0.7,0.8,1.3,1.8,0.7,2.7c-0.3,0.6-1,0.6-1.6,0.6c-0.6-0.1-1.2-0.2-1.7-0.4
								c0.4-0.2,0.8-0.5,1.1-0.7C294.5,93.9,295.3,93,295.5,92.1 M292.6,91.4c0.1-0.1,0.1-0.2,0.1-0.3c0.5,0,1,0.1,1.4,0.2
								c0.5,0.2,0.5,0.6,0.2,1.1c-0.4,0.7-1.1,1.2-1.8,1.6c-0.7,0.4-1.4,0.8-2.2,0.7C290.9,93.6,291.7,92.5,292.6,91.4 M293.3,111.5
								c-0.6-0.4-1.1-0.9-1.4-1.7c-0.4-1.1-0.6-2.2-0.8-3.3c-0.2-1.2-0.5-2.4-0.6-3.7c-0.2-1.3-0.3-2.5-0.4-3.8
								c-0.1-1-0.2-2.2,0.1-3.2c0.5,0,1,0,1.5-0.2c0.1,0.1,0.2,0.2,0.3,0.2c0.3,0.1,0.7,0.2,1,0.3c-1.9,1.7-2,4.7-1.7,7.2
								c0.3,2.5,1.2,5,3.4,6.5c-0.5,0.4-0.9,1-1.2,1.6C293.4,111.4,293.4,111.5,293.3,111.5 M297.7,111.6c-0.7,1.1-2.4,0.6-3.4,0.3
								c0,0-0.1,0-0.1,0c0,0,0,0,0,0c0.4-0.8,1.1-1.8,2.1-1.9C297.2,109.9,298.3,110.8,297.7,111.6 M299.2,109.8
								C299.2,109.8,299.2,109.8,299.2,109.8c0,0-0.2,0-0.2,0c-0.1,0-0.2-0.1-0.3-0.1c-0.8-0.4-1.2-1.2-1.2-2c0.5,0.4,1,0.9,1.4,1.4
								c0.1,0.1,0.2,0.3,0.3,0.5C299.2,109.7,299.2,109.8,299.2,109.8C299.3,109.8,299.2,109.8,299.2,109.8 M300,109.1
								c-0.1-0.1-0.1-0.3-0.2-0.4c-0.6-0.8-1.2-1.4-1.9-2c-0.1-0.1-0.1-0.1-0.2-0.1c0-0.2,0.1-0.3,0.2-0.4c0.1-0.1,0.1-0.1,0.1-0.2
								c0.4,0,0.8,0,1.2-0.2c0.1,0.4,0.3,0.7,0.6,0.9c0,0.1,0,0.3,0.1,0.4c0.2,0.5,0.7,0.7,1.1,0.9c0.2,0.1,0.4,0.1,0.5,0.3
								c0.1,0.1,0.1,0.2,0,0.3c-0.2,0.1-0.4,0.2-0.6,0.3C300.6,108.8,300.3,108.9,300,109.1C300,109.1,300,109.1,300,109.1
								 M302.4,110.3c-0.6,0.2-1.3,0-1.7-0.4c0.3-0.2,0.7-0.2,1-0.4c0,0,0,0.1,0.1,0.1c0.2,0.2,0.4,0.3,0.7,0.4
								c0.1,0,0.2,0.1,0.3,0.1C302.7,110.2,302.5,110.2,302.4,110.3 M302.4,108.7c0.1-0.2,0.1-0.4,0.1-0.6c-0.1-0.5-0.5-0.8-0.9-1
								c-0.1,0-0.2-0.1-0.3-0.1h0.1c0.4,0,0.7,0,1.1,0c0.3,0,0.6,0.1,0.8,0.2c0.2,0.2,0.4,0.4,0.6,0.6c0.2,0.2,0.5,0.5,0.7,0.7
								c0,0,0,0,0,0.1c0,0,0,0,0,0c-0.1,0-0.2,0.1-0.3,0.1C303.7,108.7,303.1,108.7,302.4,108.7 M306.9,109.8
								c-0.7,0.4-1.6,0.4-2.4,0.1c-0.2-0.1-0.4-0.1-0.5,0c0-0.1,0-0.1,0-0.2c0.5,0,1.1,0,1.5-0.5c0.2-0.2,0.2-0.5,0.2-0.8
								c0-0.1-0.1-0.3-0.2-0.4c0.6,0.6,1.4,1.1,2.3,1.2C307.5,109.5,307.2,109.7,306.9,109.8 M305.1,106c-0.8-1.4-1.5-2.9-2.1-4.4
								c-0.6-1.6-1-3.2-1.1-4.9c-0.1-1.7,0.1-3.5,0.1-5.3c1.7-0.8,3.7,0.4,3.8,2.4c0,1.1-0.1,2.2-0.1,3.2c0,1.1,0.1,2.2,0.3,3.3
								c0.3,2.1,0.8,4.3,1.6,6.3c0.2,0.6,0.5,1.2,0.9,1.6C307,108.6,305.8,107.2,305.1,106 M310.1,108.9c0.5,0.1,1,0.2,1.5,0.3
								c1.1,0.2,2,0.6,2.7,1.6c0.5,0.7,0.8,1.5,1,2.3C313.4,111.9,311.7,110.5,310.1,108.9 M320.3,115.1c0,0.2,0,0.4,0,0.5
								c-1.3-0.5-2.6-1.1-3.8-1.8c-0.5-1.9-1.2-4.1-3.1-5.1c-0.9-0.5-1.8-0.5-2.8-0.7c-0.4-0.1-0.8-0.2-1.2-0.4
								c-0.5-0.4-0.8-1.1-1-1.7c-0.2-0.5-0.3-1-0.5-1.5c0,0,0-0.1,0-0.1c-0.8-2.2,1.9-3.4,3.4-4.3c0.3-0.2,0.6-0.3,0.8-0.5
								c0,0,0.1,0,0.1,0c2.2-0.2,4.4-0.3,6.6,0.1c1.8,0.4,3.4,1.3,5,2.3c1.5,1,3,2,4.6,2.8c0.8,0.4,1.6,0.8,2.4,1
								c0.4,0.1,1,0.2,0.8,0.7c-0.1,0.3-0.4,0.5-0.7,0.6c-1.6-2.3-5.4-0.7-7.1,0.7C321.8,109.7,320.4,112.3,320.3,115.1 M321.4,116
								c-0.4-0.3-0.1-1.5-0.1-1.9c0.2-1.3,0.7-2.4,1.4-3.5c0.8-1.2,1.9-2.1,3.2-2.8c1.3-0.6,3.5-1.3,4.3,0.3
								c-0.2-0.1-0.3-0.2-0.5-0.2c-1.1-0.3-2.5,0.3-3.6,0.7c-1.1,0.4-2.2,1-3,1.9c-0.9,1-1.3,2.3-1.3,3.6
								C321.9,114.3,322.1,116.5,321.4,116 M331.5,122.7c-3.1-1.9-6-4.1-8.7-6.4c0.1-0.3,0.2-0.6,0.2-0.9c0-0.9-0.1-1.8,0.2-2.7
								c0.4-1.5,1.7-2.4,3-3c0.6-0.3,1.3-0.5,1.9-0.7c0.7-0.2,1.7-0.5,2.1,0.3c0.2,0.4,0.3,1,0.4,1.4c0.1,0.4,0.2,0.8,0.3,1.2
								c0.3,0.8,0.6,1.6,1.1,2.2c0.9,1.1,2.1,2,3,3.1c-1,0.2-1.8,0.6-2.4,1.5c-0.3,0.6-0.4,1.3-0.6,1.9
								C331.9,121.3,331.7,122,331.5,122.7 M338.8,111.2C338.8,111.2,338.8,111.2,338.8,111.2c0,0.2,0,0.3,0,0.4c0,0.5,0,1.1,0,1.6
								c-0.1,0.9-0.2,1.9-0.4,2.8c-0.9-0.1-1.7-0.2-2.6-0.4c-0.3-0.1-0.5,0.1-0.6,0.3c-0.4-0.5-0.9-0.9-1.4-1.4
								c-1.1-1-1.7-2.2-2.1-3.6c2.1,0.3,4.2,0.4,6.3,0.3C338.2,111.2,338.6,111.1,338.8,111.2C338.7,111.1,338.7,111.1,338.8,111.2
								 M338.6,117c-0.1,0.5-0.2,1-0.3,1.5c-0.5-0.6-1-1.2-1.6-1.7c0,0,0,0-0.1,0C337.3,116.9,337.9,116.9,338.6,117 M335.3,129.4
								c-0.2,0.8-0.4,1.5-1,2.1c-0.3,0.3-0.5,0.5-0.8,0.7c-0.3,0.2-0.6,0.5-1,0.6c-0.8,0.2-1.1-0.9-1.1-1.5c0-1.7,0.4-3.4,1-5
								c0-0.1,0-0.1,0-0.2c0.6,0.5,1.5,0.9,2.1,1.3c0.3,0.2,0.7,0.5,0.9,0.8C335.5,128.6,335.3,129.1,335.3,129.4 M341.2,129
								c-0.2,0.3-0.5,0.6-0.6,0.9c-0.1,0.1-0.1,0.2,0,0.4c-1.1-0.5-2.3-1.6-2.9-2.2c-0.3-0.3-0.7-0.6-1-0.9c0.2-0.1,0.3-0.3,0.3-0.4
								c0-0.4,0.2-0.7,0.4-0.9c0.1-0.1,0.3-0.2,0.4-0.3c0.1-0.1,0.3-0.3,0.5-0.3c0.2,0,0.5,0.3,0.7,0.5c0.3,0.3,0.6,0.5,1,0.8
								c0.6,0.4,1.2,0.9,1.4,1.6C341.4,128.5,341.4,128.8,341.2,129 M340.8,123c0.7,0.9,1.4,1.9,2,2.9c0.6,1,0.4,2.2,0.1,3.3
								c-0.3,1-0.9,1.4-1.5,1.3c0,0,0.1-0.1,0.1-0.1c0.1-0.3,0.4-0.6,0.6-0.8c0.2-0.3,0.3-0.7,0.3-1.1c0-0.8-0.5-1.5-1-2
								c-0.6-0.5-1.3-0.9-1.9-1.5c-0.3-0.3-0.6-0.5-0.9-0.6c-0.4-0.1-0.8,0.1-1.2,0.3c-0.7,0.4-1.5,1.1-1.5,2
								c-1.2-1.1-2.4-2.2-3.5-3.4c0.3-1.1,0.5-2.3,0.9-3.4c0.2-0.6,0.4-1.1,1-1.4c0.5-0.3,1.1-0.3,1.6-0.4c0.2,0,0.4-0.1,0.4-0.3
								C337.9,119.5,339.4,121.2,340.8,123 M339,110.2c-0.2,0-0.4,0-0.7,0c-0.3,0-0.6,0-0.9,0c-0.6,0-1.3,0-1.9,0
								c-1.2,0-2.5-0.1-3.7-0.3c-0.1,0-0.2,0-0.3,0c-0.1-0.6-0.3-1.2-0.7-1.6c0.1,0,0.3,0,0.4,0c0.5-0.2,1-0.6,1.4-1.1
								c0.1,0,0.2,0.1,0.3,0.1c0.7,0,1.3,0.5,2,0.7c0.4,0.1,0.8,0.2,1.1-0.1c0.1-0.1,0.1-0.2,0.2-0.3c0,0,0,0,0.1,0
								c0.9,0.2,1.9-0.1,2.4-0.7c0-0.1,0.1-0.1,0.1-0.2c0.4,0.3,1,0.5,1.4,0.5c0.3,0,0.6-0.2,0.8-0.5c0.1-0.3,0.1-0.5,0.1-0.8
								c0-0.7-0.1-1.4-0.4-2c0-0.1-0.1-0.2-0.2-0.3c0.3-0.4,0.4-0.8,0.4-1.3c0.1-1-0.2-2.5-1.1-2.9c0.3,0.1,0.7,0.2,1,0.3
								c0.2,0.1,0.5,0.2,0.7,0.5c0.2,0.2,0.3,0.5,0.3,0.8c0.3,1.2,0.3,2.5,1,3.6c0.1,0.1,0.2,0.2,0.3,0.2c-0.1,1-0.1,2.1,0.1,3.1
								c-0.1,0-0.1,0-0.2,0c-0.6,0.2-1.1,0.7-1.7,1.1c-0.5,0.4-1.1,0.9-1.8,0.8C339.2,109.8,339,110,339,110.2 M344,114.8
								c-0.5-0.3-0.9-0.8-1.4-1.2c-0.5-0.4-1-0.7-1.5-1.1c-0.4-0.2-0.9-0.5-1.1-1c-0.1-0.2-0.2-0.3-0.3-0.3c0-0.1,0-0.3-0.1-0.4
								c0.7,0,1.3-0.3,1.8-0.7c0.3-0.2,0.6-0.5,0.9-0.8c-0.1,0.5-0.2,1-0.2,1.6c0,0.8,0.2,1.4,0.7,2c0.6,0.8,1.6,1.3,2.2,2
								C344.7,115,344.3,115,344,114.8 M344.7,116C344.7,116,344.7,116,344.7,116c0.3-0.1,0.7-0.1,1-0.2c0,0.2,0.1,0.3,0.2,0.4
								c0.1,0,0.1,0,0.2,0.1c0.2,0.1,0.4,0.2,0.6,0.3c0.1,0,0.2,0.1,0.3,0.1c0,0,0.1,0,0.1,0.1c-0.3,0.3-0.5,0.5-0.9,0.7
								C345.5,117.7,344.6,116.7,344.7,116 M346.9,122.6c-0.5-0.5-1.1-1.1-1.3-1.7c-0.2-0.7-0.1-1.5,0-2.2c0-0.1,0-0.1,0-0.2
								c0.4,0.1,0.8,0.1,1.3-0.2c0.3-0.1,0.7-0.4,1-0.7c0,0.2-0.1,0.4-0.1,0.6c0,0.3,0.1,0.7,0.3,0.9c0.4,0.5,1.1,0.5,1.6,0.3
								c-0.3,1.6,0,3.2,0.8,4.5c-0.6,0.1-1.3,0.2-1.9-0.1C347.9,123.5,347.3,123.1,346.9,122.6 M348.7,116.9c1.1,0.1,2.1,0,3.2,0.1
								c-0.6,0.5-1.4,0.8-2,1.2c-0.3,0.1-1,0.6-1.3,0.2c-0.1-0.2,0-0.5,0.1-0.7C348.7,117.4,348.7,117.2,348.7,116.9 M351.5,132.8
								c0,0.6-0.2,1.1-0.9,1.2c-1.3,0-1.7-1.7-1.9-2.7c-0.3-1.3-0.3-2.7-0.2-4c0,0,0,0,0,0c0.7,0.3,1.3,0.1,1.9-0.2
								c0.4-0.2,0.7-0.4,1.1-0.6l0,4.2C351.5,131.4,351.5,132.1,351.5,132.8 M350.3,126c-0.4,0.2-0.9,0.5-1.3,0.4
								c-0.7-0.2-0.8-1-0.9-1.7c0,0,0.1,0,0.1,0.1c0.9,0.4,1.9,0.2,2.8,0c0,0,0.1,0.1,0.1,0.1c0.1,0.2,0.3,0.3,0.4,0.4
								C351.1,125.5,350.7,125.8,350.3,126 M357.5,126.3c0.1,1.9,0.6,3.7,0.8,5.6c0.1,0.9,0.2,1.8,0.1,2.8c0,0.5-0.1,1-0.3,1.4
								c-0.1,0.3-0.1,0.4-0.4,0.4c-0.2,0-0.4-0.2-0.5-0.3c-1.5-1.1-2.2-2.9-2.7-4.7c-0.4-1.7-0.7-3.4-1-5.1c1.1,0.3,2.4,0.2,3.6,0.1
								C357.2,126.4,357.4,126.3,357.5,126.3C357.4,126.2,357.5,126.2,357.5,126.3 M353.9,119.3c0.4,0.8,0.9,1.5,1.5,2.2
								c0.5,0.6,1.2,1.1,1.6,1.9c0.3,0.6,0.2,1.4,0.3,2.1c0,0-0.1,0-0.1,0c-1.3,0.1-2.7,0.2-3.9-0.2c-0.1-0.1-0.2-0.1-0.3-0.1
								c-0.4-0.2-0.8-0.4-1.1-0.8c-1.3-1.4-1.7-3.4-1.3-5.2c0-0.1,0-0.2,0-0.2c0.4-0.2,0.9-0.5,1.3-0.7c0.3-0.2,0.6-0.4,0.9-0.7
								C353.2,118.1,353.5,118.7,353.9,119.3 M352.2,116c-1.6,0-3.4,0.2-4.9-0.3c-0.3-0.1-0.6-0.3-0.8-0.3c0-0.1,0-0.2,0-0.4
								c-0.6-1.1-1.8-1.6-2.6-2.5c-0.4-0.5-0.6-1-0.6-1.6c0-0.6,0.2-1.2,0.3-1.9c0.3,0.7,0.9,1.3,1.7,1.6c1.1,0.4,2.3,0.4,3.5,0.4
								c0.1,0,0.1,0,0.2,0c0,0.1,0.1,0.1,0.1,0.2C350.3,112.5,351.4,114.2,352.2,116 M354.2,111.7
								C354.2,111.7,354.2,111.7,354.2,111.7C354.2,111.7,354.2,111.7,354.2,111.7c-0.1,0-0.1,0-0.1,0c0,0-0.1,0,0,0c0.1,0,0,0,0,0
								c0,0-0.1,0-0.1,0c0,0-0.1,0,0,0c0.1,0,0,0,0,0c-0.1,0-0.1,0-0.2,0c-0.1,0,0,0,0,0c0,0-0.1,0-0.1,0c0,0-0.1-0.1-0.1-0.1
								c0,0-0.1,0-0.1-0.1c0,0-0.1-0.1-0.1-0.1c0,0,0,0,0,0l0,0c0,0,0-0.1-0.1-0.1c0-0.1-0.1-0.1-0.1-0.2c0,0,0-0.1-0.1-0.1
								c0.4,0,0.9,0,1.3-0.1C354.3,111.1,354.3,111.4,354.2,111.7 M354.7,109.8c-0.3,0.2-1.1,0.1-1.5,0.2c-0.5,0-1,0-1.5,0.1
								c-1,0-2,0-3,0c-0.9,0-1.8,0-2.7-0.2c-1.1-0.2-1.6-0.8-1.8-1.9c-0.2-1-0.2-2.1-0.2-3.2c0.1-0.1,0.2-0.3,0.2-0.5c0,0,0,0,0,0
								c0.1,0,0.2,0,0.3,0c0.2,0,0.4,0.1,0.6,0.1c0.5,0.1,1,0.2,1.5,0.3c0.9,0.2,1.8,0.5,2.6,0.8c0.9,0.3,1.8,0.7,2.6,1.1
								c0.8,0.4,1.6,0.8,2.2,1.3C354.4,108.3,355.4,109.4,354.7,109.8 M357.5,115c-0.8-0.4-1.8-0.7-2.1-1.6
								c-0.3-0.8-0.1-1.8,0.1-2.6c0-0.1,0-0.2,0-0.3c0.1-0.1,0.2-0.2,0.3-0.4c0.1-0.3,0.2-0.6,0.2-0.9c1.5,1.1,3.2,1.8,4.8,2.7
								c0.8,0.5,1.6,1.1,2.2,1.8c0.5,0.6,1,1.7,0.4,2.3c-0.2,0.1-0.4,0.1-0.5,0.1c-0.3,0-0.5,0.1-0.8,0.1c-0.5,0-1-0.1-1.5-0.2
								C359.4,115.8,358.4,115.4,357.5,115 M362.1,118.7C362.1,118.7,362.1,118.7,362.1,118.7c-0.2-0.1-0.4-0.2-0.6-0.3
								c0,0-0.1,0-0.1-0.1c0,0-0.1-0.1,0,0c-0.1-0.1-0.1-0.1-0.2-0.2c-0.1-0.1-0.2-0.2-0.3-0.3c-0.1-0.1-0.2-0.2-0.3-0.3
								c-0.1-0.1-0.1-0.1-0.1-0.2c0,0,0,0,0,0c0,0,0-0.1-0.1-0.1c0,0-0.1-0.1-0.1-0.1c0.2,0.1,0.5,0.1,0.7,0.1
								c0.6,0.1,1.2,0.1,1.8,0c0,0,0.1,0,0.1,0C362.6,117.7,362.3,118.2,362.1,118.7 M368.5,124.8c-0.2,0.2-0.3,0.1-0.5,0
								c-0.9-0.5-1.7-1-2.6-1.5c-0.7-0.4-1.4-0.9-1.9-1.5c-0.6-0.8-0.9-1.6-0.5-2.6c0.3-0.8,0.8-1.4,0.9-2.3c0,0,0,0,0,0
								c0.1-0.1,0.1-0.1,0.2-0.2c0,0,0.1,0,0.1-0.1c0.7,1.4,1.6,2.7,2.6,3.9c0.6,0.7,1.2,1.4,1.6,2.3c0.2,0.5,0.3,1,0.3,1.5
								C368.6,124.3,368.6,124.6,368.5,124.8"/>
						</g>
					</g>
				</g>
				<g class="st2">
					<g>
						<defs>
							<rect id="SVGID_11_" x="338.6" y="104.3" width="1" height="1"/>
						</defs>
						<clipPath id="SVGID_12_">
							<use xlink:href="#SVGID_11_"  style="overflow:visible;"/>
						</clipPath>
						<g class="st5">
							<defs>
								<rect id="SVGID_13_" x="338.6" y="104.3" width="1" height="1"/>
							</defs>
							<clipPath id="SVGID_14_">
								<use xlink:href="#SVGID_13_"  style="overflow:visible;"/>
							</clipPath>
							<path class="st6" d="M339.1,104.3c-0.6,0-0.6,1,0,1C339.8,105.3,339.8,104.3,339.1,104.3"/>
						</g>
					</g>
				</g>
				<g class="st2">
					<g>
						<defs>
							<rect id="SVGID_15_" x="332.6" y="108" width="5.6" height="1.8"/>
						</defs>
						<clipPath id="SVGID_16_">
							<use xlink:href="#SVGID_15_"  style="overflow:visible;"/>
						</clipPath>
						<g class="st7">
							<defs>
								<rect id="SVGID_17_" x="332.6" y="108" width="5.6" height="1.8"/>
							</defs>
							<clipPath id="SVGID_18_">
								<use xlink:href="#SVGID_17_"  style="overflow:visible;"/>
							</clipPath>
							<path class="st8" d="M338.1,108.2c-0.1-0.2-0.5-0.3-0.7-0.2c-1.2,0.8-2.8,1-4.2,0.4c-0.3-0.1-0.5,0.1-0.6,0.4
								c-0.1,0.3,0.1,0.5,0.3,0.6c1.6,0.6,3.5,0.4,5-0.5C338.2,108.8,338.3,108.5,338.1,108.2"/>
						</g>
					</g>
				</g>
				<g class="st2">
					<g>
						<defs>
							<rect id="SVGID_19_" x="128" y="116.1" width="112.5" height="2.7"/>
						</defs>
						<clipPath id="SVGID_20_">
							<use xlink:href="#SVGID_19_"  style="overflow:visible;"/>
						</clipPath>
						<g class="st9">
							<defs>
								<rect id="SVGID_21_" x="128" y="116.1" width="112.5" height="2.7"/>
							</defs>
							<clipPath id="SVGID_22_">
								<use xlink:href="#SVGID_21_"  style="overflow:visible;"/>
							</clipPath>
							<path class="st10" d="M240.1,116.1c-14.6,0.4-29.1,0.8-43.7,1c-14.5,0.3-29,0.4-43.4,0.6c-8.2,0.1-16.3,0.1-24.5,0.1
								c-0.6,0-0.6,1,0,1c14.6,0,29.1-0.1,43.7-0.3c14.5-0.2,29-0.4,43.4-0.8c8.2-0.2,16.3-0.4,24.5-0.6
								C240.7,117.1,240.7,116.1,240.1,116.1"/>
						</g>
					</g>
				</g>
				<g class="st2">
					<g>
						<defs>
							<rect id="SVGID_23_" x="238.5" y="92.6" width="55.9" height="30.2"/>
						</defs>
						<clipPath id="SVGID_24_">
							<use xlink:href="#SVGID_23_"  style="overflow:visible;"/>
						</clipPath>
						<g class="st11">
							<defs>
								<rect id="SVGID_25_" x="238.5" y="92.6" width="55.9" height="30.2"/>
							</defs>
							<clipPath id="SVGID_26_">
								<use xlink:href="#SVGID_25_"  style="overflow:visible;"/>
							</clipPath>
							<path class="st12" d="M241.6,116.3C241.6,116.3,241.6,116.3,241.6,116.3C241.6,116.3,241.6,116.3,241.6,116.3
								C241.6,116.3,241.6,116.3,241.6,116.3"/>
							<path class="st12" d="M293.9,112.4c-9.2,0.2-18.3,0.8-27.5,1.7c0.1-0.8-0.2-1.6-0.3-2.4c-0.3-1.2-0.5-2.5-0.8-3.7
								c0-0.1,0-0.1,0-0.2c0-2.6,0-5.3,0.1-7.9c0-1.2,0.1-2.5,0-3.7c-0.1-1-0.5-1.8-1.4-2.2c-1-0.4-2.2-0.5-3.2-0.6
								c-1.3-0.2-2.6-0.3-3.9-0.4c-2.6-0.2-5.2-0.4-7.8-0.4c-2.9,0-5.9,0.1-8.8,0.3c0,0,0,0,0,0c-0.3-0.1-0.7,0-0.7,0.4
								c-0.3,2.6-0.6,5.3-0.8,7.9c-0.2,2.6-0.4,5.2,0,7.8c0,0.2,0.2,0.4,0.4,0.4c0.5,1.8,1.1,3.5,1.7,5.2c-0.3,0.1-0.5,0.5-0.1,0.8
								c0.1,0,0.1,0.1,0.2,0.1c-0.2,0.7-0.1,1.4,0.4,1.9c0.2,0.3,0.5,0.5,0.9,0.5c0.4,0.1,0.8,0,1.2,0c0,0,0,0,0.1,0c0,0,0,0,0,0
								c0,0,0,0,0,0l0,0c0,0,0.1,0,0,0c0,0,0,0,0,0c0,0,0,0,0,0c-0.1,0.1-0.1,0.3,0,0.4c-0.2,0.1-0.4,0.2-0.5,0.4
								c-0.2,0.3-0.2,0.6-0.1,0.9c0.1,0.3,0.2,0.6,0.3,0.9c0,0.3,0.3,0.5,0.5,0.5c0,0.1,0,0.2-0.1,0.3c0,0.2,0,0.4,0.1,0.7
								c0.2,0.4,0.6,0.6,1.1,0.6c1,0.1,2.1,0,3.1,0c0.5,0,1,0,1.5,0c0.5-0.1,0.6-0.5,0.7-1c0.1,0.3,0.2,0.6,0.6,0.7
								c0.3,0.1,0.6,0,0.8,0c0.3,0,0.7,0,1,0l3.5-0.1c0.3,0,0.6,0,0.9-0.1c0.3-0.1,0.4-0.4,0.4-0.7c0.2-1.1,0.2-2.3-0.8-2.9
								c-0.1-0.1-0.2-0.1-0.3-0.1c0,0-0.1-0.1-0.1-0.1c0,0,0,0,0,0c0.1-0.7,0.1-1.5,0.2-2.2c0,0,0,0,0-0.1l1.2,0
								c-0.1,0.1-0.1,0.2-0.1,0.3c0,0.4,0,0.9,0,1.3c0,0.4-0.1,0.9,0.3,1.2c0.3,0.2,0.9,0.1,1.3,0.2c0.4,0,0.9,0,1.3,0
								c0.4,0,0.9,0,1.3-0.1c0.4,0,0.9,0,1.2-0.4c0.2-0.3,0.2-0.8,0.2-1.2c0-0.4,0-0.9-0.1-1.3c0-0.1,0-0.1-0.1-0.2
								c0.5,0,1,0,1.5-0.1c0.7,0,1.4-0.2,1.8-0.7c9.3-1,18.6-1.5,27.9-1.7C294.5,113.4,294.5,112.4,293.9,112.4 M239.9,99.2
								c0.1,0.1,0.2,0.1,0.3,0.1c1.7-0.1,3.4-0.1,5.1-0.2c0,0.3,0,0.6,0,0.9v0.4c-0.1-0.1-0.2-0.1-0.4,0c-1.7,0.3-3.3,0.5-5,0.4
								c-0.1,0-0.1,0-0.1,0C239.8,100.2,239.9,99.7,239.9,99.2 M239.7,101.7c0.1,0,0.1,0,0.2,0.1c1.8,0,3.5-0.1,5.3-0.5
								c0,0,0.1,0,0.1-0.1c0,0.4,0,0.8,0,1.1c0,0.6-0.1,1.3,0.6,1.7c0.3,0.1,0.6,0.1,0.8,0.1c0.4,0,0.7,0,1.1,0
								c0.9-0.1,0.8-0.8,0.8-1.5c0-1.6,0-3.2-0.1-4.7c0-0.4-0.1-0.9-0.1-1.3c0-0.4,0-0.8-0.2-1.1c-0.2-0.3-0.6-0.3-0.9-0.4
								c-0.4-0.1-0.8-0.1-1.3-0.1c-0.3,0-0.4,0.2-0.5,0.4c-0.1,0.1-0.1,0.1-0.1,0.2c-0.3,0.6-0.2,1.4-0.2,2c0,0.1,0,0.3,0,0.4
								c-1.7,0.1-3.4,0.1-5.1,0.2c-0.1,0-0.1,0-0.2,0c0.2-1.5,0.3-3,0.5-4.4c4.7-0.3,9.5-0.4,14.2,0c2.5,0.2,4.9,0.4,7.4,0.8
								c1,0.1,2.1,0.3,2.3,1.5c0.2,1.1,0,2.3,0,3.5c0,2.6,0,5.3-0.1,7.9c-7.8,3.3-16.7,3.7-24.7,1.1
								C239.4,106.3,239.5,104,239.7,101.7 M247.5,96.8c0.1,0.7,0.1,1.5,0.1,2.3c0,0.8,0,1.6,0,2.4c0,0.4,0,0.8,0,1.1
								c0,0.2,0,0.3,0,0.5c0,0,0,0,0,0.1c-0.3-0.1-0.7,0-1,0c-0.2,0-0.2,0-0.3-0.1c0-0.1,0-0.3,0-0.4c0-0.8,0-1.6,0-2.4
								c0-0.7,0-1.5,0-2.2c0-0.7-0.1-1.4,0.1-2c0.3,0,0.6,0,0.9,0.1c0,0,0.1,0,0.1,0c0.1,0,0.1,0,0,0
								C247.4,96.4,247.5,96.6,247.5,96.8 M243,117.1c-0.2,0-0.4,0.1-0.6,0c0,0,0,0,0,0c0,0-0.1,0-0.1,0c0,0-0.1,0-0.1,0
								c0,0,0,0,0,0c0,0-0.1,0-0.1-0.1c0,0-0.1-0.1,0,0c0,0.1,0,0,0,0c0,0-0.1-0.1-0.1-0.1c0,0-0.1-0.1,0,0c0,0.1,0,0,0,0
								c0,0,0-0.1-0.1-0.1c0,0,0,0,0,0c0,0-0.1-0.1,0,0c0,0,0,0,0,0c0,0,0,0,0-0.1c0,0,0-0.1,0-0.1c0,0,0,0,0-0.1c0,0,0,0,0,0
								c0,0,0,0,0,0c0,0,0,0,0,0c0,0,0,0,0,0c0,0,0,0,0,0c0,0,0-0.1,0-0.1c0,0,0,0,0,0c1.3,0.6,2.7,0.6,4.2,0.5
								c0.8,0,1.6-0.1,2.3-0.1c-0.1,0.1-0.1,0.2-0.1,0.3v1.7c-1.2,0-2.4-0.1-3.6-0.1c0.1-0.3,0-0.7-0.2-1
								C243.9,117.1,243.4,117,243,117.1 M243.9,120.2c0-0.1-0.1-0.2-0.1-0.4c0-0.1,0-0.2,0-0.3c0.2,0.1,0.4,0,0.5-0.1
								c1.4,0.1,2.9,0.1,4.3,0.1c0,0.1,0,0.2-0.1,0.2c0,0.1-0.1,0.1-0.1,0.2c-1.4,0-2.8,0-4.3,0C244.1,120.1,244,120.1,243.9,120.2
								 M249,121c0,0.2,0,0.3,0,0.5c0,0.1,0,0.2,0,0.3c-0.1,0-0.1,0-0.2,0c-0.2,0-0.3,0-0.5,0c-0.4,0-0.7,0-1.1,0
								c-0.7,0-1.4,0-2.2,0c-0.1,0-0.3,0-0.4,0c0,0-0.1,0-0.1,0c0,0,0,0,0,0c0-0.1,0.1-0.3,0.1-0.5c0-0.1,0-0.1,0-0.2
								c1.3-0.1,2.7-0.1,4,0c0.2,0,0.3-0.1,0.4-0.1c0,0,0,0,0.1,0c0,0,0.1,0,0.1,0C249,120.9,249,121,249,121 M250.2,118.6
								c-0.4,0-0.8,0-1.2,0v-1.8c0-0.1,0-0.2-0.1-0.3c0.4,0,0.9,0,1.3-0.1V118.6z M256.3,121c0,0.1,0,0.3,0,0.4c-0.2,0-0.5,0-0.7,0
								c-0.3,0-0.7,0-1,0l-2.1,0.1c-0.3,0-0.7,0-1,0c-0.2,0-0.3,0-0.5,0c0,0,0,0,0,0c0,0,0,0,0,0c0-0.1,0-0.3,0-0.4
								C252.7,121,254.5,121,256.3,121C256.3,121,256.3,121,256.3,121 M256.3,120c-1.8,0-3.6,0-5.4,0c0-0.2,0-0.3,0-0.5
								c1.7,0,3.3,0,5-0.1c0,0,0,0,0,0c0,0,0,0,0.1,0.1C256.1,119.6,256.2,119.8,256.3,120 M251.2,118.6v-2.2l1.9-0.1l2.1-0.1
								c0,0,0,0,0,0l-0.2,2.2C253.8,118.5,252.5,118.6,251.2,118.6 M258.1,116.1l2.4-0.1c0.4,0,0.8,0,1.2,0c0,0.1,0,0.1,0,0.2
								c0,0.1,0,0.2,0,0.3c-0.1,0-0.1,0-0.2,0h-3.3C258.3,116.3,258.2,116.2,258.1,116.1 M261.8,118c-0.1,0-0.2,0-0.3,0
								c-0.1,0-0.3,0-0.4,0c-0.5,0-1,0-1.6,0c-0.3,0-0.5,0-0.8,0c-0.1,0-0.3,0-0.4,0h0V118l0-0.5v-0.1h3.3c0.1,0,0.2,0,0.2-0.1
								c0,0.1,0,0.3,0,0.4C261.8,117.9,261.8,118,261.8,118 M263.3,114.9l-3.2,0.1c-4.3,0.2-8.6,0.3-13,0.5
								c-1.6,0.1-3.7,0.4-5.2-0.4c0-0.1,0-0.1,0-0.2c-0.6-1.7-1.2-3.4-1.7-5.1c7.9,2.3,16.5,1.8,24.2-1.3l0.5,2.5
								c0.2,0.9,0.5,1.9,0.5,2.8C265.4,115,264.1,114.9,263.3,114.9"/>
						</g>
					</g>
				</g>
				<g class="st2">
					<g>
						<defs>
							<rect id="SVGID_27_" x="249.9" y="94.6" width="14.7" height="8.8"/>
						</defs>
						<clipPath id="SVGID_28_">
							<use xlink:href="#SVGID_27_"  style="overflow:visible;"/>
						</clipPath>
						<g class="st13">
							<defs>
								<rect id="SVGID_29_" x="249.9" y="94.6" width="14.7" height="8.8"/>
							</defs>
							<clipPath id="SVGID_30_">
								<use xlink:href="#SVGID_29_"  style="overflow:visible;"/>
							</clipPath>
							<path class="st14" d="M264.1,98.9c-3.5,0.3-7,0.6-10.5,1c0-0.2,0-0.3,0-0.5c0-0.5,0.1-1,0.1-1.5c0.1,0.1,0.2,0.2,0.4,0.2
								l9.9-0.8c0.6-0.1,0.6-1.1,0-1l-9.9,0.8c-0.2,0-0.3,0.1-0.4,0.2c0,0,0,0,0-0.1c0.1-0.7,0.2-1.4,0.1-2.1c0-0.2-0.2-0.3-0.3-0.3
								c-1.1-0.2-2.2-0.2-3.2,0c-0.5,0.1-0.4,0.8,0,0.9c0,0,0,0.1,0,0.1c-0.1,1.3-0.1,2.6-0.2,3.9c0,0.6-0.1,1.2-0.1,1.9
								c0,0.5,0.1,1,0.5,1.4c0.4,0.4,1,0.5,1.5,0.5c0.5,0,1.2,0,1.5-0.5c0.1-0.2,0.1-0.4,0.1-0.7c0-0.3,0-0.7,0-1c0-0.1,0-0.3,0-0.4
								c3.5-0.4,7-0.7,10.6-1C264.7,99.8,264.7,98.8,264.1,98.9 M252.7,97.4c-0.1,0.6-0.1,1.3-0.2,1.9c0,0.7,0,1.3,0,2
								c0,0.3,0,0.6,0,1c0,0.1,0,0.1,0,0.2c0,0,0,0,0,0c-0.1,0-0.3,0-0.5,0c-0.5,0-1,0-1.1-0.6c-0.1-0.6,0-1.3,0.1-1.9
								c0.1-1.3,0.1-2.7,0.2-4c0-0.1,0-0.1,0-0.2c0.6-0.1,1.2-0.1,1.7,0C252.9,96.3,252.8,96.8,252.7,97.4"/>
						</g>
					</g>
				</g>
				<g class="st2">
					<g>
						<defs>
							<rect id="SVGID_31_" x="284.4" y="92.6" width="3.1" height="2.7"/>
						</defs>
						<clipPath id="SVGID_32_">
							<use xlink:href="#SVGID_31_"  style="overflow:visible;"/>
						</clipPath>
						<g class="st15">
							<defs>
								<rect id="SVGID_33_" x="284.4" y="92.6" width="3.1" height="2.7"/>
							</defs>
							<clipPath id="SVGID_34_">
								<use xlink:href="#SVGID_33_"  style="overflow:visible;"/>
							</clipPath>
							<path class="st16" d="M287.2,93.6c0-0.2-0.1-0.4-0.3-0.6c-0.2-0.2-0.6-0.4-0.9-0.4c-0.6,0-1.2,0.3-1.5,0.9
								c-0.1,0.2-0.2,0.4-0.2,0.7c0,0.1,0,0.1,0,0.2c0,0,0,0.1,0,0.1c0,0,0,0.1,0,0.1c0,0,0,0,0,0c0.1,0.3,0.4,0.6,0.7,0.7
								c0,0,0.1,0,0.1,0c0.2,0.1,0.4,0.1,0.7,0.1c0.4,0,0.8-0.1,1.1-0.3c0.3-0.2,0.6-0.6,0.5-1C287.4,93.9,287.3,93.8,287.2,93.6"/>
						</g>
					</g>
				</g>
				<g class="st2">
					<g>
						<defs>
							<rect id="SVGID_35_" x="401.6" y="89.7" width="240.9" height="48.4"/>
						</defs>
						<clipPath id="SVGID_36_">
							<use xlink:href="#SVGID_35_"  style="overflow:visible;"/>
						</clipPath>
						<g class="st17">
							<defs>
								<rect id="SVGID_37_" x="401.6" y="89.7" width="240.9" height="48.4"/>
							</defs>
							<clipPath id="SVGID_38_">
								<use xlink:href="#SVGID_37_"  style="overflow:visible;"/>
							</clipPath>
							<path class="st18" d="M431.6,117.6C431.6,117.6,431.6,117.6,431.6,117.6C431.6,117.6,431.5,117.6,431.6,117.6"/>
							<path class="st18" d="M642,89.7c-5.3,0.1-10.7,0.3-16,0.5c-0.1,0-0.1,0-0.2,0c-12.4,0.6-24.8,1-37.1,1.4
								c-12.4,0.4-24.8,0.7-37.2,0.9c-7,0.1-19.5-0.1-20.2,0.1c-0.8,0.2-0.7,0-1.2,0.1c-7.8-0.3-15.5,0.2-23.2,1.1
								c-3.9,0.5-7.8,1-11.6,1.6c-1.9,0.3-3.8,0.6-5.7,1.1c-1.8,0.5-3.6,1.2-5.4,1.5c-2.2,0.4-4.4,0.4-6.6,0.5l-6.9,0.3
								c0,0-0.1,0-0.1,0c-8.1,0.6-16-1.2-24-1.3c-1.9,0-3.8,0.1-5.7,0.6c-1.8,0.4-3.4,1.2-5,1.9c-1.9,0.7-3.8,0.8-5.8,0.8
								c-1.9,0-3.7,0.2-5.5,0.6c-3.6,0.9-6.9,2.6-10.1,4.3c-1.7,0.9-3.3,1.8-5,2.7c-1.6,0.9-3.1,1.7-4.5,2.8c-1.2,0.9-2.2,2-2.8,3.4
								c-0.5,1.2-0.6,2.9,0.5,3.7c0.6,0.5,1.4,0.5,2.2,0.5c1.1,0,2.1,0,3.2,0c0.8,0,1.6-0.1,2.3-0.4c0.8-0.3,1.4-0.9,2-1.4
								c1.5-1.3,3.2-1.9,5.1-2.6c0.9-0.3,1.7-0.6,2.6-1c0.9-0.4,1.7-0.9,2.6-1.4c0.9-0.5,1.8-0.7,2.8-0.9c0,0.2,0.1,0.5,0.1,0.7
								c0,2.1-1.6,3.9-2.7,5.5c-2.3,3.6-4.3,7.4-5.7,11.4c-0.4,1-0.7,2-1,3.1c-0.3,1.1-0.6,2.2-0.5,3.3c0.1,1.7,1.5,3.3,3.3,2.8
								c1.9-0.5,3-2.6,3.9-4.1c1.2-2.1,2.3-4.1,3.4-6.2c1.2-2.3,2.7-4.5,3.7-6.9c0.1-0.3,0.2-0.6,0.3-0.9c0.3,0.1,0.6,0.1,0.7-0.3
								c0.1-0.2,0.2-0.3,0.4-0.3c-0.2,2.1-0.4,4.1-0.7,6.2c0,0.3,0.1,0.5,0.3,0.6c0.2,0.1,0.6-0.1,0.6-0.3c0.3-2.2,0.5-4.4,0.7-6.7
								c0,0,0,0,0,0c0.3-0.1,0.6-0.2,0.9-0.3c0.7-0.4,1.4-0.9,2.1-1.4c1.1-0.7,2.2-1.2,3.3-1.8c0,0,0,0,0.1,0c0.2,0,0.3-0.1,0.4-0.2
								c0.4-0.2,0.8-0.4,1.2-0.5c0.6-0.2,0.3-1.2-0.3-1c-0.3,0.1-0.6,0.2-0.8,0.4v-1.2c0-0.3-0.2-0.5-0.5-0.5
								c-0.3,0-0.5,0.2-0.5,0.5v1.7c-1.3,0.6-2.5,1.3-3.7,2c-0.6,0.4-1.3,0.9-2,1.3c-0.2,0-0.4-0.1-0.6-0.2c0,0,0,0-0.1,0
								c0,0,0,0,0,0c0,0-0.1,0-0.2-0.1c-0.1,0-0.2-0.1-0.3-0.1c-0.2-0.1-0.3-0.2-0.5-0.3c0,0,0,0-0.1,0c0,0-0.1-0.1-0.1-0.1
								c-0.1-0.1-0.2-0.1-0.2-0.2c0,0-0.1-0.1-0.2-0.1c-0.1-0.7-0.4-1.3-0.9-1.9c-0.4-0.5-1.1,0.2-0.7,0.7c1.3,1.6,0.7,3.8-0.1,5.5
								c-0.9,1.9-2,3.7-3,5.6c-0.2-0.4-0.6-0.7-1-0.9c-0.3-0.2-0.7-0.3-1-0.4l-1.3-0.4c-0.2-0.1-0.6,0.1-0.6,0.4
								c-0.1,0.3,0.1,0.5,0.3,0.6c0.4,0.1,0.7,0.2,1.1,0.4c0.2,0.1,0.4,0.1,0.6,0.2c0.1,0,0.1,0,0.2,0.1c0,0,0.1,0,0.1,0
								c0,0,0,0,0.1,0c0,0,0,0,0,0c0,0,0.1,0,0.1,0c0.1,0,0.1,0.1,0.2,0.1c0.1,0,0.1,0.1,0.2,0.1c0,0,0,0,0.1,0c0,0,0,0,0,0
								c0,0,0.1,0.1,0.1,0.1c0,0,0,0,0,0c0,0,0,0,0,0c0,0,0,0,0,0.1c0,0,0,0,0,0c0,0,0,0.1,0,0.1c0,0,0,0.1,0,0.1c0-0.1,0,0,0,0
								c0,0.2,0.1,0.3,0.3,0.4c-0.9,1.6-1.8,3.3-2.7,4.9c-0.5,0.9-0.9,1.7-1.5,2.5c-0.5,0.8-1.3,1.7-2.3,1.9c-1,0.3-1.7-0.5-1.9-1.4
								c-0.3-1.1,0.1-2.2,0.4-3.2c0.5-2,1.2-3.9,2-5.7c1.6-3.7,3.6-7.2,5.8-10.5c1-1.6,1.9-3.2,1.6-5.1c0.9-0.1,1.8-0.2,2.7-0.3
								c2.3-0.3,4.6-0.6,6.9-0.9c0.6-0.1,0.4-1.1-0.3-1l-5.9,0.8c-1.2,0.2-2.4,0.3-3.7,0.5c-0.5-1.4-1.5-2.5-2.8-3.2
								c-0.6-0.3-1.1,0.6-0.5,0.9c1,0.5,1.8,1.4,2.3,2.5c-0.3,0.1-0.6,0.1-0.9,0.2c-1.6,0.4-3,1.5-4.5,2.2c-1.3,0.6-2.8,1-4.1,1.6
								c-0.1-1.3-0.8-2.6-1.8-3.4c-0.2-0.2-0.5-0.2-0.7,0c-0.2,0.2-0.2,0.5,0,0.7c0.5,0.4,0.9,0.9,1.1,1.5c0.2,0.5,0.3,1.1,0.3,1.6
								c-1.2,0.5-2.2,1.2-3.2,2.1c-0.6,0.5-1.3,1-2.1,1.2c-1,0.2-2.1,0.1-3.1,0.1c-0.8,0-1.8,0.2-2.6-0.1c-0.8-0.3-0.8-1.2-0.7-1.9
								c0.3-1.5,1.4-2.7,2.5-3.6c1.3-1,2.8-1.8,4.2-2.6c1.6-0.9,3.3-1.8,5-2.7c3.1-1.7,6.3-3.3,9.7-4.3c1.7-0.5,3.4-0.7,5.2-0.8
								c1.8,0,3.7,0,5.5-0.4c1.7-0.5,3.2-1.3,4.9-1.8c1.8-0.6,3.6-0.9,5.5-1c4.3-0.2,8.5,0.4,12.8,0.8c4.3,0.4,8.6,0.7,12.9,0.4
								c0,0,0,0,0.1,0c2-0.1,4-0.2,6-0.2c1.9-0.1,3.9-0.1,5.8-0.3c1.9-0.2,3.6-0.7,5.4-1.2c1.8-0.6,3.7-1.1,5.6-1.4
								c7.8-1.3,15.7-2.4,23.6-2.8c4.5-0.3,13.4-0.1,13.5-0.1s0.6-0.2,0.9-0.3c0.2,0,24,0,36.2-0.3c12.4-0.3,24.8-0.7,37.1-1.1
								c6.8-0.3,13.6-0.5,20.4-0.9c0.1,0,0.1,0,0.2,0c5.5-0.3,11-0.4,16.5-0.5C642.6,90.7,642.6,89.7,642,89.7"/>
						</g>
					</g>
				</g>
				<g class="st2">
					<g>
						<defs>
							<rect id="SVGID_39_" x="426.1" y="106.3" width="216.4" height="30.2"/>
						</defs>
						<clipPath id="SVGID_40_">
							<use xlink:href="#SVGID_39_"  style="overflow:visible;"/>
						</clipPath>
						<g class="st19">
							<defs>
								<rect id="SVGID_41_" x="426.1" y="106.3" width="216.4" height="30.2"/>
							</defs>
							<clipPath id="SVGID_42_">
								<use xlink:href="#SVGID_41_"  style="overflow:visible;"/>
							</clipPath>
							<path class="st20" d="M642,114.8c-4.1,0.1-8.1,0.3-12.2,0.6c-0.1,0-0.1,0-0.2,0c-13.7,1-27.4,0.3-41.1,0.2
								c-3.9,0-7.8,0-11.6,0.2c-0.1,0-0.2,0-0.2,0.1c-12.3-0.4-24.7-0.2-37,0.5c-3.5,0.2-7.1,0.5-10.6,0.8c-0.1,0-0.2,0-0.2,0.1
								c-7.5-0.5-15-0.8-22.5-0.9c-2,0-4,0-6,0c-1.8,0-3.7-0.1-5.5,0.1c-1.5,0.2-2.8,1-4,1.9c-1.3,1-2.5,1.9-4.1,2.5
								c-3.1,1.2-6.4,1.2-9.6,1.2c3.7-2.2,7.2-5,11.6-5.6c0.6-0.1,0.6-1.1,0-1c-6.8,0.9-11.4,7.1-18.2,8.2c-0.2,0-0.3,0.1-0.3,0.3
								c-5.6,1.4-11.5,0.1-17.3,0.8c-2.6,0.3-5.2,1.1-7.4,2.6c-1.2,0.8-2.1,1.9-3.3,2.7c-1.1,0.8-2.2,1.5-3.5,2.1c0,0,0,0-0.1,0
								c-0.2,0-0.3,0.1-0.4,0.2c-1.5,0.7-3,1.2-4.6,1.6c0.2-1.9-0.3-4-1.9-5.2c-0.8-0.6-1.8-0.7-2.7-0.2c-0.7,0.4-1.3,1-1.9,1.6
								c0-0.1,0-0.2,0.1-0.2c0.9-2.7,3.4-4.3,5.7-5.6c2.6-1.5,5.2-3.1,8.1-4.2c1-0.4,2.1-0.7,3.1-1.1c0.1,0,0.2,0,0.2-0.1
								c0,0,0,0,0,0c0.4-0.1,0.9-0.3,1.3-0.5c1.2-0.5,2.4-1.4,2.8-2.7c0.2,0,0.3-0.1,0.4-0.3c0.8-2.8,3.2-4.9,4.1-7.6
								c0.2-0.6-0.8-0.9-1-0.3c-0.8,2.3-2.5,4.1-3.6,6.2c-0.2-0.8-0.7-1.6-1-2.3c-0.8-1.6-1.7-3.3-2.5-4.9c-0.3-0.6-1.2-0.1-0.9,0.5
								c0.8,1.5,1.5,3,2.3,4.5c0.7,1.3,1.8,2.9,1,4.4c-0.6,1.1-1.8,1.6-3,1.9c-0.4-0.6-0.9-1.1-1.4-1.5c-0.2-0.1-0.6-0.1-0.7,0.2
								c-0.1,0.2-0.1,0.5,0.2,0.7c0.1,0,0.2,0.1,0.2,0.2c0,0,0.1,0,0.1,0.1c0,0,0,0,0,0c0.1,0.1,0.3,0.2,0.4,0.4
								c0,0,0.1,0.1,0.1,0.1c0,0,0,0,0,0.1c0,0,0,0,0,0c0,0,0,0.1,0.1,0.1l0,0c-1.3,0.4-2.6,0.9-3.8,1.4c-0.7,0.3-1.4,0.6-2,1
								c-0.4-0.6-0.8-1.2-1.1-1.9c-0.1-0.2-0.5-0.3-0.7-0.2c-0.2,0.2-0.3,0.4-0.2,0.7c0.3,0.7,0.7,1.3,1.1,1.9
								c-1.7,0.9-3.4,1.9-5.1,2.9c-2.3,1.4-4.5,3.1-5.3,5.8c-0.4,1.2-0.5,2.6-0.2,3.8c0.2,1.1,0.6,2.5,2,2.6c0.6,0,1.3-0.1,1.9-0.3
								c0.7-0.2,1.4-0.3,2.1-0.5c0.7-0.2,1.4-0.4,2-0.5c0.4,1.2,1.8,1.9,3,1.5c0.7-0.2,1.3-0.8,1.6-1.4c0.3-0.6,0.4-1.3,0.5-2
								c0.8-0.4,1.6-0.8,2.3-1.3c0.1,1.1,1.1,1.9,1.9,2.5c1,0.7,2.2,1.3,3.4,1.6c1,0.3,2.8,0.7,3.1-0.7c0.1-0.6,0-1.2-0.2-1.8
								c-0.1-0.6-0.4-1.3-0.7-1.8c-0.1-0.1-0.2-0.2-0.2-0.4c0-1,0.6-2,1.2-2.8c0.7-0.9,1.5-1.8,2.4-2.6c0.1-0.1,0.1-0.1,0.1-0.2
								c6.1-0.9,12.4,0.7,18.4-1.1c0.1,0,0.2-0.1,0.3-0.2c1.5-0.3,2.8-0.9,4.2-1.5c0.1,0,0.1,0.1,0.3,0.1c3.2,0.1,6.5,0.2,9.7-0.7
								c1.5-0.4,2.9-1,4.2-1.9c1.3-0.9,2.4-2,3.8-2.6c1.7-0.7,3.8-0.5,5.6-0.5c1.9,0,3.8,0,5.7,0c3.8,0,7.6,0.1,11.5,0.3
								c4.4,0.2,8.8,0.4,13.2,0.7c0.2,0,0.3-0.1,0.4-0.2c12.2-1,24.4-1.5,36.6-1.4c3.6,0,7.1,0.1,10.6,0.2c0.1,0,0.2,0,0.3-0.1
								c13.6-0.5,27.3,0.3,40.9,0.1c3.9-0.1,7.8-0.2,11.6-0.5c0.1,0,0.1,0,0.2,0c4-0.3,7.9-0.5,11.9-0.6
								C642.7,115.8,642.7,114.8,642,114.8 M432.9,134.3c-0.7,0.2-1.3,0.3-2,0.5c-0.7,0.2-1.3,0.4-2,0.5c-0.3,0-0.6,0.1-0.9,0
								c-0.4-0.2-0.5-0.8-0.6-1.2c-0.2-0.8-0.2-1.6-0.2-2.4c0.2,0.1,0.3,0,0.5-0.1c0.6-0.6,1.2-1.2,1.9-1.7c0.3-0.2,0.6-0.5,1-0.5
								c0.3,0,0.7,0.2,0.9,0.4c1.2,1,1.7,2.8,1.4,4.3C432.8,134.1,432.8,134.2,432.9,134.3 M437.9,134.5c-0.1,0.2-0.2,0.5-0.4,0.6
								c-0.1,0.1-0.2,0.1-0.2,0.2c-0.1,0-0.1,0.1-0.2,0.1c-0.1,0,0,0-0.1,0c-0.7,0.2-1.6-0.2-1.8-0.8c0.4-0.1,0.8-0.2,1.2-0.4
								c0.6-0.2,1.3-0.5,1.9-0.7C438.2,133.9,438.1,134.2,437.9,134.5 M449.3,128c-0.5,0.7-0.9,1.4-1.2,2.2c-0.6-0.6-1.3-1-2-1.2
								c-0.6-0.2-0.9,0.8-0.3,1c1.2,0.4,2.1,1.3,2.6,2.4c0.3,0.6,0.5,1.2,0.6,1.9c0,0.3,0.1,0.6,0,0.8c-0.1,0.3-0.3,0.2-0.6,0.2
								c-1.2-0.1-2.5-0.6-3.6-1.2c-0.5-0.3-1.1-0.7-1.5-1.1c-0.4-0.4-0.9-0.9-0.8-1.5c0-0.1,0-0.2-0.1-0.3c0.4-0.3,0.7-0.5,1.1-0.8
								c1.1-1,2.2-2,3.5-2.8c1.2-0.7,2.5-1.2,3.8-1.5c0,0,0.1,0,0.1,0C450.4,126.7,449.8,127.4,449.3,128"/>
						</g>
					</g>
				</g>
				<g class="st2">
					<g>
						<defs>
							<rect id="SVGID_43_" x="529.8" y="92.6" width="3.4" height="1.1"/>
						</defs>
						<clipPath id="SVGID_44_">
							<use xlink:href="#SVGID_43_"  style="overflow:visible;"/>
						</clipPath>
						<g class="st21">
							<defs>
								<rect id="SVGID_45_" x="529.8" y="92.6" width="3.4" height="1.1"/>
							</defs>
							<clipPath id="SVGID_46_">
								<use xlink:href="#SVGID_45_"  style="overflow:visible;"/>
							</clipPath>
							<path class="st22" d="M532.7,92.6c-0.8,0.1-1.6,0.1-2.4,0.1c-0.3,0-0.5,0.2-0.5,0.5c0,0.3,0.2,0.5,0.5,0.5
								c0.8,0,1.6,0,2.4-0.1c0.3,0,0.5-0.2,0.5-0.5C533.2,92.9,533,92.6,532.7,92.6"/>
						</g>
					</g>
				</g>
				<g class="st2">
					<g>
						<defs>
							<rect id="SVGID_47_" x="528.7" y="116.9" width="5.1" height="1.4"/>
						</defs>
						<clipPath id="SVGID_48_">
							<use xlink:href="#SVGID_47_"  style="overflow:visible;"/>
						</clipPath>
						<g class="st23">
							<defs>
								<rect id="SVGID_49_" x="528.7" y="116.9" width="5.1" height="1.4"/>
							</defs>
							<clipPath id="SVGID_50_">
								<use xlink:href="#SVGID_49_"  style="overflow:visible;"/>
							</clipPath>
							<path class="st24" d="M533.3,116.9c-0.7,0.1-1.4,0.1-2.1,0.3c-0.6,0.1-1.3,0.3-1.9,0.1c-0.3-0.1-0.5,0.1-0.6,0.3
								c-0.1,0.3,0.1,0.6,0.3,0.6c0.7,0.2,1.5,0,2.2-0.1c0.7-0.1,1.4-0.2,2.1-0.3c0.3,0,0.5-0.2,0.5-0.5
								C533.8,117.1,533.6,116.8,533.3,116.9"/>
						</g>
					</g>
				</g>
			</g>
		</g>
	</g>
</g>
</svg>
