<svg id="Layer_1" data-name="Layer 1" xmlns="http://www.w3.org/2000/svg" xmlns:xlink="http://www.w3.org/1999/xlink" viewBox="0 0 21 16"><defs><style>.cls-1{fill:#cfc8d7;}.cls-2{fill:url(#linear-gradient);}.cls-3{fill:#28285b;}.cls-4{fill:url(#linear-gradient-2);}.cls-5{fill:none;stroke-width:0.03px;}.cls-10,.cls-11,.cls-12,.cls-13,.cls-14,.cls-15,.cls-16,.cls-17,.cls-18,.cls-19,.cls-5,.cls-9{stroke:#28285b;stroke-miterlimit:10;}.cls-20,.cls-6{fill:#1d1d1b;}.cls-6{opacity:0.09;}.cls-21,.cls-22,.cls-23,.cls-7{fill:#fff;}.cls-7{opacity:0.39;}.cls-8{fill:url(#linear-gradient-3);}.cls-10,.cls-13,.cls-15,.cls-16,.cls-17,.cls-18,.cls-19,.cls-9{stroke-width:0.05px;}.cls-9{fill:url(#linear-gradient-4);}.cls-10{fill:url(#linear-gradient-5);}.cls-11,.cls-12,.cls-14{stroke-width:0.08px;}.cls-11{fill:url(#linear-gradient-6);}.cls-12{fill:url(#linear-gradient-7);}.cls-13{fill:url(#linear-gradient-8);}.cls-14{fill:url(#linear-gradient-9);}.cls-15{fill:url(#linear-gradient-10);}.cls-16{fill:url(#linear-gradient-11);}.cls-17{fill:url(#linear-gradient-12);}.cls-18{fill:url(#linear-gradient-13);}.cls-19{fill:url(#linear-gradient-14);}.cls-20{opacity:0.16;}.cls-21{opacity:0.36;}.cls-22{opacity:0.26;}.cls-23{opacity:0.55;}</style><linearGradient id="linear-gradient" x1="11.62" y1="15.91" x2="16.29" y2="6.08" gradientUnits="userSpaceOnUse"><stop offset="0" stop-color="#d0c9d8"/><stop offset="0.87" stop-color="#d0c9d8"/><stop offset="0.99" stop-color="#d0c9d8"/></linearGradient><linearGradient id="linear-gradient-2" x1="11.67" y1="10.17" x2="18.9" y2="4.27" xlink:href="#linear-gradient"/><linearGradient id="linear-gradient-3" x1="16.76" y1="7.85" x2="12.53" y2="10.89" xlink:href="#linear-gradient"/><linearGradient id="linear-gradient-4" x1="4.33" y1="10.34" x2="11.58" y2="14.11" gradientTransform="translate(20.19 4.27) rotate(90)" gradientUnits="userSpaceOnUse"><stop offset="0" stop-color="#d0c9d8"/><stop offset="0.24" stop-color="#cdc6d7"/><stop offset="0.42" stop-color="#c5bdd2"/><stop offset="0.57" stop-color="#b7adca"/><stop offset="0.71" stop-color="#a397bf"/><stop offset="0.84" stop-color="#897bb1"/><stop offset="0.96" stop-color="#6a58a0"/><stop offset="0.99" stop-color="#63509c"/></linearGradient><linearGradient id="linear-gradient-5" x1="0.77" y1="11.71" x2="2.75" y2="12.74" gradientTransform="translate(13.99 10.47) rotate(90)" xlink:href="#linear-gradient-4"/><linearGradient id="linear-gradient-6" x1="3.7" y1="1.7" x2="15.8" y2="1.7" gradientTransform="translate(14.03 -10.63) rotate(90)" gradientUnits="userSpaceOnUse"><stop offset="0" stop-color="#d0c9d8"/><stop offset="0.22" stop-color="#cdc8d8"/><stop offset="0.37" stop-color="#c4c7d9"/><stop offset="0.51" stop-color="#b4c4da"/><stop offset="0.63" stop-color="#9ec0db"/><stop offset="0.75" stop-color="#82badd"/><stop offset="0.86" stop-color="#5fb4df"/><stop offset="0.96" stop-color="#36ace1"/><stop offset="0.99" stop-color="#2baae2"/></linearGradient><linearGradient id="linear-gradient-7" x1="5.79" y1="1.48" x2="6.65" y2="1.92" gradientTransform="translate(7.92 -4.52) rotate(90)" xlink:href="#linear-gradient-6"/><linearGradient id="linear-gradient-8" x1="4.83" y1="9.38" x2="9.65" y2="11.89" gradientTransform="translate(17.87 3.4) rotate(90)" gradientUnits="userSpaceOnUse"><stop offset="0" stop-color="#d0c9d8"/><stop offset="0.23" stop-color="#cfc9d5"/><stop offset="0.39" stop-color="#cac8cc"/><stop offset="0.53" stop-color="#c3c7bc"/><stop offset="0.66" stop-color="#b9c6a6"/><stop offset="0.78" stop-color="#acc48a"/><stop offset="0.89" stop-color="#9cc167"/><stop offset="0.99" stop-color="#8cbf44"/></linearGradient><linearGradient id="linear-gradient-9" x1="4.82" y1="6.95" x2="13.66" y2="7.04" gradientTransform="translate(17.18 -3.18) rotate(90)" xlink:href="#linear-gradient-6"/><linearGradient id="linear-gradient-10" x1="2.94" y1="5.48" x2="14.62" y2="5.48" gradientTransform="translate(14.26 -3.3) rotate(90)" xlink:href="#linear-gradient-4"/><linearGradient id="linear-gradient-11" x1="9.91" y1="3.58" x2="16.39" y2="3.58" gradientTransform="translate(16.74 -9.57) rotate(90)" xlink:href="#linear-gradient-8"/><linearGradient id="linear-gradient-12" x1="8.55" y1="3.58" x2="9.46" y2="3.58" gradientTransform="translate(12.59 -5.42) rotate(90)" xlink:href="#linear-gradient-8"/><linearGradient id="linear-gradient-13" x1="3.58" y1="8.81" x2="12.7" y2="8.81" gradientTransform="translate(16.95 0.67) rotate(90)" gradientUnits="userSpaceOnUse"><stop offset="0" stop-color="#d0c9d8"/><stop offset="0.22" stop-color="#d1cad5"/><stop offset="0.37" stop-color="#d3cbcc"/><stop offset="0.51" stop-color="#d7cebc"/><stop offset="0.63" stop-color="#dcd2a6"/><stop offset="0.74" stop-color="#e3d88a"/><stop offset="0.85" stop-color="#ebde67"/><stop offset="0.96" stop-color="#f5e63e"/><stop offset="0.99" stop-color="#f8e831"/></linearGradient><linearGradient id="linear-gradient-14" x1="1.73" y1="8.81" x2="3.26" y2="8.81" gradientTransform="translate(11.31 6.31) rotate(90)" xlink:href="#linear-gradient-13"/></defs><path class="cls-1" d="M15.54,8.39a.56.56,0,0,1-.12.2.46.46,0,0,1-.18.13.41.41,0,0,1-.19,0l-.21,0a.54.54,0,0,1-.18-.11.42.42,0,0,1-.11-.16.49.49,0,0,1,0-.21.57.57,0,0,1,0-.22.67.67,0,0,1,.12-.2.61.61,0,0,1,.16-.12.46.46,0,0,1,.2,0,.56.56,0,0,1,.22,0,.62.62,0,0,1,.19.12.36.36,0,0,1,.11.16.65.65,0,0,1,0,.2A.59.59,0,0,1,15.54,8.39Zm-.16,0a.46.46,0,0,0,0-.19.3.3,0,0,0-.1-.27.24.24,0,0,0-.12-.07l-.14,0-.13,0a.45.45,0,0,0-.22.25.39.39,0,0,0,0,.18.47.47,0,0,0,0,.17.36.36,0,0,0,.07.1.24.24,0,0,0,.12.07.35.35,0,0,0,.14,0l.12,0a.45.45,0,0,0,.14-.1A.38.38,0,0,0,15.38,8.35Z"/><path class="cls-1" d="M14.11,9.56a.82.82,0,0,1-.12.2.48.48,0,0,1-.17.12.49.49,0,0,1-.2,0,.52.52,0,0,1-.21,0,.51.51,0,0,1-.29-.26.52.52,0,0,1,0-.21.64.64,0,0,1,.05-.23A.45.45,0,0,1,13.24,9l.16-.13a.65.65,0,0,1,.2,0,.54.54,0,0,1,.22,0A.4.4,0,0,1,14,9a.42.42,0,0,1,.11.16.52.52,0,0,1,0,.21A.63.63,0,0,1,14.11,9.56ZM14,9.51a1.16,1.16,0,0,0,0-.18.47.47,0,0,0,0-.17.38.38,0,0,0-.08-.11A.41.41,0,0,0,13.78,9a.28.28,0,0,0-.15,0,.28.28,0,0,0-.13,0,.38.38,0,0,0-.13.1.51.51,0,0,0-.09.16.39.39,0,0,0,0,.18.51.51,0,0,0,0,.17.35.35,0,0,0,.08.1.3.3,0,0,0,.11.07.34.34,0,0,0,.14,0l.12,0a.33.33,0,0,0,.14-.1A.56.56,0,0,0,14,9.51Z"/><path class="cls-1" d="M15.3,10a.67.67,0,0,1-.12.2.52.52,0,0,1-.18.12.45.45,0,0,1-.19,0,.52.52,0,0,1-.21,0,.42.42,0,0,1-.18-.11.33.33,0,0,1-.11-.15.52.52,0,0,1,0-.21.59.59,0,0,1,.16-.42.7.7,0,0,1,.16-.13.65.65,0,0,1,.2-.05.57.57,0,0,1,.22,0,.54.54,0,0,1,.18.11.45.45,0,0,1,.12.16,1.55,1.55,0,0,1,0,.21A1,1,0,0,1,15.3,10ZM15.14,10a.39.39,0,0,0,0-.18.32.32,0,0,0,0-.17.23.23,0,0,0-.07-.1A.25.25,0,0,0,15,9.42a.26.26,0,0,0-.15,0l-.12,0a.41.41,0,0,0-.13.1.86.86,0,0,0-.1.16.57.57,0,0,0,0,.18.34.34,0,0,0,0,.17.61.61,0,0,0,.07.1.35.35,0,0,0,.12.07.3.3,0,0,0,.13,0,.28.28,0,0,0,.13,0,.42.42,0,0,0,.14-.09A.51.51,0,0,0,15.14,10Z"/><path class="cls-1" d="M13.76,10.94a.82.82,0,0,1-.12.2.66.66,0,0,1-.17.12.73.73,0,0,1-.2.05.52.52,0,0,1-.21,0,.5.5,0,0,1-.17-.11.48.48,0,0,1-.12-.16.46.46,0,0,1,0-.21.63.63,0,0,1,0-.22.5.5,0,0,1,.11-.19.65.65,0,0,1,.16-.13.46.46,0,0,1,.2-.05.54.54,0,0,1,.22,0,.4.4,0,0,1,.19.11.42.42,0,0,1,.11.16.48.48,0,0,1,0,.2A.68.68,0,0,1,13.76,10.94Zm-.15,0a1.16,1.16,0,0,0,0-.18.43.43,0,0,0,0-.17.28.28,0,0,0-.08-.11.35.35,0,0,0-.12-.07.24.24,0,0,0-.14,0,.28.28,0,0,0-.13,0,.38.38,0,0,0-.13.1.6.6,0,0,0-.09.15.46.46,0,0,0,0,.19.45.45,0,0,0,0,.16.28.28,0,0,0,.08.11.41.41,0,0,0,.11.07l.14,0,.12,0a.33.33,0,0,0,.14-.1A.56.56,0,0,0,13.61,10.89Z"/><path class="cls-1" d="M15.62,11.63a.82.82,0,0,1-.12.2.66.66,0,0,1-.17.12.46.46,0,0,1-.2.05.52.52,0,0,1-.21,0,.45.45,0,0,1-.17-.11.48.48,0,0,1-.12-.16.46.46,0,0,1,0-.21.63.63,0,0,1,.05-.22.5.5,0,0,1,.11-.19.48.48,0,0,1,.36-.18.54.54,0,0,1,.22,0,.4.4,0,0,1,.19.11.42.42,0,0,1,.11.16.48.48,0,0,1,0,.2A.68.68,0,0,1,15.62,11.63Zm-.15-.05a1.16,1.16,0,0,0,0-.18.47.47,0,0,0,0-.17.41.41,0,0,0-.07-.11l-.12-.07a.28.28,0,0,0-.15,0,.21.21,0,0,0-.12,0,.33.33,0,0,0-.14.1.51.51,0,0,0-.09.16.58.58,0,0,0,0,.18.41.41,0,0,0,0,.16.28.28,0,0,0,.08.11.41.41,0,0,0,.11.07l.14,0a.35.35,0,0,0,.26-.13A.56.56,0,0,0,15.47,11.58Z"/><path class="cls-1" d="M15.21,13.17a.67.67,0,0,1-.12.2.38.38,0,0,1-.17.12.49.49,0,0,1-.2,0,.66.66,0,0,1-.39-.14.42.42,0,0,1-.11-.16.52.52,0,0,1,0-.21.59.59,0,0,1,.16-.42.61.61,0,0,1,.16-.12.47.47,0,0,1,.2-.06.57.57,0,0,1,.22,0,.59.59,0,0,1,.19.11.5.5,0,0,1,.11.17.65.65,0,0,1,0,.2A.63.63,0,0,1,15.21,13.17Zm-.16-.05a.39.39,0,0,0,0-.18.32.32,0,0,0,0-.17.44.44,0,0,0-.2-.18.24.24,0,0,0-.14,0,.28.28,0,0,0-.13,0,.57.57,0,0,0-.13.1.51.51,0,0,0-.09.16.39.39,0,0,0,0,.18.51.51,0,0,0,0,.17.61.61,0,0,0,.07.1.35.35,0,0,0,.12.07.32.32,0,0,0,.13,0,.28.28,0,0,0,.13,0,.42.42,0,0,0,.14-.09A.51.51,0,0,0,15.05,13.12Z"/><path class="cls-1" d="M13,12.35a.56.56,0,0,1-.12.2.52.52,0,0,1-.17.13.48.48,0,0,1-.2,0,.76.76,0,0,1-.21,0,.54.54,0,0,1-.18-.11.57.57,0,0,1-.11-.16.52.52,0,0,1,0-.21A.44.44,0,0,1,12,12a.49.49,0,0,1,.11-.2.61.61,0,0,1,.16-.12.46.46,0,0,1,.2-.05.56.56,0,0,1,.22,0,.62.62,0,0,1,.19.12.36.36,0,0,1,.11.16.45.45,0,0,1,0,.2A.63.63,0,0,1,13,12.35Zm-.15,0a.68.68,0,0,0,0-.19.3.3,0,0,0-.1-.27.24.24,0,0,0-.12-.07l-.14,0-.13,0a.63.63,0,0,0-.13.11.38.38,0,0,0-.09.15.39.39,0,0,0,0,.18.47.47,0,0,0,0,.17.36.36,0,0,0,.07.1.29.29,0,0,0,.12.07.35.35,0,0,0,.14,0l.12,0a.45.45,0,0,0,.14-.1A.78.78,0,0,0,12.86,12.31Z"/><path class="cls-1" d="M12.66,13.73a.67.67,0,0,1-.12.2.52.52,0,0,1-.17.13.71.71,0,0,1-.2,0,.66.66,0,0,1-.39-.14.57.57,0,0,1-.11-.16.52.52,0,0,1,0-.21.66.66,0,0,1,0-.23.59.59,0,0,1,.28-.31.46.46,0,0,1,.2-.05.41.41,0,0,1,.22,0,.86.86,0,0,1,.19.11.54.54,0,0,1,.15.37A.63.63,0,0,1,12.66,13.73Zm-.16-.05a.39.39,0,0,0,0-.18.29.29,0,0,0,0-.16.23.23,0,0,0-.08-.11.36.36,0,0,0-.12-.08.36.36,0,0,0-.14,0,.5.5,0,0,0-.13,0,.57.57,0,0,0-.13.1.51.51,0,0,0-.09.16.39.39,0,0,0,0,.18.47.47,0,0,0,0,.17.36.36,0,0,0,.07.1l.12.07a.23.23,0,0,0,.14,0l.12,0a.71.71,0,0,0,.14-.1A.51.51,0,0,0,12.5,13.68Z"/><path class="cls-1" d="M14,14.23a.45.45,0,0,1-.12.2.52.52,0,0,1-.17.13.45.45,0,0,1-.2,0,.49.49,0,0,1-.2,0,.54.54,0,0,1-.18-.11A.36.36,0,0,1,13,14.3a.5.5,0,0,1,0-.21.87.87,0,0,1,0-.22,1,1,0,0,1,.11-.2.66.66,0,0,1,.17-.12.42.42,0,0,1,.2-.05.58.58,0,0,1,.22,0,.57.57,0,0,1,.18.12.61.61,0,0,1,.12.16.64.64,0,0,1,0,.2A.44.44,0,0,1,14,14.23Zm-.15,0a.65.65,0,0,0,0-.19.41.41,0,0,0,0-.16.26.26,0,0,0-.07-.11.24.24,0,0,0-.12-.07l-.15,0-.12,0a.31.31,0,0,0-.13.1.78.78,0,0,0-.1.15,1.16,1.16,0,0,0,0,.18.33.33,0,0,0,0,.17.23.23,0,0,0,.07.1.26.26,0,0,0,.11.07l.14,0a.28.28,0,0,0,.13,0,.45.45,0,0,0,.14-.1A.54.54,0,0,0,13.86,14.19Z"/><path class="cls-1" d="M16,9.14l-.15-.06.07-.17c0-.09.1-.23.16-.4l.05-.12a.6.6,0,0,0,.05-.14h0l-.15,0-.21.05,0-.11.3-.08.19-.05.08.12-.12.28-.07.18c0,.07-.07.16-.11.27Z"/><path class="cls-1" d="M15.72,10.74l-.15-.05.07-.17.16-.4,0-.13.05-.13h0l-.15,0-.22,0,0-.1.31-.09L16,9.69l.07.12c0,.09-.07.19-.11.29a1.5,1.5,0,0,0-.07.17l-.11.28A1.85,1.85,0,0,0,15.72,10.74Z"/><path class="cls-1" d="M14.44,15l-.15-.06.07-.17c0-.09.1-.23.16-.4l.05-.13a.55.55,0,0,0,0-.13h0l-.15,0-.21.05,0-.11.3-.08.19-.05.08.11-.12.29-.07.18c0,.07-.07.16-.11.27Z"/><path class="cls-1" d="M11.05,13.72l-.15-.05.08-.18.16-.39a.55.55,0,0,1,0-.13c0-.06,0-.1.05-.14h0l-.15,0-.21.05,0-.11.31-.08.18-.05.08.12-.12.28-.07.18c0,.07-.06.17-.1.28S11.06,13.7,11.05,13.72Z"/><path class="cls-1" d="M13.6,13.16l-.15-.05s0-.08.08-.18l.16-.39a.55.55,0,0,1,.05-.13c0-.06,0-.1,0-.14h0l-.15,0-.21,0,0-.11.31-.08.18-.05.08.12-.12.28-.07.18c0,.07-.06.17-.11.28Z"/><path class="cls-1" d="M12.32,11l-.15-.05a1.08,1.08,0,0,0,.07-.18c0-.09.1-.22.16-.39s0-.08.06-.13a1.09,1.09,0,0,1,0-.14h0l-.15,0-.21,0,0-.11.3-.08.19-.05.08.12-.12.28-.07.18c0,.07-.06.17-.11.27Z"/><path class="cls-1" d="M14.18,11.68l-.14,0,.07-.18.16-.39.05-.13,0-.13h0l-.15,0-.22,0,0-.11.31-.08.18,0,.08.12a2.49,2.49,0,0,0-.11.29,1,1,0,0,0-.07.17l-.11.28A1.72,1.72,0,0,1,14.18,11.68Z"/><path class="cls-1" d="M16.63,1.48a.57.57,0,0,1-.13.21.94.94,0,0,1-.18.12.52.52,0,0,1-.21,0,.85.85,0,0,1-.22,0,.57.57,0,0,1-.18-.12.45.45,0,0,1-.11-.17.57.57,0,0,1,0-.22.71.71,0,0,1,.06-.24.64.64,0,0,1,.13-.19.43.43,0,0,1,.17-.13.65.65,0,0,1,.21-.05.64.64,0,0,1,.23.05.62.62,0,0,1,.19.12.49.49,0,0,1,.11.18.39.39,0,0,1,0,.21A.53.53,0,0,1,16.63,1.48Zm-.16-.05a.49.49,0,0,0,.05-.19.36.36,0,0,0,0-.18A.41.41,0,0,0,16.43,1,.35.35,0,0,0,16.3.87a.21.21,0,0,0-.15,0,.28.28,0,0,0-.13,0,.33.33,0,0,0-.14.1.54.54,0,0,0-.1.16.41.41,0,0,0,0,.18.36.36,0,0,0,0,.18.26.26,0,0,0,.07.11.36.36,0,0,0,.12.08.35.35,0,0,0,.14,0,.28.28,0,0,0,.13,0,.36.36,0,0,0,.15-.1A.4.4,0,0,0,16.47,1.43Z"/><path class="cls-1" d="M15.88,2.78a.72.72,0,0,1-.14.2.36.36,0,0,1-.18.12.57.57,0,0,1-.42,0A.57.57,0,0,1,15,3a.52.52,0,0,1-.12-.17.53.53,0,0,1,0-.22.64.64,0,0,1,0-.23,1,1,0,0,1,.13-.2A.66.66,0,0,1,15.16,2,.54.54,0,0,1,15.37,2a.59.59,0,0,1,.23,0,.7.7,0,0,1,.19.13.45.45,0,0,1,.11.17.52.52,0,0,1,0,.21A1.05,1.05,0,0,1,15.88,2.78Zm-.16-.06a.67.67,0,0,0,0-.19.47.47,0,0,0,0-.17.29.29,0,0,0-.07-.12.36.36,0,0,0-.12-.08l-.15,0a.28.28,0,0,0-.13,0,.45.45,0,0,0-.14.1.57.57,0,0,0-.11.16.67.67,0,0,0,0,.19.57.57,0,0,0,0,.18l.07.11.12.07.14,0,.14,0a.45.45,0,0,0,.14-.1A.57.57,0,0,0,15.72,2.72Z"/><path class="cls-1" d="M17.7,3.52a.74.74,0,0,1-.13.21.76.76,0,0,1-.19.12.46.46,0,0,1-.21,0,.52.52,0,0,1-.21,0,.57.57,0,0,1-.18-.12.66.66,0,0,1-.12-.17.83.83,0,0,1,0-.22.53.53,0,0,1,.06-.24.62.62,0,0,1,.12-.19A.59.59,0,0,1,17,2.78a.46.46,0,0,1,.21,0,.49.49,0,0,1,.23,0,.46.46,0,0,1,.18.13.48.48,0,0,1,.12.17.76.76,0,0,1,0,.21A.53.53,0,0,1,17.7,3.52Zm-.16,0a.77.77,0,0,0,.05-.19.52.52,0,0,0,0-.18A.28.28,0,0,0,17.49,3a.25.25,0,0,0-.12-.08.29.29,0,0,0-.15,0,.28.28,0,0,0-.13,0A.33.33,0,0,0,17,3a.57.57,0,0,0-.11.16,1.05,1.05,0,0,0-.05.19.47.47,0,0,0,0,.17.28.28,0,0,0,.08.11l.11.08a.4.4,0,0,0,.15,0,.31.31,0,0,0,.13,0,.33.33,0,0,0,.14-.1A.42.42,0,0,0,17.54,3.47Z"/><path class="cls-1" d="M16.28,4.55a.69.69,0,0,1-.13.2.44.44,0,0,1-.19.12.46.46,0,0,1-.21,0,.52.52,0,0,1-.21,0,.57.57,0,0,1-.18-.12.39.39,0,0,1-.11-.17.54.54,0,0,1,0-.22.49.49,0,0,1,.06-.23.56.56,0,0,1,.12-.2.57.57,0,0,1,.18-.12.46.46,0,0,1,.21-.05.66.66,0,0,1,.23,0,.8.8,0,0,1,.19.13.62.62,0,0,1,.11.17.76.76,0,0,1,0,.21A.57.57,0,0,1,16.28,4.55Zm-.16-.06a.67.67,0,0,0,.05-.19.47.47,0,0,0,0-.17A.25.25,0,0,0,16.07,4,.36.36,0,0,0,16,3.93a.44.44,0,0,0-.15,0,.28.28,0,0,0-.13,0,.45.45,0,0,0-.14.1.57.57,0,0,0-.11.16.65.65,0,0,0,0,.19.37.37,0,0,0,0,.18.38.38,0,0,0,.08.11.41.41,0,0,0,.11.07l.15,0,.13,0,.15-.1A.86.86,0,0,0,16.12,4.49Z"/><path class="cls-1" d="M15.12,4.07a.58.58,0,0,1-.13.2.59.59,0,0,1-.19.13.52.52,0,0,1-.21,0,.54.54,0,0,1-.21-.05.54.54,0,0,1-.18-.11.57.57,0,0,1-.12-.18.71.71,0,0,1,0-.21.69.69,0,0,1,0-.24.7.7,0,0,1,.13-.19.46.46,0,0,1,.18-.13.65.65,0,0,1,.21-.05.59.59,0,0,1,.22.05.52.52,0,0,1,.19.12.44.44,0,0,1,.12.18.71.71,0,0,1,0,.21A1.12,1.12,0,0,1,15.12,4.07ZM15,4a.59.59,0,0,0,0-.19.88.88,0,0,0,0-.17.44.44,0,0,0-.08-.11.2.2,0,0,0-.12-.08.22.22,0,0,0-.15,0,.28.28,0,0,0-.13,0,.33.33,0,0,0-.14.1.53.53,0,0,0-.11.15,1.8,1.8,0,0,0,0,.19.57.57,0,0,0,0,.18.28.28,0,0,0,.08.11l.11.08.14,0a.32.32,0,0,0,.14,0,.33.33,0,0,0,.14-.1A.38.38,0,0,0,15,4Z"/><path class="cls-1" d="M18.27,5.36a.58.58,0,0,1-.13.2.59.59,0,0,1-.19.13.46.46,0,0,1-.21,0,.54.54,0,0,1-.21-.05.42.42,0,0,1-.18-.11.66.66,0,0,1-.12-.17.83.83,0,0,1,0-.22.53.53,0,0,1,.06-.24.52.52,0,0,1,.12-.19.46.46,0,0,1,.18-.13.65.65,0,0,1,.21,0,.68.68,0,0,1,.23,0,.76.76,0,0,1,.19.12.67.67,0,0,1,.11.18.76.76,0,0,1,0,.21A.53.53,0,0,1,18.27,5.36Zm-.16-.05a.77.77,0,0,0,.05-.19.52.52,0,0,0,0-.18.28.28,0,0,0-.08-.11.25.25,0,0,0-.12-.08.21.21,0,0,0-.15,0,.28.28,0,0,0-.13,0,.33.33,0,0,0-.14.1.46.46,0,0,0-.11.16,1.21,1.21,0,0,0-.05.18.57.57,0,0,0,0,.18.44.44,0,0,0,.08.11l.11.08a.4.4,0,0,0,.15,0,.31.31,0,0,0,.13,0,.44.44,0,0,0,.15-.1A.56.56,0,0,0,18.11,5.31Z"/><path class="cls-1" d="M19.52,4.27a.46.46,0,0,1-.13.2.59.59,0,0,1-.19.13.45.45,0,0,1-.2,0,.59.59,0,0,1-.22,0,.54.54,0,0,1-.18-.11.42.42,0,0,1-.11-.18.54.54,0,0,1,0-.22.71.71,0,0,1,.06-.23.53.53,0,0,1,.13-.19.43.43,0,0,1,.17-.13.46.46,0,0,1,.21,0,.64.64,0,0,1,.23,0,.62.62,0,0,1,.19.12.42.42,0,0,1,.11.18.47.47,0,0,1,0,.21A.53.53,0,0,1,19.52,4.27Zm-.16-.06A.41.41,0,0,0,19.41,4a.32.32,0,0,0,0-.17.41.41,0,0,0-.07-.11.38.38,0,0,0-.13-.09.26.26,0,0,0-.15,0l-.13,0a.67.67,0,0,0-.14.11.57.57,0,0,0-.15.34.38.38,0,0,0,0,.18.26.26,0,0,0,.07.11.36.36,0,0,0,.12.08.32.32,0,0,0,.14,0,.28.28,0,0,0,.13,0,.36.36,0,0,0,.15-.1A.37.37,0,0,0,19.36,4.21Z"/><path class="cls-1" d="M20.45,3a.77.77,0,0,1-.14.21.44.44,0,0,1-.18.12.57.57,0,0,1-.42,0,.57.57,0,0,1-.18-.12.48.48,0,0,1-.12-.17.53.53,0,0,1,0-.22.59.59,0,0,1,.05-.23.77.77,0,0,1,.13-.2.7.7,0,0,1,.17-.13.52.52,0,0,1,.21,0,.59.59,0,0,1,.23,0,.43.43,0,0,1,.19.13.45.45,0,0,1,.11.17.52.52,0,0,1,0,.21A1,1,0,0,1,20.45,3Zm-.16,0a.77.77,0,0,0,.05-.19.47.47,0,0,0,0-.17.24.24,0,0,0-.07-.12.36.36,0,0,0-.12-.08L20,2.4a.25.25,0,0,0-.13,0,.33.33,0,0,0-.14.1.57.57,0,0,0-.11.16.67.67,0,0,0-.05.19.47.47,0,0,0,0,.17.41.41,0,0,0,.07.11.32.32,0,0,0,.12.08l.14,0a.35.35,0,0,0,.14,0,.42.42,0,0,0,.14-.09A.57.57,0,0,0,20.29,3Z"/><path class="cls-1" d="M19.29,2.57a.6.6,0,0,1-.14.2A.46.46,0,0,1,19,2.9a.78.78,0,0,1-.21,0,.54.54,0,0,1-.21,0,.57.57,0,0,1-.18-.12.41.41,0,0,1-.12-.17.53.53,0,0,1,0-.22.68.68,0,0,1,.05-.23A1,1,0,0,1,18.4,2a.66.66,0,0,1,.17-.12.54.54,0,0,1,.21-.05.59.59,0,0,1,.23.05A.52.52,0,0,1,19.2,2a.42.42,0,0,1,.11.18.46.46,0,0,1,0,.21A1.12,1.12,0,0,1,19.29,2.57Zm-.16-.06a1.05,1.05,0,0,0,.05-.19.47.47,0,0,0,0-.17A.37.37,0,0,0,19.08,2,.36.36,0,0,0,19,2l-.15,0-.14,0a.57.57,0,0,0-.13.1.76.76,0,0,0-.11.16.77.77,0,0,0-.05.19.57.57,0,0,0,0,.18.41.41,0,0,0,.07.11.5.5,0,0,0,.12.08.36.36,0,0,0,.14,0,.34.34,0,0,0,.14,0,.45.45,0,0,0,.14-.1A.46.46,0,0,0,19.13,2.51Z"/><path class="cls-1" d="M17,2.25l-.15-.06A.86.86,0,0,1,16.92,2c0-.1.1-.24.18-.41a.69.69,0,0,1,.06-.13l.05-.14h0l-.16,0-.22,0,0-.12.32-.07.2-.05.07.13c0,.09-.08.19-.13.29s-.07.16-.08.18-.07.18-.12.29S17,2.23,17,2.25Z"/><path class="cls-1" d="M16.23,3.54l-.15-.06s0-.08.08-.18l.18-.41.06-.13c0-.06,0-.1.05-.14h0l-.16,0-.22,0,0-.11.33-.08.19,0,.08.12-.14.3-.07.17-.13.29C16.27,3.45,16.24,3.52,16.23,3.54Z"/><path class="cls-1" d="M16.63,5.31l-.15-.06.08-.18a4.31,4.31,0,0,0,.18-.4,1,1,0,0,0,.06-.14.53.53,0,0,1,.06-.13h0l-.15,0-.23,0,0-.11.33-.08.19,0,.08.12-.13.3c-.05.1-.07.16-.08.18a2,2,0,0,0-.12.28Z"/><path class="cls-1" d="M15.38,6.4l-.15-.06s0-.08.08-.18l.18-.41.06-.13c0-.06,0-.1,0-.14h0l-.16,0-.22,0,0-.11.32-.08.2,0,.07.12c0,.1-.08.2-.13.3l-.08.18-.12.28C15.41,6.31,15.39,6.38,15.38,6.4Z"/><path class="cls-1" d="M16,6.67l-.15-.06s0-.08.08-.18l.18-.4.06-.14a.53.53,0,0,1,.06-.13h0l-.16,0-.22,0,0-.11.33-.08.19,0,.08.12-.14.3a1.32,1.32,0,0,0-.07.18l-.13.28A1.45,1.45,0,0,1,16,6.67Z"/><path class="cls-1" d="M18.05,4.29l-.15-.06L18,4.05l.18-.41,0-.13a1.14,1.14,0,0,0,.06-.14h0l-.16,0-.23,0V3.33l.32-.08.2,0,.07.13c0,.09-.08.19-.13.29s-.07.16-.08.18-.07.18-.12.29Z"/><path class="cls-1" d="M17.82,2.59l-.16-.06.09-.18c0-.1.1-.24.18-.41L18,1.81A1.14,1.14,0,0,0,18,1.67h0l-.16,0-.23,0V1.62L18,1.55l.2-.05.07.13c0,.09-.08.19-.13.29L18,2.1c0,.08-.07.18-.12.29A1,1,0,0,0,17.82,2.59Z"/><path class="cls-2" d="M14.55,15.37a.24.24,0,0,1-.16-.07.25.25,0,0,1-.05-.27,14.63,14.63,0,0,0,1.11-3,8.09,8.09,0,0,0,.3-3.77A16.19,16.19,0,0,0,14.7,6a4.74,4.74,0,0,1-.85-2.64,3,3,0,0,1,.66-1.54l0,0C15.54.46,15.91.23,16,.19l.09,0a.26.26,0,0,1,.19.1.23.23,0,0,1,0,.29S14.4,2.72,14.9,4.43a15.84,15.84,0,0,0,.66,1.45l.53,1a10.38,10.38,0,0,1,1.16,3.45,7,7,0,0,1-1.13,4.27.22.22,0,0,1-.1.09l-1.37.67A.17.17,0,0,1,14.55,15.37Z"/><path class="cls-3" d="M14.55,15.39a.24.24,0,0,1-.18-.07.26.26,0,0,1,0-.3,14.72,14.72,0,0,0,1.1-3,7.93,7.93,0,0,0,.3-3.76,16,16,0,0,0-1-2.29,4.66,4.66,0,0,1-.86-2.65,3,3,0,0,1,.67-1.56l0,0C15.52.44,15.89.21,16,.17a.26.26,0,0,1,.31.08.27.27,0,0,1,0,.33s-1.85,2.15-1.36,3.84a14.71,14.71,0,0,0,.66,1.45l.53,1a10.29,10.29,0,0,1,1.17,3.46,6.92,6.92,0,0,1-1.14,4.28.32.32,0,0,1-.1.1l-1.38.68ZM16.09.2,16,.22c-.09,0-.46.26-1.46,1.54l0,0a3.06,3.06,0,0,0-.66,1.53A3.09,3.09,0,0,0,14.2,5a6.59,6.59,0,0,0,.52,1,15.44,15.44,0,0,1,1,2.3,8,8,0,0,1-.3,3.79,14.6,14.6,0,0,1-1.1,3,.21.21,0,0,0,0,.24.22.22,0,0,0,.24,0L16,14.64a.22.22,0,0,0,.09-.07,7,7,0,0,0,1.13-4.26,10.28,10.28,0,0,0-1.16-3.43l-.54-1c-.22-.41-.57-1.21-.66-1.45-.5-1.73,1.35-3.88,1.37-3.9a.21.21,0,0,0,0-.26A.23.23,0,0,0,16.09.2Z"/><path class="cls-4" d="M16.54,6.86a.12.12,0,0,1-.1-.05.12.12,0,0,1,0-.16,11.78,11.78,0,0,0,4-4.45.12.12,0,0,1,.11-.07h0a.11.11,0,0,1,.09.11V2.6a.06.06,0,0,1,0,0c-1,2.44-4,4.19-4,4.21Z"/><path class="cls-5" d="M16.54,6.86a.12.12,0,0,1-.1-.05.12.12,0,0,1,0-.16,11.78,11.78,0,0,0,4-4.45.12.12,0,0,1,.11-.07h0a.11.11,0,0,1,.09.11V2.6a.06.06,0,0,1,0,0c-1,2.44-4,4.19-4,4.21Z"/><path class="cls-6" d="M16.06.19c-.08,0,.36,0-.51.76s-2,3.27-.6,5a4.75,4.75,0,0,1,.92,3.81s.35-1.43-1.31-4a3.19,3.19,0,0,1,.18-4.23A4.83,4.83,0,0,1,16.06.19Z"/><path class="cls-7" d="M16.06.22s.44,0-.42.78-1.94,3.26-.58,4.94a4.61,4.61,0,0,1,.74,3.85s.55-1.16-1.2-4,.14-4.25.14-4.25A4.63,4.63,0,0,1,16.06.22Z"/><path class="cls-8" d="M10.76,13.81a.12.12,0,0,1-.12-.11C10.56,9.67,15,7.59,15,7.57h.05a.13.13,0,0,1,.1.06.12.12,0,0,1,0,.16c-4.16,2.53-4.24,5.88-4.24,5.92a.13.13,0,0,1-.12.11Z"/><path class="cls-5" d="M10.76,13.81a.12.12,0,0,1-.12-.11C10.56,9.67,15,7.59,15,7.57h.05a.13.13,0,0,1,.1.06.12.12,0,0,1,0,.16c-4.16,2.53-4.24,5.88-4.24,5.92a.13.13,0,0,1-.12.11Z"/><rect class="cls-9" x="7.67" y="7.66" width="0.57" height="9.14" rx="0.29" transform="translate(-4.27 20.19) rotate(-90)"/><rect class="cls-10" x="1.47" y="11.01" width="0.57" height="2.44" rx="0.29" transform="translate(-10.47 13.99) rotate(-90)"/><rect class="cls-11" x="12.05" y="-3.5" width="0.56" height="10.4" rx="0.28" transform="translate(10.63 14.03) rotate(-90)"/><rect class="cls-12" x="5.94" y="1.19" width="0.56" height="1.02" rx="0.28" transform="translate(4.52 7.92) rotate(-90)"/><rect class="cls-13" x="6.87" y="7.62" width="0.74" height="6.04" rx="0.37" transform="translate(-3.4 17.87) rotate(-90)"/><rect class="cls-14" x="9.94" y="2.04" width="0.49" height="9.92" rx="0.22" transform="translate(3.18 17.18) rotate(-90)"/><rect class="cls-15" x="8.52" y="-0.36" width="0.52" height="11.68" rx="0.26" transform="translate(3.3 14.26) rotate(-90)"/><rect class="cls-16" x="12.87" y="0.34" width="0.56" height="6.48" rx="0.28" transform="translate(9.57 16.74) rotate(-90)"/><rect class="cls-17" x="8.72" y="3.13" width="0.56" height="0.91" rx="0.28" transform="translate(5.42 12.59) rotate(-90)"/><rect class="cls-18" x="7.82" y="4.25" width="0.64" height="9.12" rx="0.32" transform="translate(-0.67 16.95) rotate(-90)"/><rect class="cls-19" x="2.18" y="8.04" width="0.64" height="1.53" rx="0.32" transform="translate(-6.31 11.31) rotate(-90)"/><path class="cls-20" d="M14.5,15.28s3.47-2,1.89-7.81a7.1,7.1,0,0,1-.22,7.07A4.17,4.17,0,0,1,14.5,15.28Z"/><path class="cls-21" d="M14.86,14.46c1.32-1.69,2.64-3.86.82-8.22,0,0,2.86,4.36.17,8.3C15.85,14.54,13.55,16.15,14.86,14.46Z"/><rect class="cls-22" x="6.12" y="1.43" width="0.23" height="0.74" rx="0.11" transform="translate(4.44 8.04) rotate(-90)"/><rect class="cls-23" x="6.08" y="1.63" width="0.12" height="0.46" rx="0.06" transform="translate(4.28 8) rotate(-90)"/><rect class="cls-22" x="2.19" y="8.58" width="0.23" height="0.74" rx="0.11" transform="translate(-6.64 11.26) rotate(-90)"/><rect class="cls-23" x="2.15" y="8.78" width="0.12" height="0.46" rx="0.06" transform="translate(-6.8 11.22) rotate(-90)"/><rect class="cls-22" x="1.21" y="11.67" width="0.23" height="1.25" rx="0.12" transform="translate(-10.97 13.63) rotate(-90)"/><rect class="cls-23" x="0.91" y="12.13" width="0.12" height="0.46" rx="0.06" transform="translate(-11.39 13.33) rotate(-90)"/><rect class="cls-22" x="8.89" y="3.34" width="0.23" height="0.66" rx="0.11" transform="translate(5.34 12.67) rotate(-90)"/><rect class="cls-23" x="8.86" y="3.52" width="0.12" height="0.41" rx="0.05" transform="translate(5.2 12.64) rotate(-90)"/><rect class="cls-22" x="12.47" y="1.13" width="0.23" height="5.03" rx="0.12" transform="translate(8.94 16.22) rotate(-90)"/><rect class="cls-23" x="10.63" y="3.16" width="0.12" height="1.07" rx="0.06" transform="translate(6.99 14.38) rotate(-90)"/><rect class="cls-22" x="5.52" y="3.03" width="0.23" height="5.03" rx="0.12" transform="translate(0.1 11.18) rotate(-90)"/><rect class="cls-23" x="3.69" y="5.05" width="0.12" height="1.07" rx="0.06" transform="translate(-1.84 9.33) rotate(-90)"/><rect class="cls-22" x="9.69" y="-0.71" width="0.23" height="5.03" rx="0.12" transform="translate(8.01 11.61) rotate(-90)"/><rect class="cls-23" x="7.86" y="1.31" width="0.12" height="1.07" rx="0.06" transform="translate(6.07 9.76) rotate(-90)"/><rect class="cls-22" x="7.71" y="4.55" width="0.23" height="5.03" rx="0.12" transform="translate(0.76 14.89) rotate(-90)"/><rect class="cls-23" x="5.88" y="6.59" width="0.12" height="1.07" rx="0.06" transform="translate(-1.18 13.06) rotate(-90)"/><rect class="cls-22" x="6.94" y="5.67" width="0.23" height="6.57" rx="0.12" transform="translate(-1.9 16.01) rotate(-90)"/><rect class="cls-23" x="4.33" y="8.46" width="0.12" height="1.07" rx="0.06" transform="translate(-4.6 13.39) rotate(-90)"/><rect class="cls-22" x="5.73" y="9.5" width="0.23" height="2.68" rx="0.12" transform="translate(-4.99 16.69) rotate(-90)"/><rect class="cls-23" x="5.06" y="10.36" width="0.12" height="1.07" rx="0.06" transform="translate(-5.77 16.02) rotate(-90)"/><rect class="cls-22" x="5.98" y="9.8" width="0.23" height="5.03" rx="0.12" transform="translate(-6.22 18.41) rotate(-90)"/><rect class="cls-23" x="4.16" y="11.82" width="0.12" height="1.07" rx="0.06" transform="translate(-8.14 16.58) rotate(-90)"/></svg>