<svg width="16" height="16" viewBox="0 0 16 16" fill="none" xmlns="http://www.w3.org/2000/svg">
<g clip-path="url(#clip0)">
<path d="M11.7797 0.89093H11.7516C9.68829 0.89093 8.53469 2.40093 8.0001 3.42321C7.4561 2.4009 6.31191 0.89093 4.24857 0.89093H4.2111C1.97888 0.909711 0.118506 2.81359 0.0059748 5.22396C-0.134744 8.17827 2.22276 10.1666 5.74916 13.1678C6.35882 13.6931 7.00597 14.2464 7.6906 14.8373L8.00013 15.1093L8.30966 14.8373C8.98491 14.2464 9.64144 13.6931 10.2511 13.1678C13.7775 10.1666 16.1348 8.17827 15.9941 5.22396C15.8814 2.81356 14.0119 0.90968 11.7797 0.89093Z" fill="#FBAD03" fill-opacity="0.8"/>
<path d="M15.9939 5.22396C16.1347 8.17827 13.7774 10.1666 10.251 13.1678C9.64131 13.6931 8.98478 14.2464 8.30953 14.8373L8 15.1093V3.42321C8.53459 2.4009 9.68819 0.89093 11.7515 0.89093H11.7796C14.0118 0.90968 15.8814 2.81356 15.9939 5.22396Z" fill="#FFAE00"/>
</g>
<defs>
<clipPath id="clip0">
<rect width="16" height="16" fill="white"/>
</clipPath>
</defs>
</svg>
