<svg id="Layer_1" data-name="Layer 1" xmlns="http://www.w3.org/2000/svg" xmlns:xlink="http://www.w3.org/1999/xlink" viewBox="0 0 142.19 47.65"><defs><style>.cls-1{fill:#cfc8d7;}.cls-2{fill:url(#linear-gradient);}.cls-3{fill:#28285b;}.cls-4{fill:url(#linear-gradient-2);}.cls-5{fill:none;stroke-width:0.1px;}.cls-10,.cls-11,.cls-12,.cls-13,.cls-14,.cls-15,.cls-16,.cls-17,.cls-18,.cls-19,.cls-5,.cls-9{stroke:#28285b;stroke-miterlimit:10;}.cls-20,.cls-6{fill:#1d1d1b;}.cls-6{opacity:0.09;}.cls-21,.cls-22,.cls-23,.cls-7{fill:#fff;}.cls-7{opacity:0.39;}.cls-8{fill:url(#linear-gradient-3);}.cls-10,.cls-13,.cls-15,.cls-16,.cls-17,.cls-18,.cls-19,.cls-9{stroke-width:0.16px;}.cls-9{fill:url(#linear-gradient-4);}.cls-10{fill:url(#linear-gradient-5);}.cls-11,.cls-12,.cls-14{stroke-width:0.24px;}.cls-11{fill:url(#linear-gradient-6);}.cls-12{fill:url(#linear-gradient-7);}.cls-13{fill:url(#linear-gradient-8);}.cls-14{fill:url(#linear-gradient-9);}.cls-15{fill:url(#linear-gradient-10);}.cls-16{fill:url(#linear-gradient-11);}.cls-17{fill:url(#linear-gradient-12);}.cls-18{fill:url(#linear-gradient-13);}.cls-19{fill:url(#linear-gradient-14);}.cls-20{opacity:0.16;}.cls-21{opacity:0.36;}.cls-22{opacity:0.26;}.cls-23{opacity:0.55;}.cls-24{fill:#d0c9d8;}</style><linearGradient id="linear-gradient" x1="36.17" y1="49.23" x2="50.75" y2="18.52" gradientUnits="userSpaceOnUse"><stop offset="0" stop-color="#d0c9d8"/><stop offset="0.87" stop-color="#d0c9d8"/><stop offset="0.99" stop-color="#d0c9d8"/></linearGradient><linearGradient id="linear-gradient-2" x1="36.33" y1="31.31" x2="58.91" y2="12.87" xlink:href="#linear-gradient"/><linearGradient id="linear-gradient-3" x1="52.21" y1="24.04" x2="39" y2="33.56" xlink:href="#linear-gradient"/><linearGradient id="linear-gradient-4" x1="13.39" y1="31.85" x2="36.04" y2="43.63" gradientTransform="translate(62.45 13.03) rotate(90)" gradientUnits="userSpaceOnUse"><stop offset="0" stop-color="#d0c9d8"/><stop offset="0.24" stop-color="#cdc6d7"/><stop offset="0.42" stop-color="#c5bdd2"/><stop offset="0.57" stop-color="#b7adca"/><stop offset="0.71" stop-color="#a397bf"/><stop offset="0.84" stop-color="#897bb1"/><stop offset="0.96" stop-color="#6a58a0"/><stop offset="0.99" stop-color="#63509c"/></linearGradient><linearGradient id="linear-gradient-5" x1="2.24" y1="36.13" x2="8.43" y2="39.35" gradientTransform="translate(43.08 32.4) rotate(90)" xlink:href="#linear-gradient-4"/><linearGradient id="linear-gradient-6" x1="11.4" y1="4.83" x2="49.22" y2="4.83" gradientTransform="translate(43.21 -33.54) rotate(90)" gradientUnits="userSpaceOnUse"><stop offset="0" stop-color="#d0c9d8"/><stop offset="0.22" stop-color="#cdc8d8"/><stop offset="0.37" stop-color="#c4c7d9"/><stop offset="0.51" stop-color="#b4c4da"/><stop offset="0.63" stop-color="#9ec0db"/><stop offset="0.75" stop-color="#82badd"/><stop offset="0.86" stop-color="#5fb4df"/><stop offset="0.96" stop-color="#36ace1"/><stop offset="0.99" stop-color="#2baae2"/></linearGradient><linearGradient id="linear-gradient-7" x1="17.93" y1="4.13" x2="20.63" y2="5.53" gradientTransform="translate(24.11 -14.44) rotate(90)" xlink:href="#linear-gradient-6"/><linearGradient id="linear-gradient-8" x1="14.92" y1="28.85" x2="30" y2="36.69" gradientTransform="translate(55.23 10.31) rotate(90)" gradientUnits="userSpaceOnUse"><stop offset="0" stop-color="#d0c9d8"/><stop offset="0.23" stop-color="#cfc9d5"/><stop offset="0.39" stop-color="#cac8cc"/><stop offset="0.53" stop-color="#c3c7bc"/><stop offset="0.66" stop-color="#b9c6a6"/><stop offset="0.78" stop-color="#acc48a"/><stop offset="0.89" stop-color="#9cc167"/><stop offset="0.99" stop-color="#8cbf44"/></linearGradient><linearGradient id="linear-gradient-9" x1="14.9" y1="21.24" x2="42.53" y2="21.52" gradientTransform="translate(53.06 -10.25) rotate(90)" xlink:href="#linear-gradient-6"/><linearGradient id="linear-gradient-10" x1="9.02" y1="16.65" x2="45.54" y2="16.65" gradientTransform="translate(43.93 -10.63) rotate(90)" xlink:href="#linear-gradient-4"/><linearGradient id="linear-gradient-11" x1="30.82" y1="10.72" x2="51.07" y2="10.72" gradientTransform="translate(51.67 -30.23) rotate(90)" xlink:href="#linear-gradient-8"/><linearGradient id="linear-gradient-12" x1="26.56" y1="10.72" x2="29.4" y2="10.72" gradientTransform="translate(38.7 -17.26) rotate(90)" xlink:href="#linear-gradient-8"/><linearGradient id="linear-gradient-13" x1="11.04" y1="27.05" x2="39.53" y2="27.05" gradientTransform="translate(52.33 1.77) rotate(90)" gradientUnits="userSpaceOnUse"><stop offset="0" stop-color="#d0c9d8"/><stop offset="0.22" stop-color="#d1cad5"/><stop offset="0.37" stop-color="#d3cbcc"/><stop offset="0.51" stop-color="#d7cebc"/><stop offset="0.63" stop-color="#dcd2a6"/><stop offset="0.74" stop-color="#e3d88a"/><stop offset="0.85" stop-color="#ebde67"/><stop offset="0.96" stop-color="#f5e63e"/><stop offset="0.99" stop-color="#f8e831"/></linearGradient><linearGradient id="linear-gradient-14" x1="5.25" y1="27.05" x2="10.04" y2="27.05" gradientTransform="translate(34.7 19.4) rotate(90)" xlink:href="#linear-gradient-13"/></defs><path class="cls-1" d="M48.41,25.76a2,2,0,0,1-.39.62,1.48,1.48,0,0,1-.53.39,1.69,1.69,0,0,1-.62.14,1.65,1.65,0,0,1-.65-.11,1.55,1.55,0,0,1-.55-.34,1.36,1.36,0,0,1-.36-.5,1.57,1.57,0,0,1-.13-.65,2,2,0,0,1,.15-.7,1.78,1.78,0,0,1,.36-.6,1.58,1.58,0,0,1,.5-.39,1.47,1.47,0,0,1,.63-.16,1.6,1.6,0,0,1,.68.11,1.65,1.65,0,0,1,.59.35,1.6,1.6,0,0,1,.35.51,1.5,1.5,0,0,1,.11.63A2.07,2.07,0,0,1,48.41,25.76Zm-.49-.15A1.77,1.77,0,0,0,48,25a1.26,1.26,0,0,0-.08-.52,1,1,0,0,0-.23-.34,1.12,1.12,0,0,0-.84-.3,1.12,1.12,0,0,0-.38.1,1.21,1.21,0,0,0-.41.32,1.47,1.47,0,0,0-.29.48,1.68,1.68,0,0,0-.13.57,1.16,1.16,0,0,0,.11.52.87.87,0,0,0,.22.32,1,1,0,0,0,.36.22,1.12,1.12,0,0,0,.43.08,1.37,1.37,0,0,0,.4-.09,1.27,1.27,0,0,0,.42-.31A1.69,1.69,0,0,0,47.92,25.61Z" transform="translate(-1.44 0.02)"/><path class="cls-1" d="M43.94,29.4a1.85,1.85,0,0,1-.38.62,1.43,1.43,0,0,1-.54.39,1.6,1.6,0,0,1-.61.14,1.65,1.65,0,0,1-.65-.11,1.55,1.55,0,0,1-.55-.34,1.36,1.36,0,0,1-.36-.5,1.57,1.57,0,0,1-.13-.65,1.8,1.8,0,0,1,.15-.7,1.73,1.73,0,0,1,.86-1,1.42,1.42,0,0,1,.62-.16,1.67,1.67,0,0,1,.69.11,1.61,1.61,0,0,1,.58.35,1.33,1.33,0,0,1,.35.51,1.68,1.68,0,0,1,.12.63A1.88,1.88,0,0,1,43.94,29.4Zm-.48-.15a2.08,2.08,0,0,0,.12-.57,1.26,1.26,0,0,0-.08-.52,1,1,0,0,0-.23-.34,1.1,1.1,0,0,0-.38-.23,1.11,1.11,0,0,0-1.25.35,1.5,1.5,0,0,0-.3.48,2,2,0,0,0-.12.57,1.15,1.15,0,0,0,.1.52,1,1,0,0,0,.23.32,1,1,0,0,0,.36.22,1.09,1.09,0,0,0,.43.08,1.24,1.24,0,0,0,.39-.09,1.43,1.43,0,0,0,.43-.31A2,2,0,0,0,43.46,29.25Z" transform="translate(-1.44 0.02)"/><path class="cls-1" d="M47.65,30.77a2.23,2.23,0,0,1-.39.63,1.77,1.77,0,0,1-.53.39,1.92,1.92,0,0,1-.62.14,1.87,1.87,0,0,1-.65-.12,1.68,1.68,0,0,1-.55-.33,1.36,1.36,0,0,1-.36-.5,1.61,1.61,0,0,1-.13-.65,1.85,1.85,0,0,1,.15-.71,2,2,0,0,1,.35-.59,1.77,1.77,0,0,1,.51-.4,1.63,1.63,0,0,1,.63-.16,1.77,1.77,0,0,1,.68.11,1.83,1.83,0,0,1,.59.36,1.68,1.68,0,0,1,.35.5,1.57,1.57,0,0,1,.11.64A2,2,0,0,1,47.65,30.77Zm-.49-.15a1.66,1.66,0,0,0,.12-.57,1.19,1.19,0,0,0-.08-.51A.89.89,0,0,0,47,29.2a1,1,0,0,0-.38-.23,1,1,0,0,0-.84,0,1.17,1.17,0,0,0-.41.31,1.63,1.63,0,0,0-.29.49,1.68,1.68,0,0,0-.13.56,1.2,1.2,0,0,0,.11.53,1,1,0,0,0,.22.32,1.09,1.09,0,0,0,.36.22,1.11,1.11,0,0,0,.43.07.93.93,0,0,0,.4-.09,1.15,1.15,0,0,0,.42-.31A1.45,1.45,0,0,0,47.16,30.62Z" transform="translate(-1.44 0.02)"/><path class="cls-1" d="M42.85,33.7a2,2,0,0,1-.38.63,1.69,1.69,0,0,1-.54.39,1.81,1.81,0,0,1-.61.14,1.87,1.87,0,0,1-.65-.12,1.84,1.84,0,0,1-.56-.33,1.46,1.46,0,0,1-.35-.5,1.61,1.61,0,0,1-.13-.65,2,2,0,0,1,.14-.71,2.26,2.26,0,0,1,.36-.59,1.77,1.77,0,0,1,.51-.4,1.58,1.58,0,0,1,.62-.16,1.85,1.85,0,0,1,.69.11,1.63,1.63,0,0,1,.58.36,1.33,1.33,0,0,1,.35.51A1.68,1.68,0,0,1,43,33,1.79,1.79,0,0,1,42.85,33.7Zm-.48-.15a1.94,1.94,0,0,0,.12-.57,1.19,1.19,0,0,0-.08-.51.89.89,0,0,0-.23-.34,1,1,0,0,0-.38-.23,1,1,0,0,0-.46-.08,1.12,1.12,0,0,0-.38.11,1.09,1.09,0,0,0-.41.31,1.66,1.66,0,0,0-.3.49,1.94,1.94,0,0,0-.12.56,1.19,1.19,0,0,0,.1.53,1.18,1.18,0,0,0,.23.32,1.11,1.11,0,0,0,.79.29.86.86,0,0,0,.39-.09,1.27,1.27,0,0,0,.43-.31A1.63,1.63,0,0,0,42.37,33.55Z" transform="translate(-1.44 0.02)"/><path class="cls-1" d="M48.67,35.86a2,2,0,0,1-.38.63,1.69,1.69,0,0,1-.54.39,1.87,1.87,0,0,1-.62.14,1.81,1.81,0,0,1-.64-.12,1.73,1.73,0,0,1-.56-.33,1.46,1.46,0,0,1-.35-.5,1.61,1.61,0,0,1-.13-.65,2,2,0,0,1,.14-.71,1.83,1.83,0,0,1,.36-.59,1.77,1.77,0,0,1,.51-.4,1.53,1.53,0,0,1,.62-.16,1.85,1.85,0,0,1,.69.11,1.78,1.78,0,0,1,.58.36,1.33,1.33,0,0,1,.35.51,1.68,1.68,0,0,1,.12.63A1.79,1.79,0,0,1,48.67,35.86Zm-.49-.15a1.68,1.68,0,0,0,.13-.57,1.06,1.06,0,0,0-.09-.51.87.87,0,0,0-.22-.34,1,1,0,0,0-.38-.23,1.15,1.15,0,0,0-.46-.08,1.25,1.25,0,0,0-.39.11,1.14,1.14,0,0,0-.4.31,1.66,1.66,0,0,0-.3.49,1.45,1.45,0,0,0-.12.56,1.19,1.19,0,0,0,.1.53.9.9,0,0,0,.23.32,1,1,0,0,0,.36.22,1,1,0,0,0,.42.07.87.87,0,0,0,.4-.09,1.27,1.27,0,0,0,.43-.31A1.43,1.43,0,0,0,48.18,35.71Z" transform="translate(-1.44 0.02)"/><path class="cls-1" d="M47.38,40.68a2,2,0,0,1-.38.63,1.69,1.69,0,0,1-.54.39,1.87,1.87,0,0,1-.62.14,1.81,1.81,0,0,1-.64-.12,1.73,1.73,0,0,1-.56-.33,1.46,1.46,0,0,1-.35-.5,1.61,1.61,0,0,1-.13-.65,2,2,0,0,1,.14-.71,2,2,0,0,1,.36-.6,1.92,1.92,0,0,1,.51-.39,1.53,1.53,0,0,1,.62-.16,1.85,1.85,0,0,1,.69.11,1.78,1.78,0,0,1,.58.36,1.38,1.38,0,0,1,.35.5,1.77,1.77,0,0,1,.12.64A1.79,1.79,0,0,1,47.38,40.68Zm-.49-.15A1.68,1.68,0,0,0,47,40a1.06,1.06,0,0,0-.09-.51.87.87,0,0,0-.22-.34,1,1,0,0,0-.38-.23,1,1,0,0,0-.46-.08,1.25,1.25,0,0,0-.39.11,1.14,1.14,0,0,0-.4.31,1.66,1.66,0,0,0-.3.49,1.45,1.45,0,0,0-.12.56,1.07,1.07,0,0,0,.1.53,1,1,0,0,0,.23.32.92.92,0,0,0,.36.22,1,1,0,0,0,.42.07.87.87,0,0,0,.4-.09A1.27,1.27,0,0,0,46.6,41,1.43,1.43,0,0,0,46.89,40.53Z" transform="translate(-1.44 0.02)"/><path class="cls-1" d="M40.5,38.13a1.85,1.85,0,0,1-.38.62,1.63,1.63,0,0,1-1.15.53,1.65,1.65,0,0,1-.65-.11,1.68,1.68,0,0,1-.55-.33,1.45,1.45,0,0,1-.36-.5,1.65,1.65,0,0,1-.13-.66,1.8,1.8,0,0,1,.15-.7,2.06,2.06,0,0,1,.35-.6,1.92,1.92,0,0,1,.51-.39,1.42,1.42,0,0,1,.62-.16,1.67,1.67,0,0,1,.69.11,1.53,1.53,0,0,1,.58.35,1.49,1.49,0,0,1,.36.51,1.67,1.67,0,0,1,.11.63A1.88,1.88,0,0,1,40.5,38.13ZM40,38a2,2,0,0,0,.12-.57,1.26,1.26,0,0,0-.08-.52,1,1,0,0,0-.23-.34,1.28,1.28,0,0,0-.38-.23,1.1,1.1,0,0,0-.46-.07,1.12,1.12,0,0,0-.38.1,1.21,1.21,0,0,0-.41.32,1.61,1.61,0,0,0-.3.48,2.08,2.08,0,0,0-.12.57,1.22,1.22,0,0,0,.1.53,1.36,1.36,0,0,0,.23.32,1.28,1.28,0,0,0,.36.22,1.33,1.33,0,0,0,.43.07.86.86,0,0,0,.39-.09,1.18,1.18,0,0,0,.43-.31A1.78,1.78,0,0,0,40,38Z" transform="translate(-1.44 0.02)"/><path class="cls-1" d="M39.41,42.43a2,2,0,0,1-.38.63,1.69,1.69,0,0,1-.54.39,1.6,1.6,0,0,1-.61.14,1.85,1.85,0,0,1-.65-.11,1.55,1.55,0,0,1-.55-.34,1.36,1.36,0,0,1-.36-.5,1.57,1.57,0,0,1-.13-.65,1.85,1.85,0,0,1,.15-.71,2,2,0,0,1,.35-.59,1.57,1.57,0,0,1,1.13-.56,1.85,1.85,0,0,1,.69.11,1.78,1.78,0,0,1,.58.36,1.49,1.49,0,0,1,.36.51,1.9,1.9,0,0,1,.11.63A1.79,1.79,0,0,1,39.41,42.43Zm-.48-.15a1.94,1.94,0,0,0,.12-.57A1.19,1.19,0,0,0,39,41.2a1,1,0,0,0-.61-.57,1,1,0,0,0-.46-.07.93.93,0,0,0-.38.1,1.17,1.17,0,0,0-.41.31,1.66,1.66,0,0,0-.3.49,1.94,1.94,0,0,0-.12.56,1.19,1.19,0,0,0,.1.53,1,1,0,0,0,.23.32,1.09,1.09,0,0,0,.36.22,1.11,1.11,0,0,0,.43.07.86.86,0,0,0,.39-.09,1.28,1.28,0,0,0,.43-.3A1.84,1.84,0,0,0,38.93,42.28Z" transform="translate(-1.44 0.02)"/><path class="cls-1" d="M43.65,44a2,2,0,0,1-.39.62,1.52,1.52,0,0,1-.53.39,1.65,1.65,0,0,1-.62.14,1.68,1.68,0,0,1-.65-.11,1.64,1.64,0,0,1-.55-.34,1.36,1.36,0,0,1-.36-.5,1.75,1.75,0,0,1-.13-.65,2,2,0,0,1,.15-.7,1.78,1.78,0,0,1,.36-.6,1.45,1.45,0,0,1,.5-.39,1.47,1.47,0,0,1,.63-.16,1.59,1.59,0,0,1,.68.1,1.83,1.83,0,0,1,.59.36,1.46,1.46,0,0,1,.35.51,1.5,1.5,0,0,1,.11.63A2.07,2.07,0,0,1,43.65,44Zm-.49-.15a1.79,1.79,0,0,0,.13-.58,1.44,1.44,0,0,0-.09-.51,1,1,0,0,0-.23-.34,1.06,1.06,0,0,0-.37-.23,1,1,0,0,0-.47-.07,1.18,1.18,0,0,0-.38.1,1.21,1.21,0,0,0-.41.32,1.47,1.47,0,0,0-.29.48,1.68,1.68,0,0,0-.13.57,1.16,1.16,0,0,0,.11.52,1,1,0,0,0,.22.32,1,1,0,0,0,.36.22,1.12,1.12,0,0,0,.43.08,1.37,1.37,0,0,0,.4-.09,1.27,1.27,0,0,0,.42-.31A1.5,1.5,0,0,0,43.16,43.86Z" transform="translate(-1.44 0.02)"/><path class="cls-1" d="M49.72,28.08l-.46-.17c0-.06.11-.24.23-.54l.5-1.24c0-.09.09-.22.16-.4s.12-.31.15-.41h0l-.47.1-.67.14-.06-.33,1-.26.58-.15.24.36-.36.89c-.13.31-.2.49-.22.55-.09.23-.21.52-.34.86S49.75,28,49.72,28.08Z" transform="translate(-1.44 0.02)"/><path class="cls-1" d="M49,33.1l-.46-.17c0-.06.1-.24.23-.54l.5-1.24c0-.09.09-.23.15-.4l.16-.42h0l-.47.09-.67.14-.06-.33,1-.25.58-.16.24.37-.36.89-.22.54-.34.87C49.06,32.83,49,33,49,33.1Z" transform="translate(-1.44 0.02)"/><path class="cls-1" d="M45,46.33l-.46-.17c0-.06.11-.24.23-.54l.5-1.24c0-.09.09-.23.16-.4s.12-.32.15-.42h0l-.48.09-.67.15-.06-.33,1-.26.58-.16.24.37-.36.89-.22.54-.33.87C45.06,46.06,45,46.27,45,46.33Z" transform="translate(-1.44 0.02)"/><path class="cls-1" d="M34.38,42.4l-.46-.17c0-.06.1-.24.23-.54l.5-1.24c0-.09.09-.23.15-.4s.12-.32.16-.41h0l-.47.09-.67.15-.06-.33,1-.26.58-.16.24.37-.36.89-.22.54-.34.87Z" transform="translate(-1.44 0.02)"/><path class="cls-1" d="M42.35,40.65l-.46-.17c0-.06.1-.24.23-.54l.49-1.24.16-.4.16-.42h0l-.47.09-.67.15-.07-.33,1-.26.57-.16.25.37c-.12.29-.24.59-.37.89l-.21.54c-.1.24-.21.53-.34.87Z" transform="translate(-1.44 0.02)"/><path class="cls-1" d="M38.35,33.87l-.46-.17c0-.07.1-.25.23-.54l.5-1.24c0-.1.09-.23.15-.41l.16-.41h0l-.47.1-.67.14L37.72,31l1-.25.58-.16.24.37-.37.89-.21.54-.34.87C38.45,33.6,38.37,33.8,38.35,33.87Z" transform="translate(-1.44 0.02)"/><path class="cls-1" d="M44.17,36l-.46-.17c0-.07.1-.25.23-.54s.29-.71.49-1.24l.16-.41.16-.41h0l-.47.1-.67.14-.07-.33,1-.25.58-.16.24.37L45,34l-.21.54c-.1.24-.21.53-.34.87S44.19,36,44.17,36Z" transform="translate(-1.44 0.02)"/><path class="cls-1" d="M51.83,4.15a2.09,2.09,0,0,1-.42.64,1.65,1.65,0,0,1-.58.39,1.61,1.61,0,0,1-.65.13,2,2,0,0,1-.67-.14,1.87,1.87,0,0,1-.57-.37,1.73,1.73,0,0,1-.35-.54,1.71,1.71,0,0,1-.11-.68,2,2,0,0,1,.18-.73,1.88,1.88,0,0,1,.39-.61,1.81,1.81,0,0,1,.55-.4,1.51,1.51,0,0,1,.65-.14,1.68,1.68,0,0,1,.72.14,1.6,1.6,0,0,1,.59.39,1.44,1.44,0,0,1,.35.54,1.63,1.63,0,0,1,.1.66A2,2,0,0,1,51.83,4.15ZM51.33,4a2.23,2.23,0,0,0,.15-.59,1.34,1.34,0,0,0-.07-.54,1,1,0,0,0-.23-.36,1.16,1.16,0,0,0-.38-.26,1.1,1.1,0,0,0-.48-.09,1.36,1.36,0,0,0-.41.09,1.27,1.27,0,0,0-.43.32,1.67,1.67,0,0,0-.33.5,1.61,1.61,0,0,0-.15.58,1.35,1.35,0,0,0,.09.56,1,1,0,0,0,.22.34,1.2,1.2,0,0,0,.81.33,1.16,1.16,0,0,0,.42-.08A1.38,1.38,0,0,0,51,4.47,1.75,1.75,0,0,0,51.33,4Z" transform="translate(-1.44 0.02)"/><path class="cls-1" d="M49.46,8.2a2.22,2.22,0,0,1-.42.64,1.7,1.7,0,0,1-.58.39,1.78,1.78,0,0,1-.65.12,1.83,1.83,0,0,1-.67-.14,1.57,1.57,0,0,1-.56-.37,1.47,1.47,0,0,1-.36-.53,1.79,1.79,0,0,1-.11-.69,2,2,0,0,1,.18-.73,2,2,0,0,1,.39-.61,1.78,1.78,0,0,1,.55-.39,1.72,1.72,0,0,1,.65-.15,2,2,0,0,1,.72.14,1.9,1.9,0,0,1,.59.39,1.61,1.61,0,0,1,.35.54,1.71,1.71,0,0,1,.1.67A2,2,0,0,1,49.46,8.2ZM49,8a2.2,2.2,0,0,0,.15-.6A1.31,1.31,0,0,0,49,6.9a1,1,0,0,0-.23-.37,1.14,1.14,0,0,0-.38-.25A1.07,1.07,0,0,0,48,6.19a1.36,1.36,0,0,0-.41.09,1.23,1.23,0,0,0-.43.32,1.63,1.63,0,0,0-.33.49,1.66,1.66,0,0,0-.15.59,1.3,1.3,0,0,0,.09.55,1,1,0,0,0,.23.34,1.05,1.05,0,0,0,.36.25,1.2,1.2,0,0,0,.45.09,1.15,1.15,0,0,0,.41-.08,1.29,1.29,0,0,0,.46-.31A1.91,1.91,0,0,0,49,8Z" transform="translate(-1.44 0.02)"/><path class="cls-1" d="M55.16,10.54a2.17,2.17,0,0,1-.42.63,1.74,1.74,0,0,1-1.23.52,1.83,1.83,0,0,1-.67-.14,1.71,1.71,0,0,1-.56-.37,1.56,1.56,0,0,1-.36-.53,1.79,1.79,0,0,1-.11-.69A2,2,0,0,1,52,9.23a1.88,1.88,0,0,1,.39-.61,1.81,1.81,0,0,1,.55-.4,1.55,1.55,0,0,1,.65-.14,1.65,1.65,0,0,1,.72.14,1.52,1.52,0,0,1,.59.39,1.44,1.44,0,0,1,.35.54,1.63,1.63,0,0,1,.1.66A2.11,2.11,0,0,1,55.16,10.54Zm-.5-.18a2.23,2.23,0,0,0,.15-.59,1.34,1.34,0,0,0-.07-.54.86.86,0,0,0-.23-.36,1.16,1.16,0,0,0-.38-.26,1.07,1.07,0,0,0-.48-.09,1.12,1.12,0,0,0-.41.1,1.33,1.33,0,0,0-.43.31,1.67,1.67,0,0,0-.33.5,1.61,1.61,0,0,0-.15.58,1.32,1.32,0,0,0,.09.56,1.24,1.24,0,0,0,.22.34,1.18,1.18,0,0,0,.37.24,1.2,1.2,0,0,0,.45.09,1,1,0,0,0,.41-.08,1.29,1.29,0,0,0,.46-.31A1.75,1.75,0,0,0,54.66,10.36Z" transform="translate(-1.44 0.02)"/><path class="cls-1" d="M50.72,13.73a2.22,2.22,0,0,1-.42.64,1.65,1.65,0,0,1-.58.39,1.45,1.45,0,0,1-.65.12,1.77,1.77,0,0,1-.67-.13,1.87,1.87,0,0,1-.57-.37,1.62,1.62,0,0,1-.46-1.22,2,2,0,0,1,.18-.73,1.88,1.88,0,0,1,.39-.61,1.81,1.81,0,0,1,.55-.4,1.51,1.51,0,0,1,.65-.14,1.83,1.83,0,0,1,.72.13,1.76,1.76,0,0,1,.59.4,1.44,1.44,0,0,1,.35.54,1.63,1.63,0,0,1,.1.66A2,2,0,0,1,50.72,13.73Zm-.5-.17a2.23,2.23,0,0,0,.15-.59,1.34,1.34,0,0,0-.07-.54,1.1,1.1,0,0,0-.23-.37,1.32,1.32,0,0,0-.38-.25,1.07,1.07,0,0,0-.48-.09,1.36,1.36,0,0,0-.41.09,1.27,1.27,0,0,0-.43.32,1.76,1.76,0,0,0-.33.49,1.66,1.66,0,0,0-.15.59,1.35,1.35,0,0,0,.09.56,1.41,1.41,0,0,0,.22.34,1.18,1.18,0,0,0,.37.24,1.2,1.2,0,0,0,.45.09,1.15,1.15,0,0,0,.41-.08,1.38,1.38,0,0,0,.46-.31A1.75,1.75,0,0,0,50.22,13.56Z" transform="translate(-1.44 0.02)"/><path class="cls-1" d="M47.09,12.25a2.17,2.17,0,0,1-.42.63,1.63,1.63,0,0,1-1.22.52,1.84,1.84,0,0,1-.68-.14,1.57,1.57,0,0,1-.56-.37,1.47,1.47,0,0,1-.36-.53,1.79,1.79,0,0,1-.11-.69,2,2,0,0,1,.18-.73,2.2,2.2,0,0,1,.39-.61,1.73,1.73,0,0,1,.55-.39,1.45,1.45,0,0,1,.66-.15,1.85,1.85,0,0,1,1.3.53,1.44,1.44,0,0,1,.35.54,1.68,1.68,0,0,1,.1.67A2.06,2.06,0,0,1,47.09,12.25Zm-.5-.18a1.77,1.77,0,0,0,.15-.59,1.22,1.22,0,0,0-.07-.54.92.92,0,0,0-.23-.36,1,1,0,0,0-.38-.25,1,1,0,0,0-.48-.1,1,1,0,0,0-.4.1,1.27,1.27,0,0,0-.44.31,1.81,1.81,0,0,0-.33.5,1.84,1.84,0,0,0-.15.58,1.32,1.32,0,0,0,.09.56,1.08,1.08,0,0,0,.23.34,1.13,1.13,0,0,0,.36.24,1.22,1.22,0,0,0,.45.1,1,1,0,0,0,.41-.09,1.26,1.26,0,0,0,.46-.3A1.61,1.61,0,0,0,46.59,12.07Z" transform="translate(-1.44 0.02)"/><path class="cls-1" d="M56.93,16.28a1.87,1.87,0,0,1-.42.64,1.63,1.63,0,0,1-1.22.51,1.75,1.75,0,0,1-.67-.14,1.7,1.7,0,0,1-.57-.37,1.33,1.33,0,0,1-.35-.53,1.62,1.62,0,0,1-.12-.69,2,2,0,0,1,.18-.73,2.22,2.22,0,0,1,.4-.61A1.86,1.86,0,0,1,54.7,14a1.69,1.69,0,0,1,1.37,0,1.83,1.83,0,0,1,.6.39,1.49,1.49,0,0,1,.34.54,1.71,1.71,0,0,1,.1.67A2,2,0,0,1,56.93,16.28Zm-.5-.17a1.66,1.66,0,0,0,.15-.6,1.16,1.16,0,0,0-.07-.53,1.07,1.07,0,0,0-.22-.37,1,1,0,0,0-.39-.25,1.07,1.07,0,0,0-.48-.09,1.3,1.3,0,0,0-.4.09,1.18,1.18,0,0,0-.44.32,1.63,1.63,0,0,0-.33.49,2.23,2.23,0,0,0-.15.59,1.3,1.3,0,0,0,.09.55,1,1,0,0,0,.23.34,1.08,1.08,0,0,0,.37.24,1,1,0,0,0,.44.1,1.2,1.2,0,0,0,.42-.08,1.25,1.25,0,0,0,.45-.31A1.51,1.51,0,0,0,56.43,16.11Z" transform="translate(-1.44 0.02)"/><path class="cls-1" d="M60.86,12.87a2.22,2.22,0,0,1-.42.64,2,2,0,0,1-.58.39,1.74,1.74,0,0,1-1.32,0,1.7,1.7,0,0,1-.57-.37,1.44,1.44,0,0,1-.35-.53,1.79,1.79,0,0,1-.11-.69A2.11,2.11,0,0,1,58.08,11a1.86,1.86,0,0,1,.54-.39,1.77,1.77,0,0,1,.66-.15,1.84,1.84,0,0,1,.72.14,1.9,1.9,0,0,1,.59.39,1.52,1.52,0,0,1,.35.54,1.91,1.91,0,0,1,.1.67A2,2,0,0,1,60.86,12.87Zm-.51-.17a1.91,1.91,0,0,0,.16-.6,1.31,1.31,0,0,0-.07-.53,1.1,1.1,0,0,0-.23-.37,1,1,0,0,0-.38-.25,1.12,1.12,0,0,0-.48-.09,1.3,1.3,0,0,0-.41.09,1.26,1.26,0,0,0-.44.32,1.8,1.8,0,0,0-.32.49,1.66,1.66,0,0,0-.15.59,1.05,1.05,0,0,0,.09.55,1,1,0,0,0,.22.34,1.08,1.08,0,0,0,.37.24,1,1,0,0,0,.44.1,1.16,1.16,0,0,0,.42-.08,1.38,1.38,0,0,0,.46-.31A1.66,1.66,0,0,0,60.35,12.7Z" transform="translate(-1.44 0.02)"/><path class="cls-1" d="M63.75,9a2,2,0,0,1-.43.63,1.69,1.69,0,0,1-.57.4,1.82,1.82,0,0,1-.65.12,1.79,1.79,0,0,1-.67-.14,1.7,1.7,0,0,1-.57-.37,1.44,1.44,0,0,1-.35-.53,1.62,1.62,0,0,1-.11-.69A2.11,2.11,0,0,1,61,7.12a1.69,1.69,0,0,1,.54-.39,1.45,1.45,0,0,1,.66-.15,1.76,1.76,0,0,1,.71.14,1.69,1.69,0,0,1,.6.39,1.57,1.57,0,0,1,.35.54,1.86,1.86,0,0,1,.1.66A2.05,2.05,0,0,1,63.75,9Zm-.51-.18a1.86,1.86,0,0,0,.16-.59,1.34,1.34,0,0,0-.07-.54,1.05,1.05,0,0,0-.23-.36,1,1,0,0,0-.39-.25,1,1,0,0,0-.47-.1,1.08,1.08,0,0,0-.41.1,1.37,1.37,0,0,0-.44.31,1.77,1.77,0,0,0-.32.5,1.61,1.61,0,0,0-.15.59,1.18,1.18,0,0,0,.31.89,1.08,1.08,0,0,0,.37.24,1.19,1.19,0,0,0,.44.09,1,1,0,0,0,.42-.08,1.35,1.35,0,0,0,.46-.3A1.59,1.59,0,0,0,63.24,8.86Z" transform="translate(-1.44 0.02)"/><path class="cls-1" d="M60.12,7.55a2.22,2.22,0,0,1-.42.64,1.65,1.65,0,0,1-.58.39,1.74,1.74,0,0,1-1.32,0,1.7,1.7,0,0,1-.57-.37,1.58,1.58,0,0,1-.35-.53A1.79,1.79,0,0,1,56.77,7,2,2,0,0,1,57,6.24a2,2,0,0,1,.39-.61,1.86,1.86,0,0,1,.54-.39,1.69,1.69,0,0,1,1.37,0,1.83,1.83,0,0,1,.6.39,1.56,1.56,0,0,1,.35.55,1.63,1.63,0,0,1,.1.66A2,2,0,0,1,60.12,7.55Zm-.51-.17a1.91,1.91,0,0,0,.16-.6,1.31,1.31,0,0,0-.07-.53,1.1,1.1,0,0,0-.23-.37,1.14,1.14,0,0,0-.38-.25,1.12,1.12,0,0,0-.48-.09,1.3,1.3,0,0,0-.41.09,1.26,1.26,0,0,0-.44.32,1.8,1.8,0,0,0-.32.49,1.66,1.66,0,0,0-.15.59,1.28,1.28,0,0,0,.09.55,1,1,0,0,0,.22.34,1,1,0,0,0,.37.25,1.19,1.19,0,0,0,.44.09,1.16,1.16,0,0,0,.42-.08,1.38,1.38,0,0,0,.46-.31A1.66,1.66,0,0,0,59.61,7.38Z" transform="translate(-1.44 0.02)"/><path class="cls-1" d="M52.93,6.55l-.48-.19.26-.56c.14-.3.33-.73.56-1.27q.07-.15.18-.42c.08-.18.14-.32.18-.43h0l-.5.08-.71.13-.05-.35,1-.24L54,3.16l.24.39-.41.92L53.57,5l-.38.89C53,6.28,53,6.49,52.93,6.55Z" transform="translate(-1.44 0.02)"/><path class="cls-1" d="M50.56,10.6l-.48-.2c0-.06.12-.25.26-.55s.33-.73.57-1.28c0-.1.1-.23.17-.42l.18-.42h0l-.5.08-.71.13,0-.35,1-.23.61-.14.24.39-.41.92c-.14.31-.22.5-.24.55l-.39.9C50.67,10.32,50.58,10.53,50.56,10.6Z" transform="translate(-1.44 0.02)"/><path class="cls-1" d="M51.82,16.13l-.48-.19.26-.56c.14-.31.33-.73.56-1.28a3.66,3.66,0,0,0,.18-.41l.18-.43h0l-.5.09-.71.12-.05-.34,1-.24.61-.14.24.39-.41.92-.25.56-.38.89C51.93,15.85,51.84,16.06,51.82,16.13Z" transform="translate(-1.44 0.02)"/><path class="cls-1" d="M47.89,19.54l-.47-.19.26-.56c.14-.31.33-.73.56-1.28,0-.09.1-.23.18-.41s.14-.33.18-.43h0l-.49.09-.71.12,0-.34,1-.24.61-.14.24.39c-.14.3-.27.6-.41.92l-.25.56c-.11.24-.23.54-.38.89Z" transform="translate(-1.44 0.02)"/><path class="cls-1" d="M50,20.39l-.48-.19.26-.56c.14-.31.33-.73.56-1.28,0-.1.11-.23.18-.41l.18-.43h0l-.5.08-.71.13-.05-.34,1-.24L51,17l.24.38c-.14.3-.27.61-.41.93l-.25.56-.38.89C50.08,20.11,50,20.32,50,20.39Z" transform="translate(-1.44 0.02)"/><path class="cls-1" d="M56.26,12.93l-.48-.19.26-.56c.14-.3.33-.73.56-1.28a3.66,3.66,0,0,0,.18-.41c.08-.18.14-.32.18-.43h0l-.5.08-.71.13,0-.35,1-.24.61-.14.24.39-.41.92-.25.56-.38.89C56.37,12.66,56.28,12.87,56.26,12.93Z" transform="translate(-1.44 0.02)"/><path class="cls-1" d="M55.52,7.62,55,7.42l.26-.56c.14-.3.33-.73.56-1.27q.07-.15.18-.42c.08-.18.14-.32.18-.43h0l-.5.08L55,5l0-.35,1-.24.61-.14.24.39-.41.92c-.14.32-.22.51-.25.56-.1.25-.23.54-.38.9S55.54,7.55,55.52,7.62Z" transform="translate(-1.44 0.02)"/><path class="cls-2" d="M45.31,47.55a.7.7,0,0,1-.51-.22.71.71,0,0,1-.14-.83,45.8,45.8,0,0,0,3.46-9.44c1-3.87,1.84-7.52.93-11.79a49.59,49.59,0,0,0-3.28-7.17c-.11-.17-3.2-4.85-2.66-8.23A9.52,9.52,0,0,1,45.2,5C48.39,1,49.55.25,49.83.12a.93.93,0,0,1,.29,0,.75.75,0,0,1,.59.29.74.74,0,0,1,0,.91c-.06.07-5.83,6.73-4.27,12.1.25.71,1.37,3.23,2.06,4.52L50.12,21a32,32,0,0,1,3.64,10.77c.56,5.39-1.62,10.23-3.55,13.34a.73.73,0,0,1-.29.26l-4.29,2.12A.61.61,0,0,1,45.31,47.55Z" transform="translate(-1.44 0.02)"/><path class="cls-3" d="M45.31,47.63a.82.82,0,0,1-.57-.24.79.79,0,0,1-.15-.93A45.81,45.81,0,0,0,48,37c.94-3.86,1.84-7.5.93-11.75a46.69,46.69,0,0,0-3.27-7.14S42.48,13.31,43,9.86A9.48,9.48,0,0,1,45.14,5C48.33.9,49.51.17,49.8.05A.83.83,0,0,1,50.12,0a.8.8,0,0,1,.65.34.8.8,0,0,1,0,1c-.06.06-5.79,6.73-4.25,12a47.94,47.94,0,0,0,2.05,4.5l1.66,3.09a32.44,32.44,0,0,1,3.65,10.8c.56,5.42-1.63,10.27-3.56,13.39a.84.84,0,0,1-.32.3l-4.29,2.12A.94.94,0,0,1,45.31,47.63ZM50.12.15a.66.66,0,0,0-.25.05c-.28.12-1.43.83-4.61,4.89a9.45,9.45,0,0,0-2.07,4.79c-.54,3.4,2.61,8.12,2.65,8.17a48.1,48.1,0,0,1,3.29,7.2c.91,4.29,0,8-.93,11.83a45.63,45.63,0,0,1-3.47,9.46.64.64,0,0,0,.87.86l4.28-2.12a.6.6,0,0,0,.26-.24c1.92-3.09,4.09-7.91,3.54-13.28A32.36,32.36,0,0,0,50.05,21l-1.66-3.09c-.69-1.29-1.81-3.8-2.07-4.53-.82-2.81.38-6,1.53-8.11A24.73,24.73,0,0,1,50.6,1.22a.65.65,0,0,0,0-.81A.65.65,0,0,0,50.12.15Z" transform="translate(-1.44 0.02)"/><path class="cls-4" d="M51.52,21a.36.36,0,0,1-.3-.17.35.35,0,0,1,.1-.49A37.39,37.39,0,0,0,63.66,6.41.37.37,0,0,1,64,6.19a.39.39,0,0,1,.37.36V7.64a.4.4,0,0,1,0,.15c-3.2,7.6-12.54,13.07-12.63,13.13A.41.41,0,0,1,51.52,21Z" transform="translate(-1.44 0.02)"/><path class="cls-5" d="M51.52,21a.36.36,0,0,1-.3-.17.35.35,0,0,1,.1-.49A37.39,37.39,0,0,0,63.66,6.41.37.37,0,0,1,64,6.19a.39.39,0,0,1,.37.36V7.64a.4.4,0,0,1,0,.15c-3.2,7.6-12.54,13.07-12.63,13.13A.41.41,0,0,1,51.52,21Z" transform="translate(-1.44 0.02)"/><path class="cls-6" d="M50,.11c-.25,0,1.13,0-1.59,2.38S42.14,12.72,46.56,18s2.87,11.9,2.87,11.9,1.09-4.45-4.09-12.47.56-13.2.56-13.2S48.09,1.06,50,.11Z" transform="translate(-1.44 0.02)"/><path class="cls-7" d="M50,.23s1.37.06-1.31,2.42S42.65,12.82,46.9,18.1s2.32,12,2.32,12,1.71-3.65-3.75-12.61c-5.28-8.64.43-13.27.43-13.27S48.23,1,50,.23Z" transform="translate(-1.44 0.02)"/><path class="cls-8" d="M33.47,42.69a.37.37,0,0,1-.37-.36c-.26-12.62,13.52-19.08,13.66-19.14a.4.4,0,0,1,.15,0,.35.35,0,0,1,.32.19.37.37,0,0,1-.13.48c-13,7.94-13.27,18.39-13.27,18.5a.37.37,0,0,1-.36.36Z" transform="translate(-1.44 0.02)"/><path class="cls-5" d="M33.47,42.69a.37.37,0,0,1-.37-.36c-.26-12.62,13.52-19.08,13.66-19.14a.4.4,0,0,1,.15,0,.35.35,0,0,1,.32.19.37.37,0,0,1-.13.48c-13,7.94-13.27,18.39-13.27,18.5a.37.37,0,0,1-.36.36Z" transform="translate(-1.44 0.02)"/><rect class="cls-9" x="23.82" y="23.46" width="1.78" height="28.56" rx="0.89" transform="translate(-14.46 62.47) rotate(-90)"/><rect class="cls-10" x="4.45" y="33.92" width="1.78" height="7.64" rx="0.89" transform="translate(-33.84 43.09) rotate(-90)"/><rect class="cls-11" x="37.49" y="-11.42" width="1.76" height="32.5" rx="0.88" transform="translate(32.1 43.22) rotate(-90)"/><rect class="cls-12" x="18.4" y="3.24" width="1.76" height="3.2" rx="0.88" transform="translate(13.01 24.13) rotate(-90)"/><rect class="cls-13" x="21.3" y="23.34" width="2.32" height="18.86" rx="1.16" transform="translate(-11.75 55.24) rotate(-90)"/><rect class="cls-14" x="30.89" y="5.9" width="1.53" height="31.01" rx="0.68" transform="translate(8.81 53.08) rotate(-90)"/><rect class="cls-15" x="26.46" y="-1.61" width="1.64" height="36.52" rx="0.82" transform="translate(9.19 43.95) rotate(-90)"/><rect class="cls-16" x="40.07" y="0.6" width="1.75" height="20.25" rx="0.87" transform="translate(28.79 51.68) rotate(-90)"/><rect class="cls-17" x="27.11" y="9.3" width="1.75" height="2.84" rx="0.87" transform="translate(15.82 38.72) rotate(-90)"/><rect class="cls-18" x="24.28" y="12.81" width="2" height="28.49" rx="1" transform="translate(-3.2 52.35) rotate(-90)"/><rect class="cls-19" x="6.64" y="24.65" width="2" height="4.8" rx="1" transform="translate(-20.84 34.71) rotate(-90)"/><path class="cls-20" d="M45.14,47.27S56,41,51.07,22.88c0,0,6.43,11-.71,22.08C50.36,45,47.11,47.29,45.14,47.27Z" transform="translate(-1.44 0.02)"/><path class="cls-21" d="M46.3,44.71c4.12-5.28,8.22-12.07,2.54-25.67,0,0,8.93,13.6.54,25.92C49.38,45,42.17,50,46.3,44.71Z" transform="translate(-1.44 0.02)"/><rect class="cls-22" x="18.98" y="4" width="0.72" height="2.3" rx="0.35" transform="translate(12.75 24.51) rotate(-90)"/><rect class="cls-23" x="18.85" y="4.61" width="0.36" height="1.45" rx="0.18" transform="translate(12.26 24.38) rotate(-90)"/><rect class="cls-22" x="6.7" y="26.35" width="0.72" height="2.3" rx="0.35" transform="translate(-21.88 34.58) rotate(-90)"/><rect class="cls-23" x="6.57" y="26.96" width="0.36" height="1.45" rx="0.18" transform="translate(-22.37 34.45) rotate(-90)"/><rect class="cls-22" x="3.63" y="36" width="0.72" height="3.92" rx="0.36" transform="translate(-35.4 41.98) rotate(-90)"/><rect class="cls-23" x="2.7" y="37.42" width="0.36" height="1.45" rx="0.18" transform="translate(-36.7 41.04) rotate(-90)"/><rect class="cls-22" x="27.63" y="9.95" width="0.72" height="2.06" rx="0.33" transform="translate(15.58 38.99) rotate(-90)"/><rect class="cls-23" x="27.53" y="10.51" width="0.36" height="1.29" rx="0.17" transform="translate(15.12 38.89) rotate(-90)"/><rect class="cls-22" x="38.8" y="3.05" width="0.72" height="15.71" rx="0.36" transform="translate(26.82 50.08) rotate(-90)"/><rect class="cls-23" x="33.05" y="9.41" width="0.36" height="3.34" rx="0.18" transform="translate(20.71 44.33) rotate(-90)"/><rect class="cls-22" x="17.1" y="8.99" width="0.72" height="15.71" rx="0.36" transform="translate(-0.82 34.32) rotate(-90)"/><rect class="cls-23" x="11.36" y="15.3" width="0.36" height="3.34" rx="0.18" transform="translate(-6.87 28.53) rotate(-90)"/><rect class="cls-22" x="30.13" y="-2.7" width="0.72" height="15.71" rx="0.36" transform="translate(23.91 35.66) rotate(-90)"/><rect class="cls-23" x="24.4" y="3.61" width="0.36" height="3.34" rx="0.18" transform="matrix(0, -1, 1, 0, 17.86, 29.87)"/><rect class="cls-22" x="23.94" y="13.74" width="0.72" height="15.71" rx="0.36" transform="translate(1.27 45.91) rotate(-90)"/><rect class="cls-23" x="18.23" y="20.1" width="0.36" height="3.34" rx="0.18" transform="translate(-4.81 40.2) rotate(-90)"/><rect class="cls-22" x="21.53" y="17.24" width="0.72" height="20.52" rx="0.36" transform="translate(-7.04 49.41) rotate(-90)"/><rect class="cls-23" x="13.39" y="25.96" width="0.36" height="3.34" rx="0.18" transform="translate(-15.5 41.21) rotate(-90)"/><rect class="cls-22" x="17.76" y="29.2" width="0.72" height="8.38" rx="0.36" transform="translate(-16.7 51.53) rotate(-90)"/><rect class="cls-23" x="15.66" y="31.9" width="0.36" height="3.34" rx="0.18" transform="translate(-19.16 49.43) rotate(-90)"/><rect class="cls-22" x="18.53" y="30.15" width="0.72" height="15.71" rx="0.36" transform="translate(-20.55 56.91) rotate(-90)"/><rect class="cls-23" x="12.85" y="36.47" width="0.36" height="3.34" rx="0.18" transform="translate(-26.55 51.19) rotate(-90)"/><path class="cls-24" d="M74.81,15,73.3,16.42a3.47,3.47,0,0,0-1-.58,2.69,2.69,0,0,0-1-.2,2.42,2.42,0,0,0-1.92.87,5.11,5.11,0,0,0-1.06,2.09A9.81,9.81,0,0,0,68,21a3.08,3.08,0,0,0,.55,2,2,2,0,0,0,1.56.65,2.9,2.9,0,0,0,1.2-.25,7.85,7.85,0,0,0,1.22-.72l1.09,1.62a6.38,6.38,0,0,1-1.76,1.07,5.72,5.72,0,0,1-2.18.41,4.47,4.47,0,0,1-3.33-1.25A4.85,4.85,0,0,1,65.11,21a9.93,9.93,0,0,1,.64-3.45,6.53,6.53,0,0,1,2-2.82,5.34,5.34,0,0,1,3.49-1.13A4.6,4.6,0,0,1,74.81,15Z" transform="translate(-1.44 0.02)"/><path class="cls-24" d="M84.16,14.85a4.93,4.93,0,0,1,1.19,3.53,10,10,0,0,1-.61,3.45,6.34,6.34,0,0,1-2,2.84,5.55,5.55,0,0,1-3.63,1.14,4.49,4.49,0,0,1-3.39-1.25,4.89,4.89,0,0,1-1.19-3.51,10.22,10.22,0,0,1,.61-3.44,6.47,6.47,0,0,1,2-2.85,5.56,5.56,0,0,1,3.63-1.15A4.49,4.49,0,0,1,84.16,14.85Zm-5.49,1.72a5.38,5.38,0,0,0-1,2.21,11.27,11.27,0,0,0-.28,2.47,3.12,3.12,0,0,0,.48,1.94,1.67,1.67,0,0,0,1.42.61,2.3,2.3,0,0,0,1.91-.94,5.46,5.46,0,0,0,1-2.23,11.38,11.38,0,0,0,.28-2.49A3.08,3.08,0,0,0,82,16.22a1.72,1.72,0,0,0-1.42-.59A2.27,2.27,0,0,0,78.67,16.57Z" transform="translate(-1.44 0.02)"/><path class="cls-24" d="M95,14.86a3.81,3.81,0,0,1,1.48,3.45,8.08,8.08,0,0,1-1.6,5.19c-1.06,1.35-2.79,2-5.17,2H86.09L87.77,13.9H91A7.14,7.14,0,0,1,95,14.86Zm-4.69,1-1.1,7.66h.91A2.82,2.82,0,0,0,92.79,22a8,8,0,0,0,.8-3.67,2.38,2.38,0,0,0-.62-1.9,2.76,2.76,0,0,0-1.78-.52Z" transform="translate(-1.44 0.02)"/><path class="cls-24" d="M106.1,13.9l-.59,2h-4.14L101,18.65h3.63l-.26,1.93h-3.63l-.43,3h4.44l-.28,2H97.18L98.86,13.9Z" transform="translate(-1.44 0.02)"/><path class="cls-24" d="M75.71,29.74,70.87,37l-.62,4.36h-2.8L68.09,37l-2.73-7.28h3l1.45,5.11,2.92-5.11Z" transform="translate(-1.44 0.02)"/><path class="cls-24" d="M84.19,30.69a4.88,4.88,0,0,1,1.19,3.53,10.27,10.27,0,0,1-.6,3.45,6.29,6.29,0,0,1-2,2.84,5.54,5.54,0,0,1-3.62,1.14,4.46,4.46,0,0,1-3.39-1.25,4.87,4.87,0,0,1-1.19-3.52,10,10,0,0,1,.61-3.43,6.53,6.53,0,0,1,2-2.85,5.54,5.54,0,0,1,3.63-1.15A4.48,4.48,0,0,1,84.19,30.69ZM78.71,32.4a5.63,5.63,0,0,0-1,2.22,11.92,11.92,0,0,0-.28,2.47A3.12,3.12,0,0,0,77.91,39a1.72,1.72,0,0,0,1.43.61,2.31,2.31,0,0,0,1.91-.94,5.74,5.74,0,0,0,1-2.23A12,12,0,0,0,82.51,34,3.08,3.08,0,0,0,82,32.06a1.71,1.71,0,0,0-1.43-.6A2.28,2.28,0,0,0,78.71,32.4Z" transform="translate(-1.44 0.02)"/><path class="cls-24" d="M95.72,37.52a4.85,4.85,0,0,1-.83,2.14,4.34,4.34,0,0,1-1.75,1.46,6,6,0,0,1-2.59.53,4.49,4.49,0,0,1-3.06-.92,3.22,3.22,0,0,1-1-2.52,4.62,4.62,0,0,1,.06-.74l1.12-7.73h2.78L89.3,37.42a5.73,5.73,0,0,0,0,.67,1.32,1.32,0,0,0,1.51,1.51,2,2,0,0,0,1.49-.55,3,3,0,0,0,.68-1.68l1.13-7.63h2.78Z" transform="translate(-1.44 0.02)"/><path class="cls-24" d="M106.52,34.94a4.53,4.53,0,0,1-2.13,1.54l2.25,4.88h-3l-1.82-4.43h-1.16L100,41.36H97.2l1.68-11.62h3.85a5.56,5.56,0,0,1,3.27.8,2.64,2.64,0,0,1,1.12,2.28A3.81,3.81,0,0,1,106.52,34.94ZM100.9,35h1.23a1.94,1.94,0,0,0,1.6-.61,2.19,2.19,0,0,0,.5-1.45,1.09,1.09,0,0,0-.44-1,2.32,2.32,0,0,0-1.35-.31h-1.06Z" transform="translate(-1.44 0.02)"/><path class="cls-24" d="M116.9,31l-1.49,1.44a3.43,3.43,0,0,0-2.41-1,2.28,2.28,0,0,0-1.33.35,1.08,1.08,0,0,0-.49.95.94.94,0,0,0,.42.8,6.31,6.31,0,0,0,1.59.69,5.59,5.59,0,0,1,2.3,1.26,2.78,2.78,0,0,1,.77,2.05,4,4,0,0,1-.53,2,3.89,3.89,0,0,1-1.67,1.52,7.28,7.28,0,0,1-5.44.14A5.56,5.56,0,0,1,106.79,40l1.61-1.55a3.83,3.83,0,0,0,2.82,1.14,2.51,2.51,0,0,0,1.54-.42,1.34,1.34,0,0,0,.56-1.16,1.16,1.16,0,0,0-.4-.92,5,5,0,0,0-1.48-.72A5.93,5.93,0,0,1,109,35a2.66,2.66,0,0,1-.74-1.92,3.25,3.25,0,0,1,.52-1.76A3.79,3.79,0,0,1,110.34,30a5.69,5.69,0,0,1,2.57-.52A5.41,5.41,0,0,1,116.9,31Z" transform="translate(-1.44 0.02)"/><path class="cls-24" d="M126.16,29.74l-.59,2h-4.14L121,34.49h3.63l-.26,1.93h-3.63l-.43,3h4.44l-.27,2h-7.24l1.67-11.62Z" transform="translate(-1.44 0.02)"/><path class="cls-24" d="M130.64,29.74l-1.35,9.44h4.58l-.59,2.18h-7.1l1.68-11.62Z" transform="translate(-1.44 0.02)"/><path class="cls-24" d="M143.63,29.74l-.57,2h-4l-.44,3.09h3.45l-.28,2h-3.45l-.68,4.61h-2.78l1.68-11.62Z" transform="translate(-1.44 0.02)"/></svg>