<svg id="Layer_1" data-name="Layer 1" xmlns="http://www.w3.org/2000/svg" xmlns:xlink="http://www.w3.org/1999/xlink" viewBox="0 0 42.66 14.28"><defs><style>.cls-1{fill:#cfc8d7;}.cls-2{fill:url(#linear-gradient);}.cls-3{fill:#28285b;}.cls-4{fill:url(#linear-gradient-2);}.cls-5{fill:none;stroke-width:0.03px;}.cls-10,.cls-11,.cls-12,.cls-13,.cls-14,.cls-15,.cls-16,.cls-17,.cls-18,.cls-19,.cls-5,.cls-9{stroke:#28285b;stroke-miterlimit:10;}.cls-20,.cls-6{fill:#1d1d1b;}.cls-6{opacity:0.09;}.cls-21,.cls-22,.cls-23,.cls-7{fill:#fff;}.cls-7{opacity:0.39;}.cls-8{fill:url(#linear-gradient-3);}.cls-10,.cls-13,.cls-15,.cls-16,.cls-17,.cls-18,.cls-19,.cls-9{stroke-width:0.05px;}.cls-9{fill:url(#linear-gradient-4);}.cls-10{fill:url(#linear-gradient-5);}.cls-11,.cls-12,.cls-14{stroke-width:0.07px;}.cls-11{fill:url(#linear-gradient-6);}.cls-12{fill:url(#linear-gradient-7);}.cls-13{fill:url(#linear-gradient-8);}.cls-14{fill:url(#linear-gradient-9);}.cls-15{fill:url(#linear-gradient-10);}.cls-16{fill:url(#linear-gradient-11);}.cls-17{fill:url(#linear-gradient-12);}.cls-18{fill:url(#linear-gradient-13);}.cls-19{fill:url(#linear-gradient-14);}.cls-20{opacity:0.16;}.cls-21{opacity:0.36;}.cls-22{opacity:0.26;}.cls-23{opacity:0.55;}.cls-24{fill:#d0c9d8;}</style><linearGradient id="linear-gradient" x1="12.39" y1="16.07" x2="16.76" y2="6.86" gradientUnits="userSpaceOnUse"><stop offset="0" stop-color="#d0c9d8"/><stop offset="0.87" stop-color="#d0c9d8"/><stop offset="0.99" stop-color="#d0c9d8"/></linearGradient><linearGradient id="linear-gradient-2" x1="12.44" y1="10.69" x2="19.22" y2="5.16" xlink:href="#linear-gradient"/><linearGradient id="linear-gradient-3" x1="17.2" y1="8.51" x2="13.24" y2="11.37" xlink:href="#linear-gradient"/><linearGradient id="linear-gradient-4" x1="5.56" y1="10.85" x2="12.35" y2="14.39" gradientTransform="translate(21.58 3.67) rotate(90)" gradientUnits="userSpaceOnUse"><stop offset="0" stop-color="#d0c9d8"/><stop offset="0.24" stop-color="#cdc6d7"/><stop offset="0.42" stop-color="#c5bdd2"/><stop offset="0.57" stop-color="#b7adca"/><stop offset="0.71" stop-color="#a397bf"/><stop offset="0.84" stop-color="#897bb1"/><stop offset="0.96" stop-color="#6a58a0"/><stop offset="0.99" stop-color="#63509c"/></linearGradient><linearGradient id="linear-gradient-5" x1="2.21" y1="12.14" x2="4.07" y2="13.1" gradientTransform="translate(15.76 9.48) rotate(90)" xlink:href="#linear-gradient-4"/><linearGradient id="linear-gradient-6" x1="4.96" y1="2.75" x2="16.31" y2="2.75" gradientTransform="translate(15.8 -10.3) rotate(90)" gradientUnits="userSpaceOnUse"><stop offset="0" stop-color="#d0c9d8"/><stop offset="0.22" stop-color="#cdc8d8"/><stop offset="0.37" stop-color="#c4c7d9"/><stop offset="0.51" stop-color="#b4c4da"/><stop offset="0.63" stop-color="#9ec0db"/><stop offset="0.75" stop-color="#82badd"/><stop offset="0.86" stop-color="#5fb4df"/><stop offset="0.96" stop-color="#36ace1"/><stop offset="0.99" stop-color="#2baae2"/></linearGradient><linearGradient id="linear-gradient-7" x1="6.92" y1="2.54" x2="7.73" y2="2.96" gradientTransform="translate(10.07 -4.58) rotate(90)" xlink:href="#linear-gradient-6"/><linearGradient id="linear-gradient-8" x1="6.02" y1="9.95" x2="10.54" y2="12.31" gradientTransform="translate(19.41 2.85) rotate(90)" gradientUnits="userSpaceOnUse"><stop offset="0" stop-color="#d0c9d8"/><stop offset="0.23" stop-color="#cfc9d5"/><stop offset="0.39" stop-color="#cac8cc"/><stop offset="0.53" stop-color="#c3c7bc"/><stop offset="0.66" stop-color="#b9c6a6"/><stop offset="0.78" stop-color="#acc48a"/><stop offset="0.89" stop-color="#9cc167"/><stop offset="0.99" stop-color="#8cbf44"/></linearGradient><linearGradient id="linear-gradient-9" x1="6.01" y1="7.67" x2="14.3" y2="7.75" gradientTransform="translate(18.76 -3.32) rotate(90)" xlink:href="#linear-gradient-6"/><linearGradient id="linear-gradient-10" x1="4.25" y1="6.29" x2="15.2" y2="6.29" gradientTransform="translate(16.02 -3.43) rotate(90)" xlink:href="#linear-gradient-4"/><linearGradient id="linear-gradient-11" x1="10.79" y1="4.51" x2="16.86" y2="4.51" gradientTransform="translate(18.34 -9.31) rotate(90)" xlink:href="#linear-gradient-8"/><linearGradient id="linear-gradient-12" x1="9.51" y1="4.51" x2="10.36" y2="4.51" gradientTransform="translate(14.45 -5.42) rotate(90)" xlink:href="#linear-gradient-8"/><linearGradient id="linear-gradient-13" x1="4.85" y1="9.41" x2="13.4" y2="9.41" gradientTransform="translate(18.54 0.29) rotate(90)" gradientUnits="userSpaceOnUse"><stop offset="0" stop-color="#d0c9d8"/><stop offset="0.22" stop-color="#d1cad5"/><stop offset="0.37" stop-color="#d3cbcc"/><stop offset="0.51" stop-color="#d7cebc"/><stop offset="0.63" stop-color="#dcd2a6"/><stop offset="0.74" stop-color="#e3d88a"/><stop offset="0.85" stop-color="#ebde67"/><stop offset="0.96" stop-color="#f5e63e"/><stop offset="0.99" stop-color="#f8e831"/></linearGradient><linearGradient id="linear-gradient-14" x1="3.12" y1="9.41" x2="4.55" y2="9.41" gradientTransform="translate(13.25 5.58) rotate(90)" xlink:href="#linear-gradient-13"/></defs><path class="cls-1" d="M16.06,9a.54.54,0,0,1-.11.18.45.45,0,0,1-.16.12.41.41,0,0,1-.19,0,.63.63,0,0,1-.19,0,.69.69,0,0,1-.17-.1.44.44,0,0,1-.1-.15.45.45,0,0,1,0-.2.52.52,0,0,1,0-.21.54.54,0,0,1,.11-.18.44.44,0,0,1,.15-.12.58.58,0,0,1,.19,0,.35.35,0,0,1,.2,0,.42.42,0,0,1,.18.11.4.4,0,0,1,.1.15.41.41,0,0,1,0,.19A.63.63,0,0,1,16.06,9Zm-.14,0a.51.51,0,0,0,0-.17.24.24,0,0,0,0-.15.3.3,0,0,0-.18-.18l-.14,0-.12,0a.35.35,0,0,0-.12.1.42.42,0,0,0-.09.14.55.55,0,0,0,0,.17.29.29,0,0,0,0,.16.23.23,0,0,0,.07.1.17.17,0,0,0,.1.06l.13,0,.12,0a.31.31,0,0,0,.13-.1A.48.48,0,0,0,15.92,9Z" transform="translate(-1.97 -1.31)"/><path class="cls-1" d="M14.72,10.12a.54.54,0,0,1-.11.18.36.36,0,0,1-.16.12.41.41,0,0,1-.19,0,.63.63,0,0,1-.19,0,.48.48,0,0,1-.17-.1.42.42,0,0,1-.11-.15.64.64,0,0,1,0-.2.56.56,0,0,1,0-.21.54.54,0,0,1,.11-.18.33.33,0,0,1,.15-.11.41.41,0,0,1,.19-.05.35.35,0,0,1,.2,0,.54.54,0,0,1,.18.11.4.4,0,0,1,.1.15.41.41,0,0,1,0,.19A.63.63,0,0,1,14.72,10.12Zm-.14,0a.51.51,0,0,0,0-.17.24.24,0,0,0,0-.15.41.41,0,0,0-.07-.11.39.39,0,0,0-.11-.06l-.14,0-.12,0a.53.53,0,0,0-.12.1.42.42,0,0,0-.09.14.57.57,0,0,0,0,.18.27.27,0,0,0,0,.15.23.23,0,0,0,.07.1.17.17,0,0,0,.1.06l.13,0,.12,0a.38.38,0,0,0,.13-.09A.54.54,0,0,0,14.58,10.07Z" transform="translate(-1.97 -1.31)"/><path class="cls-1" d="M15.84,10.53a.76.76,0,0,1-.12.19.42.42,0,0,1-.16.11.59.59,0,0,1-.19.05.46.46,0,0,1-.19,0,.42.42,0,0,1-.17-.1.4.4,0,0,1-.1-.15.41.41,0,0,1,0-.19.52.52,0,0,1,0-.21A.46.46,0,0,1,15,10a.44.44,0,0,1,.15-.12.41.41,0,0,1,.19-.05.64.64,0,0,1,.2,0,.54.54,0,0,1,.18.11.36.36,0,0,1,.1.15.43.43,0,0,1,0,.19A.78.78,0,0,1,15.84,10.53Zm-.15,0a.85.85,0,0,0,0-.17.4.4,0,0,0,0-.15.23.23,0,0,0-.07-.1.26.26,0,0,0-.11-.07.24.24,0,0,0-.14,0,.2.2,0,0,0-.11,0,.38.38,0,0,0-.13.09.75.75,0,0,0-.09.15.51.51,0,0,0,0,.17.37.37,0,0,0,0,.15.36.36,0,0,0,.07.1l.1.07.13,0,.12,0a.38.38,0,0,0,.13-.09A.38.38,0,0,0,15.69,10.48Z" transform="translate(-1.97 -1.31)"/><path class="cls-1" d="M14.4,11.41a.76.76,0,0,1-.12.19.36.36,0,0,1-.16.11.39.39,0,0,1-.18,0,.35.35,0,0,1-.2,0,.44.44,0,0,1-.16-.1.33.33,0,0,1-.11-.15.43.43,0,0,1,0-.19.93.93,0,0,1,0-.22.78.78,0,0,1,.11-.18.83.83,0,0,1,.15-.11.41.41,0,0,1,.19,0l.21,0a.62.62,0,0,1,.17.11.53.53,0,0,1,.11.15.58.58,0,0,1,0,.19A.52.52,0,0,1,14.4,11.41Zm-.15-.05a.47.47,0,0,0,0-.17.37.37,0,0,0,0-.15.23.23,0,0,0-.07-.1.21.21,0,0,0-.11-.07.23.23,0,0,0-.14,0,.2.2,0,0,0-.11,0,.27.27,0,0,0-.12.09.38.38,0,0,0-.09.15.33.33,0,0,0,0,.17.4.4,0,0,0,0,.15.36.36,0,0,0,.07.1.3.3,0,0,0,.11.07l.13,0a.2.2,0,0,0,.11,0,.3.3,0,0,0,.13-.09A.38.38,0,0,0,14.25,11.36Z" transform="translate(-1.97 -1.31)"/><path class="cls-1" d="M16.14,12.06a.54.54,0,0,1-.11.18.36.36,0,0,1-.16.12.41.41,0,0,1-.19,0,.63.63,0,0,1-.19,0,.48.48,0,0,1-.17-.1.42.42,0,0,1-.11-.15,1.18,1.18,0,0,1,0-.2.8.8,0,0,1,.05-.21.54.54,0,0,1,.11-.18.33.33,0,0,1,.15-.11.38.38,0,0,1,.19-.05.36.36,0,0,1,.2,0,.54.54,0,0,1,.18.11.4.4,0,0,1,.1.15.41.41,0,0,1,0,.19A.63.63,0,0,1,16.14,12.06ZM16,12a.51.51,0,0,0,0-.17.24.24,0,0,0,0-.15.41.41,0,0,0-.07-.11.24.24,0,0,0-.11-.06l-.14,0-.12,0a.53.53,0,0,0-.12.1.42.42,0,0,0-.09.14.55.55,0,0,0,0,.17.22.22,0,0,0,0,.16.33.33,0,0,0,.06.1.24.24,0,0,0,.11.06l.13,0,.12,0a.38.38,0,0,0,.13-.09A1,1,0,0,0,16,12Z" transform="translate(-1.97 -1.31)"/><path class="cls-1" d="M15.76,13.5a.52.52,0,0,1-.12.19.61.61,0,0,1-.16.12.58.58,0,0,1-.19,0l-.19,0a1,1,0,0,1-.17-.1.65.65,0,0,1-.1-.15.48.48,0,0,1,0-.2.52.52,0,0,1,0-.21.78.78,0,0,1,.11-.18.44.44,0,0,1,.15-.12.59.59,0,0,1,.19,0,.45.45,0,0,1,.2,0,.52.52,0,0,1,.18.1.44.44,0,0,1,.1.15.46.46,0,0,1,0,.19A.78.78,0,0,1,15.76,13.5Zm-.15,0a1.36,1.36,0,0,0,0-.17.41.41,0,0,0,0-.16.23.23,0,0,0-.07-.1.41.41,0,0,0-.11-.07.36.36,0,0,0-.14,0,.2.2,0,0,0-.11,0,.31.31,0,0,0-.13.1.67.67,0,0,0-.09.14.55.55,0,0,0,0,.17.41.41,0,0,0,0,.16.31.31,0,0,0,.07.09l.1.07a.32.32,0,0,0,.13,0l.12,0,.13-.1A.42.42,0,0,0,15.61,13.46Z" transform="translate(-1.97 -1.31)"/><path class="cls-1" d="M13.69,12.74a.78.78,0,0,1-.11.18.36.36,0,0,1-.16.12.43.43,0,0,1-.19,0,.63.63,0,0,1-.19,0,.48.48,0,0,1-.17-.1.42.42,0,0,1-.11-.15,1.18,1.18,0,0,1,0-.2.8.8,0,0,1,0-.21.54.54,0,0,1,.11-.18.44.44,0,0,1,.15-.12.53.53,0,0,1,.18,0,.39.39,0,0,1,.21,0,.54.54,0,0,1,.18.11.4.4,0,0,1,.1.15.58.58,0,0,1,0,.19A.63.63,0,0,1,13.69,12.74Zm-.15-.05a.35.35,0,0,0,0-.17.34.34,0,0,0,0-.15.41.41,0,0,0-.07-.11.24.24,0,0,0-.11-.06l-.14,0-.12,0a.53.53,0,0,0-.12.1.42.42,0,0,0-.09.14,1.36,1.36,0,0,0,0,.17.29.29,0,0,0,0,.16.21.21,0,0,0,.06.1.24.24,0,0,0,.11.06.31.31,0,0,0,.13,0l.12,0a.38.38,0,0,0,.13-.09A.53.53,0,0,0,13.54,12.69Z" transform="translate(-1.97 -1.31)"/><path class="cls-1" d="M13.37,14a.76.76,0,0,1-.12.19.42.42,0,0,1-.16.11.59.59,0,0,1-.19.05.46.46,0,0,1-.19,0,.59.59,0,0,1-.17-.1.4.4,0,0,1-.1-.15.43.43,0,0,1,0-.19.6.6,0,0,1,0-.22.78.78,0,0,1,.11-.18.58.58,0,0,1,.15-.11.41.41,0,0,1,.19-.05.64.64,0,0,1,.2,0,.54.54,0,0,1,.18.11.36.36,0,0,1,.1.15.41.41,0,0,1,0,.19A.78.78,0,0,1,13.37,14Zm-.15,0a.85.85,0,0,0,0-.17.4.4,0,0,0,0-.15.23.23,0,0,0-.07-.1.26.26,0,0,0-.11-.07.24.24,0,0,0-.14,0,.2.2,0,0,0-.11,0,.38.38,0,0,0-.13.09.54.54,0,0,0-.09.15.47.47,0,0,0,0,.17.4.4,0,0,0,0,.15.36.36,0,0,0,.07.1l.1.07.13,0a.21.21,0,0,0,.12,0,.38.38,0,0,0,.13-.09A.38.38,0,0,0,13.22,14Z" transform="translate(-1.97 -1.31)"/><path class="cls-1" d="M14.63,14.5a.52.52,0,0,1-.11.19.42.42,0,0,1-.16.11.59.59,0,0,1-.19,0,.43.43,0,0,1-.19,0,.59.59,0,0,1-.17-.1.4.4,0,0,1-.1-.15.41.41,0,0,1,0-.19.52.52,0,0,1,0-.21.46.46,0,0,1,.11-.18.44.44,0,0,1,.15-.12.41.41,0,0,1,.19,0,.69.69,0,0,1,.2,0,.54.54,0,0,1,.18.11.5.5,0,0,1,.14.34A.54.54,0,0,1,14.63,14.5Zm-.14,0a1.16,1.16,0,0,0,0-.18.4.4,0,0,0,0-.15.36.36,0,0,0-.07-.1.41.41,0,0,0-.11-.07.24.24,0,0,0-.14,0,.27.27,0,0,0-.12,0,.47.47,0,0,0-.12.09.46.46,0,0,0-.09.15.51.51,0,0,0,0,.17.3.3,0,0,0,0,.16.28.28,0,0,0,.07.09.26.26,0,0,0,.1.07l.13,0a.27.27,0,0,0,.12,0,.38.38,0,0,0,.13-.09A.42.42,0,0,0,14.49,14.46Z" transform="translate(-1.97 -1.31)"/><path class="cls-1" d="M16.46,9.72l-.14-.05.07-.16c0-.09.08-.21.15-.37l0-.12.05-.13h0l-.14,0-.2,0,0-.1.29-.07.17,0,.07.11c0,.09-.07.18-.11.27a1.5,1.5,0,0,1-.06.16l-.1.26A1.32,1.32,0,0,0,16.46,9.72Z" transform="translate(-1.97 -1.31)"/><path class="cls-1" d="M16.23,11.23l-.14-.05.07-.17c0-.08.09-.21.15-.37a.78.78,0,0,1,.05-.12l0-.12h0l-.14,0-.2.05,0-.1.29-.08.17,0,.07.1c0,.09-.07.18-.11.27l-.06.17-.1.25Z" transform="translate(-1.97 -1.31)"/><path class="cls-1" d="M15,15.2l-.14,0L15,15c0-.08.09-.21.15-.37l.05-.12,0-.12h0l-.14,0-.2,0,0-.1.29-.08.17,0,.07.11-.1.27c0,.09-.06.15-.07.16l-.1.26Z" transform="translate(-1.97 -1.31)"/><path class="cls-1" d="M11.86,14l-.14,0s0-.08.07-.16.08-.22.15-.38l0-.12,0-.12h0l-.14,0-.2,0,0-.1.28-.08.18,0,.07.11c0,.08-.07.17-.11.26a.85.85,0,0,0-.06.17,1.79,1.79,0,0,0-.1.26A1.32,1.32,0,0,0,11.86,14Z" transform="translate(-1.97 -1.31)"/><path class="cls-1" d="M14.25,13.49l-.14-.05.07-.16c0-.09.08-.21.15-.37l0-.12.05-.13h0l-.14,0-.21,0v-.1l.28-.07.18-.05.07.11-.11.27a.67.67,0,0,0-.06.16l-.11.26C14.28,13.41,14.25,13.47,14.25,13.49Z" transform="translate(-1.97 -1.31)"/><path class="cls-1" d="M13.05,11.46l-.14-.05s0-.08.07-.16.08-.22.15-.38l0-.12.05-.12h0l-.14,0-.21,0v-.1l.28-.08.18,0,.07.1-.11.27a.85.85,0,0,0-.06.17,1.79,1.79,0,0,0-.1.26A1.32,1.32,0,0,0,13.05,11.46Z" transform="translate(-1.97 -1.31)"/><path class="cls-1" d="M14.79,12.11l-.14,0,.07-.17c0-.09.09-.21.15-.37l.05-.12a.73.73,0,0,1,.05-.12h0l-.14,0-.2,0,0-.1.29-.08.17-.05.08.11c0,.09-.08.18-.11.27s-.06.15-.07.16l-.1.26Z" transform="translate(-1.97 -1.31)"/><path class="cls-1" d="M17.09,2.54a.53.53,0,0,1-.13.2.45.45,0,0,1-.17.11.43.43,0,0,1-.19,0,.52.52,0,0,1-.21,0l-.17-.11a.54.54,0,0,1-.1-.16.39.39,0,0,1,0-.21.63.63,0,0,1,.05-.22A.57.57,0,0,1,16.26,2a.48.48,0,0,1,.16-.12.42.42,0,0,1,.2,0,.52.52,0,0,1,.21,0A.57.57,0,0,1,17,2a.39.39,0,0,1,.1.16.34.34,0,0,1,0,.2A.54.54,0,0,1,17.09,2.54Zm-.15,0a.39.39,0,0,0,0-.18.3.3,0,0,0,0-.16A.3.3,0,0,0,16.9,2L16.78,2l-.14,0a.28.28,0,0,0-.13,0,.51.51,0,0,0-.13.09.6.6,0,0,0-.09.15.41.41,0,0,0-.05.18.41.41,0,0,0,0,.16.26.26,0,0,0,.07.11.23.23,0,0,0,.11.07.28.28,0,0,0,.13,0,.27.27,0,0,0,.12,0,.42.42,0,0,0,.14-.09A.56.56,0,0,0,16.94,2.49Z" transform="translate(-1.97 -1.31)"/><path class="cls-1" d="M16.38,3.76a.5.5,0,0,1-.13.19.66.66,0,0,1-.17.12.64.64,0,0,1-.2,0,.51.51,0,0,1-.2,0A.45.45,0,0,1,15.51,4a.54.54,0,0,1-.1-.16.36.36,0,0,1,0-.21.54.54,0,0,1,0-.21.52.52,0,0,1,.12-.19.48.48,0,0,1,.16-.12.59.59,0,0,1,.2,0,.52.52,0,0,1,.21,0,.57.57,0,0,1,.18.12.39.39,0,0,1,.1.16.35.35,0,0,1,0,.2A.63.63,0,0,1,16.38,3.76Zm-.15,0a.58.58,0,0,0,0-.18.29.29,0,0,0,0-.16.19.19,0,0,0-.07-.11.31.31,0,0,0-.11-.08l-.14,0-.13,0a.45.45,0,0,0-.22.25.37.37,0,0,0-.05.17.51.51,0,0,0,0,.17.33.33,0,0,0,.06.1.35.35,0,0,0,.12.07.28.28,0,0,0,.13,0L16,4a.45.45,0,0,0,.14-.1A.71.71,0,0,0,16.23,3.71Z" transform="translate(-1.97 -1.31)"/><path class="cls-1" d="M18.09,4.46a.5.5,0,0,1-.13.19.66.66,0,0,1-.17.12.64.64,0,0,1-.2,0,.51.51,0,0,1-.2,0,.45.45,0,0,1-.17-.11.44.44,0,0,1-.1-.16.45.45,0,0,1,0-.2.79.79,0,0,1,.06-.22.52.52,0,0,1,.12-.19.36.36,0,0,1,.16-.11.42.42,0,0,1,.2,0,.52.52,0,0,1,.21,0,.57.57,0,0,1,.18.12.39.39,0,0,1,.1.16.35.35,0,0,1,0,.2A.63.63,0,0,1,18.09,4.46Zm-.15,0a.58.58,0,0,0,0-.18.29.29,0,0,0,0-.16A.19.19,0,0,0,17.89,4a.31.31,0,0,0-.11-.08l-.14,0-.13,0a.45.45,0,0,0-.22.25.37.37,0,0,0-.05.17.47.47,0,0,0,0,.17.33.33,0,0,0,.06.1.35.35,0,0,0,.12.07.28.28,0,0,0,.13,0l.12,0a.33.33,0,0,0,.14-.1A.71.71,0,0,0,17.94,4.41Z" transform="translate(-1.97 -1.31)"/><path class="cls-1" d="M16.76,5.42a.91.91,0,0,1-.13.19.66.66,0,0,1-.17.12.64.64,0,0,1-.2,0,.51.51,0,0,1-.2,0,.62.62,0,0,1-.17-.11.39.39,0,0,1-.1-.16.45.45,0,0,1,0-.2A.43.43,0,0,1,15.81,5a.68.68,0,0,1,.11-.19.66.66,0,0,1,.17-.12.58.58,0,0,1,.19,0,.54.54,0,0,1,.22,0,.57.57,0,0,1,.18.12.39.39,0,0,1,.1.16.69.69,0,0,1,0,.2A.63.63,0,0,1,16.76,5.42Zm-.15,0a.58.58,0,0,0,0-.18.29.29,0,0,0,0-.16.26.26,0,0,0-.07-.11l-.11-.08a.4.4,0,0,0-.15,0l-.12,0a.38.38,0,0,0-.13.1.56.56,0,0,0-.1.15.53.53,0,0,0,0,.17.25.25,0,0,0,0,.17.21.21,0,0,0,.06.1.41.41,0,0,0,.11.07.35.35,0,0,0,.14,0l.12,0a.45.45,0,0,0,.14-.1A.71.71,0,0,0,16.61,5.37Z" transform="translate(-1.97 -1.31)"/><path class="cls-1" d="M15.67,5a.53.53,0,0,1-.13.19.38.38,0,0,1-.17.12.45.45,0,0,1-.2,0,.79.79,0,0,1-.2,0l-.17-.11A.48.48,0,0,1,14.7,5a.45.45,0,0,1,0-.2.9.9,0,0,1,.06-.22.57.57,0,0,1,.12-.18A.48.48,0,0,1,15,4.28a.59.59,0,0,1,.2,0,.54.54,0,0,1,.21,0,.54.54,0,0,1,.18.11.42.42,0,0,1,.1.17.34.34,0,0,1,0,.2A.54.54,0,0,1,15.67,5Zm-.15,0a.58.58,0,0,0,0-.18.29.29,0,0,0,0-.16.19.19,0,0,0-.07-.11.3.3,0,0,0-.11-.07l-.14,0a.28.28,0,0,0-.13,0,.51.51,0,0,0-.13.09.46.46,0,0,0-.09.15.41.41,0,0,0,0,.18.45.45,0,0,0,0,.16.33.33,0,0,0,.06.1l.11.08a.34.34,0,0,0,.14,0,.25.25,0,0,0,.12,0,.42.42,0,0,0,.14-.09A.56.56,0,0,0,15.52,4.92Z" transform="translate(-1.97 -1.31)"/><path class="cls-1" d="M18.62,6.18a.52.52,0,0,1-.12.19.54.54,0,0,1-.37.16.65.65,0,0,1-.2,0,.56.56,0,0,1-.17-.11.39.39,0,0,1-.11-.17.34.34,0,0,1,0-.2.59.59,0,0,1,.05-.22.57.57,0,0,1,.12-.18A.61.61,0,0,1,18,5.49a.65.65,0,0,1,.2,0,.54.54,0,0,1,.21,0,.54.54,0,0,1,.18.11.62.62,0,0,1,.11.17.64.64,0,0,1,0,.2A.83.83,0,0,1,18.62,6.18Zm-.15,0A.61.61,0,0,0,18.52,6a.78.78,0,0,0,0-.16.41.41,0,0,0-.07-.11.24.24,0,0,0-.12-.07.25.25,0,0,0-.14,0,.21.21,0,0,0-.12,0,.38.38,0,0,0-.13.09.49.49,0,0,0-.1.15.61.61,0,0,0-.05.18.45.45,0,0,0,0,.16.36.36,0,0,0,.07.1.31.31,0,0,0,.11.08l.13,0a.3.3,0,0,0,.13,0,.38.38,0,0,0,.13-.09A.4.4,0,0,0,18.47,6.13Z" transform="translate(-1.97 -1.31)"/><path class="cls-1" d="M19.8,5.16a.5.5,0,0,1-.13.19.66.66,0,0,1-.17.12.44.44,0,0,1-.2,0,.51.51,0,0,1-.2,0,.45.45,0,0,1-.17-.11.34.34,0,0,1-.1-.16.45.45,0,0,1,0-.2.55.55,0,0,1,.06-.22A.52.52,0,0,1,19,4.58a.36.36,0,0,1,.16-.11.42.42,0,0,1,.2,0,.52.52,0,0,1,.21,0,.57.57,0,0,1,.18.12.39.39,0,0,1,.1.16.35.35,0,0,1,0,.2A.63.63,0,0,1,19.8,5.16Zm-.15,0a.58.58,0,0,0,0-.18.29.29,0,0,0,0-.16.19.19,0,0,0-.07-.11.31.31,0,0,0-.11-.08.24.24,0,0,0-.14,0l-.13,0a.38.38,0,0,0-.13.1.56.56,0,0,0-.1.15A.59.59,0,0,0,19,5a.47.47,0,0,0,0,.17.21.21,0,0,0,.06.1.26.26,0,0,0,.11.07.35.35,0,0,0,.14,0l.12,0a.33.33,0,0,0,.14-.1A.71.71,0,0,0,19.65,5.11Z" transform="translate(-1.97 -1.31)"/><path class="cls-1" d="M20.66,4a.62.62,0,0,1-.12.19.66.66,0,0,1-.17.12.46.46,0,0,1-.2,0,.48.48,0,0,1-.2,0,.39.39,0,0,1-.17-.11A.46.46,0,0,1,19.69,4a.64.64,0,0,1,0-.2.54.54,0,0,1,.05-.22.52.52,0,0,1,.12-.19.63.63,0,0,1,.36-.16.57.57,0,0,1,.22,0,.43.43,0,0,1,.17.12.42.42,0,0,1,.11.16.69.69,0,0,1,0,.2A.49.49,0,0,1,20.66,4Zm-.15,0a.61.61,0,0,0,0-.18.33.33,0,0,0-.09-.27.36.36,0,0,0-.12-.08.23.23,0,0,0-.14,0l-.12,0a.31.31,0,0,0-.13.1.4.4,0,0,0-.1.15.35.35,0,0,0,0,.17.32.32,0,0,0,0,.17.36.36,0,0,0,.07.1.26.26,0,0,0,.11.07l.13,0,.13,0a.42.42,0,0,0,.14-.09A.6.6,0,0,0,20.51,4Z" transform="translate(-1.97 -1.31)"/><path class="cls-1" d="M19.58,3.56a.7.7,0,0,1-.13.19.38.38,0,0,1-.17.12.48.48,0,0,1-.2,0,.79.79,0,0,1-.2,0l-.17-.11a.39.39,0,0,1-.1-.16.52.52,0,0,1,0-.21,1,1,0,0,1,.05-.22A1.4,1.4,0,0,1,18.74,3a.66.66,0,0,1,.17-.12.41.41,0,0,1,.19,0,.54.54,0,0,1,.22,0A.57.57,0,0,1,19.5,3a.44.44,0,0,1,.1.16.64.64,0,0,1,0,.2A.54.54,0,0,1,19.58,3.56Zm-.15-.05a.58.58,0,0,0,0-.18.29.29,0,0,0,0-.16.26.26,0,0,0-.07-.11A.41.41,0,0,0,19.27,3a.4.4,0,0,0-.15,0A.27.27,0,0,0,19,3a.51.51,0,0,0-.13.09,1.3,1.3,0,0,0-.1.15.58.58,0,0,0,0,.18.3.3,0,0,0,0,.16.41.41,0,0,0,.07.11.41.41,0,0,0,.11.07.35.35,0,0,0,.14,0l.12,0a.42.42,0,0,0,.14-.09A.56.56,0,0,0,19.43,3.51Z" transform="translate(-1.97 -1.31)"/><path class="cls-1" d="M17.42,3.26l-.14,0L17.35,3c0-.09.1-.22.17-.38s0-.08.06-.13l.05-.13h0l-.15,0-.21,0,0-.1.31-.07.18,0,.07.11-.12.28-.08.17c0,.07-.07.16-.11.27S17.43,3.24,17.42,3.26Z" transform="translate(-1.97 -1.31)"/><path class="cls-1" d="M16.71,4.48l-.14-.06.07-.17c.05-.09.1-.22.17-.38s0-.07.06-.13l.05-.12h0l-.15,0-.21,0,0-.11.31-.07.18,0,.07.12L17,3.85,16.9,4c0,.07-.07.16-.11.27S16.72,4.46,16.71,4.48Z" transform="translate(-1.97 -1.31)"/><path class="cls-1" d="M17.09,6.14l-.15-.06L17,5.91l.17-.38,0-.13.06-.12h0l-.15,0-.21,0,0-.11.3-.07.19,0,.07.12c0,.09-.08.18-.13.27l-.07.17c0,.07-.07.16-.11.27A.84.84,0,0,0,17.09,6.14Z" transform="translate(-1.97 -1.31)"/><path class="cls-1" d="M15.91,7.16l-.14-.06.07-.16c.05-.1.1-.22.17-.39s0-.07.06-.12l.05-.13h0l-.15,0-.21,0,0-.1.31-.07.18-.05.07.12-.12.28-.08.16L16,7Z" transform="translate(-1.97 -1.31)"/><path class="cls-1" d="M16.53,7.42l-.14-.06a1.65,1.65,0,0,1,.08-.17c0-.09.09-.22.17-.38l.05-.13,0-.13h0l-.15,0-.21,0,0-.1.31-.07.18,0,.07.11-.12.28a1.5,1.5,0,0,0-.07.17,1.78,1.78,0,0,0-.12.27Z" transform="translate(-1.97 -1.31)"/><path class="cls-1" d="M18.42,5.18l-.14-.06L18.35,5l.17-.38s0-.07.06-.13l.05-.12h0l-.15,0-.21,0,0-.11.31-.07.18,0,.07.12-.12.27-.08.17c0,.07-.07.16-.11.27Z" transform="translate(-1.97 -1.31)"/><path class="cls-1" d="M18.2,3.58l-.15-.06s0-.07.08-.16L18.3,3l.05-.12.06-.13h0l-.15,0-.21,0,0-.1.3-.07.19,0,.07.11L18.46,3c0,.09-.06.15-.07.16l-.11.27Z" transform="translate(-1.97 -1.31)"/><path class="cls-2" d="M15.08,15.56,15,15.5l-.07-.07,0-.18a14.41,14.41,0,0,0,1-2.83,7.51,7.51,0,0,0,.27-3.54,12.72,12.72,0,0,0-1-2.15,4.46,4.46,0,0,1-.79-2.47,2.74,2.74,0,0,1,.62-1.45c1-1.22,1.31-1.44,1.39-1.47h.08a.18.18,0,0,1,.18.08.21.21,0,0,1,0,.27S15,3.7,15.46,5.31c.08.21.41,1,.62,1.36l.5.92a9.43,9.43,0,0,1,1.09,3.24,6.44,6.44,0,0,1-1.07,4l-1.4.73h-.12Z" transform="translate(-1.97 -1.31)"/><path class="cls-3" d="M15.08,15.59h0l-.1-.07-.08-.08h0l0-.19a13.35,13.35,0,0,0,1-2.83,7.44,7.44,0,0,0,.28-3.52,13.57,13.57,0,0,0-1-2.15,4.46,4.46,0,0,1-.8-2.49,2.84,2.84,0,0,1,.63-1.45c1-1.23,1.31-1.45,1.4-1.49h0c.14,0,.23,0,.28.09a.24.24,0,0,1,0,.3c-.07.08-1.73,2-1.28,3.6a14.19,14.19,0,0,0,.62,1.35l.5.93a9.38,9.38,0,0,1,1.09,3.25,6.51,6.51,0,0,1-1.06,4h0l-1.41.73h-.13Zm0-.05h.11l1.39-.72a6.56,6.56,0,0,0,1.06-4A9.75,9.75,0,0,0,16.56,7.6l-.5-.92c-.21-.39-.54-1.14-.62-1.36-.47-1.6,1.21-3.57,1.28-3.66a.18.18,0,0,0,0-.24s-.06-.06-.16-.06H16.5c-.09,0-.44.26-1.38,1.47a2.76,2.76,0,0,0-.62,1.43,4.54,4.54,0,0,0,.79,2.46,13.86,13.86,0,0,1,1,2.15A7.54,7.54,0,0,1,16,12.42a13.67,13.67,0,0,1-1,2.84l0,.16.06.06Z" transform="translate(-1.97 -1.31)"/><path class="cls-4" d="M17,7.59l-.07,0a.11.11,0,0,1,0-.15,11.1,11.1,0,0,0,3.7-4.17h0l.09,0c.07,0,.11,0,.11.1v.33a10.06,10.06,0,0,1-3.8,4l-.05,0Z" transform="translate(-1.97 -1.31)"/><path class="cls-5" d="M17,7.59l-.07,0a.11.11,0,0,1,0-.15,11.1,11.1,0,0,0,3.7-4.17h0l.09,0c.07,0,.11,0,.11.1v.33a10.06,10.06,0,0,1-3.8,4l-.05,0Z" transform="translate(-1.97 -1.31)"/><path class="cls-6" d="M16.55,1.33c-.07,0,.34,0-.47.71s-1.9,3.07-.57,4.67a4.45,4.45,0,0,1,.86,3.57s.33-1.34-1.23-3.75a3,3,0,0,1,.17-4A4.7,4.7,0,0,1,16.55,1.33Z" transform="translate(-1.97 -1.31)"/><path class="cls-7" d="M16.55,1.37s.41,0-.39.72-1.82,3.06-.55,4.64a4.32,4.32,0,0,1,.7,3.61s.51-1.1-1.13-3.78.13-4,.13-4A4.23,4.23,0,0,1,16.55,1.37Z" transform="translate(-1.97 -1.31)"/><path class="cls-8" d="M11.58,14.11a.11.11,0,0,1-.11-.11c-.08-3.78,4.06-5.73,4.1-5.75h0c.06,0,.09,0,.1.05a.11.11,0,0,1,0,.15c-3.89,2.37-4,5.52-4,5.55a.12.12,0,0,1-.11.11Z" transform="translate(-1.97 -1.31)"/><path class="cls-5" d="M11.58,14.11a.11.11,0,0,1-.11-.11c-.08-3.78,4.06-5.73,4.1-5.75h0c.06,0,.09,0,.1.05a.11.11,0,0,1,0,.15c-3.89,2.37-4,5.52-4,5.55a.12.12,0,0,1-.11.11Z" transform="translate(-1.97 -1.31)"/><rect class="cls-9" x="8.69" y="8.34" width="0.54" height="8.57" rx="0.27" transform="matrix(0, -1, 1, 0, -5.64, 20.27)"/><rect class="cls-10" x="2.87" y="11.48" width="0.54" height="2.29" rx="0.27" transform="translate(-11.45 14.46) rotate(-90)"/><rect class="cls-11" x="12.79" y="-2.13" width="0.53" height="9.75" rx="0.26" transform="matrix(0, -1, 1, 0, 8.33, 14.49)"/><rect class="cls-12" x="7.06" y="2.27" width="0.53" height="0.96" rx="0.26" transform="translate(2.6 8.77) rotate(-90)"/><rect class="cls-13" x="7.93" y="8.3" width="0.7" height="5.66" rx="0.35" transform="translate(-4.82 18.1) rotate(-90)"/><rect class="cls-14" x="10.81" y="3.07" width="0.46" height="9.3" rx="0.2" transform="translate(1.34 17.45) rotate(-90)"/><rect class="cls-15" x="9.48" y="0.82" width="0.49" height="10.96" rx="0.25" transform="translate(1.46 14.71) rotate(-90)"/><rect class="cls-16" x="13.56" y="1.48" width="0.52" height="6.07" rx="0.26" transform="translate(7.34 17.03) rotate(-90)"/><rect class="cls-17" x="9.67" y="4.09" width="0.52" height="0.85" rx="0.26" transform="translate(3.45 13.14) rotate(-90)"/><rect class="cls-18" x="8.83" y="5.14" width="0.6" height="8.55" rx="0.3" transform="translate(-2.26 17.23) rotate(-90)"/><rect class="cls-19" x="3.53" y="8.69" width="0.6" height="1.44" rx="0.3" transform="translate(-7.55 11.94) rotate(-90)"/><path class="cls-20" d="M15.08,15.48s3.26-1.88,1.78-7.32a6.66,6.66,0,0,1-.21,6.63A3.81,3.81,0,0,1,15.08,15.48Z" transform="translate(-1.97 -1.31)"/><path class="cls-21" d="M15.43,14.71c1.24-1.58,2.47-3.62.76-7.7,0,0,2.68,4.08.16,7.78C16.35,14.79,14.19,16.3,15.43,14.71Z" transform="translate(-1.97 -1.31)"/><rect class="cls-22" x="7.23" y="2.5" width="0.22" height="0.69" rx="0.11" transform="translate(2.53 8.88) rotate(-90)"/><rect class="cls-23" x="7.2" y="2.68" width="0.11" height="0.43" rx="0.05" transform="translate(2.38 8.84) rotate(-90)"/><rect class="cls-22" x="3.55" y="9.2" width="0.22" height="0.69" rx="0.11" transform="translate(-7.86 11.9) rotate(-90)"/><rect class="cls-23" x="3.51" y="9.39" width="0.11" height="0.43" rx="0.05" transform="translate(-8.01 11.86) rotate(-90)"/><rect class="cls-22" x="2.63" y="12.1" width="0.22" height="1.17" rx="0.11" transform="translate(-11.92 14.12) rotate(-90)"/><rect class="cls-23" x="2.35" y="12.53" width="0.11" height="0.43" rx="0.05" transform="translate(-12.31 13.84) rotate(-90)"/><rect class="cls-22" x="9.83" y="4.28" width="0.22" height="0.62" rx="0.1" transform="translate(3.38 13.22) rotate(-90)"/><rect class="cls-23" x="9.8" y="4.45" width="0.11" height="0.39" rx="0.05" transform="translate(3.24 13.19) rotate(-90)"/><rect class="cls-22" x="13.18" y="2.21" width="0.22" height="4.71" rx="0.11" transform="translate(6.75 16.55) rotate(-90)"/><rect class="cls-23" x="11.46" y="4.12" width="0.11" height="1" rx="0.05" transform="translate(4.92 14.83) rotate(-90)"/><rect class="cls-22" x="6.67" y="4" width="0.22" height="4.71" rx="0.11" transform="translate(-1.54 11.82) rotate(-90)"/><rect class="cls-23" x="4.95" y="5.89" width="0.11" height="1" rx="0.05" transform="translate(-3.36 10.09) rotate(-90)"/><rect class="cls-22" x="10.58" y="0.49" width="0.22" height="4.71" rx="0.11" transform="translate(5.87 12.23) rotate(-90)"/><rect class="cls-23" x="8.86" y="2.38" width="0.11" height="1" rx="0.05" transform="translate(4.06 10.49) rotate(-90)"/><rect class="cls-22" x="8.72" y="5.42" width="0.22" height="4.71" rx="0.11" transform="translate(-0.92 15.3) rotate(-90)"/><rect class="cls-23" x="7.01" y="7.33" width="0.11" height="1" rx="0.05" transform="translate(-2.74 13.59) rotate(-90)"/><rect class="cls-22" x="8" y="6.47" width="0.22" height="6.16" rx="0.11" transform="translate(-3.41 16.35) rotate(-90)"/><rect class="cls-23" x="5.56" y="9.09" width="0.11" height="1" rx="0.05" transform="translate(-5.95 13.89) rotate(-90)"/><rect class="cls-22" x="6.87" y="10.06" width="0.22" height="2.51" rx="0.11" transform="translate(-6.31 16.99) rotate(-90)"/><rect class="cls-23" x="6.24" y="10.87" width="0.11" height="1" rx="0.05" transform="translate(-7.05 16.36) rotate(-90)"/><rect class="cls-22" x="7.1" y="10.34" width="0.22" height="4.71" rx="0.11" transform="translate(-7.46 18.6) rotate(-90)"/><rect class="cls-23" x="5.39" y="12.24" width="0.11" height="1" rx="0.05" transform="translate(-9.26 16.88) rotate(-90)"/><path class="cls-24" d="M24,5.8l-.45.42a1.4,1.4,0,0,0-.28-.17A.83.83,0,0,0,22.93,6a.72.72,0,0,0-.57.26,1.45,1.45,0,0,0-.32.63,2.66,2.66,0,0,0-.1.72.94.94,0,0,0,.17.61.56.56,0,0,0,.46.19.86.86,0,0,0,.36-.07,2.11,2.11,0,0,0,.37-.22l.33.49a2,2,0,0,1-.53.32,1.76,1.76,0,0,1-.66.12,1.32,1.32,0,0,1-1-.37,1.45,1.45,0,0,1-.37-1.07,2.84,2.84,0,0,1,.19-1,2,2,0,0,1,.6-.85,1.6,1.6,0,0,1,1.05-.34A1.36,1.36,0,0,1,24,5.8Z" transform="translate(-1.97 -1.31)"/><path class="cls-24" d="M26.79,5.75a1.48,1.48,0,0,1,.36,1.06,2.9,2.9,0,0,1-.19,1,1.89,1.89,0,0,1-.6.85A1.65,1.65,0,0,1,25.27,9a1.34,1.34,0,0,1-1-.37,1.46,1.46,0,0,1-.36-1.06,3.06,3.06,0,0,1,.18-1,2,2,0,0,1,.61-.85,1.66,1.66,0,0,1,1.09-.35A1.38,1.38,0,0,1,26.79,5.75Zm-1.65.52a1.81,1.81,0,0,0-.3.66,3.89,3.89,0,0,0-.08.74,1,1,0,0,0,.14.59.52.52,0,0,0,.43.18.69.69,0,0,0,.57-.28,1.52,1.52,0,0,0,.3-.67,3.33,3.33,0,0,0,.09-.75.87.87,0,0,0-.15-.57A.49.49,0,0,0,25.72,6,.7.7,0,0,0,25.14,6.27Z" transform="translate(-1.97 -1.31)"/><path class="cls-24" d="M30,5.76a1.13,1.13,0,0,1,.44,1A2.42,2.42,0,0,1,30,8.35,1.85,1.85,0,0,1,28.44,9H27.37l.5-3.49h1A2.06,2.06,0,0,1,30,5.76Zm-1.41.31-.33,2.29h.28a.83.83,0,0,0,.81-.47,2.38,2.38,0,0,0,.24-1.1.69.69,0,0,0-.19-.57.82.82,0,0,0-.53-.15Z" transform="translate(-1.97 -1.31)"/><path class="cls-24" d="M33.37,5.47l-.17.59H32l-.12.83h1.09l-.08.58H31.75l-.13.89H33l-.08.6H30.7l.5-3.49Z" transform="translate(-1.97 -1.31)"/><path class="cls-24" d="M24.25,10.22,22.8,12.4l-.18,1.31h-.84L22,12.4l-.82-2.18H22l.44,1.54.87-1.54Z" transform="translate(-1.97 -1.31)"/><path class="cls-24" d="M26.8,10.51a1.45,1.45,0,0,1,.36,1.05,3.08,3.08,0,0,1-.18,1,2,2,0,0,1-.61.85,1.64,1.64,0,0,1-1.08.34,1.35,1.35,0,0,1-1-.37,1.46,1.46,0,0,1-.36-1.06,2.88,2.88,0,0,1,.19-1,1.89,1.89,0,0,1,.6-.85,1.66,1.66,0,0,1,1.09-.35A1.34,1.34,0,0,1,26.8,10.51ZM25.15,11a1.81,1.81,0,0,0-.3.66,4,4,0,0,0-.08.74,1,1,0,0,0,.14.59.52.52,0,0,0,.43.18.7.7,0,0,0,.58-.28,1.63,1.63,0,0,0,.29-.67,3.33,3.33,0,0,0,.09-.75.88.88,0,0,0-.15-.57.49.49,0,0,0-.42-.18A.7.7,0,0,0,25.15,11Z" transform="translate(-1.97 -1.31)"/><path class="cls-24" d="M30.26,12.56a1.56,1.56,0,0,1-.25.64,1.36,1.36,0,0,1-.53.44,1.86,1.86,0,0,1-.77.15,1.37,1.37,0,0,1-.92-.27,1,1,0,0,1-.31-.76,1.62,1.62,0,0,1,0-.22l.34-2.32h.84l-.34,2.31a1.41,1.41,0,0,0,0,.2.45.45,0,0,0,.11.34.46.46,0,0,0,.34.11.61.61,0,0,0,.45-.17.92.92,0,0,0,.2-.5l.34-2.29h.83Z" transform="translate(-1.97 -1.31)"/><path class="cls-24" d="M33.5,11.78a1.36,1.36,0,0,1-.64.46l.67,1.47h-.91l-.54-1.33h-.35l-.19,1.34H30.7l.51-3.49h1.15a1.67,1.67,0,0,1,1,.24.79.79,0,0,1,.34.69A1.13,1.13,0,0,1,33.5,11.78Zm-1.69,0h.37a.59.59,0,0,0,.48-.19.66.66,0,0,0,.15-.43.33.33,0,0,0-.13-.3.73.73,0,0,0-.41-.09H32Z" transform="translate(-1.97 -1.31)"/><path class="cls-24" d="M36.61,10.59l-.44.44a1,1,0,0,0-.73-.29.68.68,0,0,0-.4.1.36.36,0,0,0-.14.29.29.29,0,0,0,.12.24,1.65,1.65,0,0,0,.48.2,1.78,1.78,0,0,1,.69.38.86.86,0,0,1,.23.62,1.16,1.16,0,0,1-.16.59,1.11,1.11,0,0,1-.5.45,1.87,1.87,0,0,1-.87.18,2,2,0,0,1-.76-.13,1.83,1.83,0,0,1-.55-.37l.48-.47a1.15,1.15,0,0,0,.85.34.78.78,0,0,0,.46-.12.43.43,0,0,0,.17-.35.36.36,0,0,0-.12-.28A1.35,1.35,0,0,0,35,12.2a1.89,1.89,0,0,1-.73-.4.79.79,0,0,1-.22-.58.91.91,0,0,1,.16-.52,1.09,1.09,0,0,1,.46-.41,1.79,1.79,0,0,1,.77-.16A1.64,1.64,0,0,1,36.61,10.59Z" transform="translate(-1.97 -1.31)"/><path class="cls-24" d="M39.39,10.22l-.18.59H38l-.12.83h1.08l-.07.58H37.77l-.13.89H39l-.08.6H36.72l.5-3.49Z" transform="translate(-1.97 -1.31)"/><path class="cls-24" d="M40.73,10.22l-.4,2.83H41.7l-.17.66H39.4l.5-3.49Z" transform="translate(-1.97 -1.31)"/><path class="cls-24" d="M44.63,10.22l-.17.59H43.27l-.13.92h1l-.09.59h-1l-.21,1.39H42l.5-3.49Z" transform="translate(-1.97 -1.31)"/></svg>