<svg id="Layer_1" data-name="Layer 1" xmlns="http://www.w3.org/2000/svg" xmlns:xlink="http://www.w3.org/1999/xlink" viewBox="0 0 14.22 4.76"><defs><style>.cls-1{fill:#cfc8d7;}.cls-2{fill:url(#linear-gradient);}.cls-3{fill:#28285b;}.cls-4{fill:url(#linear-gradient-2);}.cls-5{fill:none;stroke-width:0.01px;}.cls-10,.cls-11,.cls-12,.cls-13,.cls-14,.cls-15,.cls-16,.cls-17,.cls-18,.cls-19,.cls-5,.cls-9{stroke:#28285b;stroke-miterlimit:10;}.cls-20,.cls-6{fill:#1d1d1b;}.cls-6{opacity:0.09;}.cls-21,.cls-22,.cls-23,.cls-7{fill:#fff;}.cls-7{opacity:0.39;}.cls-8{fill:url(#linear-gradient-3);}.cls-10,.cls-13,.cls-15,.cls-16,.cls-17,.cls-18,.cls-19,.cls-9{stroke-width:0.02px;}.cls-9{fill:url(#linear-gradient-4);}.cls-10{fill:url(#linear-gradient-5);}.cls-11,.cls-12,.cls-14{stroke-width:0.02px;}.cls-11{fill:url(#linear-gradient-6);}.cls-12{fill:url(#linear-gradient-7);}.cls-13{fill:url(#linear-gradient-8);}.cls-14{fill:url(#linear-gradient-9);}.cls-15{fill:url(#linear-gradient-10);}.cls-16{fill:url(#linear-gradient-11);}.cls-17{fill:url(#linear-gradient-12);}.cls-18{fill:url(#linear-gradient-13);}.cls-19{fill:url(#linear-gradient-14);}.cls-20{opacity:0.16;}.cls-21{opacity:0.36;}.cls-22{opacity:0.26;}.cls-23{opacity:0.55;}.cls-24{fill:#d0c9d8;}</style><linearGradient id="linear-gradient" x1="4.89" y1="6.02" x2="6.34" y2="2.96" gradientUnits="userSpaceOnUse"><stop offset="0" stop-color="#d0c9d8"/><stop offset="0.87" stop-color="#d0c9d8"/><stop offset="0.99" stop-color="#d0c9d8"/></linearGradient><linearGradient id="linear-gradient-2" x1="4.94" y1="4.2" x2="7.14" y2="2.41" xlink:href="#linear-gradient"/><linearGradient id="linear-gradient-3" x1="6.46" y1="3.52" x2="5.16" y2="4.46" xlink:href="#linear-gradient"/><linearGradient id="linear-gradient-4" x1="2.61" y1="4.28" x2="4.87" y2="5.46" gradientTransform="translate(8.61 1.13) rotate(90)" gradientUnits="userSpaceOnUse"><stop offset="0" stop-color="#d0c9d8"/><stop offset="0.24" stop-color="#cdc6d7"/><stop offset="0.42" stop-color="#c5bdd2"/><stop offset="0.57" stop-color="#b7adca"/><stop offset="0.71" stop-color="#a397bf"/><stop offset="0.84" stop-color="#897bb1"/><stop offset="0.96" stop-color="#6a58a0"/><stop offset="0.99" stop-color="#63509c"/></linearGradient><linearGradient id="linear-gradient-5" x1="1.49" y1="4.71" x2="2.11" y2="5.03" gradientTransform="translate(6.67 3.07) rotate(90)" xlink:href="#linear-gradient-4"/><linearGradient id="linear-gradient-6" x1="2.41" y1="1.58" x2="6.19" y2="1.58" gradientTransform="translate(6.69 -3.52) rotate(90)" gradientUnits="userSpaceOnUse"><stop offset="0" stop-color="#d0c9d8"/><stop offset="0.22" stop-color="#cdc8d8"/><stop offset="0.37" stop-color="#c4c7d9"/><stop offset="0.51" stop-color="#b4c4da"/><stop offset="0.63" stop-color="#9ec0db"/><stop offset="0.75" stop-color="#82badd"/><stop offset="0.86" stop-color="#5fb4df"/><stop offset="0.96" stop-color="#36ace1"/><stop offset="0.99" stop-color="#2baae2"/></linearGradient><linearGradient id="linear-gradient-7" x1="3.06" y1="1.51" x2="3.33" y2="1.65" gradientTransform="translate(4.78 -1.61) rotate(90)" xlink:href="#linear-gradient-6"/><linearGradient id="linear-gradient-8" x1="2.76" y1="3.98" x2="4.27" y2="4.77" gradientTransform="translate(7.89 0.86) rotate(90)" gradientUnits="userSpaceOnUse"><stop offset="0" stop-color="#d0c9d8"/><stop offset="0.23" stop-color="#cfc9d5"/><stop offset="0.39" stop-color="#cac8cc"/><stop offset="0.53" stop-color="#c3c7bc"/><stop offset="0.66" stop-color="#b9c6a6"/><stop offset="0.78" stop-color="#acc48a"/><stop offset="0.89" stop-color="#9cc167"/><stop offset="0.99" stop-color="#8cbf44"/></linearGradient><linearGradient id="linear-gradient-9" x1="2.76" y1="3.22" x2="5.52" y2="3.25" gradientTransform="translate(7.67 -1.19) rotate(90)" xlink:href="#linear-gradient-6"/><linearGradient id="linear-gradient-10" x1="2.17" y1="2.76" x2="5.82" y2="2.76" gradientTransform="translate(6.76 -1.23) rotate(90)" xlink:href="#linear-gradient-4"/><linearGradient id="linear-gradient-11" x1="4.35" y1="2.17" x2="6.38" y2="2.17" gradientTransform="translate(7.53 -3.19) rotate(90)" xlink:href="#linear-gradient-8"/><linearGradient id="linear-gradient-12" x1="3.92" y1="2.17" x2="4.21" y2="2.17" gradientTransform="translate(6.24 -1.9) rotate(90)" xlink:href="#linear-gradient-8"/><linearGradient id="linear-gradient-13" x1="2.37" y1="3.8" x2="5.22" y2="3.8" gradientTransform="translate(7.6 0.01) rotate(90)" gradientUnits="userSpaceOnUse"><stop offset="0" stop-color="#d0c9d8"/><stop offset="0.22" stop-color="#d1cad5"/><stop offset="0.37" stop-color="#d3cbcc"/><stop offset="0.51" stop-color="#d7cebc"/><stop offset="0.63" stop-color="#dcd2a6"/><stop offset="0.74" stop-color="#e3d88a"/><stop offset="0.85" stop-color="#ebde67"/><stop offset="0.96" stop-color="#f5e63e"/><stop offset="0.99" stop-color="#f8e831"/></linearGradient><linearGradient id="linear-gradient-14" x1="1.79" y1="3.8" x2="2.27" y2="3.8" gradientTransform="translate(5.84 1.77) rotate(90)" xlink:href="#linear-gradient-13"/></defs><path class="cls-1" d="M6.11,3.67a.16.16,0,0,1,0,.07L6,3.78H5.89l0,0,0-.06a.13.13,0,0,1,0-.06.17.17,0,0,1,0-.07l0-.06a.1.1,0,0,1,0,0l.06,0,.07,0s0,0,.06,0l0,0a.13.13,0,0,1,0,.06A.15.15,0,0,1,6.11,3.67Zm-.05,0a.13.13,0,0,0,0-.06.09.09,0,0,0,0-.05l0,0,0,0H5.92s0,0,0,0l0,.05a.11.11,0,0,0,0,0,.07.07,0,0,0,0,.06s0,0,0,0l0,0H6l0,0Z" transform="translate(-1.41 -1.1)"/><path class="cls-1" d="M5.66,4l0,.06a.1.1,0,0,1,0,0H5.44l-.05,0,0-.05a.15.15,0,0,1,0-.07.2.2,0,0,1,0-.07l0-.06.05,0h.13l.06,0a.21.21,0,0,1,0,.06s0,0,0,.06A.25.25,0,0,1,5.66,4Zm0,0s0,0,0,0,0,0,0-.06l0,0,0,0H5.47l0,0,0,0a.13.13,0,0,0,0,.06.09.09,0,0,0,0,0l0,0,0,0h.08l0,0A.05.05,0,0,0,5.61,4Z" transform="translate(-1.41 -1.1)"/><path class="cls-1" d="M6,4.18l0,.06-.06,0H5.81l0,0,0,0a.25.25,0,0,1,0-.14l0-.06,0,0h.06a.08.08,0,0,1,.07,0L6,4,6,4s0,0,0,.07A.25.25,0,0,1,6,4.18Zm0,0A.14.14,0,0,0,6,4.1a.09.09,0,0,0,0,0L6,4l0,0H5.84l0,0,0,0a.11.11,0,0,0,0,0,.13.13,0,0,0,0,.06l0,0,0,0h.08l0,0A.08.08,0,0,0,6,4.16Z" transform="translate(-1.41 -1.1)"/><path class="cls-1" d="M5.55,4.47a.21.21,0,0,1,0,.06.1.1,0,0,1,0,0H5.33a.09.09,0,0,1,0,0,.1.1,0,0,1,0,0s0,0,0-.07a.25.25,0,0,1,0-.07s0,0,0-.06l0,0h.13a.09.09,0,0,1,.06,0,.1.1,0,0,1,0,0s0,0,0,.06A.25.25,0,0,1,5.55,4.47Zm0,0s0,0,0,0a.43.43,0,0,0,0-.05l0,0,0,0H5.36l0,0,0,0a.13.13,0,0,0,0,.06.09.09,0,0,0,0,.05l0,0,0,0h.08s0,0,.05,0A.08.08,0,0,0,5.5,4.45Z" transform="translate(-1.41 -1.1)"/><path class="cls-1" d="M6.13,4.68l0,.07L6,4.79H5.92l-.06,0a.09.09,0,0,1,0,0,.25.25,0,0,1,0-.07.19.19,0,0,1,0-.07l0-.06,0,0H6a.07.07,0,0,1,.06,0,.09.09,0,0,1,.06,0l0,0a.15.15,0,0,1,0,.07A.14.14,0,0,1,6.13,4.68Zm0,0s0,0,0-.06a.09.09,0,0,0,0-.05l0,0,0,0H5.94l0,0,0,0a.43.43,0,0,1,0,0s0,0,0,.06l0,0,0,0H6l0,0Z" transform="translate(-1.41 -1.1)"/><path class="cls-1" d="M6,5.17l0,.06-.06,0H5.79l-.06,0s0,0,0,0a.19.19,0,0,1,0-.07.25.25,0,0,1,0-.07l0-.06,0,0h.14L6,5,6,5A.15.15,0,0,1,6,5.1.2.2,0,0,1,6,5.17Zm0,0s0,0,0-.06A.11.11,0,0,0,6,5l0,0,0,0H5.82L5.77,5s0,0,0,.05a.14.14,0,0,0,0,.06.43.43,0,0,1,0,0l0,0,0,0h.08l0,0Z" transform="translate(-1.41 -1.1)"/><path class="cls-1" d="M5.32,4.91a.09.09,0,0,1,0,.06l0,0L5.17,5H5.1L5,5l0-.05a.13.13,0,0,1,0-.06A.15.15,0,0,1,5,4.8a.09.09,0,0,1,0-.06.1.1,0,0,1,0,0l.06,0h.07l.06,0,0,0a.13.13,0,0,1,0,.06A.17.17,0,0,1,5.32,4.91Zm-.05,0a.13.13,0,0,0,0-.06.07.07,0,0,0,0,0,.05.05,0,0,0,0,0l0,0H5.13l0,0,0,0,0,.06a.08.08,0,0,0,0,0l0,0,0,0H5.2l0,0Z" transform="translate(-1.41 -1.1)"/><path class="cls-1" d="M5.21,5.34a.09.09,0,0,1,0,.06.1.1,0,0,1,0,0l-.06,0H5a.29.29,0,0,1-.09-.09.13.13,0,0,1,0-.06.15.15,0,0,1,0-.07.09.09,0,0,1,0-.06.1.1,0,0,1,0,0l.06,0h.07l.06,0a.09.09,0,0,1,0,0,.13.13,0,0,1,0,.06A.17.17,0,0,1,5.21,5.34Zm0,0a.13.13,0,0,0,0-.06.07.07,0,0,0,0,0,.08.08,0,0,0,0,0l0,0H5a.08.08,0,0,0,0,0l0,0a.13.13,0,0,0,0,.06.07.07,0,0,0,0,0,.05.05,0,0,0,0,0l0,0h.08l0,0Z" transform="translate(-1.41 -1.1)"/><path class="cls-1" d="M5.63,5.5a.21.21,0,0,1,0,.06.1.1,0,0,1,0,0H5.41a.09.09,0,0,1,0,0,.1.1,0,0,1,0-.05.15.15,0,0,1,0-.07.2.2,0,0,1,0-.07l0-.06s0,0,0,0l.06,0h.07a.13.13,0,0,1,.06,0,.1.1,0,0,1,0,0s0,0,0,.06A.25.25,0,0,1,5.63,5.5Zm0,0s0,0,0-.05a.43.43,0,0,0,0,0s0,0,0,0l0,0H5.44l0,0,0,.05a.13.13,0,0,0,0,.06.09.09,0,0,0,0,0l0,0,0,0h.08s0,0,0,0A.05.05,0,0,0,5.58,5.48Z" transform="translate(-1.41 -1.1)"/><path class="cls-1" d="M6.24,3.91l0,0,0-.05,0-.13s0,0,0,0l0,0H6.18v0l.09,0h.06l0,0,0,.08,0,.06,0,.09A.39.39,0,0,0,6.24,3.91Z" transform="translate(-1.41 -1.1)"/><path class="cls-1" d="M6.16,4.41l0,0,0,0,.05-.13,0,0v0h0l-.06,0v0l.1,0,0,0,0,0,0,.09,0,0,0,.09S6.17,4.4,6.16,4.41Z" transform="translate(-1.41 -1.1)"/><path class="cls-1" d="M5.76,5.73l0,0,0,0,0-.12,0,0v0H5.77l-.06,0v0l.1,0,.06,0,0,0,0,.09,0,0,0,.09S5.77,5.73,5.76,5.73Z" transform="translate(-1.41 -1.1)"/><path class="cls-1" d="M4.71,5.34l0,0,0-.05a.59.59,0,0,0,.05-.13l0,0v0H4.65v0l.1,0L4.8,5l0,0,0,.09s0,.05,0,.05a.46.46,0,0,0,0,.09Z" transform="translate(-1.41 -1.1)"/><path class="cls-1" d="M5.5,5.16h0a.39.39,0,0,1,0-.06l0-.12v0l0,0H5.45v0l.1,0h0l0,0,0,.09,0,.06,0,.08S5.51,5.16,5.5,5.16Z" transform="translate(-1.41 -1.1)"/><path class="cls-1" d="M5.1,4.49l0,0,0-.06,0-.12,0,0v0H5.05v0l.09,0h.06l0,0,0,.09,0,.06,0,.08S5.11,4.48,5.1,4.49Z" transform="translate(-1.41 -1.1)"/><path class="cls-1" d="M5.68,4.7l0,0,0,0,0-.12,0,0v0h0l-.07,0v0l.1,0,.06,0,0,0a.36.36,0,0,1,0,.09l0,0,0,.09S5.69,4.7,5.68,4.7Z" transform="translate(-1.41 -1.1)"/><path class="cls-1" d="M6.45,1.51a.16.16,0,0,1,0,.07l-.06,0H6.22l-.06,0s0,0,0-.06a.13.13,0,0,1,0-.06.22.22,0,0,1,0-.08l0-.06.06,0h.14a.1.1,0,0,1,0,0,.21.21,0,0,1,0,.06.13.13,0,0,1,0,.06A.19.19,0,0,1,6.45,1.51Zm0,0a.14.14,0,0,0,0-.06.13.13,0,0,0,0-.06l0,0,0,0H6.26l0,0,0,0a.13.13,0,0,0,0,.06.13.13,0,0,0,0,.06s0,0,0,0l0,0h.08l0,0Z" transform="translate(-1.41 -1.1)"/><path class="cls-1" d="M6.21,1.92a.21.21,0,0,1,0,.06l0,0H6a.1.1,0,0,1-.05,0,.1.1,0,0,1,0-.05.17.17,0,0,1,0-.07.19.19,0,0,1,0-.07.09.09,0,0,1,0-.06.1.1,0,0,1,0,0l.07,0,.07,0,.06,0,0,.05a.15.15,0,0,1,0,.07A.11.11,0,0,1,6.21,1.92Zm0,0a.14.14,0,0,0,0-.06.07.07,0,0,0,0-.05.05.05,0,0,0,0,0l0,0H6a.05.05,0,0,0,0,0,.09.09,0,0,0,0,.05.14.14,0,0,0,0,.06.09.09,0,0,0,0,0S6,2,6,2L6,2h.09l0,0A.09.09,0,0,0,6.16,1.9Z" transform="translate(-1.41 -1.1)"/><path class="cls-1" d="M6.78,2.15a.16.16,0,0,1,0,.07s0,0-.06,0l-.06,0-.07,0,0,0,0-.06a.15.15,0,0,1,0-.07.25.25,0,0,1,0-.07l0-.06a.1.1,0,0,1,0,0H6.7l.06,0,0,0a.17.17,0,0,1,0,.07A.19.19,0,0,1,6.78,2.15Zm0,0,0,0a.13.13,0,0,0,0-.06s0,0,0,0l0,0H6.59l0,0s0,0,0,.05a.14.14,0,0,0,0,.06.07.07,0,0,0,0,0,.07.07,0,0,0,.06.06h.09a.05.05,0,0,0,0,0A.09.09,0,0,0,6.73,2.13Z" transform="translate(-1.41 -1.1)"/><path class="cls-1" d="M6.34,2.47a.16.16,0,0,1,0,.07l-.06,0-.06,0-.07,0-.06,0s0,0,0-.06a.14.14,0,0,1,0-.07.64.64,0,0,0,0-.07l0-.06.06,0h.13a.09.09,0,0,1,.06,0,.1.1,0,0,1,0,.05.17.17,0,0,1,0,.07A.19.19,0,0,1,6.34,2.47Zm0,0s0,0,0-.06a.43.43,0,0,1,0-.05s0,0,0,0l0,0H6.15l-.05,0,0,0a.13.13,0,0,0,0,.06.07.07,0,0,0,0,.05.05.05,0,0,0,0,0l0,0h.08s0,0,0,0Z" transform="translate(-1.41 -1.1)"/><path class="cls-1" d="M6,2.32a.43.43,0,0,1,0,.07s0,0-.06,0l-.07,0-.06,0s0,0-.06,0a.21.21,0,0,1,0-.06s0,0,0-.07a.25.25,0,0,1,0-.07.21.21,0,0,1,0-.06.1.1,0,0,1,0,0h.14l.06,0,0,.05s0,0,0,.07S6,2.3,6,2.32Zm-.05,0a.07.07,0,0,0,0,0V2.19l0,0,0,0H5.79l0,0,0,0s0,0,0,.06,0,0,0,.06l0,0,0,0h.09s0,0,0,0A.1.1,0,0,0,5.93,2.3Z" transform="translate(-1.41 -1.1)"/><path class="cls-1" d="M7,2.73a.21.21,0,0,1,0,.06l-.06,0H6.73l-.06,0,0,0a.2.2,0,0,1,0-.07.22.22,0,0,1,0-.08.21.21,0,0,0,0-.06s0,0,.06,0l.06,0h.08l.06,0,0,.06a.13.13,0,0,1,0,.06A.24.24,0,0,1,7,2.73Zm0,0a.14.14,0,0,0,0-.06.07.07,0,0,0,0,0s0,0,0,0l0,0H6.77l0,0a.1.1,0,0,0,0,.05.43.43,0,0,0,0,0,.13.13,0,0,0,0,.06s0,0,0,0l0,0h.08l0,0Z" transform="translate(-1.41 -1.1)"/><path class="cls-1" d="M7.35,2.39a.21.21,0,0,1,0,.06.13.13,0,0,1-.06,0H7.12a.1.1,0,0,1,0,0L7,2.4a.2.2,0,0,1,0-.07.24.24,0,0,1,0-.08.21.21,0,0,1,0-.06l0,0h.14l.06,0,0,.06a.13.13,0,0,1,0,.06A.12.12,0,0,1,7.35,2.39Zm0,0a.14.14,0,0,0,0-.06.13.13,0,0,0,0-.06l0,0,0,0H7.16l0,0s0,0,0,0a.14.14,0,0,0,0,.06.13.13,0,0,0,0,.06l0,0,0,0h.09l0,0S7.3,2.39,7.3,2.37Z" transform="translate(-1.41 -1.1)"/><path class="cls-1" d="M7.64,2a.16.16,0,0,1,0,.07l-.06,0-.06,0-.07,0-.06,0,0-.06a.15.15,0,0,1,0-.07.11.11,0,0,1,0-.07l0-.06.06,0h.14l.06,0,0,.05a.17.17,0,0,1,0,.07A.19.19,0,0,1,7.64,2Zm0,0s0,0,0-.05a.13.13,0,0,0,0-.06s0,0,0,0l0,0H7.45l0,0,0,0s0,0,0,.06a.07.07,0,0,0,0,.05.05.05,0,0,0,0,0l0,0h.08a.05.05,0,0,0,0,0Z" transform="translate(-1.41 -1.1)"/><path class="cls-1" d="M7.28,1.85a.43.43,0,0,1,0,.07L7.18,2H7.05L7,1.92a.09.09,0,0,1,0-.06.14.14,0,0,1,0-.07.64.64,0,0,0,0-.07l0-.06.06,0h.13a.09.09,0,0,1,.06,0l0,.05a.2.2,0,0,1,0,.07A.19.19,0,0,1,7.28,1.85Zm0,0a.13.13,0,0,0,0-.06s0,0,0-.06l0,0s0,0,0,0H7.09l0,0,0,.05A.13.13,0,0,0,7,1.8a.13.13,0,0,0,0,.06s0,0,0,0l0,0h.09l0,0Z" transform="translate(-1.41 -1.1)"/><path class="cls-1" d="M6.56,1.75l0,0,0-.05.06-.13v0s0,0,0,0h0l-.07,0v0l.1,0,.06,0,0,0,0,.09,0,.06,0,.09Z" transform="translate(-1.41 -1.1)"/><path class="cls-1" d="M6.32,2.16l0,0,0-.06A.53.53,0,0,0,6.36,2l0,0a.06.06,0,0,0,0,0H6.27v0l.1,0h.06l0,0,0,.09,0,.06a.59.59,0,0,1,0,.08Z" transform="translate(-1.41 -1.1)"/><path class="cls-1" d="M6.45,2.71l0,0,0,0,.05-.13a.05.05,0,0,0,0,0l0-.05H6.4v0l.11,0,.06,0,0,0,0,.09a.1.1,0,0,1,0,.06.46.46,0,0,0,0,.09Z" transform="translate(-1.41 -1.1)"/><path class="cls-1" d="M6.06,3.05,6,3,6,3l0-.13,0,0,0-.05h0L6,2.79v0l.1,0,.07,0,0,0a.36.36,0,0,0,0,.09l0,.06,0,.09Z" transform="translate(-1.41 -1.1)"/><path class="cls-1" d="M6.26,3.14l0,0a.39.39,0,0,1,0-.06.53.53,0,0,0,.06-.13s0,0,0,0a.08.08,0,0,0,0,0H6.21v0l.1,0h.06l0,0-.05.09,0,0a.36.36,0,0,1,0,.09Z" transform="translate(-1.41 -1.1)"/><path class="cls-1" d="M6.89,2.39l0,0,0-.05a.81.81,0,0,0,.06-.13l0,0v0H6.84v0l.1,0,.06,0,0,0,0,.09a.39.39,0,0,0,0,.06l0,.09Z" transform="translate(-1.41 -1.1)"/><path class="cls-1" d="M6.82,1.86l-.05,0,0-.06a.66.66,0,0,1,.06-.12v0a.17.17,0,0,0,0-.05H6.77v0l.11,0h.06l0,0,0,.09a.16.16,0,0,1,0,.06l0,.09A.15.15,0,0,0,6.82,1.86Z" transform="translate(-1.41 -1.1)"/><path class="cls-2" d="M5.78,5.85l0,0c.14-.39.25-.71.33-1a2.43,2.43,0,0,0,.09-1.17,3.36,3.36,0,0,0-.32-.71,1.55,1.55,0,0,1-.27-.84,1,1,0,0,1,.21-.48c.32-.41.43-.48.46-.49s.06.09,0,.21a1.56,1.56,0,0,0-.32,1.12,4.61,4.61,0,0,0,.2.45l.17.3a3.31,3.31,0,0,1,.36,1.08,2.17,2.17,0,0,1-.35,1.34l-.49.24Z" transform="translate(-1.41 -1.1)"/><path class="cls-3" d="M5.8,5.86h0l0,0,.06-.17c.11-.32.2-.59.27-.87a2.42,2.42,0,0,0,.1-1.17,4.92,4.92,0,0,0-.32-.71h0a1.43,1.43,0,0,1-.27-.84.94.94,0,0,1,.21-.48,2,2,0,0,1,.47-.5h0c.08.06,0,.1,0,.22a1.58,1.58,0,0,0-.32,1.11,3.75,3.75,0,0,0,.2.45l.17.31a3.31,3.31,0,0,1,.36,1.08A2.17,2.17,0,0,1,6.3,5.61,3,3,0,0,1,5.8,5.86Zm0,0h0l.49-.25a2.28,2.28,0,0,0,.35-1.33A3.17,3.17,0,0,0,6.27,3.2l-.16-.31a4.07,4.07,0,0,1-.21-.45,1.52,1.52,0,0,1,.33-1.12c.07-.12.09-.15,0-.2a2.27,2.27,0,0,0-.46.49,1,1,0,0,0-.2.48,1.39,1.39,0,0,0,.27.82h0a4.35,4.35,0,0,1,.32.7,2.63,2.63,0,0,1-.09,1.19c-.07.27-.16.54-.27.86l-.06.16Z" transform="translate(-1.41 -1.1)"/><path class="cls-4" d="M6.39,3.18A3.94,3.94,0,0,0,7.63,1.74l.07.12A3.38,3.38,0,0,1,6.44,3.19h0Z" transform="translate(-1.41 -1.1)"/><path class="cls-5" d="M6.39,3.18A3.94,3.94,0,0,0,7.63,1.74l.07.12A3.38,3.38,0,0,1,6.44,3.19h0Z" transform="translate(-1.41 -1.1)"/><path class="cls-6" d="M6.27,1.11s.12,0-.16.24A1.23,1.23,0,0,0,5.92,2.9a1.45,1.45,0,0,1,.29,1.19A1.79,1.79,0,0,0,5.8,2.84a1,1,0,0,1,.06-1.32A1.5,1.5,0,0,1,6.27,1.11Z" transform="translate(-1.41 -1.1)"/><path class="cls-7" d="M6.27,1.12s.14,0-.13.24A1.24,1.24,0,0,0,6,2.91a1.45,1.45,0,0,1,.23,1.2s.17-.36-.38-1.26a1,1,0,0,1,.05-1.33A1.38,1.38,0,0,1,6.27,1.12Z" transform="translate(-1.41 -1.1)"/><path class="cls-8" d="M4.61,5.37l0,0A2.35,2.35,0,0,1,5.94,3.42,2.58,2.58,0,0,0,4.65,5.33l0,0Z" transform="translate(-1.41 -1.1)"/><path class="cls-5" d="M4.61,5.37l0,0A2.35,2.35,0,0,1,5.94,3.42,2.58,2.58,0,0,0,4.65,5.33l0,0Z" transform="translate(-1.41 -1.1)"/><rect class="cls-9" x="3.65" y="3.44" width="0.18" height="2.86" rx="0.09" transform="translate(-2.54 7.51) rotate(-90)"/><rect class="cls-10" x="1.71" y="4.49" width="0.18" height="0.76" rx="0.09" transform="translate(-4.48 5.57) rotate(-90)"/><rect class="cls-11" x="5.02" y="-0.04" width="0.18" height="3.25" rx="0.09" transform="matrix(0, -1, 1, 0, 2.11, 5.59)"/><rect class="cls-12" x="3.11" y="1.42" width="0.18" height="0.32" rx="0.09" transform="translate(0.2 3.68) rotate(-90)"/><rect class="cls-13" x="3.4" y="3.43" width="0.23" height="1.89" rx="0.12" transform="translate(-2.27 6.79) rotate(-90)"/><rect class="cls-14" x="4.36" y="1.69" width="0.15" height="3.1" rx="0.07" transform="translate(-0.22 6.57) rotate(-90)"/><rect class="cls-15" x="3.91" y="0.94" width="0.16" height="3.65" rx="0.08" transform="translate(-0.18 5.66) rotate(-90)"/><rect class="cls-16" x="5.28" y="1.16" width="0.17" height="2.02" rx="0.09" transform="translate(1.78 6.43) rotate(-90)"/><rect class="cls-17" x="3.98" y="2.03" width="0.17" height="0.28" rx="0.09" transform="translate(0.48 5.14) rotate(-90)"/><rect class="cls-18" x="3.7" y="2.38" width="0.2" height="2.85" rx="0.1" transform="translate(-1.42 6.5) rotate(-90)"/><rect class="cls-19" x="1.93" y="3.56" width="0.2" height="0.48" rx="0.1" transform="translate(-3.18 4.73) rotate(-90)"/><path class="cls-20" d="M5.78,5.83s1.09-.63.6-2.44a2.2,2.2,0,0,1-.08,2.2A1.25,1.25,0,0,1,5.78,5.83Z" transform="translate(-1.41 -1.1)"/><path class="cls-21" d="M5.9,5.57A2.23,2.23,0,0,0,6.15,3a2.49,2.49,0,0,1,.06,2.59S5.49,6.1,5.9,5.57Z" transform="translate(-1.41 -1.1)"/><rect class="cls-22" x="3.17" y="1.5" width="0.07" height="0.23" rx="0.04" transform="translate(0.18 3.71) rotate(-90)"/><rect class="cls-23" x="3.15" y="1.56" width="0.04" height="0.14" rx="0.02" transform="translate(0.13 3.7) rotate(-90)"/><rect class="cls-22" x="1.94" y="3.73" width="0.07" height="0.23" rx="0.04" transform="translate(-3.29 4.72) rotate(-90)"/><rect class="cls-23" x="1.92" y="3.79" width="0.04" height="0.14" rx="0.02" transform="translate(-3.34 4.71) rotate(-90)"/><rect class="cls-22" x="1.63" y="4.7" width="0.07" height="0.39" rx="0.04" transform="translate(-4.64 5.46) rotate(-90)"/><rect class="cls-23" x="1.54" y="4.84" width="0.04" height="0.14" rx="0.02" transform="translate(-4.77 5.37) rotate(-90)"/><rect class="cls-22" x="4.03" y="2.09" width="0.07" height="0.21" rx="0.03" transform="translate(0.46 5.16) rotate(-90)"/><rect class="cls-23" x="4.02" y="2.15" width="0.04" height="0.13" rx="0.02" transform="translate(0.41 5.15) rotate(-90)"/><rect class="cls-22" x="5.15" y="1.4" width="0.07" height="1.57" rx="0.04" transform="translate(1.58 6.27) rotate(-90)"/><rect class="cls-23" x="4.57" y="2.04" width="0.04" height="0.33" rx="0.02" transform="translate(0.97 5.7) rotate(-90)"/><rect class="cls-22" x="2.98" y="2" width="0.07" height="1.57" rx="0.04" transform="translate(-1.18 4.7) rotate(-90)"/><rect class="cls-23" x="2.4" y="2.63" width="0.04" height="0.33" rx="0.02" transform="translate(-1.78 4.12) rotate(-90)"/><rect class="cls-22" x="4.28" y="0.83" width="0.07" height="1.57" rx="0.04" transform="translate(1.29 4.83) rotate(-90)"/><rect class="cls-23" x="3.71" y="1.46" width="0.04" height="0.33" rx="0.02" transform="translate(0.69 4.25) rotate(-90)"/><rect class="cls-22" x="3.66" y="2.47" width="0.07" height="1.57" rx="0.04" transform="translate(-0.97 5.85) rotate(-90)"/><rect class="cls-23" x="3.09" y="3.11" width="0.04" height="0.33" rx="0.02" transform="translate(-1.58 5.28) rotate(-90)"/><rect class="cls-22" x="3.42" y="2.82" width="0.07" height="2.05" rx="0.04" transform="translate(-1.8 6.2) rotate(-90)"/><rect class="cls-23" x="2.61" y="3.69" width="0.04" height="0.33" rx="0.02" transform="translate(-2.65 5.38) rotate(-90)"/><rect class="cls-22" x="3.04" y="4.02" width="0.07" height="0.84" rx="0.04" transform="translate(-2.77 6.42) rotate(-90)"/><rect class="cls-23" x="2.83" y="4.29" width="0.04" height="0.33" rx="0.02" transform="translate(-3.01 6.21) rotate(-90)"/><rect class="cls-22" x="3.12" y="4.11" width="0.07" height="1.57" rx="0.04" transform="translate(-3.15 6.95) rotate(-90)"/><rect class="cls-23" x="2.55" y="4.75" width="0.04" height="0.33" rx="0.02" transform="translate(-3.75 6.38) rotate(-90)"/><path class="cls-24" d="M8.75,2.6l-.15.14a.27.27,0,0,0-.1-.06l-.1,0a.23.23,0,0,0-.19.09A.53.53,0,0,0,8.1,3a1,1,0,0,0,0,.24.34.34,0,0,0,0,.2.22.22,0,0,0,.16.07.27.27,0,0,0,.12,0l.12-.07.11.16a.54.54,0,0,1-.18.11.46.46,0,0,1-.21,0,.45.45,0,0,1-.34-.13.48.48,0,0,1-.12-.35,1.07,1.07,0,0,1,.06-.35.71.71,0,0,1,.21-.28.53.53,0,0,1,.34-.11A.47.47,0,0,1,8.75,2.6Z" transform="translate(-1.41 -1.1)"/><path class="cls-24" d="M9.68,2.58a.51.51,0,0,1,.12.36,1,1,0,0,1-.06.34.63.63,0,0,1-.2.29.57.57,0,0,1-.36.11.42.42,0,0,1-.34-.13.48.48,0,0,1-.12-.35,1,1,0,0,1,.06-.34A.72.72,0,0,1,9,2.57a.62.62,0,0,1,.37-.11A.45.45,0,0,1,9.68,2.58Zm-.54.17A.48.48,0,0,0,9,3a1,1,0,0,0,0,.24.28.28,0,0,0,.05.2.17.17,0,0,0,.14.06.22.22,0,0,0,.19-.1.5.5,0,0,0,.1-.22,1.07,1.07,0,0,0,0-.25.31.31,0,0,0,0-.19.17.17,0,0,0-.14-.06A.22.22,0,0,0,9.14,2.75Z" transform="translate(-1.41 -1.1)"/><path class="cls-24" d="M10.76,2.58a.39.39,0,0,1,.15.35.81.81,0,0,1-.16.52.62.62,0,0,1-.51.2H9.88l.17-1.16h.32A.73.73,0,0,1,10.76,2.58Zm-.46.11-.11.76h.09a.29.29,0,0,0,.27-.15.87.87,0,0,0,.08-.37.24.24,0,0,0-.06-.19.27.27,0,0,0-.18-.05Z" transform="translate(-1.41 -1.1)"/><path class="cls-24" d="M11.88,2.49l-.06.19h-.41L11.36,3h.37l0,.2h-.36l-.05.29h.45l0,.2H11l.16-1.16Z" transform="translate(-1.41 -1.1)"/><path class="cls-24" d="M8.84,4.07l-.48.73-.07.43H8l.07-.43L7.8,4.07h.3l.15.51.29-.51Z" transform="translate(-1.41 -1.1)"/><path class="cls-24" d="M9.69,4.17a.48.48,0,0,1,.12.35,1.07,1.07,0,0,1-.06.35.69.69,0,0,1-.2.28.56.56,0,0,1-.37.11.47.47,0,0,1-.34-.12.49.49,0,0,1-.11-.35,1.07,1.07,0,0,1,.06-.35A.56.56,0,0,1,9,4.16.52.52,0,0,1,9.35,4,.42.42,0,0,1,9.69,4.17Zm-.55.17a.55.55,0,0,0-.1.22,1.13,1.13,0,0,0,0,.25A.31.31,0,0,0,9.06,5a.17.17,0,0,0,.14.06A.22.22,0,0,0,9.39,5a.55.55,0,0,0,.1-.22,1.13,1.13,0,0,0,0-.25.34.34,0,0,0,0-.2.17.17,0,0,0-.14-.06A.24.24,0,0,0,9.14,4.34Z" transform="translate(-1.41 -1.1)"/><path class="cls-24" d="M10.84,4.85a.49.49,0,0,1-.08.21.38.38,0,0,1-.18.15.53.53,0,0,1-.26,0,.45.45,0,0,1-.3-.09.31.31,0,0,1-.11-.25s0,0,0-.07L10,4.07h.28l-.11.77s0,0,0,.07a.16.16,0,0,0,0,.11.12.12,0,0,0,.11,0A.18.18,0,0,0,10.49,5a.24.24,0,0,0,.07-.16l.11-.77H11Z" transform="translate(-1.41 -1.1)"/><path class="cls-24" d="M11.92,4.59a.45.45,0,0,1-.21.16l.22.48h-.3l-.18-.44h-.12l-.06.44H11l.17-1.16h.38a.62.62,0,0,1,.33.08.28.28,0,0,1,.11.23A.37.37,0,0,1,11.92,4.59Zm-.56,0h.12a.19.19,0,0,0,.21-.21.1.1,0,0,0,0-.09.26.26,0,0,0-.14,0h-.1Z" transform="translate(-1.41 -1.1)"/><path class="cls-24" d="M13,4.2l-.15.14a.37.37,0,0,0-.24-.1.22.22,0,0,0-.13,0,.09.09,0,0,0,0,.09.08.08,0,0,0,0,.08.49.49,0,0,0,.16.07.7.7,0,0,1,.23.13.27.27,0,0,1,.07.2.35.35,0,0,1-.05.2.36.36,0,0,1-.17.15.6.6,0,0,1-.29.06.66.66,0,0,1-.25,0A.46.46,0,0,1,12,5.09l.16-.15a.36.36,0,0,0,.28.11.21.21,0,0,0,.15,0,.13.13,0,0,0,.06-.11.13.13,0,0,0,0-.1l-.15-.07a.66.66,0,0,1-.24-.13.27.27,0,0,1-.08-.19.3.3,0,0,1,.06-.18.32.32,0,0,1,.15-.13A.53.53,0,0,1,12.56,4,.52.52,0,0,1,13,4.2Z" transform="translate(-1.41 -1.1)"/><path class="cls-24" d="M13.88,4.07l-.05.2h-.42l0,.28h.36l0,.19h-.37l0,.3h.44l0,.19H13l.17-1.16Z" transform="translate(-1.41 -1.1)"/><path class="cls-24" d="M14.33,4.07,14.2,5h.46l-.06.21h-.71l.16-1.16Z" transform="translate(-1.41 -1.1)"/><path class="cls-24" d="M15.63,4.07l-.06.2h-.39l0,.31h.35l0,.19h-.34L15,5.23h-.28l.17-1.16Z" transform="translate(-1.41 -1.1)"/></svg>