<svg id="Layer_1" data-name="Layer 1" xmlns="http://www.w3.org/2000/svg" xmlns:xlink="http://www.w3.org/1999/xlink" viewBox="0 0 71.1 23.82"><defs><style>.cls-1{fill:#cfc8d7;}.cls-2{fill:url(#linear-gradient);}.cls-3{fill:#28285b;}.cls-4{fill:url(#linear-gradient-2);}.cls-5{fill:none;stroke-width:0.05px;}.cls-10,.cls-11,.cls-12,.cls-13,.cls-14,.cls-15,.cls-16,.cls-17,.cls-18,.cls-19,.cls-5,.cls-9{stroke:#28285b;stroke-miterlimit:10;}.cls-20,.cls-6{fill:#1d1d1b;}.cls-6{opacity:0.09;}.cls-21,.cls-22,.cls-23,.cls-7{fill:#fff;}.cls-7{opacity:0.39;}.cls-8{fill:url(#linear-gradient-3);}.cls-10,.cls-13,.cls-15,.cls-16,.cls-17,.cls-18,.cls-19,.cls-9{stroke-width:0.08px;}.cls-9{fill:url(#linear-gradient-4);}.cls-10{fill:url(#linear-gradient-5);}.cls-11,.cls-12,.cls-14{stroke-width:0.12px;}.cls-11{fill:url(#linear-gradient-6);}.cls-12{fill:url(#linear-gradient-7);}.cls-13{fill:url(#linear-gradient-8);}.cls-14{fill:url(#linear-gradient-9);}.cls-15{fill:url(#linear-gradient-10);}.cls-16{fill:url(#linear-gradient-11);}.cls-17{fill:url(#linear-gradient-12);}.cls-18{fill:url(#linear-gradient-13);}.cls-19{fill:url(#linear-gradient-14);}.cls-20{opacity:0.16;}.cls-21{opacity:0.36;}.cls-22{opacity:0.26;}.cls-23{opacity:0.55;}.cls-24{fill:#d0c9d8;}</style><linearGradient id="linear-gradient" x1="18.9" y1="25.11" x2="26.19" y2="9.76" gradientUnits="userSpaceOnUse"><stop offset="0" stop-color="#d0c9d8"/><stop offset="0.87" stop-color="#d0c9d8"/><stop offset="0.99" stop-color="#d0c9d8"/></linearGradient><linearGradient id="linear-gradient-2" x1="18.98" y1="16.16" x2="30.27" y2="6.94" xlink:href="#linear-gradient"/><linearGradient id="linear-gradient-3" x1="26.92" y1="12.52" x2="20.32" y2="17.28" xlink:href="#linear-gradient"/><linearGradient id="linear-gradient-4" x1="7.51" y1="16.42" x2="18.84" y2="22.32" gradientTransform="translate(32.54 6.2) rotate(90)" gradientUnits="userSpaceOnUse"><stop offset="0" stop-color="#d0c9d8"/><stop offset="0.24" stop-color="#cdc6d7"/><stop offset="0.42" stop-color="#c5bdd2"/><stop offset="0.57" stop-color="#b7adca"/><stop offset="0.71" stop-color="#a397bf"/><stop offset="0.84" stop-color="#897bb1"/><stop offset="0.96" stop-color="#6a58a0"/><stop offset="0.99" stop-color="#63509c"/></linearGradient><linearGradient id="linear-gradient-5" x1="1.94" y1="18.56" x2="5.03" y2="20.17" gradientTransform="translate(22.85 15.88) rotate(90)" xlink:href="#linear-gradient-4"/><linearGradient id="linear-gradient-6" x1="6.52" y1="2.92" x2="25.42" y2="2.92" gradientTransform="translate(22.92 -17.08) rotate(90)" gradientUnits="userSpaceOnUse"><stop offset="0" stop-color="#d0c9d8"/><stop offset="0.22" stop-color="#cdc8d8"/><stop offset="0.37" stop-color="#c4c7d9"/><stop offset="0.51" stop-color="#b4c4da"/><stop offset="0.63" stop-color="#9ec0db"/><stop offset="0.75" stop-color="#82badd"/><stop offset="0.86" stop-color="#5fb4df"/><stop offset="0.96" stop-color="#36ace1"/><stop offset="0.99" stop-color="#2baae2"/></linearGradient><linearGradient id="linear-gradient-7" x1="9.78" y1="2.57" x2="11.13" y2="3.27" gradientTransform="translate(13.37 -7.54) rotate(90)" xlink:href="#linear-gradient-6"/><linearGradient id="linear-gradient-8" x1="8.28" y1="14.92" x2="15.81" y2="18.84" gradientTransform="translate(28.93 4.84) rotate(90)" gradientUnits="userSpaceOnUse"><stop offset="0" stop-color="#d0c9d8"/><stop offset="0.23" stop-color="#cfc9d5"/><stop offset="0.39" stop-color="#cac8cc"/><stop offset="0.53" stop-color="#c3c7bc"/><stop offset="0.66" stop-color="#b9c6a6"/><stop offset="0.78" stop-color="#acc48a"/><stop offset="0.89" stop-color="#9cc167"/><stop offset="0.99" stop-color="#8cbf44"/></linearGradient><linearGradient id="linear-gradient-9" x1="8.26" y1="11.12" x2="22.08" y2="11.26" gradientTransform="translate(27.85 -5.44) rotate(90)" xlink:href="#linear-gradient-6"/><linearGradient id="linear-gradient-10" x1="5.33" y1="8.83" x2="23.59" y2="8.83" gradientTransform="translate(23.28 -5.63) rotate(90)" xlink:href="#linear-gradient-4"/><linearGradient id="linear-gradient-11" x1="16.23" y1="5.86" x2="26.35" y2="5.86" gradientTransform="translate(27.15 -15.43) rotate(90)" xlink:href="#linear-gradient-8"/><linearGradient id="linear-gradient-12" x1="14.1" y1="5.86" x2="15.52" y2="5.86" gradientTransform="translate(20.67 -8.95) rotate(90)" xlink:href="#linear-gradient-8"/><linearGradient id="linear-gradient-13" x1="6.34" y1="14.02" x2="20.58" y2="14.02" gradientTransform="translate(27.48 0.57) rotate(90)" gradientUnits="userSpaceOnUse"><stop offset="0" stop-color="#d0c9d8"/><stop offset="0.22" stop-color="#d1cad5"/><stop offset="0.37" stop-color="#d3cbcc"/><stop offset="0.51" stop-color="#d7cebc"/><stop offset="0.63" stop-color="#dcd2a6"/><stop offset="0.74" stop-color="#e3d88a"/><stop offset="0.85" stop-color="#ebde67"/><stop offset="0.96" stop-color="#f5e63e"/><stop offset="0.99" stop-color="#f8e831"/></linearGradient><linearGradient id="linear-gradient-14" x1="3.44" y1="14.02" x2="5.84" y2="14.02" gradientTransform="translate(18.66 9.39) rotate(90)" xlink:href="#linear-gradient-13"/></defs><path class="cls-1" d="M25,13.38a1.08,1.08,0,0,1-.19.31.86.86,0,0,1-.27.2,1.08,1.08,0,0,1-.31.07.91.91,0,0,1-.32-.06.88.88,0,0,1-.28-.17.64.64,0,0,1-.18-.25.87.87,0,0,1-.06-.32.92.92,0,0,1,.07-.36,1.14,1.14,0,0,1,.18-.3.92.92,0,0,1,.25-.19.69.69,0,0,1,.32-.08.8.8,0,0,1,.34,0,1,1,0,0,1,.29.18.83.83,0,0,1,.18.25,1.19,1.19,0,0,1,.05.32A.91.91,0,0,1,25,13.38Zm-.24-.08a1.4,1.4,0,0,0,.06-.28.71.71,0,0,0,0-.26.66.66,0,0,0-.12-.17.4.4,0,0,0-.19-.11.39.39,0,0,0-.23,0,.55.55,0,0,0-.39.21.61.61,0,0,0-.15.24.74.74,0,0,0-.06.28.5.5,0,0,0,.05.27.57.57,0,0,0,.11.16.78.78,0,0,0,.18.11.58.58,0,0,0,.22,0,.41.41,0,0,0,.19,0,.69.69,0,0,0,.22-.16A.7.7,0,0,0,24.78,13.3Z" transform="translate(-1.53 -0.49)"/><path class="cls-1" d="M22.79,15.2a1.08,1.08,0,0,1-.19.31.86.86,0,0,1-.27.2,1.08,1.08,0,0,1-.31.07.87.87,0,0,1-.32-.06.88.88,0,0,1-.28-.17.64.64,0,0,1-.18-.25.7.7,0,0,1-.06-.32.92.92,0,0,1,.07-.36.79.79,0,0,1,.18-.29.69.69,0,0,1,.25-.2.65.65,0,0,1,.31-.08.85.85,0,0,1,.35,0,1.19,1.19,0,0,1,.29.18.66.66,0,0,1,.17.25.9.9,0,0,1,0,.67Zm-.25-.08a1,1,0,0,0,.07-.28.55.55,0,0,0-.05-.26.45.45,0,0,0-.11-.17.52.52,0,0,0-.19-.12.47.47,0,0,0-.23,0,.59.59,0,0,0-.19.05.73.73,0,0,0-.21.16.72.72,0,0,0-.14.24.74.74,0,0,0-.06.28.5.5,0,0,0,.05.27.42.42,0,0,0,.11.16.78.78,0,0,0,.18.11.51.51,0,0,0,.21,0,.45.45,0,0,0,.2,0,.65.65,0,0,0,.21-.16A.49.49,0,0,0,22.54,15.12Z" transform="translate(-1.53 -0.49)"/><path class="cls-1" d="M24.64,15.89a1.08,1.08,0,0,1-.19.31.7.7,0,0,1-.27.19.67.67,0,0,1-.31.07.89.89,0,0,1-.32-.05.88.88,0,0,1-.28-.17.72.72,0,0,1-.18-.25.88.88,0,0,1-.06-.33.91.91,0,0,1,.07-.35.75.75,0,0,1,.18-.3.92.92,0,0,1,.25-.19.65.65,0,0,1,.31-.08.85.85,0,0,1,.35,0,.79.79,0,0,1,.29.18.59.59,0,0,1,.17.25.87.87,0,0,1,.06.32A1,1,0,0,1,24.64,15.89Zm-.25-.08a1,1,0,0,0,.07-.29.69.69,0,0,0,0-.25.52.52,0,0,0-.12-.17.52.52,0,0,0-.19-.12.47.47,0,0,0-.23,0,.41.41,0,0,0-.19.05.49.49,0,0,0-.2.16.61.61,0,0,0-.15.24.71.71,0,0,0-.06.28.47.47,0,0,0,0,.26.46.46,0,0,0,.11.16.42.42,0,0,0,.18.11.56.56,0,0,0,.21,0,.59.59,0,0,0,.2,0,.69.69,0,0,0,.22-.16A.72.72,0,0,0,24.39,15.81Z" transform="translate(-1.53 -0.49)"/><path class="cls-1" d="M22.24,17.35a.89.89,0,0,1-.19.31.86.86,0,0,1-.27.2,1.08,1.08,0,0,1-.31.07,1,1,0,0,1-.32-.06.73.73,0,0,1-.28-.17.66.66,0,0,1-.17-.24.78.78,0,0,1-.07-.33,1,1,0,0,1,.25-.65.82.82,0,0,1,.26-.2.75.75,0,0,1,.31-.08,1,1,0,0,1,.34.05,1,1,0,0,1,.29.18.76.76,0,0,1,.18.26.81.81,0,0,1,.06.31A.93.93,0,0,1,22.24,17.35ZM22,17.28a.79.79,0,0,0,.06-.29.75.75,0,0,0,0-.26.66.66,0,0,0-.12-.17.54.54,0,0,0-.18-.11.7.7,0,0,0-.23,0l-.2.05a.74.74,0,0,0-.2.16,1,1,0,0,0-.15.24.75.75,0,0,0-.06.29.58.58,0,0,0,.05.26.91.91,0,0,0,.11.16.54.54,0,0,0,.18.11.6.6,0,0,0,.22,0,.65.65,0,0,0,.2,0,.8.8,0,0,0,.21-.15A1,1,0,0,0,22,17.28Z" transform="translate(-1.53 -0.49)"/><path class="cls-1" d="M25.15,18.43a1,1,0,0,1-.19.31.73.73,0,0,1-.27.2,1.08,1.08,0,0,1-.31.07,1,1,0,0,1-.32-.06.85.85,0,0,1-.28-.16.79.79,0,0,1-.17-.25.78.78,0,0,1-.07-.33.87.87,0,0,1,.07-.35,1.09,1.09,0,0,1,.18-.3,1.16,1.16,0,0,1,.25-.2.84.84,0,0,1,.32-.08,1,1,0,0,1,.63.23.76.76,0,0,1,.18.26.81.81,0,0,1,.06.31A1.17,1.17,0,0,1,25.15,18.43Zm-.24-.07a.79.79,0,0,0,.06-.29.75.75,0,0,0,0-.26.66.66,0,0,0-.12-.17.5.5,0,0,0-.19-.11.6.6,0,0,0-.22,0l-.2.05a.74.74,0,0,0-.2.16,1,1,0,0,0-.15.24.75.75,0,0,0-.06.29.58.58,0,0,0,.05.26.91.91,0,0,0,.11.16.54.54,0,0,0,.18.11.6.6,0,0,0,.22,0,.73.73,0,0,0,.2-.05.51.51,0,0,0,.21-.15A1,1,0,0,0,24.91,18.36Z" transform="translate(-1.53 -0.49)"/><path class="cls-1" d="M24.51,20.84a1.08,1.08,0,0,1-.19.31.82.82,0,0,1-.27.2,1.08,1.08,0,0,1-.31.07.87.87,0,0,1-.32-.06.73.73,0,0,1-.28-.17A.69.69,0,0,1,23,21a1,1,0,0,1-.07-.33,1.11,1.11,0,0,1,.08-.35.75.75,0,0,1,.18-.3.69.69,0,0,1,.25-.2.79.79,0,0,1,.31-.08.66.66,0,0,1,.34.06.87.87,0,0,1,.3.17.73.73,0,0,1,.17.26.81.81,0,0,1,.06.31A.91.91,0,0,1,24.51,20.84Zm-.25-.07a1.11,1.11,0,0,0,.07-.29.55.55,0,0,0,0-.26.45.45,0,0,0-.11-.17.59.59,0,0,0-.19-.11.66.66,0,0,0-.23,0l-.19.05a1,1,0,0,0-.21.16.72.72,0,0,0-.14.24,1,1,0,0,0-.07.29.58.58,0,0,0,.06.26.42.42,0,0,0,.11.16.54.54,0,0,0,.18.11.52.52,0,0,0,.21,0,.65.65,0,0,0,.2-.05.8.8,0,0,0,.21-.15A.61.61,0,0,0,24.26,20.77Z" transform="translate(-1.53 -0.49)"/><path class="cls-1" d="M21.07,19.56a1.13,1.13,0,0,1-.19.32.83.83,0,0,1-.58.26.87.87,0,0,1-.32-.06.85.85,0,0,1-.28-.16.72.72,0,0,1-.18-.25.92.92,0,0,1-.06-.33.91.91,0,0,1,.07-.35.89.89,0,0,1,.18-.3,1,1,0,0,1,.25-.2,1,1,0,0,1,.31-.08,1.07,1.07,0,0,1,.35.06.79.79,0,0,1,.29.18.59.59,0,0,1,.17.25.87.87,0,0,1,0,.66Zm-.25-.07a1,1,0,0,0,.07-.29.51.51,0,0,0-.05-.25.34.34,0,0,0-.11-.17.52.52,0,0,0-.19-.12.66.66,0,0,0-.23,0,.6.6,0,0,0-.19.06.55.55,0,0,0-.2.15.73.73,0,0,0-.15.25.71.71,0,0,0-.06.28.47.47,0,0,0,.05.26.36.36,0,0,0,.11.16.42.42,0,0,0,.18.11.52.52,0,0,0,.21,0,.46.46,0,0,0,.2-.05.62.62,0,0,0,.22-.15A.72.72,0,0,0,20.82,19.49Z" transform="translate(-1.53 -0.49)"/><path class="cls-1" d="M20.52,21.72a.89.89,0,0,1-.19.31.7.7,0,0,1-.27.19.67.67,0,0,1-.31.07.74.74,0,0,1-.32-.05.88.88,0,0,1-.28-.17.62.62,0,0,1-.17-.25.72.72,0,0,1-.07-.33,1.15,1.15,0,0,1,.07-.35,1.26,1.26,0,0,1,.18-.3,1,1,0,0,1,.26-.19.62.62,0,0,1,.31-.08.8.8,0,0,1,.34.05.71.71,0,0,1,.29.18.83.83,0,0,1,.18.25.87.87,0,0,1,.06.32A1,1,0,0,1,20.52,21.72Zm-.24-.08a.74.74,0,0,0,.06-.28.55.55,0,0,0,0-.26.52.52,0,0,0-.12-.17.57.57,0,0,0-.18-.12.49.49,0,0,0-.23,0,.46.46,0,0,0-.2,0,.59.59,0,0,0-.2.16,1,1,0,0,0-.15.24.74.74,0,0,0-.06.28.65.65,0,0,0,.05.27.57.57,0,0,0,.12.15.34.34,0,0,0,.17.11.6.6,0,0,0,.22,0,.52.52,0,0,0,.41-.2A1,1,0,0,0,20.28,21.64Z" transform="translate(-1.53 -0.49)"/><path class="cls-1" d="M22.64,22.5a1,1,0,0,1-.19.31.73.73,0,0,1-.27.2.82.82,0,0,1-.31.07.91.91,0,0,1-.32-.06.85.85,0,0,1-.28-.16.83.83,0,0,1-.18-.25,1,1,0,0,1-.06-.33.91.91,0,0,1,.07-.35,1.09,1.09,0,0,1,.18-.3,1,1,0,0,1,.25-.2.79.79,0,0,1,.31-.08,1.07,1.07,0,0,1,.35.06.92.92,0,0,1,.29.17.69.69,0,0,1,.17.26.81.81,0,0,1,.06.31A.91.91,0,0,1,22.64,22.5Zm-.25-.07a1,1,0,0,0,.07-.29.66.66,0,0,0,0-.25.57.57,0,0,0-.12-.18.68.68,0,0,0-.19-.11.66.66,0,0,0-.23,0l-.19.05a.74.74,0,0,0-.2.16.82.82,0,0,0-.21.53.47.47,0,0,0,0,.26.57.57,0,0,0,.11.16.54.54,0,0,0,.18.11.56.56,0,0,0,.21,0,.42.42,0,0,0,.2-.05.62.62,0,0,0,.22-.15A.72.72,0,0,0,22.39,22.43Z" transform="translate(-1.53 -0.49)"/><path class="cls-1" d="M25.68,14.54l-.23-.08s.05-.13.11-.27.15-.36.25-.62c0-.05,0-.12.08-.21l.08-.2h0l-.23,0-.34.07,0-.16.48-.13.29-.08.12.18-.18.45L26,13.8c-.05.12-.1.27-.17.44Z" transform="translate(-1.53 -0.49)"/><path class="cls-1" d="M25.3,17.05,25.07,17l.11-.27.25-.62s0-.11.08-.2.06-.15.08-.2h0l-.23.05-.34.07,0-.16.48-.13.29-.08.12.18-.18.45-.11.27-.17.43C25.35,16.92,25.31,17,25.3,17.05Z" transform="translate(-1.53 -0.49)"/><path class="cls-1" d="M23.3,23.67l-.23-.09.11-.27.25-.62c0-.05,0-.11.08-.2s.06-.16.08-.21h0l-.23,0L23,22.4l0-.17.48-.13.29-.07.12.18q-.09.21-.18.45l-.11.27c0,.11-.1.26-.17.43S23.31,23.63,23.3,23.67Z" transform="translate(-1.53 -0.49)"/><path class="cls-1" d="M18,21.7l-.23-.08s0-.13.11-.27.15-.36.25-.62c0-.05,0-.12.08-.21l.08-.2h0l-.23.05-.34.07,0-.16.48-.13.29-.08.12.18-.18.45-.11.27c-.05.12-.1.27-.17.44Z" transform="translate(-1.53 -0.49)"/><path class="cls-1" d="M22,20.83l-.23-.09.11-.27c.06-.15.15-.35.25-.62,0-.05.05-.11.08-.2s.06-.16.08-.21h0l-.24,0-.33.07,0-.17.48-.13.29-.07.12.18-.18.45-.11.27c0,.12-.1.26-.16.43S22,20.79,22,20.83Z" transform="translate(-1.53 -0.49)"/><path class="cls-1" d="M20,17.43l-.23-.08.11-.27c.07-.15.15-.36.25-.62l.08-.2c0-.09.06-.16.08-.21h0l-.24,0-.33.08,0-.17.48-.13.29-.08.13.19c-.06.14-.12.29-.19.44l-.1.27c-.05.12-.11.27-.17.44Z" transform="translate(-1.53 -0.49)"/><path class="cls-1" d="M22.9,18.51l-.23-.08.11-.27c.06-.15.15-.36.25-.62l.08-.2c0-.09.06-.16.08-.21h0l-.24,0-.33.08,0-.17.48-.13.29-.07.12.18c0,.14-.12.29-.18.44a1.55,1.55,0,0,1-.11.27c0,.12-.1.27-.16.44Z" transform="translate(-1.53 -0.49)"/><path class="cls-1" d="M26.73,2.58a1,1,0,0,1-.21.32.91.91,0,0,1-.29.19.87.87,0,0,1-.32.06.8.8,0,0,1-.34-.07.75.75,0,0,1-.28-.18.8.8,0,0,1-.18-.27.78.78,0,0,1-.05-.34,1,1,0,0,1,.08-.37,1.12,1.12,0,0,1,.2-.3.86.86,0,0,1,.27-.2.88.88,0,0,1,.33-.07.92.92,0,0,1,.36.07.91.91,0,0,1,.3.19,1,1,0,0,1,.17.27.78.78,0,0,1,.05.34A.87.87,0,0,1,26.73,2.58Zm-.25-.09a.82.82,0,0,0,.07-.3.63.63,0,0,0,0-.27.58.58,0,0,0-.11-.18.56.56,0,0,0-.2-.12A.5.5,0,0,0,26,1.57a.65.65,0,0,0-.21.05.72.72,0,0,0-.22.15,1,1,0,0,0-.16.25.82.82,0,0,0-.07.3.51.51,0,0,0,0,.27.5.5,0,0,0,.11.17.41.41,0,0,0,.19.12.44.44,0,0,0,.22.05.52.52,0,0,0,.21,0,.65.65,0,0,0,.23-.15A.89.89,0,0,0,26.48,2.49Z" transform="translate(-1.53 -0.49)"/><path class="cls-1" d="M25.55,4.6a1.21,1.21,0,0,1-.22.32.73.73,0,0,1-.28.19.78.78,0,0,1-.33.07,1.3,1.3,0,0,1-.33-.07,1,1,0,0,1-.29-.19.82.82,0,0,1-.23-.61A1.19,1.19,0,0,1,24,4a1,1,0,0,1,.2-.31,1.05,1.05,0,0,1,.27-.2.88.88,0,0,1,.33-.07.92.92,0,0,1,.36.07.84.84,0,0,1,.29.2.8.8,0,0,1,.18.27,1.14,1.14,0,0,1,.05.33A1.35,1.35,0,0,1,25.55,4.6Zm-.26-.09a.84.84,0,0,0,.08-.29.59.59,0,0,0,0-.27.57.57,0,0,0-.12-.18A.43.43,0,0,0,25,3.64a.55.55,0,0,0-.24-.05.65.65,0,0,0-.2.05.54.54,0,0,0-.22.16.78.78,0,0,0-.16.24.9.9,0,0,0-.08.3.69.69,0,0,0,.05.28.45.45,0,0,0,.11.17.57.57,0,0,0,.18.12.6.6,0,0,0,.22,0,.46.46,0,0,0,.21,0,.57.57,0,0,0,.23-.15A.72.72,0,0,0,25.29,4.51Z" transform="translate(-1.53 -0.49)"/><path class="cls-1" d="M28.4,5.77a1.48,1.48,0,0,1-.21.32,1,1,0,0,1-.29.19.92.92,0,0,1-.33.06A1,1,0,0,1,27,6.09a1,1,0,0,1-.17-.27,1,1,0,0,1-.06-.34,1.33,1.33,0,0,1,.09-.37.93.93,0,0,1,.2-.3,1.05,1.05,0,0,1,.27-.2.88.88,0,0,1,.33-.07.84.84,0,0,1,.35.07.91.91,0,0,1,.3.19,1.06,1.06,0,0,1,.18.27,1.27,1.27,0,0,1,0,.34A1.35,1.35,0,0,1,28.4,5.77Zm-.26-.09a.84.84,0,0,0,.08-.3.57.57,0,0,0,0-.26.76.76,0,0,0-.12-.19.52.52,0,0,0-.19-.12.57.57,0,0,0-.24,0,.65.65,0,0,0-.2,0,.54.54,0,0,0-.22.16.78.78,0,0,0-.16.24.84.84,0,0,0-.08.3.65.65,0,0,0,.05.27.39.39,0,0,0,.11.17.59.59,0,0,0,.18.13.6.6,0,0,0,.22,0,.46.46,0,0,0,.21,0A.57.57,0,0,0,28,5.93.72.72,0,0,0,28.14,5.68Z" transform="translate(-1.53 -0.49)"/><path class="cls-1" d="M26.18,7.37a1.48,1.48,0,0,1-.21.32,1,1,0,0,1-.29.19,1,1,0,0,1-.33.06,1,1,0,0,1-.62-.25.77.77,0,0,1-.17-.27,1,1,0,0,1-.06-.34,1.33,1.33,0,0,1,.09-.37.93.93,0,0,1,.2-.3.86.86,0,0,1,.27-.2.72.72,0,0,1,.33-.07.84.84,0,0,1,.35.07.77.77,0,0,1,.3.19.8.8,0,0,1,.18.27,1.27,1.27,0,0,1,.05.34A1.35,1.35,0,0,1,26.18,7.37Zm-.26-.09A.84.84,0,0,0,26,7a.5.5,0,0,0,0-.27.49.49,0,0,0-.11-.18.52.52,0,0,0-.19-.12.57.57,0,0,0-.24,0,.46.46,0,0,0-.2,0,.62.62,0,0,0-.22.15,1,1,0,0,0-.16.25.84.84,0,0,0-.08.3.52.52,0,0,0,0,.27.39.39,0,0,0,.11.17.57.57,0,0,0,.18.12.63.63,0,0,0,.22,0,.46.46,0,0,0,.21,0,.7.7,0,0,0,.23-.15A.72.72,0,0,0,25.92,7.28Z" transform="translate(-1.53 -0.49)"/><path class="cls-1" d="M24.36,6.62a.89.89,0,0,1-.21.32.8.8,0,0,1-.29.2.87.87,0,0,1-.32.06,1,1,0,0,1-.34-.07.92.92,0,0,1-.28-.19.68.68,0,0,1-.18-.26.83.83,0,0,1,0-.35A.8.8,0,0,1,22.78,6,1.08,1.08,0,0,1,23,5.66a.92.92,0,0,1,.28-.19.79.79,0,0,1,.32-.08,1.15,1.15,0,0,1,.36.07.93.93,0,0,1,.3.2.65.65,0,0,1,.17.27.76.76,0,0,1,.05.33A.8.8,0,0,1,24.36,6.62Zm-.25-.08a.82.82,0,0,0,.07-.3.59.59,0,0,0,0-.27A.42.42,0,0,0,24,5.79a.64.64,0,0,0-.19-.13.55.55,0,0,0-.24,0,.65.65,0,0,0-.21,0,.77.77,0,0,0-.22.16,1.07,1.07,0,0,0-.16.25.82.82,0,0,0-.07.29.53.53,0,0,0,0,.28.62.62,0,0,0,.11.17.52.52,0,0,0,.19.12.59.59,0,0,0,.22.05.78.78,0,0,0,.21,0A.87.87,0,0,0,24,6.78,1,1,0,0,0,24.11,6.54Z" transform="translate(-1.53 -0.49)"/><path class="cls-1" d="M29.28,8.64a1,1,0,0,1-.21.32.7.7,0,0,1-.29.19.59.59,0,0,1-.32.06,1,1,0,0,1-.34-.06A.92.92,0,0,1,27.84,9a.8.8,0,0,1-.18-.27.78.78,0,0,1-.05-.34A.8.8,0,0,1,27.7,8a.89.89,0,0,1,.47-.51.88.88,0,0,1,.33-.07.87.87,0,0,1,.35.07.79.79,0,0,1,.3.2.65.65,0,0,1,.17.27.72.72,0,0,1,.05.33A.87.87,0,0,1,29.28,8.64ZM29,8.55a1.15,1.15,0,0,0,.08-.29.77.77,0,0,0,0-.27A.52.52,0,0,0,29,7.8a.62.62,0,0,0-.19-.12.57.57,0,0,0-.24,0,.72.72,0,0,0-.21,0,.51.51,0,0,0-.21.16.81.81,0,0,0-.17.24.82.82,0,0,0-.07.3.68.68,0,0,0,0,.28.59.59,0,0,0,.12.17.47.47,0,0,0,.18.12.57.57,0,0,0,.22,0,.52.52,0,0,0,.21,0,.65.65,0,0,0,.23-.15A.89.89,0,0,0,29,8.55Z" transform="translate(-1.53 -0.49)"/><path class="cls-1" d="M31.24,6.93a.89.89,0,0,1-.21.32.76.76,0,0,1-.28.2,1,1,0,0,1-.33.06.78.78,0,0,1-.33-.07,1,1,0,0,1-.29-.18A.65.65,0,0,1,29.63,7a.66.66,0,0,1-.06-.34,1,1,0,0,1,.09-.37,1.1,1.1,0,0,1,.2-.31,1,1,0,0,1,.27-.19.72.72,0,0,1,.33-.07.83.83,0,0,1,.35.06.93.93,0,0,1,.3.2.65.65,0,0,1,.17.27.76.76,0,0,1,0,.33A.8.8,0,0,1,31.24,6.93ZM31,6.85a.84.84,0,0,0,.08-.3.59.59,0,0,0,0-.27.42.42,0,0,0-.11-.18A.64.64,0,0,0,30.73,6a.55.55,0,0,0-.24,0,.65.65,0,0,0-.2,0,.82.82,0,0,0-.22.16,1,1,0,0,0-.17.25,1.11,1.11,0,0,0-.07.29.54.54,0,0,0,.05.28.45.45,0,0,0,.11.17.57.57,0,0,0,.18.12.63.63,0,0,0,.22,0,.65.65,0,0,0,.21,0,.73.73,0,0,0,.23-.16A.67.67,0,0,0,31,6.85Z" transform="translate(-1.53 -0.49)"/><path class="cls-1" d="M32.69,5a1.48,1.48,0,0,1-.21.32.85.85,0,0,1-.29.19.87.87,0,0,1-.32.06.8.8,0,0,1-.34-.07.75.75,0,0,1-.28-.18.8.8,0,0,1-.18-.27A1,1,0,0,1,31,4.73a1.33,1.33,0,0,1,.09-.37,1.12,1.12,0,0,1,.2-.3,1.05,1.05,0,0,1,.27-.2.88.88,0,0,1,.33-.07.92.92,0,0,1,.36.07,1,1,0,0,1,.3.19.91.91,0,0,1,.17.28.88.88,0,0,1,.05.33A1.35,1.35,0,0,1,32.69,5Zm-.25-.09a.82.82,0,0,0,.07-.3.57.57,0,0,0,0-.26.52.52,0,0,0-.11-.19.67.67,0,0,0-.2-.12.52.52,0,0,0-.24,0,.65.65,0,0,0-.2,0,.54.54,0,0,0-.22.16.78.78,0,0,0-.16.24,1.11,1.11,0,0,0-.08.3.62.62,0,0,0,.05.27.49.49,0,0,0,.11.18.57.57,0,0,0,.18.12.62.62,0,0,0,.23,0,.52.52,0,0,0,.21,0,.54.54,0,0,0,.22-.15A.74.74,0,0,0,32.44,4.93Z" transform="translate(-1.53 -0.49)"/><path class="cls-1" d="M30.88,4.27a1.07,1.07,0,0,1-.22.32.76.76,0,0,1-.28.2,1,1,0,0,1-.33.06.78.78,0,0,1-.33-.07,1,1,0,0,1-.29-.18.65.65,0,0,1-.17-.27A.66.66,0,0,1,29.2,4a1.05,1.05,0,0,1,.09-.37.93.93,0,0,1,.2-.3.86.86,0,0,1,.27-.2.72.72,0,0,1,.33-.07.71.71,0,0,1,.35.07.77.77,0,0,1,.3.19.65.65,0,0,1,.17.27.76.76,0,0,1,.05.33A.94.94,0,0,1,30.88,4.27Zm-.26-.08a.84.84,0,0,0,.08-.3.59.59,0,0,0,0-.27.42.42,0,0,0-.11-.18.7.7,0,0,0-.19-.13.55.55,0,0,0-.24,0,.65.65,0,0,0-.2,0,.82.82,0,0,0-.22.16.76.76,0,0,0-.16.25.84.84,0,0,0-.08.29.54.54,0,0,0,.05.28.45.45,0,0,0,.11.17.57.57,0,0,0,.18.12.63.63,0,0,0,.22,0,.46.46,0,0,0,.21,0,.73.73,0,0,0,.23-.16A.67.67,0,0,0,30.62,4.19Z" transform="translate(-1.53 -0.49)"/><path class="cls-1" d="M27.28,3.78,27,3.68s.06-.13.13-.28l.28-.64.09-.21.09-.21h0l-.25,0L27,2.44l0-.17.51-.12.3-.07.12.2-.2.46A2.32,2.32,0,0,1,27.6,3c-.05.13-.11.28-.19.45S27.29,3.74,27.28,3.78Z" transform="translate(-1.53 -0.49)"/><path class="cls-1" d="M26.09,5.8l-.23-.1L26,5.42l.28-.64.09-.2c0-.09.07-.16.09-.22h0l-.24,0-.36.06,0-.17.5-.12.31-.07.12.2-.21.46L26.42,5l-.19.44C26.15,5.66,26.11,5.77,26.09,5.8Z" transform="translate(-1.53 -0.49)"/><path class="cls-1" d="M26.72,8.57l-.23-.1a2.18,2.18,0,0,1,.13-.28c.06-.15.16-.37.28-.64L27,7.34l.09-.21h0l-.24,0-.36.06,0-.17.5-.12.31-.07.12.19-.21.46-.12.28c-.06.13-.12.28-.19.45Z" transform="translate(-1.53 -0.49)"/><path class="cls-1" d="M24.76,10.27l-.23-.1.12-.28.29-.63L25,9.05c0-.09.06-.16.09-.22h0l-.24,0-.36.07,0-.18L25,8.64l.3-.07.13.2-.21.46-.12.28c-.06.12-.12.27-.2.45S24.78,10.24,24.76,10.27Z" transform="translate(-1.53 -0.49)"/><path class="cls-1" d="M25.8,10.69l-.24-.09.13-.28c.07-.15.16-.37.28-.64l.09-.21.09-.21h0l-.25,0-.35.06,0-.17L26,9.07l.3-.07.12.19c-.07.15-.13.31-.2.46l-.13.28c-.05.12-.12.27-.19.45Z" transform="translate(-1.53 -0.49)"/><path class="cls-1" d="M28.94,7l-.23-.1.12-.28c.07-.15.17-.36.29-.64l.09-.21.09-.21h0l-.24,0-.36.06,0-.17.5-.12.31-.07.12.19-.21.47-.12.27c-.06.13-.12.28-.19.45Z" transform="translate(-1.53 -0.49)"/><path class="cls-1" d="M28.57,4.31l-.23-.1.12-.28c.08-.15.17-.36.29-.64l.09-.21.09-.21h0l-.24,0L28.32,3l0-.17.51-.12.31-.07.12.2L29,3.27l-.12.27c-.06.13-.12.28-.19.45Z" transform="translate(-1.53 -0.49)"/><path class="cls-2" d="M23.47,24.27a.35.35,0,0,1-.25-.1.35.35,0,0,1-.07-.42A23.27,23.27,0,0,0,24.88,19a12.53,12.53,0,0,0,.46-5.89A23.15,23.15,0,0,0,23.7,9.55c-.06-.08-1.6-2.42-1.33-4.12A4.75,4.75,0,0,1,23.42,3C25,1,25.59.62,25.73.56l.05,0h.1a.38.38,0,0,1,.29.15.38.38,0,0,1,0,.46S23.23,4.5,24,7.19a22.83,22.83,0,0,0,1,2.25L25.88,11a16,16,0,0,1,1.82,5.38A10.9,10.9,0,0,1,25.92,23l0,.06-1.54.78-.77.38Z" transform="translate(-1.53 -0.49)"/><path class="cls-3" d="M23.47,24.31h0a.41.41,0,0,1-.28-.11.4.4,0,0,1-.08-.47A23.19,23.19,0,0,0,24.84,19a12.57,12.57,0,0,0,.46-5.87,23.15,23.15,0,0,0-1.63-3.58s-1.61-2.42-1.34-4.14A4.74,4.74,0,0,1,23.38,3C25,1,25.57.59,25.72.52l.05,0h.1a.39.39,0,0,1,.33.17.41.41,0,0,1,0,.5s-2.9,3.34-2.13,6c.13.37.69,1.62,1,2.26,0,.06.82,1.52.84,1.54a16.24,16.24,0,0,1,1.82,5.39A10.89,10.89,0,0,1,26,23.06l0,.07h0l-1.54.79-.78.38ZM25.79.58l0,0c-.14.06-.71.41-2.3,2.45a4.68,4.68,0,0,0-1,2.39c-.27,1.69,1.31,4.06,1.33,4.09a23.93,23.93,0,0,1,1.64,3.6A12.6,12.6,0,0,1,24.92,19a22.81,22.81,0,0,1-1.74,4.73.32.32,0,0,0,.07.37.29.29,0,0,0,.22.09h.1l.77-.38,1.52-.77,0-.05a10.84,10.84,0,0,0,1.77-6.65A16,16,0,0,0,25.84,11L25,9.46A24.47,24.47,0,0,1,24,7.2c-.8-2.73,2.11-6.06,2.14-6.09a.32.32,0,0,0,0-.4.31.31,0,0,0-.26-.14Z" transform="translate(-1.53 -0.49)"/><path class="cls-4" d="M26.58,11a.21.21,0,0,1-.16-.08.19.19,0,0,1,0-.25A18.78,18.78,0,0,0,32.65,3.7a.18.18,0,0,1,.16-.11.19.19,0,0,1,.18.18v.55c-1.6,3.85-6.14,6.53-6.33,6.64Z" transform="translate(-1.53 -0.49)"/><path class="cls-5" d="M26.58,11a.21.21,0,0,1-.16-.08.19.19,0,0,1,0-.25A18.78,18.78,0,0,0,32.65,3.7a.18.18,0,0,1,.16-.11.19.19,0,0,1,.18.18v.55c-1.6,3.85-6.14,6.53-6.33,6.64Z" transform="translate(-1.53 -0.49)"/><path class="cls-6" d="M25.84.55c-.13,0,.56,0-.8,1.19s-3.15,5.12-.95,7.77a7.39,7.39,0,0,1,1.44,6s.55-2.23-2-6.24.28-6.6.28-6.6A7.59,7.59,0,0,1,25.84.55Z" transform="translate(-1.53 -0.49)"/><path class="cls-7" d="M25.83.61s.69,0-.65,1.21-3,5.09-.91,7.73a7.2,7.2,0,0,1,1.15,6s.86-1.82-1.87-6.3c-2.64-4.32.22-6.64.22-6.64A7.12,7.12,0,0,1,25.83.61Z" transform="translate(-1.53 -0.49)"/><path class="cls-8" d="M17.55,21.84a.18.18,0,0,1-.18-.17c-.13-6.27,6.76-9.54,6.83-9.58h.06a.17.17,0,0,1,.17.08.18.18,0,0,1-.06.24c-6.47,3.94-6.64,9.2-6.64,9.25A.18.18,0,0,1,17.55,21.84Z" transform="translate(-1.53 -0.49)"/><path class="cls-5" d="M17.55,21.84a.18.18,0,0,1-.18-.17c-.13-6.27,6.76-9.54,6.83-9.58h.06a.17.17,0,0,1,.17.08.18.18,0,0,1-.06.24c-6.47,3.94-6.64,9.2-6.64,9.25A.18.18,0,0,1,17.55,21.84Z" transform="translate(-1.53 -0.49)"/><rect class="cls-9" x="12.73" y="12.23" width="0.89" height="14.28" rx="0.45" transform="translate(-7.73 32.05) rotate(-90)"/><rect class="cls-10" x="3.04" y="17.46" width="0.89" height="3.82" rx="0.45" transform="translate(-17.42 22.36) rotate(-90)"/><rect class="cls-11" x="19.56" y="-5.21" width="0.88" height="16.25" rx="0.44" transform="translate(15.55 22.43) rotate(-90)"/><rect class="cls-12" x="10.01" y="2.12" width="0.88" height="1.6" rx="0.44" transform="translate(6 12.88) rotate(-90)"/><rect class="cls-13" x="11.46" y="12.17" width="1.16" height="9.43" rx="0.58" transform="translate(-6.37 28.44) rotate(-90)"/><rect class="cls-14" x="16.26" y="3.45" width="0.77" height="15.51" rx="0.34" transform="translate(3.91 27.36) rotate(-90)"/><rect class="cls-15" x="14.05" y="-0.3" width="0.82" height="18.26" rx="0.41" transform="translate(4.1 22.79) rotate(-90)"/><rect class="cls-16" x="20.85" y="0.8" width="0.87" height="10.12" rx="0.44" transform="translate(13.89 26.66) rotate(-90)"/><rect class="cls-17" x="14.37" y="5.15" width="0.87" height="1.42" rx="0.44" transform="translate(7.41 20.17) rotate(-90)"/><rect class="cls-18" x="12.96" y="6.9" width="1" height="14.24" rx="0.5" transform="translate(-2.1 26.99) rotate(-90)"/><rect class="cls-19" x="4.14" y="12.83" width="1" height="2.4" rx="0.5" transform="translate(-10.92 18.17) rotate(-90)"/><path class="cls-20" d="M23.39,24.13s5.42-3.13,3-12.19A11.1,11.1,0,0,1,26,23,6.42,6.42,0,0,1,23.39,24.13Z" transform="translate(-1.53 -0.49)"/><path class="cls-21" d="M24,22.85c2.06-2.64,4.12-6,1.28-12.83,0,0,4.46,6.8.26,13C25.5,23,21.9,25.5,24,22.85Z" transform="translate(-1.53 -0.49)"/><rect class="cls-22" x="10.31" y="2.5" width="0.36" height="1.15" rx="0.18" transform="translate(5.88 13.07) rotate(-90)"/><rect class="cls-23" x="10.24" y="2.8" width="0.18" height="0.72" rx="0.09" transform="translate(5.63 13) rotate(-90)"/><rect class="cls-22" x="4.17" y="13.67" width="0.36" height="1.15" rx="0.18" transform="translate(-11.44 18.11) rotate(-90)"/><rect class="cls-23" x="4.1" y="13.98" width="0.18" height="0.72" rx="0.09" transform="translate(-11.68 18.04) rotate(-90)"/><rect class="cls-22" x="2.63" y="18.5" width="0.36" height="1.96" rx="0.18" transform="translate(-18.2 21.8) rotate(-90)"/><rect class="cls-23" x="2.16" y="19.21" width="0.18" height="0.72" rx="0.09" transform="translate(-18.85 21.33) rotate(-90)"/><rect class="cls-22" x="14.63" y="5.47" width="0.36" height="1.03" rx="0.17" transform="translate(7.29 20.31) rotate(-90)"/><rect class="cls-23" x="14.58" y="5.76" width="0.18" height="0.65" rx="0.08" transform="translate(7.06 20.26) rotate(-90)"/><rect class="cls-22" x="20.22" y="2.02" width="0.36" height="7.85" rx="0.18" transform="translate(12.91 25.86) rotate(-90)"/><rect class="cls-23" x="17.34" y="5.2" width="0.18" height="1.67" rx="0.09" transform="translate(9.86 22.98) rotate(-90)"/><rect class="cls-22" x="9.37" y="5" width="0.36" height="7.85" rx="0.18" transform="translate(-0.91 17.98) rotate(-90)"/><rect class="cls-23" x="6.5" y="8.15" width="0.18" height="1.67" rx="0.09" transform="translate(-3.93 15.08) rotate(-90)"/><rect class="cls-22" x="15.88" y="-0.85" width="0.36" height="7.85" rx="0.18" transform="translate(11.45 18.65) rotate(-90)"/><rect class="cls-23" x="13.01" y="2.3" width="0.18" height="1.67" rx="0.09" transform="translate(8.43 15.75) rotate(-90)"/><rect class="cls-22" x="12.78" y="7.37" width="0.36" height="7.85" rx="0.18" transform="translate(0.13 23.77) rotate(-90)"/><rect class="cls-23" x="9.93" y="10.55" width="0.18" height="1.67" rx="0.09" transform="translate(-2.9 20.92) rotate(-90)"/><rect class="cls-22" x="11.58" y="9.12" width="0.36" height="10.26" rx="0.18" transform="translate(-4.02 25.52) rotate(-90)"/><rect class="cls-23" x="7.51" y="13.48" width="0.18" height="1.67" rx="0.09" transform="translate(-8.25 21.42) rotate(-90)"/><rect class="cls-22" x="9.7" y="15.1" width="0.36" height="4.19" rx="0.18" transform="translate(-8.85 26.58) rotate(-90)"/><rect class="cls-23" x="8.65" y="16.45" width="0.18" height="1.67" rx="0.09" transform="translate(-10.08 25.53) rotate(-90)"/><rect class="cls-22" x="10.08" y="15.57" width="0.36" height="7.85" rx="0.18" transform="translate(-10.77 29.27) rotate(-90)"/><rect class="cls-23" x="7.24" y="18.74" width="0.18" height="1.67" rx="0.09" transform="translate(-13.78 26.41) rotate(-90)"/><path class="cls-24" d="M38.22,8l-.75.72A1.76,1.76,0,0,0,37,8.42a1.24,1.24,0,0,0-.52-.1,1.18,1.18,0,0,0-1,.43A2.49,2.49,0,0,0,35,9.8,4.63,4.63,0,0,0,34.82,11a1.55,1.55,0,0,0,.27,1,1,1,0,0,0,.78.33,1.38,1.38,0,0,0,.6-.13,3.11,3.11,0,0,0,.61-.36l.54.82a3.43,3.43,0,0,1-.87.53,2.8,2.8,0,0,1-1.1.2A2.22,2.22,0,0,1,34,12.78,2.43,2.43,0,0,1,33.37,11a5,5,0,0,1,.32-1.73,3.28,3.28,0,0,1,1-1.41,2.66,2.66,0,0,1,1.75-.56A2.34,2.34,0,0,1,38.22,8Z" transform="translate(-1.53 -0.49)"/><path class="cls-24" d="M42.89,7.93a2.42,2.42,0,0,1,.6,1.76,5.16,5.16,0,0,1-.3,1.73,3.21,3.21,0,0,1-1,1.41,2.81,2.81,0,0,1-1.82.57,2.21,2.21,0,0,1-1.69-.62,2.44,2.44,0,0,1-.6-1.76,4.92,4.92,0,0,1,.31-1.72,3.18,3.18,0,0,1,1-1.42,2.76,2.76,0,0,1,1.81-.57A2.17,2.17,0,0,1,42.89,7.93Zm-2.74.85a2.89,2.89,0,0,0-.5,1.11,5.92,5.92,0,0,0-.13,1.23,1.59,1.59,0,0,0,.23,1,.87.87,0,0,0,.72.3,1.15,1.15,0,0,0,1-.47,2.75,2.75,0,0,0,.5-1.11,6.14,6.14,0,0,0,.14-1.25,1.54,1.54,0,0,0-.24-1,.86.86,0,0,0-.71-.3A1.16,1.16,0,0,0,40.15,8.78Z" transform="translate(-1.53 -0.49)"/><path class="cls-24" d="M48.3,7.93A1.91,1.91,0,0,1,49,9.65a4.07,4.07,0,0,1-.8,2.6,3.09,3.09,0,0,1-2.59,1H43.86l.84-5.81h1.62A3.58,3.58,0,0,1,48.3,7.93ZM46,8.45l-.55,3.82h.46a1.4,1.4,0,0,0,1.35-.78,4,4,0,0,0,.4-1.84,1.18,1.18,0,0,0-.31-1,1.37,1.37,0,0,0-.89-.25Z" transform="translate(-1.53 -0.49)"/><path class="cls-24" d="M53.87,7.45l-.3,1H51.5l-.21,1.39h1.82l-.13,1H51.16L51,12.27h2.22l-.14,1H49.41l.84-5.81Z" transform="translate(-1.53 -0.49)"/><path class="cls-24" d="M38.67,15.37,36.25,19l-.31,2.18h-1.4L34.86,19l-1.37-3.64H35l.73,2.56,1.46-2.56Z" transform="translate(-1.53 -0.49)"/><path class="cls-24" d="M42.91,15.85a2.42,2.42,0,0,1,.6,1.76,5.16,5.16,0,0,1-.3,1.73,3.23,3.23,0,0,1-1,1.41,2.76,2.76,0,0,1-1.81.57,2.2,2.2,0,0,1-1.69-.62,2.44,2.44,0,0,1-.6-1.76,4.92,4.92,0,0,1,.31-1.72,3.24,3.24,0,0,1,1-1.42,2.79,2.79,0,0,1,1.82-.57A2.2,2.2,0,0,1,42.91,15.85Zm-2.74.85a2.75,2.75,0,0,0-.5,1.11A6,6,0,0,0,39.53,19a1.6,1.6,0,0,0,.24,1,.86.86,0,0,0,.71.3,1.16,1.16,0,0,0,1-.47,3,3,0,0,0,.5-1.11,6.11,6.11,0,0,0,.13-1.25,1.61,1.61,0,0,0-.23-1,.87.87,0,0,0-.72-.3A1.15,1.15,0,0,0,40.17,16.7Z" transform="translate(-1.53 -0.49)"/><path class="cls-24" d="M48.67,19.26a2.33,2.33,0,0,1-.41,1.07,2.23,2.23,0,0,1-.87.73,2.93,2.93,0,0,1-1.3.26,2.24,2.24,0,0,1-1.53-.46A1.6,1.6,0,0,1,44,19.6a2.19,2.19,0,0,1,0-.36l.56-3.87H46l-.55,3.84a2.14,2.14,0,0,0,0,.34.65.65,0,0,0,.75.75,1,1,0,0,0,.75-.28,1.42,1.42,0,0,0,.34-.83l.56-3.82h1.4Z" transform="translate(-1.53 -0.49)"/><path class="cls-24" d="M54.07,18a2.2,2.2,0,0,1-1.06.77l1.12,2.44H52.61L51.71,19h-.58l-.32,2.22H49.42l.83-5.81h1.93a2.74,2.74,0,0,1,1.63.4,1.32,1.32,0,0,1,.57,1.14A1.83,1.83,0,0,1,54.07,18Zm-2.8,0h.61a1,1,0,0,0,.8-.31,1.07,1.07,0,0,0,.25-.72.54.54,0,0,0-.22-.49,1.12,1.12,0,0,0-.68-.16h-.52Z" transform="translate(-1.53 -0.49)"/><path class="cls-24" d="M59.27,16l-.75.72a1.72,1.72,0,0,0-1.21-.48,1.2,1.2,0,0,0-.66.17.57.57,0,0,0-.24.48.48.48,0,0,0,.2.4,3.06,3.06,0,0,0,.8.34,2.94,2.94,0,0,1,1.15.63,1.39,1.39,0,0,1,.39,1A2,2,0,0,1,57.84,21a3.09,3.09,0,0,1-1.45.29,3.13,3.13,0,0,1-1.27-.23,2.8,2.8,0,0,1-.91-.61l.81-.77a1.89,1.89,0,0,0,1.4.57,1.29,1.29,0,0,0,.78-.21.71.71,0,0,0,.28-.58.56.56,0,0,0-.21-.46,2.21,2.21,0,0,0-.73-.36A3,3,0,0,1,55.32,18,1.31,1.31,0,0,1,55,17a1.58,1.58,0,0,1,.26-.88,1.79,1.79,0,0,1,.78-.67,2.76,2.76,0,0,1,1.28-.26A2.72,2.72,0,0,1,59.27,16Z" transform="translate(-1.53 -0.49)"/><path class="cls-24" d="M63.9,15.37l-.3,1H61.53l-.21,1.39h1.82l-.13,1H61.19L61,20.19H63.2l-.14,1H59.44l.84-5.81Z" transform="translate(-1.53 -0.49)"/><path class="cls-24" d="M66.13,15.37l-.67,4.72h2.29l-.29,1.09H63.91l.83-5.81Z" transform="translate(-1.53 -0.49)"/><path class="cls-24" d="M72.63,15.37l-.28,1h-2l-.23,1.54h1.73l-.14,1H70l-.34,2.31H68.28l.84-5.81Z" transform="translate(-1.53 -0.49)"/></svg>